<svg xmlns="http://www.w3.org/2000/svg" xmlns:xlink="http://www.w3.org/1999/xlink" xmlns:lucid="lucid" width="1720.62" height="1328.67"><g transform="translate(-40 1299)" lucid:page-tab-id="0_0"><path d="M0-1296h1760V64H0z" fill="#fff"/><path d="M87-1078c0-16.57 13.43-30 30-30h113c16.57 0 30 13.43 30 30v68c0 16.57-13.43 30-30 30H117c-16.57 0-30-13.43-30-30z" stroke="#474747" fill="none"/><path d="M195-1105.6v3.54c0 6.42-7.1 13.05-15.76 13.05h-46.48c-8.66 0-15.75-6.64-15.75-13.06v-3.54z" fill="#9d5125"/><path d="M147.03-1140c8.03 0 14.82 4.4 18.17 11.67 4.6-3.14 10.92-1.98 14.04 2.65 1.17 1.64 1.7 3.32 1.8 5.3 7.87.68 13.95 8.25 13.95 14.27v1.3c0 6.45-7.1 13-15.76 13h-46.5c-8.64 0-15.74-6.55-15.74-13v-1.3c0-5.02 4.2-11.87 10.06-13.56v-.57c.08-10.95 8.97-19.82 19.97-19.77z" fill="#f58535"/><path d="M135.9-1116.87h3.08l3.1 14.58 3.32-14.54h3.1l-4.6 18.2h-3.7zM150.37-1116.87h5.77c3.5 0 5.04 2.2 5.04 5.3 0 3.1-1.9 5.4-5.33 5.4h-2.57v7.53h-2.9zm2.9 8.5h2.08c1.56 0 2.9-.83 2.9-3.14 0-1.98-.78-3.17-3.1-3.17h-1.87zM174.8-1105.17v.38c0 3.32-1.3 6.52-5.6 6.52-4.6 0-6.04-2.97-6.04-9.47s1.43-9.46 6.05-9.46c5.2 0 5.54 3.8 5.54 5.7v.37h-2.9v-.3c0-1.7-.5-3.64-2.6-3.57-2.08.08-3.1 1.35-3.1 7.22 0 5.87.92 7.3 3.14 7.3 2.42 0 2.7-2.7 2.7-4.42v-.3z" fill="#fff"/><use xlink:href="#a" transform="matrix(1,0,0,1,87,-1010) translate(16.599999999999994 12.799999999999999)"/><use xlink:href="#b" transform="matrix(1,0,0,1,87,-1010) translate(59.55 12.799999999999999)"/><use xlink:href="#c" transform="matrix(1,0,0,1,87,-1010) translate(146.4 12.799999999999999)"/><path d="M450-698c0-16.57 13.43-30 30-30h550c16.57 0 30 13.43 30 30v628c0 16.57-13.43 30-30 30H480c-16.57 0-30-13.43-30-30z" stroke="#474747" fill="none"/><path d="M558-725.6v3.54c0 6.42-7.1 13.05-15.76 13.05h-46.48c-8.66 0-15.75-6.64-15.75-13.06v-3.54z" fill="#9d5125"/><path d="M510.03-760c8.03 0 14.82 4.4 18.17 11.67 4.6-3.14 10.92-1.98 14.04 2.65 1.17 1.64 1.7 3.32 1.8 5.3 7.87.68 13.95 8.25 13.95 14.27v1.3c0 6.45-7.1 13-15.76 13h-46.5c-8.64 0-15.74-6.55-15.74-13v-1.3c0-5.02 4.2-11.87 10.06-13.56v-.57c.08-10.95 8.97-19.82 19.97-19.77z" fill="#f58535"/><path d="M498.9-736.87h3.08l3.1 14.58 3.32-14.54h3.1l-4.6 18.2h-3.7zM513.37-736.87h5.77c3.5 0 5.04 2.2 5.04 5.3 0 3.1-1.9 5.4-5.33 5.4h-2.57v7.53h-2.9zm2.9 8.5h2.08c1.56 0 2.9-.83 2.9-3.14 0-1.98-.78-3.17-3.1-3.17h-1.87zM537.8-725.17v.38c0 3.32-1.3 6.52-5.6 6.52-4.6 0-6.04-2.97-6.04-9.47s1.43-9.46 6.05-9.46c5.2 0 5.54 3.8 5.54 5.7v.37h-2.9v-.3c0-1.7-.5-3.64-2.6-3.57-2.08.08-3.1 1.35-3.1 7.22 0 5.87.92 7.3 3.14 7.3 2.42 0 2.7-2.7 2.7-4.42v-.3z" fill="#fff"/><use xlink:href="#d" transform="matrix(1,0,0,1,450,-70) translate(228.125 12.799999999999999)"/><path d="M680-1278.53h380v48.2H680z" stroke="#000" stroke-width="2" fill="#fff"/><use xlink:href="#e" transform="matrix(1,0,0,1,685,-1273.5333333333333) translate(66.225 23.1)"/><use xlink:href="#f" transform="matrix(1,0,0,1,685,-1273.5333333333333) translate(123.125 23.1)"/><use xlink:href="#g" transform="matrix(1,0,0,1,685,-1273.5333333333333) translate(219.925 23.1)"/><path d="M417.33-798c0-16.57 13.43-30 30-30H1640c16.57 0 30 13.43 30 30v777.67c0 16.57-13.43 30-30 30H447.33c-16.57 0-30-13.43-30-30z" stroke="#474747" fill="none"/><path d="M525.33-825.6v3.54c0 6.42-7.1 13.05-15.76 13.05H463.1c-8.66 0-15.76-6.64-15.76-13.06v-3.54z" fill="#9d5125"/><path d="M477.36-860c8.03 0 14.82 4.4 18.17 11.67 4.6-3.14 10.92-1.98 14.04 2.65 1.17 1.64 1.72 3.32 1.8 5.3 7.87.68 13.96 8.25 13.96 14.27v1.3c0 6.45-7.1 13-15.76 13H463.1c-8.67 0-15.77-6.55-15.77-13v-1.3c0-5.02 4.2-11.87 10.06-13.56v-.57c.07-10.95 8.96-19.82 19.96-19.77z" fill="#f58535"/><path d="M466.87-836.87l-5.2 18.2h3.04l1.18-4.43h5.38l1.1 4.43h3.05l-4.77-18.2zm-.46 11.4l2.22-8.98 2.1 8.97zM488.54-822.66h-.04l-2.47-14.2h-3.1l-2.4 14.13h-.06l-2.4-14.14h-2.95l3.54 18.2h3.4l2.32-13.7h.06l2.36 13.7h3.38l3.65-18.2h-2.9l-2.4 14.2zM503.24-828.6l-1.98-.72c-1.94-.7-2.75-1.53-2.75-3.1-.15-1.26.75-2.43 2.03-2.6.15-.02.3-.02.44-.02 1.25-.17 2.4.72 2.57 1.96.04.25.03.44 0 .68v.38h2.93v-.4c0-1.9-.5-4.8-5.2-4.8-3.42 0-5.68 1.84-5.68 5.16 0 2.6 1.1 3.97 3.8 5l2 .68c1.6.23 2.73 1.6 2.64 3.2.04 1.45-1.1 2.64-2.52 2.68h-.26c-2.02 0-3-1.12-3-3.33v-.47h-2.92v.44c0 2.54 1.03 5.53 5.53 5.53 3.7 0 6.07-1.6 6.07-5.48.04-2.5-1.1-3.9-3.7-4.8z" fill="#fff"/><use xlink:href="#e" transform="matrix(1,0,0,1,417.3333333333336,-20.333333333333258) translate(553.675 12.799999999999999)"/><use xlink:href="#h" transform="matrix(1,0,0,1,417.3333333333336,-20.333333333333258) translate(610.5749999999999 12.799999999999999)"/><path d="M60-1178c0-16.57 13.43-30 30-30h380c16.57 0 30 13.43 30 30v268c0 16.57-13.43 30-30 30H90c-16.57 0-30-13.43-30-30z" stroke="#474747" fill="none"/><path d="M168-1205.6v3.54c0 6.42-7.1 13.05-15.76 13.05h-46.48c-8.66 0-15.75-6.64-15.75-13.06v-3.54z" fill="#9d5125"/><path d="M120.03-1240c8.03 0 14.82 4.4 18.17 11.67 4.6-3.14 10.92-1.98 14.04 2.65 1.17 1.64 1.7 3.32 1.8 5.3 7.87.68 13.95 8.25 13.95 14.27v1.3c0 6.45-7.1 13-15.76 13h-46.5c-8.64 0-15.74-6.55-15.74-13v-1.3c0-5.02 4.2-11.87 10.06-13.56v-.57c.08-10.95 8.97-19.82 19.97-19.77z" fill="#f58535"/><path d="M109.54-1216.87l-5.2 18.2h3.04l1.17-4.43h5.38l1.1 4.43h3.05l-4.8-18.2zm-.47 11.4l2.22-8.98 2.1 8.97zM131.2-1202.66h-.03l-2.47-14.2h-3.1l-2.4 14.13h-.06l-2.4-14.14h-2.95l3.53 18.2h3.38l2.35-13.7h.06l2.36 13.7h3.4l3.64-18.2h-2.9l-2.4 14.2zM145.9-1208.6l-1.98-.72c-1.93-.7-2.74-1.53-2.74-3.1-.17-1.26.74-2.43 2-2.6.16-.02.3-.02.45-.02 1.26-.17 2.4.72 2.58 1.96.04.25.03.44 0 .68v.38h2.93v-.4c0-1.9-.5-4.8-5.18-4.8-3.44 0-5.7 1.84-5.7 5.16 0 2.6 1.1 3.97 3.82 5l2 .68c1.6.23 2.73 1.6 2.64 3.2.04 1.45-1.08 2.64-2.5 2.68h-.28c-2 0-3-1.12-3-3.33v-.47h-2.9v.44c0 2.54 1.02 5.53 5.52 5.53 3.7 0 6.07-1.6 6.07-5.48.04-2.5-1.1-3.9-3.7-4.8z" fill="#fff"/><use xlink:href="#i" transform="matrix(1,0,0,1,60,-910) translate(100.625 12.799999999999999)"/><use xlink:href="#j" transform="matrix(1,0,0,1,60,-910) translate(149.825 12.799999999999999)"/><use xlink:href="#h" transform="matrix(1,0,0,1,60,-910) translate(250.625 12.799999999999999)"/><path d="M510-258c0-16.57 13.43-30 30-30h119c16.57 0 30 13.43 30 30v8c0 16.57-13.43 30-30 30H540c-16.57 0-30-13.43-30-30z" stroke="#474747" fill="none"/><path d="M571.97-299.76v-5.9c0-7.25-5.88-13.13-13.12-13.13-7.24 0-13.12 5.9-13.12 13.14v5.9h6.64v-5.9c0-3.58 2.9-6.5 6.48-6.5 3.57 0 6.48 2.92 6.48 6.5v5.9h6.64z" fill="#876a22"/><path d="M571.98-299.74h5.42v20.83H540v-20.84h5.72v-7.1c0-7.28 5.87-13.16 13.13-13.16 7.26 0 13.13 5.88 13.13 13.15v7.1zm-6.66 0v-7.1c0-3.6-2.88-6.5-6.47-6.5-3.6 0-6.47 2.9-6.47 6.5v7.1h12.94z" fill="#daa835"/><path d="M540-278.9h37.4v.9H540z" fill="#876a22"/><use xlink:href="#k" transform="matrix(1,0,0,1,510,-250) translate(27.049999999999997 12.799999999999999)"/><use xlink:href="#l" transform="matrix(1,0,0,1,510,-250) translate(88 12.799999999999999)"/><path d="M1060-823.62c0 18.55-22.4 33.6-50 33.6s-50-15.05-50-33.6c0-18.56 22.4-33.62 50-33.62s50 15.06 50 33.62z" fill="#9d5025"/><path d="M960-826.4h100v2.77H960v-2.76z" fill="#9d5025"/><path d="M1060-826.38c0 18.55-22.4 33.62-50 33.62s-50-15.07-50-33.62c0-18.56 22.4-33.62 50-33.62s50 15.06 50 33.62z" fill="#f58536"/><path d="M972.3-823.04v-.87c.38-4.1 3.77-7.5 9.26-9.27.53-7.5 10.02-13.3 21.24-12.9 7 .22 12.88 2.62 16.42 6.7 5.73-1.62 12.28.15 14.7 3.97.37.55.6 1 .74 1.55 7.54 1 12.96 5.86 12.96 9.94v.8c0 4.98-7.68 9.34-16.42 9.34h-42.56c-8.66.03-16.34-4.33-16.34-9.28z" fill="#fff"/><path d="M1020.24-835.8l-3.2 1.48-1.62-2.37c-2.48-3.7-7.56-5.96-13.62-5.98h-.06c-8.28 0-15.05 4.53-15.05 10.14v1.9l-2.36.45c-3.97 1.08-6.57 3.42-6.9 6.3v.82c0 2.72 4.95 5.88 11.27 5.88h42.6c6.4 0 11.28-3.16 11.28-5.88v-.82c0-2.75-4.56-6.34-9.84-6.62l-2.86-.16-.2-1.9c0-.82-.4-1.5-1.04-2.15-1.9-1.86-5.67-2.32-8.4-1.05z" fill="#f58536"/><use xlink:href="#m" transform="matrix(1,0,0,1,960,-790) translate(19.525 14.4)"/><use xlink:href="#n" transform="matrix(1,0,0,1,960,-790) translate(16.525 36)"/><path d="M1040-253.62c0 18.55-17.92 33.6-40 33.6s-40-15.05-40-33.6c0-18.56 17.92-33.62 40-33.62s40 15.06 40 33.62z" fill="#9d5025"/><path d="M1040-256.38c0 18.55-17.92 33.62-40 33.62s-40-15.07-40-33.62c0-18.56 17.92-33.62 40-33.62s40 15.06 40 33.62z" fill="#f58536"/><path d="M1010.82-272h4.22v31.2h-4.22V-272zM1022.7-264.1l11.03 7.56-11.04 7.87v-15.42z" fill="#fff"/><path d="M983.64-258.15l2.43 1.64-2.68 1.88h41.14v-3.53h-40.9zM983.4-270.22h31.64v-3.54h-31.4l2.4 1.64-2.65 1.9zM986.05-240.9l-2.66 1.9h31.64v-3.55h-31.4l2.4 1.64zM974.6-262.56l8.83 6.04-8.83 6.3v-12.34zM974.6-278.16l8.83 6.04-8.83 6.3v-12.34zM974.6-246.95l8.83 6.04-8.83 6.28v-12.33z" fill="#fff"/><use xlink:href="#o" transform="matrix(1,0,0,1,960.0000000000001,-220) translate(21.525 14.4)"/><use xlink:href="#p" transform="matrix(1,0,0,1,960.0000000000001,-220) translate(22.9 36)"/><use xlink:href="#n" transform="matrix(1,0,0,1,960.0000000000001,-220) translate(6.524999999999999 57.6)"/><path d="M1081.18-1132.78c11.06 0 18.8 6.98 18.8 16.92v21.58h-9.72v-14.64h-2.67v14.64h-14.98c-1-10.94-9.84-18.38-22.24-18.38h-8.62v-5.97c9.5-.85 17.12-4.5 17.94-14.2h.87zM1019.34-1132.8h.93c.88 9.68 8.44 13.34 17.93 14.2v5.93h-8.44c-12.4 0-21.3 7.48-22.23 18.4h-14.67v-14.66h-2.68v14.65H980v-21.63c0-10 7.74-16.94 18.86-16.94z" fill="#4f4f4f"/><path d="M1050.3-1103.57c11.06 0 18.8 6.98 18.8 16.93v21.63h-9.78v-14.7h-2.62v14.65h-33.07v-14.65h-2.56v14.65h-10.2v-21.6c0-9.94 7.75-16.92 18.8-16.92zM1009.06-1174.94l16.32 11.6v5c.1 9.14-7.18 16.6-16.28 16.7h-.04c-8.94 0-16.32-7.47-16.32-17.42v-4.4zM1070.86-1174.94l16.32 11.6v5c.1 9.14-7.18 16.6-16.28 16.7h-.04c-8.94 0-16.32-7.47-16.32-17.42v-4.4zM1040-1152.16l14.4 10.2v4.5c.14 8.07-6.28 14.72-14.35 14.87h-.06c-8.17-.2-14.63-6.94-14.42-15.1 0-.12 0-.2.02-.33v-4.02z" fill="#4f4f4f"/><path d="M1070.88-1180c9.18-.17 16.76 7.16 16.93 16.35.17 9.2-7.14 16.78-16.32 16.94-9.18.16-16.76-7.17-16.92-16.35v-.34c-.07-9.08 7.2-16.53 16.32-16.6zM1039.96-1157.3c8.14-.2 14.9 6.25 15.1 14.4.18 8.15-6.25 14.9-14.4 15.12-8.13.18-14.9-6.26-15.1-14.4v-.36c-.08-8.07 6.35-14.65 14.4-14.77zM1081.18-1137.92c11.06 0 18.8 6.98 18.8 16.94v21.64h-9.72V-1114h-2.67v14.66h-14.98c-1-10.96-9.84-18.36-22.24-18.36h-8.62v-1.9c9.73-.96 17.12-8.52 17.94-18.24h.87zM1019.34-1137.9h.93c.82 9.75 8.2 17.3 17.93 18.27v1.85h-8.44c-12.4 0-21.3 7.48-22.23 18.4h-14.67V-1114h-2.68v14.65H980v-21.63c0-10 7.74-16.93 18.86-16.93z" fill="#acacac"/><path d="M1050.3-1108.63c11.06 0 18.8 6.98 18.8 16.93v21.63h-9.78v-14.65h-2.62v14.65h-33.07v-14.65h-2.56v14.65h-10.2v-21.63c0-9.95 7.75-16.93 18.8-16.93zM1009.07-1180c9.18-.17 16.76 7.16 16.93 16.35.16 9.2-7.15 16.78-16.33 16.94-9.18.16-16.76-7.17-16.93-16.35v-.34c-.06-9.08 7.22-16.5 16.33-16.6z" fill="#acacac"/><use xlink:href="#q" transform="matrix(1,0,0,1,980,-1065) translate(36.025 14.4)"/><use xlink:href="#r" transform="matrix(1,0,0,1,980,-1065) translate(5.099999999999994 36)"/><path d="M294-1077c0-16.57 13.43-30 30-30h113c16.57 0 30 13.43 30 30v68c0 16.57-13.43 30-30 30H324c-16.57 0-30-13.43-30-30z" stroke="#474747" fill="none"/><path d="M402-1104.6v3.54c0 6.42-7.1 13.05-15.76 13.05h-46.48c-8.66 0-15.75-6.64-15.75-13.06v-3.54z" fill="#9d5125"/><path d="M354.03-1139c8.03 0 14.82 4.4 18.17 11.67 4.6-3.14 10.92-1.98 14.04 2.65 1.17 1.64 1.7 3.32 1.8 5.3 7.87.68 13.95 8.25 13.95 14.27v1.3c0 6.45-7.1 13-15.76 13h-46.5c-8.64 0-15.74-6.55-15.74-13v-1.3c0-5.02 4.2-11.87 10.06-13.56v-.57c.08-10.95 8.97-19.82 19.97-19.77z" fill="#f58535"/><path d="M342.9-1115.87h3.08l3.1 14.58 3.32-14.54h3.1l-4.6 18.2h-3.7zM357.37-1115.87h5.77c3.5 0 5.04 2.2 5.04 5.3 0 3.1-1.9 5.4-5.33 5.4h-2.57v7.53h-2.9zm2.9 8.5h2.08c1.56 0 2.9-.83 2.9-3.14 0-1.98-.78-3.17-3.1-3.17h-1.87zM381.8-1104.17v.38c0 3.32-1.3 6.52-5.6 6.52-4.6 0-6.04-2.97-6.04-9.47s1.43-9.46 6.05-9.46c5.2 0 5.54 3.8 5.54 5.7v.37h-2.9v-.3c0-1.7-.5-3.64-2.6-3.57-2.08.08-3.1 1.35-3.1 7.22 0 5.87.92 7.3 3.14 7.3 2.42 0 2.7-2.7 2.7-4.42v-.3z" fill="#fff"/><use xlink:href="#a" transform="matrix(1,0,0,1,294,-1009) translate(16.599999999999994 12.799999999999999)"/><use xlink:href="#b" transform="matrix(1,0,0,1,294,-1009) translate(59.55 12.799999999999999)"/><use xlink:href="#s" transform="matrix(1,0,0,1,294,-1009) translate(146.4 12.799999999999999)"/><path d="M400-639.2c0 10.6-22.4 19.2-50 19.2s-50-8.6-50-19.2c0-10.62 22.4-19.22 50-19.22s50 8.6 50 19.2z" fill="#9d5025"/><path d="M400-640.8c0 10.6-22.4 19.22-50 19.22s-50-8.6-50-19.2S322.4-660 350-660s50 8.6 50 19.2z" fill="#f58536"/><path d="M397.7-640.73l-17.75-3.92v2.35H354.1v-9.93h6.1l-10.2-6.82-10.2 6.82h6.1v9.93h-25.86v-2.35l-17.74 3.92 17.74 3.92v-2.35h25.85v9.93h-6.1l10.2 6.82 10.2-6.82h-6.1v-9.93h25.85v2.34l17.74-3.93z" fill="#fff"/><path d="M336.33-636.16c-5.1 0-8.9-1.48-8.9-2.8v-.3c.24-1.35 2.36-2.44 5.65-2.92l.32-.03v-.2c0-2.42 5.05-4.38 11.32-4.38 4.56 0 8.44.96 10.34 2.55l.23.2.4-.12c2.52-.67 5.95-.42 7.66.55.64.34.95.7 1 1.12v.14h.36c4.24.18 7.44 1.44 7.85 3.07v.3c0 1.32-3.8 2.8-8.9 2.8z" fill="#f58536"/><path d="M344.7-646.15c3.93 0 7.22.82 8.86 2.18l1 .87 2-.53c1.78-.48 4.2-.3 5.4.37.45.25.64.5.7.8v.7l1.82.05c3.4.16 5.9 1.15 6.34 2.44v.3c0 1-3.15 2.16-7.2 2.16H336.3c-4.06 0-7.2-1.16-7.2-2.16v-.3c.24-1.06 1.88-1.9 4.45-2.3l1.54-.18v-.68c0-2.06 4.3-3.72 9.66-3.73m0-1.26c-6.96 0-12.62 2.07-12.95 4.74-3.52.66-5.7 1.9-5.94 3.4v.3c0 1.83 4.93 3.43 10.54 3.43h27.26c5.6 0 10.54-1.6 10.54-3.42v-.3c-.4-1.83-3.67-3.27-8.36-3.65-.1-.2-.24-.38-.44-.57-1.54-1.4-5.75-2.05-9.42-1.46-2.37-1.58-6.43-2.47-11.22-2.47z" fill="#fff"/><use xlink:href="#t" transform="matrix(1,0,0,1,300,-620) translate(31.525 14.4)"/><use xlink:href="#u" transform="matrix(1,0,0,1,300,-620) translate(20.049999999999997 36)"/><path d="M220-539.2c0 10.6-22.4 19.2-50 19.2s-50-8.6-50-19.2c0-10.62 22.4-19.22 50-19.22s50 8.6 50 19.2z" fill="#9d5025"/><path d="M220-540.8c0 10.6-22.4 19.22-50 19.22s-50-8.6-50-19.2S142.4-560 170-560s50 8.6 50 19.2z" fill="#f58536"/><path d="M217.7-540.73l-17.75-3.92v2.35H174.1v-9.93h6.1l-10.2-6.82-10.2 6.82h6.1v9.93h-25.86v-2.35l-17.74 3.92 17.74 3.92v-2.35h25.85v9.93h-6.1l10.2 6.82 10.2-6.82h-6.1v-9.93h25.85v2.34l17.74-3.93z" fill="#fff"/><path d="M156.33-536.16c-5.1 0-8.9-1.48-8.9-2.8v-.3c.24-1.35 2.36-2.44 5.65-2.92l.32-.03v-.2c0-2.42 5.05-4.38 11.32-4.38 4.56 0 8.44.96 10.34 2.55l.23.2.4-.12c2.52-.67 5.95-.42 7.66.55.64.34.95.7 1 1.12v.14h.36c4.24.18 7.44 1.44 7.85 3.07v.3c0 1.32-3.8 2.8-8.9 2.8z" fill="#f58536"/><path d="M164.7-546.15c3.93 0 7.22.82 8.86 2.18l1 .87 2-.53c1.78-.48 4.2-.3 5.4.37.45.25.64.5.7.8v.7l1.82.05c3.4.16 5.9 1.15 6.34 2.44v.3c0 1-3.15 2.16-7.2 2.16H156.3c-4.06 0-7.2-1.16-7.2-2.16v-.3c.24-1.06 1.88-1.9 4.45-2.3l1.54-.18v-.68c0-2.06 4.3-3.72 9.66-3.73m0-1.26c-6.96 0-12.62 2.07-12.95 4.74-3.52.66-5.7 1.9-5.94 3.4v.3c0 1.83 4.93 3.43 10.54 3.43h27.26c5.6 0 10.54-1.6 10.54-3.42v-.3c-.4-1.83-3.67-3.27-8.36-3.65-.1-.2-.24-.38-.44-.57-1.54-1.4-5.75-2.05-9.42-1.46-2.37-1.58-6.43-2.47-11.22-2.47z" fill="#fff"/><use xlink:href="#t" transform="matrix(1,0,0,1,120,-520) translate(31.525 14.4)"/><use xlink:href="#u" transform="matrix(1,0,0,1,120,-520) translate(20.049999999999997 36)"/><path d="M1396.4-468.82h95.37c13.8 0 25 5.78 25 12.9v21.7c-4.94-1.36-15.7-2.78-31.7-2.78-6.53 0-11.9.22-18.3.75-10.77.9-16.44 2.47-16.44 3.45v36.85c0 .6 1.6 1.35 4.66 2.17h-58.6c-13.8 0-25-5.78-25-12.9v-49.23c0-7.14 11.2-12.92 25-12.92z" fill="#9d5025"/><path d="M1396.4-471.93h95.37c13.8 0 25 5.78 25 12.9v21.66c-4.94-1.35-15.7-2.77-31.7-2.77-6.53 0-11.9.22-18.3.75-10.77.9-16.44 2.48-16.44 3.46v36.8c0 .6 1.6 1.35 4.66 2.18h-58.6c-13.8 0-25-5.78-25-12.9v-49.17c0-7.12 11.2-12.9 25-12.9z" fill="#f58534"/><path d="M1487.56-430.2c-5.42 0-10.03.17-15.4.6-4.83.16-8.96-.03-13.7-.63v3.54c0 .83 4.8 2.16 13.7 2.9 5.37.45 9.98.63 15.4.6 18.94 0 29.2-2.3 29.2-3.5v-3.53zM1457.8-419.8v24.2c0 1.2 8.24 3.5 27.85 3.5 8.55.1 15.8-.32 24.1-1.43 3.9-.63 6.65-1.4 6.95-1.94v-24.03c-5.7 1.83-17.5 2.82-29.16 2.82h-4.83l-3-.27h-1.47l-2.3-.1-1.23-.1-2.48-.16c-5.3-.37-9.72-1.12-14.43-2.5z" fill="#9d5025"/><path d="M1487.56-433.73c-5.42 0-10.03.17-15.4.6-9.02.78-13.7 2.1-13.7 2.9 0 .82 4.8 2.16 13.7 2.9 5.37.45 9.98.63 15.4.6 18.94 0 29.2-2.3 29.2-3.5 0-1.18-10.26-3.5-29.2-3.5zM1457.8-423.35v24.16c0 1.26 8.23 3.5 27.76 3.5 8.53.1 15.83-.3 24.12-1.4 3.9-.65 6.65-1.42 6.95-1.95v-24.05c-5.7 1.82-17.48 2.82-29.2 2.82h-4.81l-2.88-.22h-1.47l-2.3-.1-1.23-.1-2.48-.16c-5.35-.36-9.76-1.1-14.47-2.5z" fill="#f58534"/><path d="M1396.45-396.9h58.46v3.1h-58.45c-13.87 0-25.06-5.78-25.06-12.9v-3.12c0 7.13 11.18 12.9 25.05 12.9z" fill="#9d5025"/><path d="M1489.83-455.8l-21.98-11.32v5.67h-34.22v19.8h34.22v2.18c2.32-.2 4.9-.33 7.73-.44l22.5-11.65zM1385.2-455.8v14.16h37.85v-19.86h-37.85v5.7zM1395.77-422.35v14.16h37.84v-19.85h-37.83v5.7z" fill="#fff"/><use xlink:href="#v" transform="matrix(1,0,0,1,1371.391812865497,-392.07720804541253) translate(8.574999999999989 14.4)"/><use xlink:href="#w" transform="matrix(1,0,0,1,1371.391812865497,-392.07720804541253) translate(79.52499999999999 14.4)"/><use xlink:href="#x" transform="matrix(1,0,0,1,1371.391812865497,-392.07720804541253) translate(25.1 36)"/><use xlink:href="#y" transform="matrix(1,0,0,1,1371.391812865497,-392.07720804541253) translate(99.94999999999999 36)"/><use xlink:href="#z" transform="matrix(1,0,0,1,1371.391812865497,-392.07720804541253) translate(16.599999999999994 57.6)"/><use xlink:href="#A" transform="matrix(1,0,0,1,1371.391812865497,-392.07720804541253) translate(90.5 57.6)"/><path d="M1394.27-796.4h97.05c25.45 0 25.45 0 25.45 13.1v50.03c0 13.1 0 13.1-25.45 13.1h-97.05c-25.45 0-25.45 0-25.45-13.1v-50.02c0-13.1 0-13.1 25.45-13.1z" fill="#9d5025"/><path d="M1394.27-800h97.05c25.45 0 25.45 0 25.45 13.1v50.03c0 13.12 0 13.12-25.45 13.12h-97.05c-25.45 0-25.45 0-25.45-13.12v-50.02c0-13.1 0-13.1 25.45-13.1z" fill="#f58534"/><path d="M1393.63-749.6v14.37h38.5v-20.18h-38.5v5.8zM1466.98-763.4l30.77-15.86-8.4-4.35-22.37-11.54v5.75h-34.82V-769.22h34.82v5.84zM1421.4-783.6v-5.8h-38.53V-769.23h38.52v-14.38zM1477.73-761.17v5.7h-34.83v20.23h34.83v5.8l30.76-15.86-8.4-4.32-22.37-11.55z" fill="#fff"/><use xlink:href="#v" transform="matrix(1,0,0,1,1368.8187134502925,-720.1513485439297) translate(9.574999999999989 14.4)"/><use xlink:href="#w" transform="matrix(1,0,0,1,1368.8187134502925,-720.1513485439297) translate(80.52499999999999 14.4)"/><use xlink:href="#B" transform="matrix(1,0,0,1,1368.8187134502925,-720.1513485439297) translate(32.074999999999996 36)"/><use xlink:href="#y" transform="matrix(1,0,0,1,1368.8187134502925,-720.1513485439297) translate(94.975 36)"/><use xlink:href="#C" transform="matrix(1,0,0,1,1368.8187134502925,-720.1513485439297) translate(15.625 57.6)"/><use xlink:href="#A" transform="matrix(1,0,0,1,1368.8187134502925,-720.1513485439297) translate(93.47500000000001 57.6)"/><path d="M1282.6-311.4l74.6 5.72v3.4c0 5-33.4 9.07-74.6 9.07-41.18 0-74.6-4.07-74.6-9.1v-3.67z" fill="#8c3123"/><path d="M1282.64-287c31.13 0 57.82-2.34 68.93-5.65l3.7-3.17 1.5-2.93v3.63l-24.47 53.9c0 3.37-22.23 6.04-49.66 6.04-27.42 0-49.66-2.67-49.66-6.04l-24.46-53.9v-3.56l5.64 6.16c11.26 3.24 37.65 5.53 68.48 5.53z" fill="#8c3123"/><path d="M1282.62-315.02c41.18 0 74.6 4.07 74.6 9.06 0 5-33.42 9.03-74.6 9.03-41.18 0-74.6-4-74.6-9.03 0-5.03 33.42-9.06 74.6-9.06z" fill="#e05243"/><path d="M1282.6-290.66c38.4 0 70-3.47 74.15-8.03l-24.47 53.9c0 3.37-22.24 6.07-49.67 6.07-27.42 0-49.66-2.7-49.66-6.06l-24.46-53.9c4.15 4.57 35.73 8.04 74.13 8.04z" fill="#e05243"/><use xlink:href="#D" transform="matrix(1,0,0,1,1208,-235.17218432873065) translate(16.625 14.4)"/><use xlink:href="#E" transform="matrix(1,0,0,1,1208,-235.17218432873065) translate(94.47500000000001 14.4)"/><use xlink:href="#F" transform="matrix(1,0,0,1,1208,-235.17218432873065) translate(48.5 36)"/><path d="M1519.35-587.34c0 21.17-33.15 38.35-73.98 38.35-40.84 0-73.98-17.17-73.98-38.34s33.13-38.34 73.97-38.34c40.83 0 73.98 17.17 73.98 38.34z" fill="#9d5025"/><path d="M1371.4-590.5h147.95v3.16H1371.4v-3.15z" fill="#9d5025"/><path d="M1519.35-590.48c0 21.16-33.15 38.34-73.98 38.34-40.84 0-73.98-17.18-73.98-38.34 0-21.17 33.13-38.35 73.97-38.35 40.83 0 73.98 17.18 73.98 38.35z" fill="#f58536"/><path d="M1493.48-571.63l-5.76-7.84-12.82 2.54-18.3-24.9-5.12-6.87-2.42-3.26-3.7-5.1H1421v8.36h13.2l4.64 6.2-38.3 35.3h18.5l27.23-25.16 19.33 26.23 4.65-.92 10.4-2.04 12.83-2.53z" fill="#fff"/><use xlink:href="#G" transform="matrix(1,0,0,1,1371.3918128654966,-548.9822317620947) translate(7.549999999999997 14.4)"/><use xlink:href="#H" transform="matrix(1,0,0,1,1371.3918128654966,-548.9822317620947) translate(77.5 14.4)"/><use xlink:href="#I" transform="matrix(1,0,0,1,1371.3918128654966,-548.9822317620947) translate(4.625 36)"/><use xlink:href="#z" transform="matrix(1,0,0,1,1371.3918128654966,-548.9822317620947) translate(30.575 36)"/><use xlink:href="#A" transform="matrix(1,0,0,1,1371.3918128654966,-548.9822317620947) translate(104.47500000000001 36)"/><path d="M1578.45-275.77l-58.1-16.4-3.58 1.07v38.02l61.68 17.9v-40.6zM1644.4-292.18l-57.07 16.4v40.54l60.66-18.22v-37.63l-3.6-1.08z" fill="#4b612c"/><path d="M1578.45-275.76l-61.68-17.44v35.58l61.68 17.93v-36.06zM1587.33-275.82v36.07l60.66-18.22v-35.22l-60.67 17.38zM1582.88-279.38l60.95-17.47-61.2-18.17-61.67 18.17 61.92 17.47z" fill="#759c3e"/><use xlink:href="#J" transform="matrix(1,0,0,1,1516.771929824561,-235.17218432873062) translate(40.05 14.4)"/><use xlink:href="#K" transform="matrix(1,0,0,1,1516.771929824561,-235.17218432873062) translate(14.049999999999997 36)"/><path d="M1442.8-720.16v45.66h2.57v27.17" stroke="#999" stroke-width="2" fill="none"/><path fill="#999"/><path d="M1445.37-632.07l-4.64-14.26h9.27z" fill="#999"/><path d="M1445.37-628.83l-6-18.5h12zm-3.26-16.5l3.27 10.03 3.26-10.03z" fill="#999"/><path d="M1445.37-549v58.57" stroke="#999" stroke-width="2" fill="none"/><path d="M1445.37-549h1-2v-.02zM1445.37-475.16l-4.64-14.27h9.27z" fill="#999"/><path d="M1445.37-471.93l-6-18.5h12zm-3.26-16.5l3.27 10.03 3.26-10.03z" fill="#999"/><path d="M1444.08-372.08v28.53h-161.46v10.03" stroke="#999" stroke-width="2" fill="none"/><path d="M1445.08-372.08h-2v-3h2zM1282.62-318.26l-4.64-14.26h9.28z" fill="#999"/><path d="M1282.62-315.02l-6-18.5h12zm-3.26-16.5l3.26 10.03 3.26-10.02z" fill="#999"/><path d="M1444.08-393.78v39.42h138.3v20.9" stroke="#999" stroke-width="2" fill="none"/><path fill="#999"/><path d="M1582.4-318.18l-4.65-14.27h9.27z" fill="#999"/><path d="M1582.4-314.95l-6.03-18.5h12.03zm-3.27-16.5l3.26 10.03 3.24-10.03z" fill="#999"/><path d="M1170-782c0-16.57 13.43-30 30-30h418c16.57 0 30 13.43 30 30v552c0 16.57-13.43 30-30 30h-418c-16.57 0-30-13.43-30-30z" fill="none"/><path d="M1185.04-807.9l3.17-1.7 4.72-1.56 4.93-.76 2.15-.08h15.48m15.48 0h30.97m15.48 0h30.97m15.48 0h30.96m15.5 0h30.96m15.48 0h30.96m15.5 0h30.95m15.48 0h30.96m15.47 0h30.97m15.48 0H1618l5 .42 4.82 1.22 4.54 2 .6.42m10.95 10.98l1.7 3.17 1.56 4.72.76 4.93.08 2.15v15.33m0 15.34v30.66m0 15.34v30.66m0 15.34v30.66m0 15.34v30.66m0 15.34v30.66m0 15.34v30.66m0 15.34v30.66m0 15.34v30.66m0 15.34v30.66m0 15.34v30.66m0 15.34v30.66m0 15.34V-230l-.42 5-1.22 4.82-2 4.54-.42.6m-10.98 10.95l-3.17 1.7-4.72 1.56-4.93.76-2.15.08h-15.48m-15.48 0h-30.97m-15.48 0h-30.97m-15.48 0h-30.96m-15.5 0h-30.96m-15.48 0h-30.96m-15.5 0h-30.95m-15.48 0h-30.96m-15.47 0h-30.97m-15.48 0H1200l-5-.42-4.82-1.22-4.54-2-.6-.42m-10.95-10.98l-1.7-3.17-1.56-4.72-.76-4.93-.08-2.15v-15.33m0-15.34v-30.66m0-15.34v-30.66m0-15.34v-30.66m0-15.34v-30.66m0-15.34v-30.66m0-15.34v-30.66m0-15.34v-30.66m0-15.34v-30.66m0-15.34v-30.66m0-15.34v-30.66m0-15.34v-30.66m0-15.34V-782l.42-5 1.22-4.82 2-4.54.42-.6" stroke="#f7981f" stroke-width="3" fill="none"/><use xlink:href="#L" transform="matrix(1,0,0,1,1170,-230) translate(173.825 12.799999999999999)"/><use xlink:href="#M" transform="matrix(1,0,0,1,1170,-230) translate(263.225 12.799999999999999)"/><path d="M1197-680h128l32 32v150.8h-160z" stroke="#d9be60" stroke-width="2" fill="#ffdf71"/><path d="M1325-680v32h32" fill="#d9be60"/><use xlink:href="#N" transform="matrix(1,0,0,1,1202,-675) translate(1.6499999999999915 14.500000000000009)"/><use xlink:href="#O" transform="matrix(1,0,0,1,1202,-675) translate(105.5 14.500000000000009)"/><use xlink:href="#P" transform="matrix(1,0,0,1,1202,-675) translate(3.5 36.10000000000001)"/><use xlink:href="#Q" transform="matrix(1,0,0,1,1202,-675) translate(47.5 36.10000000000001)"/><use xlink:href="#R" transform="matrix(1,0,0,1,1202,-675) translate(87.5 36.10000000000001)"/><use xlink:href="#S" transform="matrix(1,0,0,1,1202,-675) translate(23 57.70000000000001)"/><use xlink:href="#T" transform="matrix(1,0,0,1,1202,-675) translate(97 57.70000000000001)"/><use xlink:href="#U" transform="matrix(1,0,0,1,1202,-675) translate(31.025 79.30000000000003)"/><use xlink:href="#V" transform="matrix(1,0,0,1,1202,-675) translate(93.975 79.30000000000003)"/><use xlink:href="#W" transform="matrix(1,0,0,1,1202,-675) translate(8.549999999999997 100.90000000000002)"/><use xlink:href="#X" transform="matrix(1,0,0,1,1202,-675) translate(78.5 100.90000000000002)"/><use xlink:href="#Y" transform="matrix(1,0,0,1,1202,-675) translate(12.574999999999996 122.50000000000001)"/><use xlink:href="#Z" transform="matrix(1,0,0,1,1202,-675) translate(64.475 122.50000000000001)"/><use xlink:href="#aa" transform="matrix(1,0,0,1,1202,-675) translate(128.475 122.50000000000001)"/><use xlink:href="#ab" transform="matrix(1,0,0,1,1202,-675) translate(13.574999999999996 144.1)"/><use xlink:href="#ac" transform="matrix(1,0,0,1,1202,-675) translate(39.52499999999999 144.1)"/><use xlink:href="#ad" transform="matrix(1,0,0,1,1202,-675) translate(107.475 144.1)"/><use xlink:href="#ae" transform="matrix(1,0,0,1,1202,-675) translate(121.42500000000001 144.1)"/><use xlink:href="#af" transform="matrix(1,0,0,1,1202,-675) translate(49.5 165.70000000000002)"/><path d="M1267-182.2h281.56l36.44 36.44V0h-318z" stroke="#d9be60" stroke-width="2" fill="#ffdf71"/><path d="M1548.56-182.2v36.44H1585" fill="#d9be60"/><use xlink:href="#ag" transform="matrix(1,0,0,1,1272,-177.20000000000022) translate(9.674999999999983 57.69999999999999)"/><use xlink:href="#ah" transform="matrix(1,0,0,1,1272,-177.20000000000022) translate(55.67499999999998 57.69999999999999)"/><use xlink:href="#Y" transform="matrix(1,0,0,1,1272,-177.20000000000022) translate(129.575 57.69999999999999)"/><use xlink:href="#ai" transform="matrix(1,0,0,1,1272,-177.20000000000022) translate(181.475 57.69999999999999)"/><use xlink:href="#aj" transform="matrix(1,0,0,1,1272,-177.20000000000022) translate(225.475 57.69999999999999)"/><use xlink:href="#ak" transform="matrix(1,0,0,1,1272,-177.20000000000022) translate(265.375 57.69999999999999)"/><use xlink:href="#al" transform="matrix(1,0,0,1,1272,-177.20000000000022) translate(24.649999999999977 79.3)"/><use xlink:href="#am" transform="matrix(1,0,0,1,1272,-177.20000000000022) translate(87.54999999999998 79.3)"/><use xlink:href="#an" transform="matrix(1,0,0,1,1272,-177.20000000000022) translate(155.45 79.3)"/><use xlink:href="#ao" transform="matrix(1,0,0,1,1272,-177.20000000000022) translate(238.35 79.3)"/><use xlink:href="#ap" transform="matrix(1,0,0,1,1272,-177.20000000000022) translate(273.35 79.3)"/><use xlink:href="#aq" transform="matrix(1,0,0,1,1272,-177.20000000000022) translate(12.175000000000011 100.9)"/><use xlink:href="#ar" transform="matrix(1,0,0,1,1272,-177.20000000000022) translate(75.07500000000002 100.9)"/><use xlink:href="#as" transform="matrix(1,0,0,1,1272,-177.20000000000022) translate(138.07500000000002 100.9)"/><use xlink:href="#at" transform="matrix(1,0,0,1,1272,-177.20000000000022) translate(249.925 100.9)"/><use xlink:href="#au" transform="matrix(1,0,0,1,1272,-177.20000000000022) translate(267.875 100.9)"/><use xlink:href="#av" transform="matrix(1,0,0,1,1272,-177.20000000000022) translate(48.57499999999999 122.5)"/><use xlink:href="#ab" transform="matrix(1,0,0,1,1272,-177.20000000000022) translate(83.57499999999999 122.5)"/><use xlink:href="#aw" transform="matrix(1,0,0,1,1272,-177.20000000000022) translate(109.52499999999999 122.5)"/><use xlink:href="#ax" transform="matrix(1,0,0,1,1272,-177.20000000000022) translate(139.52499999999998 122.5)"/><use xlink:href="#ay" transform="matrix(1,0,0,1,1272,-177.20000000000022) translate(196.425 122.5)"/><path d="M500.5-934.67H1409V-832" fill="none"/><path d="M500.5-934.67h4m8.04 0h8.02m8.03 0h8m8.04 0h8.02m8.03 0h8m8.04 0h8.02m8.03 0h8m8.04 0h8.02m8.03 0h8m8.04 0h8.02m8.03 0h8m8.04 0h8.03m8.02 0h8.02m8.02 0h8.03m8.02 0h8.02m8.02 0h8.03m8.02 0h8.02m8.02 0h8.03m8.02 0h8.02m8.02 0h8.03m8.02 0h8.02m8.02 0h8.03m8.02 0h8.02m8.02 0h8.03m8.02 0h8.02m8.02 0h8.03m8.02 0h8.02m8.02 0h8.03m8.02 0h8.02m8.02 0h8.03m8.02 0H986m8.02 0h8.03m8.02 0h8.02m8.03 0h8.02m8.03 0h8.02m8.03 0h8.02m8.03 0h8.02m8.03 0h8.02m8.03 0h8.02m8.03 0h8.02m8.03 0h8.02m8.03 0h8.02m8.03 0h8.02m8.03 0h8.02m8.03 0h8.02m8.03 0h8.02m8.03 0h8.02m8.03 0h8.02m8.03 0h8.02m8.03 0h8.02m8.03 0h8.02m8.03 0h8.02m8.03 0h8.02m8.03 0h8.02m8.03 0h8.03m8.02 0h8.03m8.02 0h8.03m5.67 2.35v8.03m0 8.03v8.03m0 8.02v8.03m0 8.03v8.03m0 8.03v8m0 8.04v8.02m0 8.03v4M500.5-934.67h-3" stroke="#000" stroke-width="2" fill="none"/><path d="M1409-816.74l-4.64-14.26h9.28z" stroke="#000" stroke-width="2"/><path d="M980-1112.5h-40V-900h70v21.5" stroke="#000" stroke-width="2" fill="none"/><path/><path d="M1010-863.24l-4.64-14.26h9.28z"/><path d="M1010-860l-6-18.5h12zm-3.26-16.5l3.26 10.03 3.26-10.03z"/><path d="M940-1097.78v4.33c0 7.88-9.1 16.03-20.2 16.03h-59.6c-11.1 0-20.2-8.15-20.2-16.03v-4.33z" fill="#7d7c7c"/><path d="M878.5-1140c10.3 0 19 5.38 23.3 14.32 5.9-3.85 14-2.43 18 3.25 1.5 2 2.2 4.08 2.3 6.5 10.1.84 17.9 10.13 17.9 17.52v1.6c0 7.92-9.1 15.97-20.2 15.97h-59.6c-11.1 0-20.2-8.05-20.2-15.98v-1.6c0-6.16 5.4-14.56 12.9-16.63v-.7c.1-13.44 11.5-24.33 25.6-24.27z" fill="#d2d3d3"/><path d="M868.02-1095.86h11.36v15.04h-11.36v-15.04z" fill="#fff"/><path d="M859.54-1091.9l14.17-23.48 14.17 23.48h-28.33z" fill="#fff"/><path d="M914.43-1068.5l-14.16 23.5-14.17-23.5v-3.35h28.33v3.36z" fill="#7d7c7c"/><path d="M894.6-1103.87h11.35v35.98H894.6v-35.97z" fill="#d2d3d3"/><path d="M914.43-1071.85l-14.16 23.48-14.17-23.48h28.33z" fill="#d2d3d3"/><use xlink:href="#az" transform="matrix(1,0,0,1,840,-1045) translate(19.525 14.4)"/><path d="M1160-1020h128l32 32v128h-160z" stroke="#d9be60" stroke-width="2" fill="#ffdf71"/><path d="M1288-1020v32h32" fill="#d9be60"/><use xlink:href="#aA" transform="matrix(1,0,0,1,1165,-1015) translate(18.549999999999997 46.19999999999999)"/><use xlink:href="#aB" transform="matrix(1,0,0,1,1165,-1015) translate(90.5 46.19999999999999)"/><use xlink:href="#aC" transform="matrix(1,0,0,1,1165,-1015) translate(40.05 67.8)"/><use xlink:href="#aD" transform="matrix(1,0,0,1,1165,-1015) translate(78 67.8)"/><use xlink:href="#aE" transform="matrix(1,0,0,1,1165,-1015) translate(7.5249999999999915 89.4)"/><use xlink:href="#aF" transform="matrix(1,0,0,1,1165,-1015) translate(99.525 89.4)"/><use xlink:href="#aG" transform="matrix(1,0,0,1,1165,-1015) translate(6.549999999999997 111)"/><use xlink:href="#aH" transform="matrix(1,0,0,1,1165,-1015) translate(31.549999999999997 111)"/><use xlink:href="#aI" transform="matrix(1,0,0,1,1165,-1015) translate(69.5 111)"/><use xlink:href="#aJ" transform="matrix(1,0,0,1,1165,-1015) translate(108.5 111)"/><path d="M1239-1279h500v48h-500z" fill="none"/><use xlink:href="#aK" transform="matrix(1,0,0,1,1239,-1279) translate(199.4444444444474 28.4444444444444)"/><use xlink:href="#aL" transform="matrix(1,0,0,1,1239,-1279) translate(294.4444444444465 28.4444444444444)"/><use xlink:href="#aM" transform="matrix(1,0,0,1,1239,-1279) translate(318.7037037037055 28.4444444444444)"/><use xlink:href="#aN" transform="matrix(1,0,0,1,1239,-1279) translate(413.58024691358105 28.4444444444444)"/><use xlink:href="#aO" transform="matrix(1,0,0,1,1239,-1279) translate(450.6172839506178 28.4444444444444)"/><path d="M1045.14-515.05c0 15.9-20.22 28.82-45.14 28.82s-45.14-12.9-45.14-28.82c0-15.9 20.22-28.8 45.14-28.8s45.14 12.9 45.14 28.8z" fill="#9d5025"/><path d="M1045.14-517.4c0 15.9-20.22 28.8-45.14 28.8s-45.14-12.9-45.14-28.8c0-15.92 20.22-28.83 45.14-28.83s45.14 12.9 45.14 28.82z" fill="#f58536"/><path d="M996.3-534.58h7.4v34.52h-7.4v-34.52z" fill="#fff"/><path d="M990.76-532.86l9.24-10.22 9.24 10.22h-18.48zM990.76-501.78l9.24 10.2 9.24-10.2h-18.48zM1020.94-519.78h19.1v4.74h-19.1v-4.74z" fill="#fff"/><path d="M1023.63-511.52l-16-5.9 16-5.9v11.8zM959.92-519.78h19.1v4.74h-19.1v-4.74z" fill="#fff"/><path d="M976.35-511.52l16-5.9-16-5.9v11.8z" fill="#fff"/><use xlink:href="#aP" transform="matrix(1,0,0,1,954.8630133001983,-486.22570762588225) translate(22.049999999999997 14.4)"/><path d="M510-543.1c0-16.58 13.43-30 30-30h119c16.57 0 30 13.42 30 30v46.87c0 16.57-13.43 30-30 30H540c-16.57 0-30-13.43-30-30z" fill="none"/><path d="M518.1-563.45l1.5-1.64m9.46-5.9l3.86-1.27 4.93-.77 2.15-.07h14.17m14.16 0h2.84m14.16 0h28.34m14.16 0h2.84m14.16 0H659l5 .4 4.82 1.23 1.1.5m9.4 5.94l1.65 1.53m5.9 9.45l1.3 3.86.75 4.93.08 2.16v11.15m0 11.16v2.25m0 11.16v11.17l-.42 5.02-1.22 4.8-.5 1.1m-5.95 9.4l-1.5 1.65m-9.46 5.9l-3.86 1.28-4.93.77-2.15.07h-14.17m-14.16 0h-2.84m-14.16 0h-28.34m-14.16 0h-2.84m-14.16 0H540l-5-.4-4.82-1.24-1.1-.5m-9.4-5.94l-1.65-1.54m-5.9-9.44l-1.3-3.86-.75-4.93-.08-2.16v-11.16m0-11.15v-2.24m0-11.15v-11.16l.42-5.03 1.22-4.8.5-1.12" stroke="#474747" stroke-width="3" fill="none"/><use xlink:href="#aQ" transform="matrix(1,0,0,1,510,-496.22570762588225) translate(11.174999999999983 -8.800000000000002)"/><use xlink:href="#aR" transform="matrix(1,0,0,1,510,-496.22570762588225) translate(54.124999999999986 -8.800000000000002)"/><use xlink:href="#aS" transform="matrix(1,0,0,1,510,-496.22570762588225) translate(101.07499999999999 -8.800000000000002)"/><use xlink:href="#aT" transform="matrix(1,0,0,1,510,-496.22570762588225) translate(16.57499999999999 12.799999999999999)"/><use xlink:href="#aU" transform="matrix(1,0,0,1,510,-496.22570762588225) translate(112.475 12.799999999999999)"/><path d="M510-138c0-16.57 13.43-30 30-30h119c16.57 0 30 13.43 30 30v28c0 16.57-13.43 30-30 30H540c-16.57 0-30-13.43-30-30z" stroke="#474747" fill="none"/><path d="M571.97-179.76v-5.9c0-7.25-5.88-13.13-13.12-13.13-7.24 0-13.12 5.9-13.12 13.14v5.9h6.64v-5.9c0-3.58 2.9-6.5 6.48-6.5 3.57 0 6.48 2.92 6.48 6.5v5.9h6.64z" fill="#876a22"/><path d="M571.98-179.74h5.42v20.83H540v-20.84h5.72v-7.1c0-7.28 5.87-13.16 13.13-13.16 7.26 0 13.13 5.88 13.13 13.15v7.1zm-6.66 0v-7.1c0-3.6-2.88-6.5-6.47-6.5-3.6 0-6.47 2.9-6.47 6.5v7.1h12.94z" fill="#daa835"/><path d="M540-158.9h37.4v.9H540z" fill="#876a22"/><g><use xlink:href="#aV" transform="matrix(1,0,0,1,510,-110) translate(42.074999999999996 -8.800000000000002)"/><use xlink:href="#aW" transform="matrix(1,0,0,1,510,-110) translate(77.025 -8.800000000000002)"/><use xlink:href="#aX" transform="matrix(1,0,0,1,510,-110) translate(6.125 12.799999999999999)"/><use xlink:href="#aY" transform="matrix(1,0,0,1,510,-110) translate(92.025 12.799999999999999)"/><use xlink:href="#aZ" transform="matrix(1,0,0,1,510,-110) translate(145.925 12.799999999999999)"/></g><path d="M510-666.56c0-16.56 13.43-30 30-30h119c16.57 0 30 13.44 30 30v46.9c0 16.56-13.43 30-30 30H540c-16.57 0-30-13.44-30-30z" fill="none"/><path d="M518.1-686.9l1.5-1.63m9.46-5.9l3.86-1.3 4.93-.75 2.15-.08h14.17m14.16 0h2.84m14.16 0h28.34m14.16 0h2.84m14.16 0H659l5 .42 4.82 1.23 1.1.48m9.4 5.95l1.65 1.53m5.9 9.44l1.3 3.86.75 4.93.08 2.14v11.17m0 11.17v2.23m0 11.17v11.16l-.42 5-1.22 4.82-.5 1.1m-5.95 9.42l-1.5 1.64m-9.46 5.9l-3.86 1.3-4.93.75-2.15.08h-14.17m-14.16 0h-2.84m-14.16 0h-28.34m-14.16 0h-2.84m-14.16 0H540l-5-.42-4.82-1.2-1.1-.5m-9.4-5.95l-1.65-1.53m-5.9-9.45l-1.3-3.86-.75-4.92-.08-2.15v-11.16m0-11.17v-2.23m0-11.16v-11.16l.42-5 1.22-4.82.5-1.1" stroke="#474747" stroke-width="3" fill="none"/><g><use xlink:href="#ba" transform="matrix(1,0,0,1,510,-619.6692807194117) translate(30.64999999999999 -8.800000000000002)"/><use xlink:href="#bb" transform="matrix(1,0,0,1,510,-619.6692807194117) translate(81.6 -8.800000000000002)"/><use xlink:href="#bc" transform="matrix(1,0,0,1,510,-619.6692807194117) translate(15.574999999999989 12.799999999999999)"/><use xlink:href="#aU" transform="matrix(1,0,0,1,510,-619.6692807194117) translate(113.475 12.799999999999999)"/></g><path d="M510-410c0-16.57 13.43-30 30-30h119c16.57 0 30 13.43 30 30v46.9c0 16.56-13.43 30-30 30H540c-16.57 0-30-13.44-30-30z" fill="none"/><path d="M518.1-430.33l1.5-1.64m9.46-5.9l3.86-1.3 4.93-.75L540-440h14.17m14.16 0h2.84m14.16 0h28.34m14.16 0h2.84m14.16 0H659l5 .42 4.82 1.22 1.1.5m9.4 5.95l1.65 1.5m5.9 9.46l1.3 3.86.75 4.93.08 2.15v11.16m0 11.17v2.23m0 11.16v11.17l-.42 5-1.22 4.8-.5 1.12m-5.95 9.4l-1.5 1.64m-9.46 5.9l-3.86 1.3-4.93.75-2.15.1h-14.17m-14.16 0h-2.84m-14.16 0h-28.34m-14.16 0h-2.84m-14.16 0H540l-5-.43-4.82-1.23-1.1-.5m-9.4-5.94l-1.65-1.53m-5.9-9.44l-1.3-3.86-.75-4.93-.08-2.15v-11.18m0-11.16v-2.23m0-11.17V-410l.42-5 1.22-4.82.5-1.1" stroke="#474747" stroke-width="3" fill="none"/><g><use xlink:href="#bd" transform="matrix(1,0,0,1,510,-363.1128538129411) translate(14.174999999999983 -8.800000000000002)"/><use xlink:href="#aR" transform="matrix(1,0,0,1,510,-363.1128538129411) translate(51.124999999999986 -8.800000000000002)"/><use xlink:href="#aS" transform="matrix(1,0,0,1,510,-363.1128538129411) translate(98.07499999999999 -8.800000000000002)"/><use xlink:href="#bc" transform="matrix(1,0,0,1,510,-363.1128538129411) translate(15.574999999999989 12.799999999999999)"/><use xlink:href="#aU" transform="matrix(1,0,0,1,510,-363.1128538129411) translate(113.475 12.799999999999999)"/></g><path d="M847.5-638.43c0 21.2-17.36 38.42-38.75 38.42-21.4 0-38.75-17.22-38.75-38.43 0-21.2 17.36-38.42 38.75-38.42 21.4 0 38.75 17.2 38.75 38.42z" fill="#9d5025"/><path d="M847.5-641.58c0 21.2-17.36 38.42-38.75 38.42-21.4 0-38.75-17.2-38.75-38.42 0-21.2 17.36-38.42 38.75-38.42 21.4 0 38.75 17.2 38.75 38.42z" fill="#f58536"/><path d="M776.17-652.8h14.07v22.43h-14.07v-22.42zM821.13-668.1h12.56v12.44h-12.57v-12.45zM821.13-647.8h12.56v12.44h-12.57v-12.45zM821.13-627.5h12.56v12.46h-12.57v-12.45z" fill="#fff"/><path d="M817.66-639.95l2.1-1 1.37-.67-1.37-.67-1.86-.9-5.6-2.75v2.74h-16.8l19.1-12.16 1.52 2.34 3.16-5.32.93-1.55.93-1.54-1.78.2-2.03.24-5.98.7 1.44 2.2-23.45 14.9-2.57 1.62 3.1 1.95 22.92 14.57-1.44 2.2 5.98.7 2.03.24 1.78.2-.92-1.55-.92-1.55-3.16-5.32-1.52 2.34-19.1-12.15h16.8v2.66l5.36-2.65z" fill="#fff"/><g><use xlink:href="#be" transform="matrix(1,0,0,1,770,-600) translate(21.525 14.4)"/></g><path d="M847.5-498.43c0 21.2-17.36 38.42-38.75 38.42-21.4 0-38.75-17.22-38.75-38.43 0-21.2 17.36-38.42 38.75-38.42 21.4 0 38.75 17.2 38.75 38.42z" fill="#9d5025"/><path d="M847.5-501.58c0 21.2-17.36 38.42-38.75 38.42-21.4 0-38.75-17.2-38.75-38.42 0-21.2 17.36-38.42 38.75-38.42 21.4 0 38.75 17.2 38.75 38.42z" fill="#f58536"/><path d="M776.17-512.8h14.07v22.43h-14.07v-22.42zM821.13-528.1h12.56v12.44h-12.57v-12.45zM821.13-507.8h12.56v12.44h-12.57v-12.45zM821.13-487.5h12.56v12.46h-12.57v-12.45z" fill="#fff"/><path d="M817.66-499.95l2.1-1 1.37-.67-1.37-.67-1.86-.9-5.6-2.75v2.74h-16.8l19.1-12.16 1.52 2.34 3.16-5.32.93-1.55.93-1.54-1.78.2-2.03.24-5.98.7 1.44 2.2-23.45 14.9-2.57 1.62 3.1 1.95 22.92 14.57-1.44 2.2 5.98.7 2.03.24 1.78.2-.92-1.55-.92-1.55-3.16-5.32-1.52 2.34-19.1-12.15h16.8v2.66l5.36-2.65z" fill="#fff"/><g><use xlink:href="#be" transform="matrix(1,0,0,1,770,-460) translate(21.525 14.4)"/></g><path d="M847.5-358.43c0 21.2-17.36 38.42-38.75 38.42-21.4 0-38.75-17.22-38.75-38.43 0-21.2 17.36-38.42 38.75-38.42 21.4 0 38.75 17.2 38.75 38.42z" fill="#9d5025"/><path d="M847.5-361.58c0 21.2-17.36 38.42-38.75 38.42-21.4 0-38.75-17.2-38.75-38.42 0-21.2 17.36-38.42 38.75-38.42 21.4 0 38.75 17.2 38.75 38.42z" fill="#f58536"/><path d="M776.17-372.8h14.07v22.43h-14.07v-22.42zM821.13-388.1h12.56v12.44h-12.57v-12.45zM821.13-367.8h12.56v12.44h-12.57v-12.45zM821.13-347.5h12.56v12.46h-12.57v-12.45z" fill="#fff"/><path d="M817.66-359.95l2.1-1 1.37-.67-1.37-.67-1.86-.9-5.6-2.75v2.74h-16.8l19.1-12.16 1.52 2.34 3.16-5.32.93-1.55.93-1.54-1.78.2-2.03.24-5.98.7 1.44 2.2-23.45 14.9-2.57 1.62 3.1 1.95 22.92 14.57-1.44 2.2 5.98.7 2.03.24 1.78.2-.92-1.55-.92-1.55-3.16-5.32-1.52 2.34-19.1-12.15h16.8v2.66l5.36-2.65z" fill="#fff"/><g><use xlink:href="#be" transform="matrix(1,0,0,1,770,-320) translate(21.525 14.4)"/></g><path d="M690.5-643.1h40.26v13.1h21.75M690.5-643.1h-3" stroke="#000" stroke-width="2" fill="none"/><path d="M767.78-630l-14.27 4.64v-9.28z"/><path d="M771.02-630l-18.5 6v-12zm-16.5 3.26l10.02-3.26-10.03-3.26z"/><path d="M690.5-519.67h39.8v20h21.28M690.5-519.67h-3" stroke="#000" stroke-width="2" fill="none"/><path d="M766.84-499.67l-14.26 4.64v-9.27z"/><path d="M770.08-499.67l-18.5 6v-12zm-16.5 3.26l10.03-3.27-10.02-3.26z"/><path d="M690.5-386.56h39.9v20h21.42M690.5-386.56h-3" stroke="#000" stroke-width="2" fill="none"/><path d="M767.1-366.56l-14.28 4.64v-9.27z"/><path d="M770.32-366.56l-18.5 6.02v-12.03zm-16.5 3.26l10.03-3.26-10.03-3.26z"/><path d="M1000-290v-177.73" stroke="#000" stroke-width="2" fill="none"/><path d="M1001-289.94l-1-.06-1 .04v-.04h2zM1004.64-468.73h-9.28L1000-483z"/><path d="M1006-467.73h-12l6-18.5zm-9.26-2h6.52l-3.26-10.03z"/><path d="M350-620v68.66h81" stroke="#000" stroke-width="2" fill="none"/><path d="M350-620h-1v-.05zm1 0h-1l1-.04z"/><path d="M446.26-551.34L432-546.7v-9.27z" stroke="#000" stroke-width="2"/><path d="M1445.37-628.83v-52.67" stroke="#000" stroke-width="2" fill="none"/><path d="M1446.37-628.8l-1-.03h-1 2z"/><path d="M1445.37-696.76l4.63 14.26h-9.27z" stroke="#000" stroke-width="2"/><path d="M170-520v120h261" stroke="#000" stroke-width="2" fill="none"/><path d="M170-520h-1v-.05zm1 0h-1l1-.04z"/><path d="M446.26-400L432-395.36v-9.28z" stroke="#000" stroke-width="2"/><path d="M687.05-140H1000v-61.5M687.05-140h-3" stroke="#000" stroke-width="2" fill="none"/><path d="M1004.64-202.5h-9.28l4.64-14.27z"/><path d="M1006-201.5h-12l6-18.5zm-9.26-2h6.52l-3.26-10.03z"/><path d="M846.5-630h55.26v123.77h36.76" stroke="#000" stroke-width="2" fill="none"/><path d="M846.5-629h-.2l.2-1zM953.8-506.23l-14.28 4.64v-9.26z"/><path d="M957.02-506.23l-18.5 6.02v-12.04zm-16.5 3.26l10.03-3.26-10.03-3.25z"/><path d="M846.5-350h55.26v-156.23h36.76" stroke="#000" stroke-width="2" fill="none"/><path d="M846.5-349h-.2l.2-1zM953.8-506.23l-14.28 4.64v-9.26z"/><path d="M957.02-506.23l-18.5 6.02v-12.04zm-16.5 3.26l10.03-3.26-10.03-3.25z"/><path d="M1000-546.23v-226.02" stroke="#000" stroke-width="2" fill="none"/><path d="M1001-546.17l-1-.06h-1 2zM1004.64-773.26h-9.28l4.64-14.27z"/><path d="M1006-772.26h-12l6-18.5zm-9.26-2h6.52L1000-784.3z"/><path d="M846.5-490h55.26v-16.23h36.76" stroke="#000" stroke-width="2" fill="none"/><path d="M846.5-489h-.2l.2-1zM953.8-506.23l-14.28 4.64v-9.26z"/><path d="M957.02-506.23l-18.5 6.02v-12.04zm-16.5 3.26l10.03-3.26-10.03-3.25z"/><path d="M687.05-270h253.58v-217.72M687.05-270h-3" stroke="#000" stroke-width="2" fill="none"/><path d="M940.63-503l4.63 14.28H936z" stroke="#000" stroke-width="2"/><path d="M170-560v-401" stroke="#000" stroke-width="2" fill="none"/><path d="M171-558.38l-1-.04-1 .03 1-.65zm0-1.57l-1-.05-1 .03v-.03h2z"/><path d="M170-976.26l4.64 14.26h-9.28z" stroke="#000" stroke-width="2"/><path d="M350-660v-160h30v-141.5" stroke="#000" stroke-width="2" fill="none"/><path d="M351-658.38l-1-.04-1 .03 1-.65zm0-1.57l-1-.05-1 .03v-.03h2z"/><path d="M380-976.76l4.64 14.26h-9.28z" stroke="#000" stroke-width="2"/><defs><path d="M30-248c118-7 216 8 213 122C240-48 200 0 122 0H30v-248zM63-27c89 8 146-16 146-99s-60-101-146-95v194" id="bf"/><path d="M141-36C126-15 110 5 73 4 37 3 15-17 15-53c-1-64 63-63 125-63 3-35-9-54-41-54-24 1-41 7-42 31l-33-3c5-37 33-52 76-52 45 0 72 20 72 64v82c-1 20 7 32 28 27v20c-31 9-61-2-59-35zM48-53c0 20 12 33 32 33 41-3 63-29 60-74-43 2-92-5-92 41" id="bg"/><path d="M59-47c-2 24 18 29 38 22v24C64 9 27 4 27-40v-127H5v-23h24l9-43h21v43h35v23H59v120" id="bh"/><g id="a"><use transform="matrix(0.05,0,0,0.05,0,0)" xlink:href="#bf"/><use transform="matrix(0.05,0,0,0.05,12.950000000000001,0)" xlink:href="#bg"/><use transform="matrix(0.05,0,0,0.05,22.950000000000003,0)" xlink:href="#bh"/><use transform="matrix(0.05,0,0,0.05,27.950000000000003,0)" xlink:href="#bg"/></g><path d="M212-179c-10-28-35-45-73-45-59 0-87 40-87 99 0 60 29 101 89 101 43 0 62-24 78-52l27 14C228-24 195 4 139 4 59 4 22-46 18-125c-6-104 99-153 187-111 19 9 31 26 39 46" id="bi"/><path d="M100-194c62-1 85 37 85 99 1 63-27 99-86 99S16-35 15-95c0-66 28-99 85-99zM99-20c44 1 53-31 53-75 0-43-8-75-51-75s-53 32-53 75 10 74 51 75" id="bj"/><path d="M210-169c-67 3-38 105-44 169h-31v-121c0-29-5-50-35-48C34-165 62-65 56 0H25l-1-190h30c1 10-1 24 2 32 10-44 99-50 107 0 11-21 27-35 58-36 85-2 47 119 55 194h-31v-121c0-29-5-49-35-48" id="bk"/><path d="M117-194c89-4 53 116 60 194h-32v-121c0-31-8-49-39-48C34-167 62-67 57 0H25l-1-190h30c1 10-1 24 2 32 11-22 29-35 61-36" id="bl"/><path d="M135-143c-3-34-86-38-87 0 15 53 115 12 119 90S17 21 10-45l28-5c4 36 97 45 98 0-10-56-113-15-118-90-4-57 82-63 122-42 12 7 21 19 24 35" id="bm"/><g id="b"><use transform="matrix(0.05,0,0,0.05,0,0)" xlink:href="#bi"/><use transform="matrix(0.05,0,0,0.05,12.950000000000001,0)" xlink:href="#bj"/><use transform="matrix(0.05,0,0,0.05,22.950000000000003,0)" xlink:href="#bk"/><use transform="matrix(0.05,0,0,0.05,37.900000000000006,0)" xlink:href="#bk"/><use transform="matrix(0.05,0,0,0.05,52.85,0)" xlink:href="#bj"/><use transform="matrix(0.05,0,0,0.05,62.85,0)" xlink:href="#bl"/><use transform="matrix(0.05,0,0,0.05,72.85000000000001,0)" xlink:href="#bm"/></g><path d="M27 0v-27h64v-190l-56 39v-29l58-41h29v221h61V0H27" id="bn"/><use transform="matrix(0.05,0,0,0.05,0,0)" xlink:href="#bn" id="c"/><path d="M185-189c-5-48-123-54-124 2 14 75 158 14 163 119 3 78-121 87-175 55-17-10-28-26-33-46l33-7c5 56 141 63 141-1 0-78-155-14-162-118-5-82 145-84 179-34 5 7 8 16 11 25" id="bo"/><path d="M140-251c81 0 123 46 123 126C263-46 219 4 140 4 59 4 17-45 17-125s42-126 123-126zm0 227c63 0 89-41 89-101s-29-99-89-99c-61 0-89 39-89 99S79-25 140-24" id="bp"/><path d="M-5 72V49h209v23H-5" id="bq"/><path d="M240 0l2-218c-23 76-54 145-80 218h-23L58-218 59 0H30v-248h44l77 211c21-75 51-140 76-211h43V0h-30" id="br"/><path d="M205 0l-28-72H64L36 0H1l101-248h38L239 0h-34zm-38-99l-47-123c-12 45-31 82-46 123h93" id="bs"/><path d="M33 0v-248h34V0H33" id="bt"/><path d="M190 0L58-211 59 0H30v-248h39L202-35l-2-213h31V0h-41" id="bu"/><path d="M137 0h-34L2-248h35l83 218 83-218h36" id="bv"/><path d="M30-248c87 1 191-15 191 75 0 78-77 80-158 76V0H30v-248zm33 125c57 0 124 11 124-50 0-59-68-47-124-48v98" id="bw"/><g id="d"><use transform="matrix(0.05,0,0,0.05,0,0)" xlink:href="#bi"/><use transform="matrix(0.05,0,0,0.05,12.950000000000001,0)" xlink:href="#bo"/><use transform="matrix(0.05,0,0,0.05,24.950000000000003,0)" xlink:href="#bp"/><use transform="matrix(0.05,0,0,0.05,38.95,0)" xlink:href="#bi"/><use transform="matrix(0.05,0,0,0.05,51.900000000000006,0)" xlink:href="#bq"/><use transform="matrix(0.05,0,0,0.05,61.900000000000006,0)" xlink:href="#br"/><use transform="matrix(0.05,0,0,0.05,76.85000000000001,0)" xlink:href="#bs"/><use transform="matrix(0.05,0,0,0.05,88.85000000000001,0)" xlink:href="#bt"/><use transform="matrix(0.05,0,0,0.05,93.85000000000001,0)" xlink:href="#bu"/><use transform="matrix(0.05,0,0,0.05,106.80000000000001,0)" xlink:href="#bq"/><use transform="matrix(0.05,0,0,0.05,116.80000000000001,0)" xlink:href="#bv"/><use transform="matrix(0.05,0,0,0.05,128.8,0)" xlink:href="#bw"/><use transform="matrix(0.05,0,0,0.05,140.8,0)" xlink:href="#bi"/></g><g id="e"><use transform="matrix(0.05,0,0,0.05,0,0)" xlink:href="#bi"/><use transform="matrix(0.05,0,0,0.05,12.950000000000001,0)" xlink:href="#bo"/><use transform="matrix(0.05,0,0,0.05,24.950000000000003,0)" xlink:href="#bp"/><use transform="matrix(0.05,0,0,0.05,38.95,0)" xlink:href="#bi"/></g><path d="M30 0v-248h187v28H63v79h144v27H63v87h162V0H30" id="bx"/><path d="M127-220V0H93v-220H8v-28h204v28h-85" id="by"/><path d="M266 0h-40l-56-210L115 0H75L2-248h35L96-30l15-64 43-154h32l59 218 59-218h35" id="bz"/><path d="M233-177c-1 41-23 64-60 70L243 0h-38l-65-103H63V0H30v-248c88 3 205-21 203 71zM63-129c60-2 137 13 137-47 0-61-80-42-137-45v92" id="bA"/><path d="M194 0L95-120 63-95V0H30v-248h33v124l119-124h40L117-140 236 0h-42" id="bB"/><g id="f"><use transform="matrix(0.05,0,0,0.05,0,0)" xlink:href="#bu"/><use transform="matrix(0.05,0,0,0.05,12.950000000000001,0)" xlink:href="#bx"/><use transform="matrix(0.05,0,0,0.05,24.950000000000003,0)" xlink:href="#by"/><use transform="matrix(0.05,0,0,0.05,35.900000000000006,0)" xlink:href="#bz"/><use transform="matrix(0.05,0,0,0.05,52.85,0)" xlink:href="#bp"/><use transform="matrix(0.05,0,0,0.05,66.85000000000001,0)" xlink:href="#bA"/><use transform="matrix(0.05,0,0,0.05,79.80000000000001,0)" xlink:href="#bB"/></g><path d="M143 4C61 4 22-44 18-125c-5-107 100-154 193-111 17 8 29 25 37 43l-32 9c-13-25-37-40-76-40-61 0-88 39-88 99 0 61 29 100 91 101 35 0 62-11 79-27v-45h-74v-28h105v86C228-13 192 4 143 4" id="bC"/><g id="g"><use transform="matrix(0.05,0,0,0.05,0,0)" xlink:href="#bf"/><use transform="matrix(0.05,0,0,0.05,12.950000000000001,0)" xlink:href="#bt"/><use transform="matrix(0.05,0,0,0.05,17.950000000000003,0)" xlink:href="#bs"/><use transform="matrix(0.05,0,0,0.05,29.950000000000003,0)" xlink:href="#bC"/><use transform="matrix(0.05,0,0,0.05,43.95,0)" xlink:href="#bA"/><use transform="matrix(0.05,0,0,0.05,56.900000000000006,0)" xlink:href="#bs"/><use transform="matrix(0.05,0,0,0.05,68.9,0)" xlink:href="#br"/></g><path d="M232-93c-1 65-40 97-104 97C67 4 28-28 28-90v-158h33c8 89-33 224 67 224 102 0 64-133 71-224h33v155" id="bD"/><g id="h"><use transform="matrix(0.05,0,0,0.05,0,0)" xlink:href="#bs"/><use transform="matrix(0.05,0,0,0.05,12,0)" xlink:href="#bi"/><use transform="matrix(0.05,0,0,0.05,24.950000000000003,0)" xlink:href="#bi"/><use transform="matrix(0.05,0,0,0.05,37.900000000000006,0)" xlink:href="#bp"/><use transform="matrix(0.05,0,0,0.05,51.900000000000006,0)" xlink:href="#bD"/><use transform="matrix(0.05,0,0,0.05,64.85000000000001,0)" xlink:href="#bu"/><use transform="matrix(0.05,0,0,0.05,77.80000000000001,0)" xlink:href="#by"/></g><g id="i"><use transform="matrix(0.05,0,0,0.05,0,0)" xlink:href="#bf"/><use transform="matrix(0.05,0,0,0.05,12.950000000000001,0)" xlink:href="#bs"/><use transform="matrix(0.05,0,0,0.05,23.6,0)" xlink:href="#by"/><use transform="matrix(0.05,0,0,0.05,33.2,0)" xlink:href="#bs"/></g><g id="j"><use transform="matrix(0.05,0,0,0.05,0,0)" xlink:href="#bi"/><use transform="matrix(0.05,0,0,0.05,12.950000000000001,0)" xlink:href="#bp"/><use transform="matrix(0.05,0,0,0.05,26.950000000000003,0)" xlink:href="#br"/><use transform="matrix(0.05,0,0,0.05,41.900000000000006,0)" xlink:href="#br"/><use transform="matrix(0.05,0,0,0.05,56.85,0)" xlink:href="#bp"/><use transform="matrix(0.05,0,0,0.05,70.85000000000001,0)" xlink:href="#bu"/><use transform="matrix(0.05,0,0,0.05,83.80000000000001,0)" xlink:href="#bo"/></g><path d="M140-251c81 0 123 46 123 126C263-53 228-8 163 1c7 30 30 48 69 40v23c-55 16-95-15-103-61C56-3 17-48 17-125c0-80 42-126 123-126zm0 227c63 0 89-41 89-101s-29-99-89-99c-61 0-89 39-89 99S79-25 140-24" id="bE"/><path d="M84 4C-5 8 30-112 23-190h32v120c0 31 7 50 39 49 72-2 45-101 50-169h31l1 190h-30c-1-10 1-25-2-33-11 22-28 36-60 37" id="bF"/><path d="M24 0v-261h32V0H24" id="bG"/><path d="M179-190L93 31C79 59 56 82 12 73V49c39 6 53-20 64-50L1-190h34L92-34l54-156h33" id="bH"/><g id="k"><use transform="matrix(0.05,0,0,0.05,0,0)" xlink:href="#bE"/><use transform="matrix(0.05,0,0,0.05,14,0)" xlink:href="#bF"/><use transform="matrix(0.05,0,0,0.05,24,0)" xlink:href="#bg"/><use transform="matrix(0.05,0,0,0.05,34,0)" xlink:href="#bG"/><use transform="matrix(0.05,0,0,0.05,37.95,0)" xlink:href="#bH"/><use transform="matrix(0.05,0,0,0.05,46.95,0)" xlink:href="#bm"/></g><path d="M96-169c-40 0-48 33-48 73s9 75 48 75c24 0 41-14 43-38l32 2c-6 37-31 61-74 61-59 0-76-41-82-99-10-93 101-131 147-64 4 7 5 14 7 22l-32 3c-4-21-16-35-41-35" id="bI"/><path d="M100-194c63 0 86 42 84 106H49c0 40 14 67 53 68 26 1 43-12 49-29l28 8c-11 28-37 45-77 45C44 4 14-33 15-96c1-61 26-98 85-98zm52 81c6-60-76-77-97-28-3 7-6 17-6 28h103" id="bJ"/><path d="M114-163C36-179 61-72 57 0H25l-1-190h30c1 12-1 29 2 39 6-27 23-49 58-41v29" id="bK"/><g id="l"><use transform="matrix(0.05,0,0,0.05,0,0)" xlink:href="#bm"/><use transform="matrix(0.05,0,0,0.05,9,0)" xlink:href="#bI"/><use transform="matrix(0.05,0,0,0.05,18,0)" xlink:href="#bg"/><use transform="matrix(0.05,0,0,0.05,28,0)" xlink:href="#bl"/><use transform="matrix(0.05,0,0,0.05,38,0)" xlink:href="#bl"/><use transform="matrix(0.05,0,0,0.05,48,0)" xlink:href="#bJ"/><use transform="matrix(0.05,0,0,0.05,58,0)" xlink:href="#bK"/></g><g id="m"><use transform="matrix(0.05,0,0,0.05,0,0)" xlink:href="#bt"/><use transform="matrix(0.05,0,0,0.05,5,0)" xlink:href="#bl"/><use transform="matrix(0.05,0,0,0.05,15,0)" xlink:href="#bh"/><use transform="matrix(0.05,0,0,0.05,20,0)" xlink:href="#bJ"/><use transform="matrix(0.05,0,0,0.05,30,0)" xlink:href="#bK"/><use transform="matrix(0.05,0,0,0.05,35.95,0)" xlink:href="#bl"/><use transform="matrix(0.05,0,0,0.05,45.95,0)" xlink:href="#bJ"/><use transform="matrix(0.05,0,0,0.05,55.95,0)" xlink:href="#bh"/></g><path d="M177-190C167-65 218 103 67 71c-23-6-38-20-44-43l32-5c15 47 100 32 89-28v-30C133-14 115 1 83 1 29 1 15-40 15-95c0-56 16-97 71-98 29-1 48 16 59 35 1-10 0-23 2-32h30zM94-22c36 0 50-32 50-73 0-42-14-75-50-75-39 0-46 34-46 75s6 73 46 73" id="bL"/><path d="M206 0h-36l-40-164L89 0H53L-1-190h32L70-26l43-164h34l41 164 42-164h31" id="bM"/><g id="n"><use transform="matrix(0.05,0,0,0.05,0,0)" xlink:href="#bL"/><use transform="matrix(0.05,0,0,0.05,10,0)" xlink:href="#bg"/><use transform="matrix(0.05,0,0,0.05,20,0)" xlink:href="#bh"/><use transform="matrix(0.05,0,0,0.05,25,0)" xlink:href="#bJ"/><use transform="matrix(0.05,0,0,0.05,35,0)" xlink:href="#bM"/><use transform="matrix(0.05,0,0,0.05,47.95,0)" xlink:href="#bg"/><use transform="matrix(0.05,0,0,0.05,57.95,0)" xlink:href="#bH"/></g><g id="o"><use transform="matrix(0.05,0,0,0.05,0,0)" xlink:href="#bv"/><use transform="matrix(0.05,0,0,0.05,12,0)" xlink:href="#bw"/><use transform="matrix(0.05,0,0,0.05,24,0)" xlink:href="#bi"/></g><g id="p"><use transform="matrix(0.05,0,0,0.05,0,0)" xlink:href="#bu"/><use transform="matrix(0.05,0,0,0.05,12.950000000000001,0)" xlink:href="#bs"/><use transform="matrix(0.05,0,0,0.05,23.6,0)" xlink:href="#by"/></g><path d="M195 0l-74-108L45 0H8l94-129-87-119h37l69 98 67-98h37l-84 118L233 0h-38" id="bN"/><g id="q"><use transform="matrix(0.05,0,0,0.05,0,0)" xlink:href="#bw"/><use transform="matrix(0.05,0,0,0.05,12,0)" xlink:href="#bG"/><use transform="matrix(0.05,0,0,0.05,15.949999999999998,0)" xlink:href="#bg"/><use transform="matrix(0.05,0,0,0.05,25.950000000000003,0)" xlink:href="#bl"/><use transform="matrix(0.05,0,0,0.05,35.95,0)" xlink:href="#bN"/></g><path d="M85-194c31 0 48 13 60 33l-1-100h32l1 261h-30c-2-10 0-23-3-31C134-8 116 4 85 4 32 4 16-35 15-94c0-66 23-100 70-100zm9 24c-40 0-46 34-46 75 0 40 6 74 45 74 42 0 51-32 51-76 0-42-9-74-50-73" id="bO"/><path d="M24-231v-30h32v30H24zM24 0v-190h32V0H24" id="bP"/><path d="M0 4l72-265h28L28 4H0" id="bQ"/><g id="r"><use transform="matrix(0.05,0,0,0.05,0,0)" xlink:href="#bg"/><use transform="matrix(0.05,0,0,0.05,10,0)" xlink:href="#bO"/><use transform="matrix(0.05,0,0,0.05,20,0)" xlink:href="#bk"/><use transform="matrix(0.05,0,0,0.05,34.95,0)" xlink:href="#bP"/><use transform="matrix(0.05,0,0,0.05,38.900000000000006,0)" xlink:href="#bl"/><use transform="matrix(0.05,0,0,0.05,48.900000000000006,0)" xlink:href="#bm"/><use transform="matrix(0.05,0,0,0.05,57.900000000000006,0)" xlink:href="#bQ"/><use transform="matrix(0.05,0,0,0.05,62.900000000000006,0)" xlink:href="#bD"/><use transform="matrix(0.05,0,0,0.05,75.85000000000001,0)" xlink:href="#bm"/><use transform="matrix(0.05,0,0,0.05,84.85000000000001,0)" xlink:href="#bJ"/><use transform="matrix(0.05,0,0,0.05,94.85000000000001,0)" xlink:href="#bK"/><use transform="matrix(0.05,0,0,0.05,100.80000000000001,0)" xlink:href="#bm"/></g><path d="M101-251c82-7 93 87 43 132L82-64C71-53 59-42 53-27h129V0H18c2-99 128-94 128-182 0-28-16-43-45-43s-46 15-49 41l-32-3c6-41 34-60 81-64" id="bR"/><use transform="matrix(0.05,0,0,0.05,0,0)" xlink:href="#bR" id="s"/><g id="t"><use transform="matrix(0.05,0,0,0.05,0,0)" xlink:href="#bv"/><use transform="matrix(0.05,0,0,0.05,12,0)" xlink:href="#bw"/><use transform="matrix(0.05,0,0,0.05,24,0)" xlink:href="#bi"/></g><path d="M115-194c55 1 70 41 70 98S169 2 115 4C84 4 66-9 55-30l1 105H24l-1-265h31l2 30c10-21 28-34 59-34zm-8 174c40 0 45-34 45-75s-6-73-45-74c-42 0-51 32-51 76 0 43 10 73 51 73" id="bS"/><g id="u"><use transform="matrix(0.05,0,0,0.05,0,0)" xlink:href="#bS"/><use transform="matrix(0.05,0,0,0.05,10,0)" xlink:href="#bJ"/><use transform="matrix(0.05,0,0,0.05,20,0)" xlink:href="#bJ"/><use transform="matrix(0.05,0,0,0.05,30,0)" xlink:href="#bK"/><use transform="matrix(0.05,0,0,0.05,35.95,0)" xlink:href="#bP"/><use transform="matrix(0.05,0,0,0.05,39.900000000000006,0)" xlink:href="#bl"/><use transform="matrix(0.05,0,0,0.05,49.900000000000006,0)" xlink:href="#bL"/></g><path fill="#333" d="M205 0l-28-72H64L36 0H1l101-248h38L239 0h-34zm-38-99l-47-123c-12 45-31 82-46 123h93" id="bT"/><path fill="#333" d="M210-169c-67 3-38 105-44 169h-31v-121c0-29-5-50-35-48C34-165 62-65 56 0H25l-1-190h30c1 10-1 24 2 32 10-44 99-50 107 0 11-21 27-35 58-36 85-2 47 119 55 194h-31v-121c0-29-5-49-35-48" id="bU"/><path fill="#333" d="M141-36C126-15 110 5 73 4 37 3 15-17 15-53c-1-64 63-63 125-63 3-35-9-54-41-54-24 1-41 7-42 31l-33-3c5-37 33-52 76-52 45 0 72 20 72 64v82c-1 20 7 32 28 27v20c-31 9-61-2-59-35zM48-53c0 20 12 33 32 33 41-3 63-29 60-74-43 2-92-5-92 41" id="bV"/><path fill="#333" d="M9 0v-24l116-142H16v-24h144v24L44-24h123V0H9" id="bW"/><path fill="#333" d="M100-194c62-1 85 37 85 99 1 63-27 99-86 99S16-35 15-95c0-66 28-99 85-99zM99-20c44 1 53-31 53-75 0-43-8-75-51-75s-53 32-53 75 10 74 51 75" id="bX"/><path fill="#333" d="M117-194c89-4 53 116 60 194h-32v-121c0-31-8-49-39-48C34-167 62-67 57 0H25l-1-190h30c1 10-1 24 2 32 11-22 29-35 61-36" id="bY"/><g id="v"><use transform="matrix(0.05,0,0,0.05,0,0)" xlink:href="#bT"/><use transform="matrix(0.05,0,0,0.05,12,0)" xlink:href="#bU"/><use transform="matrix(0.05,0,0,0.05,26.950000000000003,0)" xlink:href="#bV"/><use transform="matrix(0.05,0,0,0.05,36.95,0)" xlink:href="#bW"/><use transform="matrix(0.05,0,0,0.05,45.95,0)" xlink:href="#bX"/><use transform="matrix(0.05,0,0,0.05,55.95,0)" xlink:href="#bY"/></g><path fill="#333" d="M194 0L95-120 63-95V0H30v-248h33v124l119-124h40L117-140 236 0h-42" id="bZ"/><path fill="#333" d="M24-231v-30h32v30H24zM24 0v-190h32V0H24" id="ca"/><path fill="#333" d="M100-194c63 0 86 42 84 106H49c0 40 14 67 53 68 26 1 43-12 49-29l28 8c-11 28-37 45-77 45C44 4 14-33 15-96c1-61 26-98 85-98zm52 81c6-60-76-77-97-28-3 7-6 17-6 28h103" id="cb"/><path fill="#333" d="M135-143c-3-34-86-38-87 0 15 53 115 12 119 90S17 21 10-45l28-5c4 36 97 45 98 0-10-56-113-15-118-90-4-57 82-63 122-42 12 7 21 19 24 35" id="cc"/><g id="w"><use transform="matrix(0.05,0,0,0.05,0,0)" xlink:href="#bZ"/><use transform="matrix(0.05,0,0,0.05,12,0)" xlink:href="#ca"/><use transform="matrix(0.05,0,0,0.05,15.949999999999998,0)" xlink:href="#bY"/><use transform="matrix(0.05,0,0,0.05,25.950000000000003,0)" xlink:href="#cb"/><use transform="matrix(0.05,0,0,0.05,35.95,0)" xlink:href="#cc"/><use transform="matrix(0.05,0,0,0.05,44.95,0)" xlink:href="#ca"/><use transform="matrix(0.05,0,0,0.05,48.900000000000006,0)" xlink:href="#cc"/></g><path fill="#333" d="M63-220v92h138v28H63V0H30v-248h175v28H63" id="cd"/><path fill="#333" d="M114-163C36-179 61-72 57 0H25l-1-190h30c1 12-1 29 2 39 6-27 23-49 58-41v29" id="ce"/><path fill="#333" d="M106-169C34-169 62-67 57 0H25v-261h32l-1 103c12-21 28-36 61-36 89 0 53 116 60 194h-32v-121c2-32-8-49-39-48" id="cf"/><g id="x"><use transform="matrix(0.05,0,0,0.05,0,0)" xlink:href="#cd"/><use transform="matrix(0.05,0,0,0.05,10.950000000000001,0)" xlink:href="#ca"/><use transform="matrix(0.05,0,0,0.05,14.9,0)" xlink:href="#ce"/><use transform="matrix(0.05,0,0,0.05,20.85,0)" xlink:href="#cb"/><use transform="matrix(0.05,0,0,0.05,30.85,0)" xlink:href="#cf"/><use transform="matrix(0.05,0,0,0.05,40.85,0)" xlink:href="#bX"/><use transform="matrix(0.05,0,0,0.05,50.85,0)" xlink:href="#cc"/><use transform="matrix(0.05,0,0,0.05,59.85,0)" xlink:href="#cb"/></g><path fill="#333" d="M101-234c-31-9-42 10-38 44h38v23H63V0H32v-167H5v-23h27c-7-52 17-82 69-68v24" id="cg"/><g id="y"><use transform="matrix(0.05,0,0,0.05,0,0)" xlink:href="#cg"/><use transform="matrix(0.05,0,0,0.05,5,0)" xlink:href="#bX"/><use transform="matrix(0.05,0,0,0.05,15,0)" xlink:href="#ce"/></g><path fill="#333" d="M96-169c-40 0-48 33-48 73s9 75 48 75c24 0 41-14 43-38l32 2c-6 37-31 61-74 61-59 0-76-41-82-99-10-93 101-131 147-64 4 7 5 14 7 22l-32 3c-4-21-16-35-41-35" id="ch"/><g id="z"><use transform="matrix(0.05,0,0,0.05,0,0)" xlink:href="#ch"/><use transform="matrix(0.05,0,0,0.05,9,0)" xlink:href="#bX"/><use transform="matrix(0.05,0,0,0.05,19,0)" xlink:href="#bU"/><use transform="matrix(0.05,0,0,0.05,33.95,0)" xlink:href="#bU"/><use transform="matrix(0.05,0,0,0.05,48.900000000000006,0)" xlink:href="#bX"/><use transform="matrix(0.05,0,0,0.05,58.900000000000006,0)" xlink:href="#bY"/></g><path fill="#333" d="M26 75v-336h71v23H56V52h41v23H26" id="ci"/><path fill="#333" d="M16-82v-28h88v28H16" id="cj"/><path fill="#333" d="M209 0H11v-25l151-195H24v-28h176v25L50-27h159V0" id="ck"/><path fill="#333" d="M3 75V52h41v-290H3v-23h71V75H3" id="cl"/><g id="A"><use transform="matrix(0.05,0,0,0.05,0,0)" xlink:href="#ci"/><use transform="matrix(0.05,0,0,0.05,5,0)" xlink:href="#bT"/><use transform="matrix(0.05,0,0,0.05,17,0)" xlink:href="#cj"/><use transform="matrix(0.05,0,0,0.05,22.95,0)" xlink:href="#ck"/><use transform="matrix(0.05,0,0,0.05,33.9,0)" xlink:href="#cl"/></g><path fill="#333" d="M185-189c-5-48-123-54-124 2 14 75 158 14 163 119 3 78-121 87-175 55-17-10-28-26-33-46l33-7c5 56 141 63 141-1 0-78-155-14-162-118-5-82 145-84 179-34 5 7 8 16 11 25" id="cm"/><path fill="#333" d="M59-47c-2 24 18 29 38 22v24C64 9 27 4 27-40v-127H5v-23h24l9-43h21v43h35v23H59v120" id="cn"/><g id="B"><use transform="matrix(0.05,0,0,0.05,0,0)" xlink:href="#cm"/><use transform="matrix(0.05,0,0,0.05,12,0)" xlink:href="#cn"/><use transform="matrix(0.05,0,0,0.05,17,0)" xlink:href="#ce"/><use transform="matrix(0.05,0,0,0.05,22.95,0)" xlink:href="#cb"/><use transform="matrix(0.05,0,0,0.05,32.95,0)" xlink:href="#bV"/><use transform="matrix(0.05,0,0,0.05,42.95,0)" xlink:href="#bU"/></g><path fill="#333" d="M212-179c-10-28-35-45-73-45-59 0-87 40-87 99 0 60 29 101 89 101 43 0 62-24 78-52l27 14C228-24 195 4 139 4 59 4 22-46 18-125c-6-104 99-153 187-111 19 9 31 26 39 46" id="co"/><g id="C"><use transform="matrix(0.05,0,0,0.05,0,0)" xlink:href="#co"/><use transform="matrix(0.05,0,0,0.05,12.950000000000001,0)" xlink:href="#bX"/><use transform="matrix(0.05,0,0,0.05,22.950000000000003,0)" xlink:href="#bU"/><use transform="matrix(0.05,0,0,0.05,37.900000000000006,0)" xlink:href="#bU"/><use transform="matrix(0.05,0,0,0.05,52.85,0)" xlink:href="#bX"/><use transform="matrix(0.05,0,0,0.05,62.85,0)" xlink:href="#bY"/></g><g id="D"><use transform="matrix(0.05,0,0,0.05,0,0)" xlink:href="#co"/><use transform="matrix(0.05,0,0,0.05,12.950000000000001,0)" xlink:href="#bX"/><use transform="matrix(0.05,0,0,0.05,22.950000000000003,0)" xlink:href="#bU"/><use transform="matrix(0.05,0,0,0.05,37.900000000000006,0)" xlink:href="#bU"/><use transform="matrix(0.05,0,0,0.05,52.85,0)" xlink:href="#bX"/><use transform="matrix(0.05,0,0,0.05,62.85,0)" xlink:href="#bY"/></g><g id="E"><use transform="matrix(0.05,0,0,0.05,0,0)" xlink:href="#ci"/><use transform="matrix(0.05,0,0,0.05,5,0)" xlink:href="#bT"/><use transform="matrix(0.05,0,0,0.05,17,0)" xlink:href="#cj"/><use transform="matrix(0.05,0,0,0.05,22.95,0)" xlink:href="#ck"/><use transform="matrix(0.05,0,0,0.05,33.9,0)" xlink:href="#cl"/></g><path fill="#333" d="M115-194c53 0 69 39 70 98 0 66-23 100-70 100C84 3 66-7 56-30L54 0H23l1-261h32v101c10-23 28-34 59-34zm-8 174c40 0 45-34 45-75 0-40-5-75-45-74-42 0-51 32-51 76 0 43 10 73 51 73" id="cp"/><path fill="#333" d="M84 4C-5 8 30-112 23-190h32v120c0 31 7 50 39 49 72-2 45-101 50-169h31l1 190h-30c-1-10 1-25-2-33-11 22-28 36-60 37" id="cq"/><path fill="#333" d="M143 0L79-87 56-68V0H24v-261h32v163l83-92h37l-77 82L181 0h-38" id="cr"/><g id="F"><use transform="matrix(0.05,0,0,0.05,0,0)" xlink:href="#cp"/><use transform="matrix(0.05,0,0,0.05,10,0)" xlink:href="#cq"/><use transform="matrix(0.05,0,0,0.05,20,0)" xlink:href="#ch"/><use transform="matrix(0.05,0,0,0.05,29,0)" xlink:href="#cr"/><use transform="matrix(0.05,0,0,0.05,38,0)" xlink:href="#cb"/><use transform="matrix(0.05,0,0,0.05,48,0)" xlink:href="#cn"/></g><path fill="#333" d="M30 0v-248h33v221h125V0H30" id="cs"/><path fill="#333" d="M85-194c31 0 48 13 60 33l-1-100h32l1 261h-30c-2-10 0-23-3-31C134-8 116 4 85 4 32 4 16-35 15-94c0-66 23-100 70-100zm9 24c-40 0-46 34-46 75 0 40 6 74 45 74 42 0 51-32 51-76 0-42-9-74-50-73" id="ct"/><g id="G"><use transform="matrix(0.05,0,0,0.05,0,0)" xlink:href="#cs"/><use transform="matrix(0.05,0,0,0.05,10,0)" xlink:href="#bV"/><use transform="matrix(0.05,0,0,0.05,20,0)" xlink:href="#bU"/><use transform="matrix(0.05,0,0,0.05,34.95,0)" xlink:href="#cp"/><use transform="matrix(0.05,0,0,0.05,44.95,0)" xlink:href="#ct"/><use transform="matrix(0.05,0,0,0.05,54.95,0)" xlink:href="#bV"/></g><g id="H"><use transform="matrix(0.05,0,0,0.05,0,0)" xlink:href="#cg"/><use transform="matrix(0.05,0,0,0.05,5,0)" xlink:href="#cq"/><use transform="matrix(0.05,0,0,0.05,15,0)" xlink:href="#bY"/><use transform="matrix(0.05,0,0,0.05,25,0)" xlink:href="#ch"/><use transform="matrix(0.05,0,0,0.05,34,0)" xlink:href="#cn"/><use transform="matrix(0.05,0,0,0.05,39,0)" xlink:href="#ca"/><use transform="matrix(0.05,0,0,0.05,42.95,0)" xlink:href="#bX"/><use transform="matrix(0.05,0,0,0.05,52.95,0)" xlink:href="#bY"/></g><g id="I"><use transform="matrix(0.05,0,0,0.05,0,0)" xlink:href="#cg"/><use transform="matrix(0.05,0,0,0.05,5,0)" xlink:href="#bX"/><use transform="matrix(0.05,0,0,0.05,15,0)" xlink:href="#ce"/></g><path fill="#333" d="M140-251c81 0 123 46 123 126C263-46 219 4 140 4 59 4 17-45 17-125s42-126 123-126zm0 227c63 0 89-41 89-101s-29-99-89-99c-61 0-89 39-89 99S79-25 140-24" id="cu"/><g id="J"><use transform="matrix(0.05,0,0,0.05,0,0)" xlink:href="#co"/><use transform="matrix(0.05,0,0,0.05,12.950000000000001,0)" xlink:href="#cm"/><use transform="matrix(0.05,0,0,0.05,24.950000000000003,0)" xlink:href="#cu"/><use transform="matrix(0.05,0,0,0.05,38.95,0)" xlink:href="#co"/></g><path fill="#333" d="M30 0v-248h187v28H63v79h144v27H63v87h162V0H30" id="cv"/><path fill="#333" d="M24 0v-261h32V0H24" id="cw"/><g id="K"><use transform="matrix(0.05,0,0,0.05,0,0)" xlink:href="#cv"/><use transform="matrix(0.05,0,0,0.05,12,0)" xlink:href="#cw"/><use transform="matrix(0.05,0,0,0.05,15.949999999999998,0)" xlink:href="#bV"/><use transform="matrix(0.05,0,0,0.05,25.950000000000003,0)" xlink:href="#cc"/><use transform="matrix(0.05,0,0,0.05,34.95,0)" xlink:href="#cn"/><use transform="matrix(0.05,0,0,0.05,39.95,0)" xlink:href="#ca"/><use transform="matrix(0.05,0,0,0.05,43.900000000000006,0)" xlink:href="#ch"/><use transform="matrix(0.05,0,0,0.05,52.900000000000006,0)" xlink:href="#cm"/><use transform="matrix(0.05,0,0,0.05,64.9,0)" xlink:href="#cb"/><use transform="matrix(0.05,0,0,0.05,74.9,0)" xlink:href="#bV"/><use transform="matrix(0.05,0,0,0.05,84.9,0)" xlink:href="#ch"/><use transform="matrix(0.05,0,0,0.05,93.9,0)" xlink:href="#cf"/></g><path d="M108 0H70L1-190h34L89-25l56-165h34" id="cx"/><path d="M115-194c53 0 69 39 70 98 0 66-23 100-70 100C84 3 66-7 56-30L54 0H23l1-261h32v101c10-23 28-34 59-34zm-8 174c40 0 45-34 45-75 0-40-5-75-45-74-42 0-51 32-51 76 0 43 10 73 51 73" id="cy"/><g id="L"><use transform="matrix(0.05,0,0,0.05,0,0)" xlink:href="#bs"/><use transform="matrix(0.05,0,0,0.05,11.65,0)" xlink:href="#cx"/><use transform="matrix(0.05,0,0,0.05,20.65,0)" xlink:href="#bg"/><use transform="matrix(0.05,0,0,0.05,30.649999999999995,0)" xlink:href="#bP"/><use transform="matrix(0.05,0,0,0.05,34.6,0)" xlink:href="#bG"/><use transform="matrix(0.05,0,0,0.05,38.550000000000004,0)" xlink:href="#bg"/><use transform="matrix(0.05,0,0,0.05,48.550000000000004,0)" xlink:href="#cy"/><use transform="matrix(0.05,0,0,0.05,58.550000000000004,0)" xlink:href="#bP"/><use transform="matrix(0.05,0,0,0.05,62.5,0)" xlink:href="#bG"/><use transform="matrix(0.05,0,0,0.05,66.45,0)" xlink:href="#bP"/><use transform="matrix(0.05,0,0,0.05,70.4,0)" xlink:href="#bh"/><use transform="matrix(0.05,0,0,0.05,75.4,0)" xlink:href="#bH"/></g><path d="M209 0H11v-25l151-195H24v-28h176v25L50-27h159V0" id="cz"/><g id="M"><use transform="matrix(0.05,0,0,0.05,0,0)" xlink:href="#cz"/><use transform="matrix(0.05,0,0,0.05,10.950000000000001,0)" xlink:href="#bj"/><use transform="matrix(0.05,0,0,0.05,20.950000000000003,0)" xlink:href="#bl"/><use transform="matrix(0.05,0,0,0.05,30.950000000000003,0)" xlink:href="#bJ"/></g><g id="N"><use transform="matrix(0.05,0,0,0.05,0,0)" xlink:href="#bo"/><use transform="matrix(0.05,0,0,0.05,12,0)" xlink:href="#bF"/><use transform="matrix(0.05,0,0,0.05,22,0)" xlink:href="#cy"/><use transform="matrix(0.05,0,0,0.05,32,0)" xlink:href="#bm"/><use transform="matrix(0.05,0,0,0.05,41,0)" xlink:href="#bI"/><use transform="matrix(0.05,0,0,0.05,50,0)" xlink:href="#bK"/><use transform="matrix(0.05,0,0,0.05,55.95,0)" xlink:href="#bP"/><use transform="matrix(0.05,0,0,0.05,59.900000000000006,0)" xlink:href="#bS"/><use transform="matrix(0.05,0,0,0.05,69.9,0)" xlink:href="#bh"/><use transform="matrix(0.05,0,0,0.05,74.9,0)" xlink:href="#bP"/><use transform="matrix(0.05,0,0,0.05,78.85000000000001,0)" xlink:href="#bj"/><use transform="matrix(0.05,0,0,0.05,88.85000000000001,0)" xlink:href="#bl"/></g><path d="M101-234c-31-9-42 10-38 44h38v23H63V0H32v-167H5v-23h27c-7-52 17-82 69-68v24" id="cA"/><g id="O"><use transform="matrix(0.05,0,0,0.05,0,0)" xlink:href="#cA"/><use transform="matrix(0.05,0,0,0.05,5,0)" xlink:href="#bP"/><use transform="matrix(0.05,0,0,0.05,8.95,0)" xlink:href="#bG"/><use transform="matrix(0.05,0,0,0.05,12.899999999999999,0)" xlink:href="#bh"/><use transform="matrix(0.05,0,0,0.05,17.9,0)" xlink:href="#bJ"/><use transform="matrix(0.05,0,0,0.05,27.899999999999995,0)" xlink:href="#bK"/><use transform="matrix(0.05,0,0,0.05,33.85,0)" xlink:href="#bm"/></g><g id="P"><use transform="matrix(0.05,0,0,0.05,0,0)" xlink:href="#bm"/><use transform="matrix(0.05,0,0,0.05,9,0)" xlink:href="#bJ"/><use transform="matrix(0.05,0,0,0.05,19,0)" xlink:href="#bl"/><use transform="matrix(0.05,0,0,0.05,29,0)" xlink:href="#bO"/></g><g id="Q"><use transform="matrix(0.05,0,0,0.05,0,0)" xlink:href="#bO"/><use transform="matrix(0.05,0,0,0.05,10,0)" xlink:href="#bg"/><use transform="matrix(0.05,0,0,0.05,20,0)" xlink:href="#bh"/><use transform="matrix(0.05,0,0,0.05,25,0)" xlink:href="#bg"/></g><path d="M110-160c48 1 74 30 74 79 0 53-28 85-80 85-65 0-83-55-86-122-5-90 50-162 133-122 14 7 22 21 27 39l-31 6c-5-40-67-38-82-6-9 19-15 44-15 74 11-20 30-34 60-33zm-7 138c34 0 49-23 49-58s-16-56-50-56c-29 0-50 16-49 49 1 36 15 65 50 65" id="cB"/><path d="M155-56V0h-30v-56H8v-25l114-167h33v167h35v25h-35zm-30-156c-27 46-58 90-88 131h88v-131" id="cC"/><g id="R"><use transform="matrix(0.05,0,0,0.05,0,0)" xlink:href="#cy"/><use transform="matrix(0.05,0,0,0.05,10,0)" xlink:href="#bg"/><use transform="matrix(0.05,0,0,0.05,20,0)" xlink:href="#bm"/><use transform="matrix(0.05,0,0,0.05,29,0)" xlink:href="#bJ"/><use transform="matrix(0.05,0,0,0.05,39,0)" xlink:href="#cB"/><use transform="matrix(0.05,0,0,0.05,49,0)" xlink:href="#cC"/></g><g id="S"><use transform="matrix(0.05,0,0,0.05,0,0)" xlink:href="#bJ"/><use transform="matrix(0.05,0,0,0.05,10,0)" xlink:href="#bl"/><use transform="matrix(0.05,0,0,0.05,20,0)" xlink:href="#bI"/><use transform="matrix(0.05,0,0,0.05,29,0)" xlink:href="#bj"/><use transform="matrix(0.05,0,0,0.05,39,0)" xlink:href="#bO"/><use transform="matrix(0.05,0,0,0.05,49,0)" xlink:href="#bJ"/><use transform="matrix(0.05,0,0,0.05,59,0)" xlink:href="#bO"/></g><g id="T"><use transform="matrix(0.05,0,0,0.05,0,0)" xlink:href="#bg"/><use transform="matrix(0.05,0,0,0.05,10,0)" xlink:href="#bl"/><use transform="matrix(0.05,0,0,0.05,20,0)" xlink:href="#bO"/></g><path d="M9 0v-24l116-142H16v-24h144v24L44-24h123V0H9" id="cD"/><path d="M68-38c1 34 0 65-14 84H32c9-13 17-26 17-46H33v-38h35" id="cE"/><g id="U"><use transform="matrix(0.05,0,0,0.05,0,0)" xlink:href="#cD"/><use transform="matrix(0.05,0,0,0.05,9,0)" xlink:href="#bP"/><use transform="matrix(0.05,0,0,0.05,12.949999999999998,0)" xlink:href="#bS"/><use transform="matrix(0.05,0,0,0.05,22.95,0)" xlink:href="#bS"/><use transform="matrix(0.05,0,0,0.05,32.95,0)" xlink:href="#bJ"/><use transform="matrix(0.05,0,0,0.05,42.95,0)" xlink:href="#bO"/><use transform="matrix(0.05,0,0,0.05,52.95,0)" xlink:href="#cE"/></g><path d="M106-169C34-169 62-67 57 0H25v-261h32l-1 103c12-21 28-36 61-36 89 0 53 116 60 194h-32v-121c2-32-8-49-39-48" id="cF"/><g id="V"><use transform="matrix(0.05,0,0,0.05,0,0)" xlink:href="#bh"/><use transform="matrix(0.05,0,0,0.05,5,0)" xlink:href="#cF"/><use transform="matrix(0.05,0,0,0.05,15,0)" xlink:href="#bJ"/></g><path d="M30 0v-248h33v221h125V0H30" id="cG"/><g id="W"><use transform="matrix(0.05,0,0,0.05,0,0)" xlink:href="#cG"/><use transform="matrix(0.05,0,0,0.05,10,0)" xlink:href="#bg"/><use transform="matrix(0.05,0,0,0.05,20,0)" xlink:href="#bk"/><use transform="matrix(0.05,0,0,0.05,34.95,0)" xlink:href="#cy"/><use transform="matrix(0.05,0,0,0.05,44.95,0)" xlink:href="#bO"/><use transform="matrix(0.05,0,0,0.05,54.95,0)" xlink:href="#bg"/></g><g id="X"><use transform="matrix(0.05,0,0,0.05,0,0)" xlink:href="#cA"/><use transform="matrix(0.05,0,0,0.05,5,0)" xlink:href="#bF"/><use transform="matrix(0.05,0,0,0.05,15,0)" xlink:href="#bl"/><use transform="matrix(0.05,0,0,0.05,25,0)" xlink:href="#bI"/><use transform="matrix(0.05,0,0,0.05,34,0)" xlink:href="#bh"/><use transform="matrix(0.05,0,0,0.05,39,0)" xlink:href="#bP"/><use transform="matrix(0.05,0,0,0.05,42.95,0)" xlink:href="#bj"/><use transform="matrix(0.05,0,0,0.05,52.95,0)" xlink:href="#bl"/></g><g id="Y"><use transform="matrix(0.05,0,0,0.05,0,0)" xlink:href="#bM"/><use transform="matrix(0.05,0,0,0.05,12.950000000000001,0)" xlink:href="#bj"/><use transform="matrix(0.05,0,0,0.05,22.950000000000003,0)" xlink:href="#bF"/><use transform="matrix(0.05,0,0,0.05,32.95,0)" xlink:href="#bG"/><use transform="matrix(0.05,0,0,0.05,36.900000000000006,0)" xlink:href="#bO"/></g><g id="Z"><use transform="matrix(0.05,0,0,0.05,0,0)" xlink:href="#bO"/><use transform="matrix(0.05,0,0,0.05,10,0)" xlink:href="#bJ"/><use transform="matrix(0.05,0,0,0.05,20,0)" xlink:href="#bI"/><use transform="matrix(0.05,0,0,0.05,29,0)" xlink:href="#bj"/><use transform="matrix(0.05,0,0,0.05,39,0)" xlink:href="#bO"/><use transform="matrix(0.05,0,0,0.05,49,0)" xlink:href="#bJ"/></g><g id="aa"><use transform="matrix(0.05,0,0,0.05,0,0)" xlink:href="#bP"/><use transform="matrix(0.05,0,0,0.05,3.95,0)" xlink:href="#bh"/></g><g id="ab"><use transform="matrix(0.05,0,0,0.05,0,0)" xlink:href="#cA"/><use transform="matrix(0.05,0,0,0.05,5,0)" xlink:href="#bj"/><use transform="matrix(0.05,0,0,0.05,15,0)" xlink:href="#bK"/></g><g id="ac"><use transform="matrix(0.05,0,0,0.05,0,0)" xlink:href="#bm"/><use transform="matrix(0.05,0,0,0.05,9,0)" xlink:href="#bJ"/><use transform="matrix(0.05,0,0,0.05,19,0)" xlink:href="#bl"/><use transform="matrix(0.05,0,0,0.05,29,0)" xlink:href="#bO"/><use transform="matrix(0.05,0,0,0.05,39,0)" xlink:href="#bP"/><use transform="matrix(0.05,0,0,0.05,42.95,0)" xlink:href="#bl"/><use transform="matrix(0.05,0,0,0.05,52.95,0)" xlink:href="#bL"/></g><g id="ad"><use transform="matrix(0.05,0,0,0.05,0,0)" xlink:href="#bP"/><use transform="matrix(0.05,0,0,0.05,3.95,0)" xlink:href="#bh"/></g><g id="ae"><use transform="matrix(0.05,0,0,0.05,0,0)" xlink:href="#bh"/><use transform="matrix(0.05,0,0,0.05,5,0)" xlink:href="#bj"/></g><path d="M126-127c33 6 58 20 58 59 0 88-139 92-164 29-3-8-5-16-6-25l32-3c6 27 21 44 54 44 32 0 52-15 52-46 0-38-36-46-79-43v-28c39 1 72-4 72-42 0-27-17-43-46-43-28 0-47 15-49 41l-32-3c6-42 35-63 81-64 48-1 79 21 79 65 0 36-21 52-52 59" id="cH"/><g id="af"><use transform="matrix(0.05,0,0,0.05,0,0)" xlink:href="#bo"/><use transform="matrix(0.05,0,0,0.05,12,0)" xlink:href="#cH"/><use transform="matrix(0.05,0,0,0.05,22,0)" xlink:href="#bQ"/><use transform="matrix(0.05,0,0,0.05,27,0)" xlink:href="#bx"/><use transform="matrix(0.05,0,0,0.05,39,0)" xlink:href="#bo"/></g><g id="ag"><use transform="matrix(0.05,0,0,0.05,0,0)" xlink:href="#bx"/><use transform="matrix(0.05,0,0,0.05,12,0)" xlink:href="#bg"/><use transform="matrix(0.05,0,0,0.05,22,0)" xlink:href="#bI"/><use transform="matrix(0.05,0,0,0.05,31,0)" xlink:href="#cF"/></g><g id="ah"><use transform="matrix(0.05,0,0,0.05,0,0)" xlink:href="#bI"/><use transform="matrix(0.05,0,0,0.05,9,0)" xlink:href="#bj"/><use transform="matrix(0.05,0,0,0.05,19,0)" xlink:href="#bk"/><use transform="matrix(0.05,0,0,0.05,33.95,0)" xlink:href="#bk"/><use transform="matrix(0.05,0,0,0.05,48.900000000000006,0)" xlink:href="#bj"/><use transform="matrix(0.05,0,0,0.05,58.900000000000006,0)" xlink:href="#bl"/></g><g id="ai"><use transform="matrix(0.05,0,0,0.05,0,0)" xlink:href="#cF"/><use transform="matrix(0.05,0,0,0.05,10,0)" xlink:href="#bg"/><use transform="matrix(0.05,0,0,0.05,20,0)" xlink:href="#cx"/><use transform="matrix(0.05,0,0,0.05,29,0)" xlink:href="#bJ"/></g><g id="aj"><use transform="matrix(0.05,0,0,0.05,0,0)" xlink:href="#bh"/><use transform="matrix(0.05,0,0,0.05,5,0)" xlink:href="#cF"/><use transform="matrix(0.05,0,0,0.05,15,0)" xlink:href="#bJ"/><use transform="matrix(0.05,0,0,0.05,25,0)" xlink:href="#bP"/><use transform="matrix(0.05,0,0,0.05,28.950000000000003,0)" xlink:href="#bK"/></g><g id="ak"><use transform="matrix(0.05,0,0,0.05,0,0)" xlink:href="#bj"/><use transform="matrix(0.05,0,0,0.05,10,0)" xlink:href="#bM"/><use transform="matrix(0.05,0,0,0.05,22.950000000000003,0)" xlink:href="#bl"/></g><g id="al"><use transform="matrix(0.05,0,0,0.05,0,0)" xlink:href="#bB"/><use transform="matrix(0.05,0,0,0.05,12,0)" xlink:href="#bP"/><use transform="matrix(0.05,0,0,0.05,15.949999999999998,0)" xlink:href="#bl"/><use transform="matrix(0.05,0,0,0.05,25.950000000000003,0)" xlink:href="#bJ"/><use transform="matrix(0.05,0,0,0.05,35.95,0)" xlink:href="#bm"/><use transform="matrix(0.05,0,0,0.05,44.95,0)" xlink:href="#bP"/><use transform="matrix(0.05,0,0,0.05,48.900000000000006,0)" xlink:href="#bm"/></g><g id="am"><use transform="matrix(0.05,0,0,0.05,0,0)" xlink:href="#bo"/><use transform="matrix(0.05,0,0,0.05,12,0)" xlink:href="#bh"/><use transform="matrix(0.05,0,0,0.05,17,0)" xlink:href="#bK"/><use transform="matrix(0.05,0,0,0.05,22.95,0)" xlink:href="#bJ"/><use transform="matrix(0.05,0,0,0.05,32.95,0)" xlink:href="#bg"/><use transform="matrix(0.05,0,0,0.05,42.95,0)" xlink:href="#bk"/><use transform="matrix(0.05,0,0,0.05,57.900000000000006,0)" xlink:href="#cE"/></g><g id="an"><use transform="matrix(0.05,0,0,0.05,0,0)" xlink:href="#cA"/><use transform="matrix(0.05,0,0,0.05,5,0)" xlink:href="#bP"/><use transform="matrix(0.05,0,0,0.05,8.95,0)" xlink:href="#bK"/><use transform="matrix(0.05,0,0,0.05,14.899999999999999,0)" xlink:href="#bJ"/><use transform="matrix(0.05,0,0,0.05,24.9,0)" xlink:href="#cF"/><use transform="matrix(0.05,0,0,0.05,34.9,0)" xlink:href="#bj"/><use transform="matrix(0.05,0,0,0.05,44.9,0)" xlink:href="#bm"/><use transform="matrix(0.05,0,0,0.05,53.900000000000006,0)" xlink:href="#bJ"/><use transform="matrix(0.05,0,0,0.05,63.900000000000006,0)" xlink:href="#bm"/><use transform="matrix(0.05,0,0,0.05,72.9,0)" xlink:href="#cE"/></g><g id="ao"><use transform="matrix(0.05,0,0,0.05,0,0)" xlink:href="#bg"/><use transform="matrix(0.05,0,0,0.05,10,0)" xlink:href="#bl"/><use transform="matrix(0.05,0,0,0.05,20,0)" xlink:href="#bO"/></g><use transform="matrix(0.05,0,0,0.05,0,0)" xlink:href="#bg" id="ap"/><g id="aq"><use transform="matrix(0.05,0,0,0.05,0,0)" xlink:href="#bG"/><use transform="matrix(0.05,0,0,0.05,3.95,0)" xlink:href="#bj"/><use transform="matrix(0.05,0,0,0.05,13.949999999999998,0)" xlink:href="#cy"/><use transform="matrix(0.05,0,0,0.05,23.95,0)" xlink:href="#cy"/><use transform="matrix(0.05,0,0,0.05,33.95,0)" xlink:href="#bP"/><use transform="matrix(0.05,0,0,0.05,37.900000000000006,0)" xlink:href="#bl"/><use transform="matrix(0.05,0,0,0.05,47.900000000000006,0)" xlink:href="#bL"/></g><path d="M143 0L79-87 56-68V0H24v-261h32v163l83-92h37l-77 82L181 0h-38" id="cI"/><path d="M33 0v-38h34V0H33" id="cJ"/><g id="ar"><use transform="matrix(0.05,0,0,0.05,0,0)" xlink:href="#cy"/><use transform="matrix(0.05,0,0,0.05,10,0)" xlink:href="#bF"/><use transform="matrix(0.05,0,0,0.05,20,0)" xlink:href="#bI"/><use transform="matrix(0.05,0,0,0.05,29,0)" xlink:href="#cI"/><use transform="matrix(0.05,0,0,0.05,38,0)" xlink:href="#bJ"/><use transform="matrix(0.05,0,0,0.05,48,0)" xlink:href="#bh"/><use transform="matrix(0.05,0,0,0.05,53,0)" xlink:href="#cJ"/></g><g id="as"><use transform="matrix(0.05,0,0,0.05,0,0)" xlink:href="#bx"/><use transform="matrix(0.05,0,0,0.05,12,0)" xlink:href="#bG"/><use transform="matrix(0.05,0,0,0.05,15.949999999999998,0)" xlink:href="#bg"/><use transform="matrix(0.05,0,0,0.05,25.950000000000003,0)" xlink:href="#bm"/><use transform="matrix(0.05,0,0,0.05,34.95,0)" xlink:href="#bh"/><use transform="matrix(0.05,0,0,0.05,39.95,0)" xlink:href="#bP"/><use transform="matrix(0.05,0,0,0.05,43.900000000000006,0)" xlink:href="#bI"/><use transform="matrix(0.05,0,0,0.05,52.900000000000006,0)" xlink:href="#bm"/><use transform="matrix(0.05,0,0,0.05,61.900000000000006,0)" xlink:href="#bJ"/><use transform="matrix(0.05,0,0,0.05,71.9,0)" xlink:href="#bg"/><use transform="matrix(0.05,0,0,0.05,81.9,0)" xlink:href="#bK"/><use transform="matrix(0.05,0,0,0.05,87.85000000000001,0)" xlink:href="#bI"/><use transform="matrix(0.05,0,0,0.05,96.85000000000001,0)" xlink:href="#cF"/></g><g id="at"><use transform="matrix(0.05,0,0,0.05,0,0)" xlink:href="#bP"/><use transform="matrix(0.05,0,0,0.05,3.95,0)" xlink:href="#bm"/></g><path d="M24-231v-30h32v30H24zM-9 49c24 4 33-6 33-30v-209h32V24c2 40-23 58-65 49V49" id="cK"/><g id="au"><use transform="matrix(0.05,0,0,0.05,0,0)" xlink:href="#cK"/><use transform="matrix(0.05,0,0,0.05,3.95,0)" xlink:href="#bF"/><use transform="matrix(0.05,0,0,0.05,13.949999999999998,0)" xlink:href="#bm"/><use transform="matrix(0.05,0,0,0.05,22.95,0)" xlink:href="#bh"/></g><g id="av"><use transform="matrix(0.05,0,0,0.05,0,0)" xlink:href="#bj"/><use transform="matrix(0.05,0,0,0.05,10,0)" xlink:href="#bl"/><use transform="matrix(0.05,0,0,0.05,20,0)" xlink:href="#bJ"/></g><g id="aw"><use transform="matrix(0.05,0,0,0.05,0,0)" xlink:href="#bh"/><use transform="matrix(0.05,0,0,0.05,5,0)" xlink:href="#cF"/><use transform="matrix(0.05,0,0,0.05,15,0)" xlink:href="#bJ"/></g><g id="ax"><use transform="matrix(0.05,0,0,0.05,0,0)" xlink:href="#bi"/><use transform="matrix(0.05,0,0,0.05,12.950000000000001,0)" xlink:href="#bo"/><use transform="matrix(0.05,0,0,0.05,24.950000000000003,0)" xlink:href="#bp"/><use transform="matrix(0.05,0,0,0.05,38.95,0)" xlink:href="#bi"/></g><g id="ay"><use transform="matrix(0.05,0,0,0.05,0,0)" xlink:href="#bg"/><use transform="matrix(0.05,0,0,0.05,10,0)" xlink:href="#bI"/><use transform="matrix(0.05,0,0,0.05,19,0)" xlink:href="#bI"/><use transform="matrix(0.05,0,0,0.05,28,0)" xlink:href="#bj"/><use transform="matrix(0.05,0,0,0.05,38,0)" xlink:href="#bF"/><use transform="matrix(0.05,0,0,0.05,48,0)" xlink:href="#bl"/><use transform="matrix(0.05,0,0,0.05,58,0)" xlink:href="#bh"/></g><g id="az"><use transform="matrix(0.05,0,0,0.05,0,0)" xlink:href="#bt"/><use transform="matrix(0.05,0,0,0.05,5,0)" xlink:href="#bl"/><use transform="matrix(0.05,0,0,0.05,15,0)" xlink:href="#bh"/><use transform="matrix(0.05,0,0,0.05,20,0)" xlink:href="#bJ"/><use transform="matrix(0.05,0,0,0.05,30,0)" xlink:href="#bK"/><use transform="matrix(0.05,0,0,0.05,35.95,0)" xlink:href="#bl"/><use transform="matrix(0.05,0,0,0.05,45.95,0)" xlink:href="#bJ"/><use transform="matrix(0.05,0,0,0.05,55.95,0)" xlink:href="#bh"/></g><g id="aA"><use transform="matrix(0.05,0,0,0.05,0,0)" xlink:href="#bw"/><use transform="matrix(0.05,0,0,0.05,12,0)" xlink:href="#bJ"/><use transform="matrix(0.05,0,0,0.05,22,0)" xlink:href="#bK"/><use transform="matrix(0.05,0,0,0.05,27.950000000000003,0)" xlink:href="#cF"/><use transform="matrix(0.05,0,0,0.05,37.95,0)" xlink:href="#bg"/><use transform="matrix(0.05,0,0,0.05,47.95,0)" xlink:href="#bS"/><use transform="matrix(0.05,0,0,0.05,57.95,0)" xlink:href="#bm"/></g><g id="aB"><use transform="matrix(0.05,0,0,0.05,0,0)" xlink:href="#bj"/><use transform="matrix(0.05,0,0,0.05,10,0)" xlink:href="#bh"/><use transform="matrix(0.05,0,0,0.05,15,0)" xlink:href="#cF"/><use transform="matrix(0.05,0,0,0.05,25,0)" xlink:href="#bJ"/><use transform="matrix(0.05,0,0,0.05,35,0)" xlink:href="#bK"/></g><g id="aC"><use transform="matrix(0.05,0,0,0.05,0,0)" xlink:href="#bG"/><use transform="matrix(0.05,0,0,0.05,3.95,0)" xlink:href="#bj"/><use transform="matrix(0.05,0,0,0.05,13.949999999999998,0)" xlink:href="#bL"/><use transform="matrix(0.05,0,0,0.05,23.95,0)" xlink:href="#bm"/></g><path d="M87 75C49 33 22-17 22-94c0-76 28-126 65-167h31c-38 41-64 92-64 168S80 34 118 75H87" id="cL"/><path d="M141 0L90-78 38 0H4l68-98-65-92h35l48 74 47-74h35l-64 92 68 98h-35" id="cM"/><g id="aD"><use transform="matrix(0.05,0,0,0.05,0,0)" xlink:href="#cL"/><use transform="matrix(0.05,0,0,0.05,5.95,0)" xlink:href="#bx"/><use transform="matrix(0.05,0,0,0.05,17.95,0)" xlink:href="#cM"/><use transform="matrix(0.05,0,0,0.05,26.950000000000003,0)" xlink:href="#cJ"/></g><path d="M33-261c38 41 65 92 65 168S71 34 33 75H2C39 34 66-17 66-93S39-220 2-261h31" id="cN"/><g id="aE"><use transform="matrix(0.05,0,0,0.05,0,0)" xlink:href="#bi"/><use transform="matrix(0.05,0,0,0.05,12.950000000000001,0)" xlink:href="#bG"/><use transform="matrix(0.05,0,0,0.05,16.900000000000002,0)" xlink:href="#bj"/><use transform="matrix(0.05,0,0,0.05,26.900000000000002,0)" xlink:href="#bF"/><use transform="matrix(0.05,0,0,0.05,36.900000000000006,0)" xlink:href="#bO"/><use transform="matrix(0.05,0,0,0.05,46.900000000000006,0)" xlink:href="#by"/><use transform="matrix(0.05,0,0,0.05,57.20000000000002,0)" xlink:href="#bK"/><use transform="matrix(0.05,0,0,0.05,63.15000000000001,0)" xlink:href="#bg"/><use transform="matrix(0.05,0,0,0.05,73.15,0)" xlink:href="#bP"/><use transform="matrix(0.05,0,0,0.05,77.10000000000001,0)" xlink:href="#bG"/><use transform="matrix(0.05,0,0,0.05,81.05000000000001,0)" xlink:href="#cN"/></g><g id="aF"><use transform="matrix(0.05,0,0,0.05,0,0)" xlink:href="#bI"/><use transform="matrix(0.05,0,0,0.05,9,0)" xlink:href="#bj"/><use transform="matrix(0.05,0,0,0.05,19,0)" xlink:href="#bF"/><use transform="matrix(0.05,0,0,0.05,29,0)" xlink:href="#bG"/><use transform="matrix(0.05,0,0,0.05,32.95,0)" xlink:href="#bO"/></g><g id="aG"><use transform="matrix(0.05,0,0,0.05,0,0)" xlink:href="#cy"/><use transform="matrix(0.05,0,0,0.05,10,0)" xlink:href="#bJ"/></g><g id="aH"><use transform="matrix(0.05,0,0,0.05,0,0)" xlink:href="#bg"/><use transform="matrix(0.05,0,0,0.05,10,0)" xlink:href="#bG"/><use transform="matrix(0.05,0,0,0.05,13.949999999999998,0)" xlink:href="#bm"/><use transform="matrix(0.05,0,0,0.05,22.95,0)" xlink:href="#bj"/></g><g id="aI"><use transform="matrix(0.05,0,0,0.05,0,0)" xlink:href="#bm"/><use transform="matrix(0.05,0,0,0.05,9,0)" xlink:href="#bJ"/><use transform="matrix(0.05,0,0,0.05,19,0)" xlink:href="#bl"/><use transform="matrix(0.05,0,0,0.05,29,0)" xlink:href="#bh"/></g><g id="aJ"><use transform="matrix(0.05,0,0,0.05,0,0)" xlink:href="#bj"/><use transform="matrix(0.05,0,0,0.05,10,0)" xlink:href="#cx"/><use transform="matrix(0.05,0,0,0.05,19,0)" xlink:href="#bJ"/><use transform="matrix(0.05,0,0,0.05,29,0)" xlink:href="#bK"/></g><path fill="#999" d="M233-177c-1 41-23 64-60 70L243 0h-38l-65-103H63V0H30v-248c88 3 205-21 203 71zM63-129c60-2 137 13 137-47 0-61-80-42-137-45v92" id="cO"/><path fill="#999" d="M100-194c63 0 86 42 84 106H49c0 40 14 67 53 68 26 1 43-12 49-29l28 8c-11 28-37 45-77 45C44 4 14-33 15-96c1-61 26-98 85-98zm52 81c6-60-76-77-97-28-3 7-6 17-6 28h103" id="cP"/><path fill="#999" d="M117-194c89-4 53 116 60 194h-32v-121c0-31-8-49-39-48C34-167 62-67 57 0H25l-1-190h30c1 10-1 24 2 32 11-22 29-35 61-36" id="cQ"/><path fill="#999" d="M84 4C-5 8 30-112 23-190h32v120c0 31 7 50 39 49 72-2 45-101 50-169h31l1 190h-30c-1-10 1-25-2-33-11 22-28 36-60 37" id="cR"/><path fill="#999" d="M143 0L79-87 56-68V0H24v-261h32v163l83-92h37l-77 82L181 0h-38" id="cS"/><path fill="#999" d="M141-36C126-15 110 5 73 4 37 3 15-17 15-53c-1-64 63-63 125-63 3-35-9-54-41-54-24 1-41 7-42 31l-33-3c5-37 33-52 76-52 45 0 72 20 72 64v82c-1 20 7 32 28 27v20c-31 9-61-2-59-35zM48-53c0 20 12 33 32 33 41-3 63-29 60-74-43 2-92-5-92 41" id="cT"/><g id="aK"><use transform="matrix(0.06172839506172778,0,0,0.06172839506172778,0,0)" xlink:href="#cO"/><use transform="matrix(0.06172839506172778,0,0,0.06172839506172778,15.987654320987495,0)" xlink:href="#cP"/><use transform="matrix(0.06172839506172778,0,0,0.06172839506172778,28.33333333333305,0)" xlink:href="#cQ"/><use transform="matrix(0.06172839506172778,0,0,0.06172839506172778,40.67901234567861,0)" xlink:href="#cR"/><use transform="matrix(0.06172839506172778,0,0,0.06172839506172778,53.024691358024164,0)" xlink:href="#cS"/><use transform="matrix(0.06172839506172778,0,0,0.06172839506172778,64.13580246913517,0)" xlink:href="#cT"/></g><path fill="#999" d="M32 76v-337h29V76H32" id="cU"/><use transform="matrix(0.06172839506172778,0,0,0.06172839506172778,0,0)" xlink:href="#cU" id="aL"/><path fill="#999" d="M63-220v92h138v28H63V0H30v-248h175v28H63" id="cV"/><path fill="#999" d="M115-194c53 0 69 39 70 98 0 66-23 100-70 100C84 3 66-7 56-30L54 0H23l1-261h32v101c10-23 28-34 59-34zm-8 174c40 0 45-34 45-75 0-40-5-75-45-74-42 0-51 32-51 76 0 43 10 73 51 73" id="cW"/><path fill="#999" d="M114-163C36-179 61-72 57 0H25l-1-190h30c1 12-1 29 2 39 6-27 23-49 58-41v29" id="cX"/><path fill="#999" d="M179-190L93 31C79 59 56 82 12 73V49c39 6 53-20 64-50L1-190h34L92-34l54-156h33" id="cY"/><g id="aM"><use transform="matrix(0.06172839506172778,0,0,0.06172839506172778,0,0)" xlink:href="#cV"/><use transform="matrix(0.06172839506172778,0,0,0.06172839506172778,13.518518518518384,0)" xlink:href="#cP"/><use transform="matrix(0.06172839506172778,0,0,0.06172839506172778,25.86419753086394,0)" xlink:href="#cW"/><use transform="matrix(0.06172839506172778,0,0,0.06172839506172778,38.209876543209496,0)" xlink:href="#cX"/><use transform="matrix(0.06172839506172778,0,0,0.06172839506172778,45.5555555555551,0)" xlink:href="#cR"/><use transform="matrix(0.06172839506172778,0,0,0.06172839506172778,57.90123456790066,0)" xlink:href="#cT"/><use transform="matrix(0.06172839506172778,0,0,0.06172839506172778,70.24691358024621,0)" xlink:href="#cX"/><use transform="matrix(0.06172839506172778,0,0,0.06172839506172778,77.59259259259181,0)" xlink:href="#cY"/></g><path fill="#999" d="M27 0v-27h64v-190l-56 39v-29l58-41h29v221h61V0H27" id="cZ"/><path fill="#999" d="M99-251c64 0 84 50 84 122C183-37 130 33 47-8c-14-7-20-23-25-40l30-5c6 39 69 39 84 7 9-19 16-44 16-74-10 22-31 35-62 35-49 0-73-33-73-83 0-54 28-83 82-83zm-1 141c31-1 51-18 51-49 0-36-14-67-51-67-34 0-49 23-49 58 0 34 15 58 49 58" id="da"/><path fill="#999" d="M68-38c1 34 0 65-14 84H32c9-13 17-26 17-46H33v-38h35" id="db"/><g id="aN"><use transform="matrix(0.06172839506172778,0,0,0.06172839506172778,0,0)" xlink:href="#cZ"/><use transform="matrix(0.06172839506172778,0,0,0.06172839506172778,12.345679012345556,0)" xlink:href="#da"/><use transform="matrix(0.06172839506172778,0,0,0.06172839506172778,24.691358024691112,0)" xlink:href="#db"/></g><path fill="#999" d="M101-251c82-7 93 87 43 132L82-64C71-53 59-42 53-27h129V0H18c2-99 128-94 128-182 0-28-16-43-45-43s-46 15-49 41l-32-3c6-41 34-60 81-64" id="dc"/><path fill="#999" d="M101-251c68 0 85 55 85 127S166 4 100 4C33 4 14-52 14-124c0-73 17-127 87-127zm-1 229c47 0 54-49 54-102s-4-102-53-102c-51 0-55 48-55 102 0 53 5 102 54 102" id="dd"/><g id="aO"><use transform="matrix(0.06172839506172778,0,0,0.06172839506172778,0,0)" xlink:href="#dc"/><use transform="matrix(0.06172839506172778,0,0,0.06172839506172778,12.345679012345556,0)" xlink:href="#dd"/><use transform="matrix(0.06172839506172778,0,0,0.06172839506172778,24.691358024691112,0)" xlink:href="#cZ"/><use transform="matrix(0.06172839506172778,0,0,0.06172839506172778,37.03703703703667,0)" xlink:href="#da"/></g><g id="aP"><use transform="matrix(0.05,0,0,0.05,0,0)" xlink:href="#bK"/><use transform="matrix(0.05,0,0,0.05,5.95,0)" xlink:href="#bj"/><use transform="matrix(0.05,0,0,0.05,15.949999999999998,0)" xlink:href="#bF"/><use transform="matrix(0.05,0,0,0.05,25.950000000000003,0)" xlink:href="#bh"/><use transform="matrix(0.05,0,0,0.05,30.950000000000003,0)" xlink:href="#bJ"/><use transform="matrix(0.05,0,0,0.05,40.95,0)" xlink:href="#bK"/></g><g id="aQ"><use transform="matrix(0.05,0,0,0.05,0,0)" xlink:href="#bw"/><use transform="matrix(0.05,0,0,0.05,12,0)" xlink:href="#bK"/><use transform="matrix(0.05,0,0,0.05,17.95,0)" xlink:href="#bj"/><use transform="matrix(0.05,0,0,0.05,27.950000000000003,0)" xlink:href="#bO"/></g><g id="aR"><use transform="matrix(0.05,0,0,0.05,0,0)" xlink:href="#bv"/><use transform="matrix(0.05,0,0,0.05,12,0)" xlink:href="#bw"/><use transform="matrix(0.05,0,0,0.05,24,0)" xlink:href="#bu"/></g><path d="M16-82v-28h88v28H16" id="de"/><g id="aS"><use transform="matrix(0.05,0,0,0.05,0,0)" xlink:href="#bk"/><use transform="matrix(0.05,0,0,0.05,14.950000000000001,0)" xlink:href="#bF"/><use transform="matrix(0.05,0,0,0.05,24.950000000000003,0)" xlink:href="#bG"/><use transform="matrix(0.05,0,0,0.05,28.900000000000002,0)" xlink:href="#bh"/><use transform="matrix(0.05,0,0,0.05,33.900000000000006,0)" xlink:href="#bP"/><use transform="matrix(0.05,0,0,0.05,37.85000000000001,0)" xlink:href="#de"/><use transform="matrix(0.05,0,0,0.05,43.80000000000001,0)" xlink:href="#bs"/><use transform="matrix(0.05,0,0,0.05,55.80000000000001,0)" xlink:href="#cz"/></g><g id="aT"><use transform="matrix(0.05,0,0,0.05,0,0)" xlink:href="#bg"/><use transform="matrix(0.05,0,0,0.05,10,0)" xlink:href="#bF"/><use transform="matrix(0.05,0,0,0.05,20,0)" xlink:href="#bh"/><use transform="matrix(0.05,0,0,0.05,25,0)" xlink:href="#bj"/><use transform="matrix(0.05,0,0,0.05,35,0)" xlink:href="#bm"/><use transform="matrix(0.05,0,0,0.05,44,0)" xlink:href="#bI"/><use transform="matrix(0.05,0,0,0.05,53,0)" xlink:href="#bg"/><use transform="matrix(0.05,0,0,0.05,63,0)" xlink:href="#bG"/><use transform="matrix(0.05,0,0,0.05,66.95,0)" xlink:href="#bP"/><use transform="matrix(0.05,0,0,0.05,70.9,0)" xlink:href="#bl"/><use transform="matrix(0.05,0,0,0.05,80.9,0)" xlink:href="#bL"/></g><g id="aU"><use transform="matrix(0.05,0,0,0.05,0,0)" xlink:href="#bC"/><use transform="matrix(0.05,0,0,0.05,14,0)" xlink:href="#bK"/><use transform="matrix(0.05,0,0,0.05,19.95,0)" xlink:href="#bj"/><use transform="matrix(0.05,0,0,0.05,29.950000000000003,0)" xlink:href="#bF"/><use transform="matrix(0.05,0,0,0.05,39.95,0)" xlink:href="#bS"/></g><g id="aV"><use transform="matrix(0.05,0,0,0.05,0,0)" xlink:href="#bx"/><use transform="matrix(0.05,0,0,0.05,12,0)" xlink:href="#bo"/><use transform="matrix(0.05,0,0,0.05,24,0)" xlink:href="#de"/></g><g id="aW"><use transform="matrix(0.05,0,0,0.05,0,0)" xlink:href="#bK"/><use transform="matrix(0.05,0,0,0.05,5.95,0)" xlink:href="#bJ"/><use transform="matrix(0.05,0,0,0.05,15.949999999999998,0)" xlink:href="#cx"/><use transform="matrix(0.05,0,0,0.05,24.95,0)" xlink:href="#bJ"/><use transform="matrix(0.05,0,0,0.05,34.95,0)" xlink:href="#bK"/><use transform="matrix(0.05,0,0,0.05,40.900000000000006,0)" xlink:href="#bm"/><use transform="matrix(0.05,0,0,0.05,49.900000000000006,0)" xlink:href="#bJ"/></g><g id="aX"><use transform="matrix(0.05,0,0,0.05,0,0)" xlink:href="#bS"/><use transform="matrix(0.05,0,0,0.05,10,0)" xlink:href="#bK"/><use transform="matrix(0.05,0,0,0.05,15.949999999999998,0)" xlink:href="#bj"/><use transform="matrix(0.05,0,0,0.05,25.950000000000003,0)" xlink:href="#cM"/><use transform="matrix(0.05,0,0,0.05,34.95,0)" xlink:href="#bH"/><use transform="matrix(0.05,0,0,0.05,43.95,0)" xlink:href="#bQ"/><use transform="matrix(0.05,0,0,0.05,48.95,0)" xlink:href="#bf"/><use transform="matrix(0.05,0,0,0.05,61.900000000000006,0)" xlink:href="#bJ"/><use transform="matrix(0.05,0,0,0.05,71.9,0)" xlink:href="#cx"/></g><g id="aY"><use transform="matrix(0.05,0,0,0.05,0,0)" xlink:href="#bg"/><use transform="matrix(0.05,0,0,0.05,10,0)" xlink:href="#bO"/><use transform="matrix(0.05,0,0,0.05,20,0)" xlink:href="#bk"/><use transform="matrix(0.05,0,0,0.05,34.95,0)" xlink:href="#bP"/><use transform="matrix(0.05,0,0,0.05,38.900000000000006,0)" xlink:href="#bl"/></g><g id="aZ"><use transform="matrix(0.05,0,0,0.05,0,0)" xlink:href="#bv"/><use transform="matrix(0.05,0,0,0.05,12,0)" xlink:href="#br"/></g><path d="M145-31C134-9 116 4 85 4 32 4 16-35 15-94c0-59 17-99 70-100 32-1 48 14 60 33 0-11-1-24 2-32h30l-1 268h-32zM93-21c41 0 51-33 51-76s-8-73-50-73c-40 0-46 35-46 75s5 74 45 74" id="df"/><g id="ba"><use transform="matrix(0.05,0,0,0.05,0,0)" xlink:href="#bo"/><use transform="matrix(0.05,0,0,0.05,12,0)" xlink:href="#df"/><use transform="matrix(0.05,0,0,0.05,22,0)" xlink:href="#bF"/><use transform="matrix(0.05,0,0,0.05,32,0)" xlink:href="#bP"/><use transform="matrix(0.05,0,0,0.05,35.95,0)" xlink:href="#bO"/></g><g id="bb"><use transform="matrix(0.05,0,0,0.05,0,0)" xlink:href="#bk"/><use transform="matrix(0.05,0,0,0.05,14.950000000000001,0)" xlink:href="#bF"/><use transform="matrix(0.05,0,0,0.05,24.950000000000003,0)" xlink:href="#bG"/><use transform="matrix(0.05,0,0,0.05,28.900000000000002,0)" xlink:href="#bh"/><use transform="matrix(0.05,0,0,0.05,33.900000000000006,0)" xlink:href="#bP"/><use transform="matrix(0.05,0,0,0.05,37.85000000000001,0)" xlink:href="#de"/><use transform="matrix(0.05,0,0,0.05,43.80000000000001,0)" xlink:href="#bs"/><use transform="matrix(0.05,0,0,0.05,55.80000000000001,0)" xlink:href="#cz"/></g><g id="bc"><use transform="matrix(0.05,0,0,0.05,0,0)" xlink:href="#bs"/><use transform="matrix(0.05,0,0,0.05,12,0)" xlink:href="#bF"/><use transform="matrix(0.05,0,0,0.05,22,0)" xlink:href="#bh"/><use transform="matrix(0.05,0,0,0.05,27,0)" xlink:href="#bj"/><use transform="matrix(0.05,0,0,0.05,37,0)" xlink:href="#bm"/><use transform="matrix(0.05,0,0,0.05,46,0)" xlink:href="#bI"/><use transform="matrix(0.05,0,0,0.05,55,0)" xlink:href="#bg"/><use transform="matrix(0.05,0,0,0.05,65,0)" xlink:href="#bG"/><use transform="matrix(0.05,0,0,0.05,68.95,0)" xlink:href="#bP"/><use transform="matrix(0.05,0,0,0.05,72.9,0)" xlink:href="#bl"/><use transform="matrix(0.05,0,0,0.05,82.9,0)" xlink:href="#bL"/></g><g id="bd"><use transform="matrix(0.05,0,0,0.05,0,0)" xlink:href="#bf"/><use transform="matrix(0.05,0,0,0.05,12.950000000000001,0)" xlink:href="#bJ"/><use transform="matrix(0.05,0,0,0.05,22.950000000000003,0)" xlink:href="#cx"/></g><path d="M160-131c35 5 61 23 61 61C221 17 115-2 30 0v-248c76 3 177-17 177 60 0 33-19 50-47 57zm-97-11c50-1 110 9 110-42 0-47-63-36-110-37v79zm0 115c55-2 124 14 124-45 0-56-70-42-124-44v89" id="dg"/><g id="be"><use transform="matrix(0.05,0,0,0.05,0,0)" xlink:href="#bu"/><use transform="matrix(0.05,0,0,0.05,12.950000000000001,0)" xlink:href="#cG"/><use transform="matrix(0.05,0,0,0.05,22.950000000000003,0)" xlink:href="#dg"/></g></defs></g></svg>