<svg xmlns="http://www.w3.org/2000/svg" xmlns:xlink="http://www.w3.org/1999/xlink" xmlns:lucid="lucid" width="1760" height="1360"><g transform="translate(0 0)" lucid:page-tab-id="eNbqbEM6f5NI"><path d="M32 37c0-2.76 2.24-5 5-5h838c2.76 0 5 2.24 5 5v38c0 2.76-2.24 5-5 5H37c-2.76 0-5-2.24-5-5z" fill="none"/><use xlink:href="#a" transform="matrix(1,0,0,1,32,32) translate(2.01 28.444444444444446)"/><use xlink:href="#b" transform="matrix(1,0,0,1,32,32) translate(55.34333333333334 28.444444444444446)"/><use xlink:href="#c" transform="matrix(1,0,0,1,32,32) translate(213.07172839506174 28.444444444444446)"/><path d="M31.33 80H1720" stroke="#999" stroke-width="2" fill="none"/><path d="M1186.25 37c0-2.76 2.24-5 5-5H1715c2.76 0 5 2.24 5 5v38c0 2.76-2.24 5-5 5h-523.75c-2.76 0-5-2.24-5-5z" fill="none"/><use xlink:href="#d" transform="matrix(1,0,0,1,1186.2468606431853,32) translate(218.56790123457102 29.7777777777776)"/><use xlink:href="#e" transform="matrix(1,0,0,1,1186.2468606431853,32) translate(278.9382716049408 29.7777777777776)"/><use xlink:href="#f" transform="matrix(1,0,0,1,1186.2468606431853,32) translate(369.00000000000165 29.7777777777776)"/><use xlink:href="#g" transform="matrix(1,0,0,1,1186.2468606431853,32) translate(393.25925925926066 29.7777777777776)"/><use xlink:href="#h" transform="matrix(1,0,0,1,1186.2468606431853,32) translate(447.5802469135811 29.7777777777776)"/><use xlink:href="#i" transform="matrix(1,0,0,1,1186.2468606431853,32) translate(484.6172839506178 29.7777777777776)"/><path d="M318 385.42l57.98 8.62v5.1c0 7.53-25.98 13.63-58 13.63-32 0-57.98-6.1-57.98-13.64v-5.53z" fill="#8c3123"/><path d="M318.02 422.13c24.2 0 44.93-3.54 53.58-8.5l2.88-4.78 1.15-4.4v5.45l-19 81c0 5.08-17.3 9.1-38.6 9.1-21.33 0-38.6-4.02-38.6-9.1l-19.02-81v-5.35l4.38 9.27c8.76 4.87 29.27 8.3 53.24 8.3z" fill="#8c3123"/><path d="M318 380c32 0 58 6.12 58 13.62 0 7.5-26 13.57-58 13.57s-58-6.02-58-13.58c0-7.56 26-13.62 58-13.62z" fill="#e05243"/><path d="M318 416.6c29.84 0 54.4-5.2 57.62-12.06l-19.02 81c0 5.05-17.3 9.1-38.6 9.1-21.33 0-38.6-4.05-38.6-9.1l-19.03-81c3.23 6.85 27.78 12.07 57.62 12.07z" fill="#e05243"/><use xlink:href="#j" transform="matrix(1,0,0,1,260,500) translate(-38.44999999999999 14.4)"/><a xlink:href="https://console.aws.amazon.com/s3/#" target="_blank" transform="matrix(1,0,0,1,260,500)"><path class="lucid-link lucid-hotspot lucid-overlay-hotspot" fill-opacity="0" d="M14.65 0H160.3v25.34H14.65z"/></a><path d="M318 865.42l57.98 8.62v5.1c0 7.53-25.98 13.63-58 13.63-32 0-57.98-6.1-57.98-13.64v-5.53z" fill="#8c3123"/><path d="M318.02 902.13c24.2 0 44.93-3.54 53.58-8.5l2.88-4.78 1.15-4.4v5.45l-19 81c0 5.08-17.3 9.1-38.6 9.1-21.33 0-38.6-4.02-38.6-9.1l-19.02-81v-5.35l4.38 9.27c8.76 4.87 29.27 8.3 53.24 8.3z" fill="#8c3123"/><path d="M318 860c32 0 58 6.12 58 13.62 0 7.5-26 13.57-58 13.57s-58-6.02-58-13.58c0-7.56 26-13.62 58-13.62z" fill="#e05243"/><path d="M318 896.6c29.84 0 54.4-5.2 57.62-12.06l-19.02 81c0 5.05-17.3 9.1-38.6 9.1-21.33 0-38.6-4.05-38.6-9.1l-19.03-81c3.23 6.85 27.78 12.07 57.62 12.07z" fill="#e05243"/><use xlink:href="#k" transform="matrix(1,0,0,1,260,980) translate(-67.4 14.4)"/><path d="M319 841.76h-2V690.8h2zm0-172.57h-2V500h2zM319 500h-.85l.85-.02zm-2 0h1zM318 856.76l-4.64-14.26h9.28z"/><path d="M318 860l-6-18.5h12zm-3.26-16.5l3.26 10.03 3.26-10.03z"/><use xlink:href="#l" transform="matrix(1,0,0,1,229.6,669.1934744024749) translate(0 14.4)"/><use xlink:href="#m" transform="matrix(1,0,0,1,229.6,669.1934744024749) translate(57.900000000000006 14.4)"/><use xlink:href="#n" transform="matrix(1,0,0,1,229.6,669.1934744024749) translate(118.9 14.4)"/><path d="M854.1 433.23l-3.25.27-10.85-.44 3-15.06 11.1 15.23z" fill="#3c4929"/><path d="M854.1 447.24l-3.25-.27-10.85.44 3 15.06 11.1-15.22z" fill="#b7ca9d"/><path d="M843 447.7l-3-.28v14.14l3 .9V447.7z" fill="#4b612c"/><path d="M854.1 461.02l-11.1 1.44v-14.74l11.1-.48v13.78z" fill="#759c3e"/><path d="M874.42 448.4l-8.92-.7-15.6.78 8.37 26.94 16.15-27.02z" fill="#b7ca9d"/><path d="M843 432.75l-3 .3V418.9l3-.9v14.75z" fill="#4b612c"/><path d="M854.1 419.45L843 418v14.73l11.1.5v-13.78z" fill="#759c3e"/><path d="M874.42 432.1l-8.92.65-15.6-.77 8.37-26.9 16.15 27z" fill="#3c4929"/><path d="M849.9 407.93l8.36-2.85v26.03l-8.35.87v-24.04z" fill="#4b612c"/><path d="M874.4 408.62l-16.14-3.54v26.06l16.15.94v-23.46z" fill="#759c3e"/><path d="M849.9 472.34l8.36 3.1v-26.08l-8.35-.86v23.84z" fill="#4b612c"/><path d="M874.4 472.08l-16.14 3.36v-26.1l16.15-.94v23.68z" fill="#759c3e"/><path d="M868.56 489.44l20.9 10.56 49.04-60-49.03-60-20.9 10.56v98.88z" fill="#4b612c"/><path d="M939 475.16L889.47 500V380l49.5 24.84v70.32z" fill="#759c3e"/><use xlink:href="#o" transform="matrix(1,0,0,1,840.0000000000002,500) translate(29.35 14.4)"/><use xlink:href="#p" transform="matrix(1,0,0,1,840.0000000000002,500) translate(8.974999999999994 36)"/><path d="M366.22 450h458.54" stroke="#000" stroke-width="2" fill="none"/><path d="M366.22 451h-.24l.24-1zM839.76 450l-14.26 4.64v-9.28z"/><path d="M840 449.03v1.94L824.5 456v-12zm-13.5 4.23l10.03-3.26-10.03-3.26z"/><path d="M939 942.55l-53-7.78-53 7.78L886 980l53-37.45z" fill="#b7ca9d"/><path d="M843.6 941.7l8.95 2.64 21.05-32.3-21.05-32.3-8.94 3.43v58.52z" fill="#4b612c"/><path d="M884.27 938.9l-31.7 5.56v-64.7l31.7 7.1v52.03z" fill="#759c3e"/><path d="M870.1 949.75l-12.33-3.68V866.2l12.34-6.2 36.64 47.2-36.63 42.55z" fill="#4b612c"/><path d="M912.48 939.87l-42.35 9.97V860l42.35 16.53v63.34z" fill="#759c3e"/><path d="M885.98 961.4L833 942.56v10.93l52.98 26.5v-18.6z" fill="#4b612c"/><path d="M939 953.46L885.97 980v-18.6l53-18.83v10.9z" fill="#759c3e"/><path d="M924.1 924.5h-12.87l-36.6 2.5L886 954.5l38.1-30z" fill="#b7ca9d"/><path d="M874.63 951.1l11.36 3.4-.02-26.28-11.35-1.24v24.1z" fill="#4b612c"/><path d="M924.1 924.5l-38.12 3.72v26.3L924.1 943V924.5z" fill="#759c3e"/><use xlink:href="#q" transform="matrix(1,0,0,1,833,980) translate(20.025 14.4)"/><use xlink:href="#r" transform="matrix(1,0,0,1,833,980) translate(4.399999999999999 36)"/><use xlink:href="#s" transform="matrix(1,0,0,1,833,980) translate(33.5 57.6)"/><path d="M889.5 520v35c0 2.76-2.24 5-5 5h-75.9c-2.75 0-5 2.24-5 5v360c0 2.76 2.25 5 5 5h16.77" stroke="#000" stroke-width="2" fill="none"/><path d="M890.5 520h-2v-3h2zM840.37 930l-14.26 4.64v-9.28z"/><path d="M843.6 930l-18.5 6v-12zm-16.5 3.26l10.04-3.26-10.03-3.26zM628.86 925.16l-1.12 3.4-2.9 2.13-1.9.3h-238.5v-2H622.8l1.26-.2 2-1.46.82-2.5V725.8h2zM889.5 501H633.02l-2.5.8-1.46 2-.2 1.27V704.2h-2V504.9l.3-1.9 2.13-2.9 3.4-1.1h256.8zM892.5 501h-3v-1l2-1h1zm-3-1.03V499h.8zM383.72 934.64L369.45 930l14.27-4.64z"/><path d="M384.72 936l-18.5-6 18.5-6zm-12.03-6l10.02 3.26v-6.52z"/><use xlink:href="#t" transform="matrix(1,0,0,1,550.9842043795664,704.1950329934014) translate(0 14.4)"/><use xlink:href="#n" transform="matrix(1,0,0,1,550.9842043795664,704.1950329934014) translate(95.85000000000001 14.4)"/><path d="M139 342c0-16.57 13.43-30 30-30h840c16.57 0 30 13.43 30 30v688c0 16.57-13.43 30-30 30H169c-16.57 0-30-13.43-30-30z" stroke="#474747" fill="none"/><path d="M247 314.4v3.54c0 6.42-7.1 13.05-15.76 13.05h-46.48c-8.66 0-15.75-6.64-15.75-13.06v-3.54z" fill="#9d5125"/><path d="M199.03 280c8.03 0 14.82 4.4 18.17 11.67 4.6-3.14 10.92-1.98 14.04 2.65 1.17 1.64 1.7 3.32 1.8 5.3 7.87.68 13.95 8.25 13.95 14.27v1.3c0 6.45-7.1 13-15.76 13h-46.5c-8.64 0-15.74-6.55-15.74-13v-1.3c0-5.02 4.2-11.87 10.06-13.56v-.57c.08-10.95 8.97-19.82 19.97-19.77z" fill="#f58535"/><path d="M188.54 303.13l-5.2 18.2h3.04l1.17-4.43h5.38l1.1 4.43h3.05l-4.8-18.2zm-.47 11.4l2.22-8.98 2.1 8.97zM210.2 317.34h-.03l-2.47-14.2h-3.1l-2.4 14.13h-.06l-2.4-14.14h-2.95l3.53 18.2h3.38l2.35-13.7h.06l2.36 13.7h3.4l3.64-18.2h-2.9l-2.4 14.2zM224.9 311.4l-1.98-.72c-1.93-.7-2.74-1.53-2.74-3.1-.17-1.26.74-2.43 2-2.6.16-.02.3-.02.45-.02 1.26-.17 2.4.72 2.58 1.96.04.25.03.44 0 .68v.38h2.93v-.4c0-1.9-.5-4.8-5.18-4.8-3.44 0-5.7 1.84-5.7 5.16 0 2.6 1.1 3.97 3.82 5l2 .68c1.6.23 2.73 1.6 2.64 3.2.04 1.45-1.08 2.64-2.5 2.68h-.28c-2 0-3-1.12-3-3.33v-.47h-2.9v.44c0 2.54 1.02 5.53 5.52 5.53 3.7 0 6.07-1.6 6.07-5.48.04-2.5-1.1-3.9-3.7-4.8z" fill="#fff"/><use xlink:href="#u" transform="matrix(1,0,0,1,139.00000000000006,1030) translate(405.875 12.799999999999999)"/><use xlink:href="#v" transform="matrix(1,0,0,1,139.00000000000006,1030) translate(451.175 12.799999999999999)"/><path d="M1479.8 927l-49.9-2.08L1380 927l49.9 22.88 49.9-22.9z" fill="#fcbf92"/><path d="M1380 919.95h60v-54.97l-9.96-4.98-50.03 24.88v35.07z" fill="#9d5025"/><path d="M1480 944.7l-50-7.26-50 7.27 50.1 35.3 49.9-35.3z" fill="#fcbf92"/><path d="M1430.05 919.94h26.4v-37.42l-7.7-3.08-18.7 5.43v35.07z" fill="#9d5025"/><path d="M1448.75 919.95h20.4v-24.27l-5.84-1.74-14.55 2.44v23.57z" fill="#9d5025"/><path d="M1463.3 919.94h16.5l.2-28.05-5-2-11.7 2.1v27.94z" fill="#9d5025"/><path d="M1440 864.98l-9.95-4.98v59.95h9.95v-54.97zM1456.45 882.52l-7.7-3.08v40.5h7.7v-37.42zM1469.13 895.68l-5.82-1.74v26h5.83V895.7zM1475 889.9l5 2v28.04h-5V889.9zM1479.8 937.47l-49.9 12.4v-17.92l49.9-4.97v10.5zM1480 944.7l-50.1 17.6V980l50.1-24.96V944.7z" fill="#f58534"/><path d="M1380 944.7l49.9 17.47V980l-49.9-24.86V944.7zM1380 926.98l49.9 4.97v17.93l-49.9-12.4v-10.5z" fill="#9d5025"/><g><use xlink:href="#q" transform="matrix(1,0,0,1,1380,980) translate(17.025 14.4)"/><use xlink:href="#w" transform="matrix(1,0,0,1,1380,980) translate(21.049999999999997 36)"/></g><path d="M1042.86 931H924.1v-2h118.76zm318.9 0H1186.5v-2h175.26z"/><path/><path d="M1376.76 930l-14.26 4.64v-9.28z"/><path d="M1380 930l-18.5 6v-12zm-16.5 3.26l10.03-3.26-10.03-3.26z"/><g><use xlink:href="#x" transform="matrix(1,0,0,1,1042.8597283886643,919.2) translate(0 14.4)"/><use xlink:href="#y" transform="matrix(1,0,0,1,1042.8597283886643,919.2) translate(103.85000000000001 14.4)"/></g><path d="M1280 722c0-16.57 13.43-30 30-30h260c16.57 0 30 13.43 30 30v308c0 16.57-13.43 30-30 30h-260c-16.57 0-30-13.43-30-30z" stroke="#474747" fill="none"/><path d="M1388 694.4v3.54c0 6.42-7.1 13.05-15.76 13.05h-46.48c-8.66 0-15.75-6.64-15.75-13.06v-3.54z" fill="#9d5125"/><path d="M1340.03 660c8.03 0 14.82 4.4 18.17 11.67 4.6-3.14 10.92-1.98 14.04 2.65 1.17 1.64 1.7 3.32 1.8 5.3 7.87.68 13.95 8.25 13.95 14.27v1.3c0 6.45-7.1 13-15.76 13h-46.5c-8.64 0-15.74-6.55-15.74-13v-1.3c0-5.02 4.2-11.87 10.06-13.56v-.57c.08-10.95 8.97-19.82 19.97-19.77z" fill="#f58535"/><path d="M1329.54 683.13l-5.2 18.2h3.04l1.17-4.43h5.38l1.1 4.43h3.05l-4.8-18.2zm-.47 11.4l2.22-8.98 2.1 8.97zM1351.2 697.34h-.03l-2.47-14.2h-3.1l-2.4 14.13h-.06l-2.4-14.14h-2.95l3.53 18.2h3.38l2.35-13.7h.06l2.36 13.7h3.4l3.64-18.2h-2.9l-2.4 14.2zM1365.9 691.4l-1.98-.72c-1.93-.7-2.74-1.53-2.74-3.1-.17-1.26.74-2.43 2-2.6.16-.02.3-.02.45-.02 1.26-.17 2.4.72 2.58 1.96.04.25.03.44 0 .68v.38h2.93v-.4c0-1.9-.5-4.8-5.18-4.8-3.44 0-5.7 1.84-5.7 5.16 0 2.6 1.1 3.97 3.82 5l2 .68c1.6.23 2.73 1.6 2.64 3.2.04 1.45-1.08 2.64-2.5 2.68h-.28c-2 0-3-1.12-3-3.33v-.47h-2.9v.44c0 2.54 1.02 5.53 5.52 5.53 3.7 0 6.07-1.6 6.07-5.48.04-2.5-1.1-3.9-3.7-4.8z" fill="#fff"/><g><use xlink:href="#z" transform="matrix(1,0,0,1,1280,1030) translate(99.05 12.799999999999999)"/><use xlink:href="#A" transform="matrix(1,0,0,1,1280,1030) translate(155.95 12.799999999999999)"/></g><defs><path fill="#999" d="M169-182c-1-43-94-46-97-3 18 66 151 10 154 114 3 95-165 93-204 36-6-8-10-19-12-30l50-8c3 46 112 56 116 5-17-69-150-10-154-114-4-87 153-88 188-35 5 8 8 18 10 28" id="B"/><path fill="#999" d="M128-127c34 4 56 21 59 58 7 91-148 94-172 28-4-9-6-17-7-26l51-5c1 24 16 35 40 36 23 0 39-12 38-36-1-31-31-36-65-34v-40c32 2 59-3 59-33 0-20-13-33-34-33s-33 13-35 32l-50-3c6-44 37-68 86-68 50 0 83 20 83 66 0 35-22 52-53 58" id="C"/><g id="a"><use transform="matrix(0.09876543209876544,0,0,0.09876543209876544,0,0)" xlink:href="#B"/><use transform="matrix(0.09876543209876544,0,0,0.09876543209876544,23.703703703703706,0)" xlink:href="#C"/></g><path fill="#999" d="M199 0l-22-63H83L61 0H9l90-248h61L250 0h-51zm-33-102l-36-108c-10 38-24 72-36 108h72" id="D"/><path fill="#999" d="M67-125c0 53 21 87 73 88 37 1 54-22 65-47l45 17C233-25 199 4 140 4 58 4 20-42 15-125 8-235 124-281 211-232c18 10 29 29 36 50l-46 12c-8-25-30-41-62-41-52 0-71 34-72 86" id="E"/><path fill="#999" d="M24 0v-248h195v40H76v63h132v40H76v65h150V0H24" id="F"/><g id="b"><use transform="matrix(0.09876543209876544,0,0,0.09876543209876544,0,0)" xlink:href="#D"/><use transform="matrix(0.09876543209876544,0,0,0.09876543209876544,25.58024691358025,0)" xlink:href="#E"/><use transform="matrix(0.09876543209876544,0,0,0.09876543209876544,51.1604938271605,0)" xlink:href="#E"/><use transform="matrix(0.09876543209876544,0,0,0.09876543209876544,76.74074074074075,0)" xlink:href="#F"/><use transform="matrix(0.09876543209876544,0,0,0.09876543209876544,100.44444444444446,0)" xlink:href="#B"/><use transform="matrix(0.09876543209876544,0,0,0.09876543209876544,124.14814814814815,0)" xlink:href="#B"/></g><path fill="#999" d="M24 0v-248h52v208h133V0H24" id="G"/><path fill="#999" d="M140-251c80 0 125 45 125 126S219 4 139 4C58 4 15-44 15-125s44-126 125-126zm-1 214c52 0 73-35 73-88 0-50-21-86-72-86-52 0-73 35-73 86s22 88 72 88" id="H"/><path fill="#999" d="M67-125c0 54 23 88 75 88 28 0 53-7 68-21v-34h-60v-39h108v91C232-14 192 4 140 4 58 4 20-42 15-125 8-236 126-280 215-234c19 10 29 26 37 47l-47 15c-11-23-29-39-63-39-53 1-75 33-75 86" id="I"/><path fill="#999" d="M24 0v-248h52V0H24" id="J"/><path fill="#999" d="M175 0L67-191c6 58 2 128 3 191H24v-248h59L193-55c-6-58-2-129-3-193h46V0h-61" id="K"/><g id="c"><use transform="matrix(0.09876543209876544,0,0,0.09876543209876544,0,0)" xlink:href="#G"/><use transform="matrix(0.09876543209876544,0,0,0.09876543209876544,21.62962962962963,0)" xlink:href="#H"/><use transform="matrix(0.09876543209876544,0,0,0.09876543209876544,49.28395061728395,0)" xlink:href="#I"/><use transform="matrix(0.09876543209876544,0,0,0.09876543209876544,76.93827160493828,0)" xlink:href="#I"/><use transform="matrix(0.09876543209876544,0,0,0.09876543209876544,104.5925925925926,0)" xlink:href="#J"/><use transform="matrix(0.09876543209876544,0,0,0.09876543209876544,114.46913580246914,0)" xlink:href="#K"/><use transform="matrix(0.09876543209876544,0,0,0.09876543209876544,140.0493827160494,0)" xlink:href="#I"/></g><path fill="#999" d="M63-220v92h138v28H63V0H30v-248h175v28H63" id="L"/><path fill="#999" d="M141-36C126-15 110 5 73 4 37 3 15-17 15-53c-1-64 63-63 125-63 3-35-9-54-41-54-24 1-41 7-42 31l-33-3c5-37 33-52 76-52 45 0 72 20 72 64v82c-1 20 7 32 28 27v20c-31 9-61-2-59-35zM48-53c0 20 12 33 32 33 41-3 63-29 60-74-43 2-92-5-92 41" id="M"/><path fill="#999" d="M84 4C-5 8 30-112 23-190h32v120c0 31 7 50 39 49 72-2 45-101 50-169h31l1 190h-30c-1-10 1-25-2-33-11 22-28 36-60 37" id="N"/><path fill="#999" d="M9 0v-24l116-142H16v-24h144v24L44-24h123V0H9" id="O"/><path fill="#999" d="M24-231v-30h32v30H24zM24 0v-190h32V0H24" id="P"/><g id="d"><use transform="matrix(0.06172839506172778,0,0,0.06172839506172778,0,0)" xlink:href="#L"/><use transform="matrix(0.06172839506172778,0,0,0.06172839506172778,13.518518518518384,0)" xlink:href="#M"/><use transform="matrix(0.06172839506172778,0,0,0.06172839506172778,25.86419753086394,0)" xlink:href="#N"/><use transform="matrix(0.06172839506172778,0,0,0.06172839506172778,38.209876543209496,0)" xlink:href="#O"/><use transform="matrix(0.06172839506172778,0,0,0.06172839506172778,49.3209876543205,0)" xlink:href="#P"/></g><path fill="#999" d="M143 4C61 4 22-44 18-125c-5-107 100-154 193-111 17 8 29 25 37 43l-32 9c-13-25-37-40-76-40-61 0-88 39-88 99 0 61 29 100 91 101 35 0 62-11 79-27v-45h-74v-28h105v86C228-13 192 4 143 4" id="Q"/><path fill="#999" d="M100-194c62-1 85 37 85 99 1 63-27 99-86 99S16-35 15-95c0-66 28-99 85-99zM99-20c44 1 53-31 53-75 0-43-8-75-51-75s-53 32-53 75 10 74 51 75" id="R"/><path fill="#999" d="M210-169c-67 3-38 105-44 169h-31v-121c0-29-5-50-35-48C34-165 62-65 56 0H25l-1-190h30c1 10-1 24 2 32 10-44 99-50 107 0 11-21 27-35 58-36 85-2 47 119 55 194h-31v-121c0-29-5-49-35-48" id="S"/><path fill="#999" d="M100-194c63 0 86 42 84 106H49c0 40 14 67 53 68 26 1 43-12 49-29l28 8c-11 28-37 45-77 45C44 4 14-33 15-96c1-61 26-98 85-98zm52 81c6-60-76-77-97-28-3 7-6 17-6 28h103" id="T"/><g id="e"><use transform="matrix(0.06172839506172778,0,0,0.06172839506172778,0,0)" xlink:href="#Q"/><use transform="matrix(0.06172839506172778,0,0,0.06172839506172778,17.28395061728378,0)" xlink:href="#R"/><use transform="matrix(0.06172839506172778,0,0,0.06172839506172778,29.629629629629335,0)" xlink:href="#S"/><use transform="matrix(0.06172839506172778,0,0,0.06172839506172778,48.08641975308594,0)" xlink:href="#T"/><use transform="matrix(0.06172839506172778,0,0,0.06172839506172778,60.4320987654315,0)" xlink:href="#O"/></g><path fill="#999" d="M32 76v-337h29V76H32" id="U"/><use transform="matrix(0.06172839506172778,0,0,0.06172839506172778,0,0)" xlink:href="#U" id="f"/><path fill="#999" d="M153-248C145-148 188 4 80 4 36 3 13-21 6-62l32-5c4 25 16 42 43 43 27 0 39-20 39-49v-147H72v-28h81" id="V"/><path fill="#999" d="M117-194c89-4 53 116 60 194h-32v-121c0-31-8-49-39-48C34-167 62-67 57 0H25l-1-190h30c1 10-1 24 2 32 11-22 29-35 61-36" id="W"/><g id="g"><use transform="matrix(0.06172839506172778,0,0,0.06172839506172778,0,0)" xlink:href="#V"/><use transform="matrix(0.06172839506172778,0,0,0.06172839506172778,11.111111111111,0)" xlink:href="#N"/><use transform="matrix(0.06172839506172778,0,0,0.06172839506172778,23.456790123456557,0)" xlink:href="#W"/><use transform="matrix(0.06172839506172778,0,0,0.06172839506172778,35.80246913580211,0)" xlink:href="#T"/></g><path fill="#999" d="M101-251c82-7 93 87 43 132L82-64C71-53 59-42 53-27h129V0H18c2-99 128-94 128-182 0-28-16-43-45-43s-46 15-49 41l-32-3c6-41 34-60 81-64" id="X"/><path fill="#999" d="M54-142c48-35 137-8 131 61C196 18 31 33 14-55l32-4c7 23 22 37 52 37 35-1 51-22 54-58 4-55-73-65-99-34H22l8-134h141v27H59" id="Y"/><path fill="#999" d="M68-38c1 34 0 65-14 84H32c9-13 17-26 17-46H33v-38h35" id="Z"/><g id="h"><use transform="matrix(0.06172839506172778,0,0,0.06172839506172778,0,0)" xlink:href="#X"/><use transform="matrix(0.06172839506172778,0,0,0.06172839506172778,12.345679012345556,0)" xlink:href="#Y"/><use transform="matrix(0.06172839506172778,0,0,0.06172839506172778,24.691358024691112,0)" xlink:href="#Z"/></g><path fill="#999" d="M101-251c68 0 85 55 85 127S166 4 100 4C33 4 14-52 14-124c0-73 17-127 87-127zm-1 229c47 0 54-49 54-102s-4-102-53-102c-51 0-55 48-55 102 0 53 5 102 54 102" id="aa"/><path fill="#999" d="M27 0v-27h64v-190l-56 39v-29l58-41h29v221h61V0H27" id="ab"/><path fill="#999" d="M134-131c28 9 52 24 51 62-1 50-34 73-85 73S17-19 16-69c0-36 21-54 49-61-75-25-45-126 34-121 46 3 78 18 79 63 0 33-17 51-44 57zm-34-11c31 1 46-15 46-44 0-28-17-43-47-42-29 0-46 13-45 42 1 28 16 44 46 44zm1 122c35 0 51-18 51-52 0-30-18-46-53-46-33 0-51 17-51 47 0 34 19 51 53 51" id="ac"/><g id="i"><use transform="matrix(0.06172839506172778,0,0,0.06172839506172778,0,0)" xlink:href="#X"/><use transform="matrix(0.06172839506172778,0,0,0.06172839506172778,12.345679012345556,0)" xlink:href="#aa"/><use transform="matrix(0.06172839506172778,0,0,0.06172839506172778,24.691358024691112,0)" xlink:href="#ab"/><use transform="matrix(0.06172839506172778,0,0,0.06172839506172778,37.03703703703667,0)" xlink:href="#ac"/></g><path d="M115-194c53 0 69 39 70 98 0 66-23 100-70 100C84 3 66-7 56-30L54 0H23l1-261h32v101c10-23 28-34 59-34zm-8 174c40 0 45-34 45-75 0-40-5-75-45-74-42 0-51 32-51 76 0 43 10 73 51 73" id="ad"/><path d="M84 4C-5 8 30-112 23-190h32v120c0 31 7 50 39 49 72-2 45-101 50-169h31l1 190h-30c-1-10 1-25-2-33-11 22-28 36-60 37" id="ae"/><path d="M96-169c-40 0-48 33-48 73s9 75 48 75c24 0 41-14 43-38l32 2c-6 37-31 61-74 61-59 0-76-41-82-99-10-93 101-131 147-64 4 7 5 14 7 22l-32 3c-4-21-16-35-41-35" id="af"/><path d="M143 0L79-87 56-68V0H24v-261h32v163l83-92h37l-77 82L181 0h-38" id="ag"/><path d="M100-194c63 0 86 42 84 106H49c0 40 14 67 53 68 26 1 43-12 49-29l28 8c-11 28-37 45-77 45C44 4 14-33 15-96c1-61 26-98 85-98zm52 81c6-60-76-77-97-28-3 7-6 17-6 28h103" id="ah"/><path d="M59-47c-2 24 18 29 38 22v24C64 9 27 4 27-40v-127H5v-23h24l9-43h21v43h35v23H59v120" id="ai"/><path d="M16-82v-28h88v28H16" id="aj"/><path d="M85-194c31 0 48 13 60 33l-1-100h32l1 261h-30c-2-10 0-23-3-31C134-8 116 4 85 4 32 4 16-35 15-94c0-66 23-100 70-100zm9 24c-40 0-46 34-46 75 0 40 6 74 45 74 42 0 51-32 51-76 0-42-9-74-50-73" id="ak"/><path d="M141-36C126-15 110 5 73 4 37 3 15-17 15-53c-1-64 63-63 125-63 3-35-9-54-41-54-24 1-41 7-42 31l-33-3c5-37 33-52 76-52 45 0 72 20 72 64v82c-1 20 7 32 28 27v20c-31 9-61-2-59-35zM48-53c0 20 12 33 32 33 41-3 63-29 60-74-43 2-92-5-92 41" id="al"/><path d="M177-190C167-65 218 103 67 71c-23-6-38-20-44-43l32-5c15 47 100 32 89-28v-30C133-14 115 1 83 1 29 1 15-40 15-95c0-56 16-97 71-98 29-1 48 16 59 35 1-10 0-23 2-32h30zM94-22c36 0 50-32 50-73 0-42-14-75-50-75-39 0-46 34-46 75s6 73 46 73" id="am"/><path d="M117-194c89-4 53 116 60 194h-32v-121c0-31-8-49-39-48C34-167 62-67 57 0H25l-1-190h30c1 10-1 24 2 32 11-22 29-35 61-36" id="an"/><path d="M126-127c33 6 58 20 58 59 0 88-139 92-164 29-3-8-5-16-6-25l32-3c6 27 21 44 54 44 32 0 52-15 52-46 0-38-36-46-79-43v-28c39 1 72-4 72-42 0-27-17-43-46-43-28 0-47 15-49 41l-32-3c6-42 35-63 81-64 48-1 79 21 79 65 0 36-21 52-52 59" id="ao"/><g id="j"><use transform="matrix(0.05,0,0,0.05,0,0)" xlink:href="#ad"/><use transform="matrix(0.05,0,0,0.05,10,0)" xlink:href="#ae"/><use transform="matrix(0.05,0,0,0.05,20,0)" xlink:href="#af"/><use transform="matrix(0.05,0,0,0.05,29,0)" xlink:href="#ag"/><use transform="matrix(0.05,0,0,0.05,38,0)" xlink:href="#ah"/><use transform="matrix(0.05,0,0,0.05,48,0)" xlink:href="#ai"/><use transform="matrix(0.05,0,0,0.05,53,0)" xlink:href="#aj"/><use transform="matrix(0.05,0,0,0.05,58.95,0)" xlink:href="#ak"/><use transform="matrix(0.05,0,0,0.05,68.95,0)" xlink:href="#al"/><use transform="matrix(0.05,0,0,0.05,78.95,0)" xlink:href="#ai"/><use transform="matrix(0.05,0,0,0.05,83.95,0)" xlink:href="#al"/><use transform="matrix(0.05,0,0,0.05,93.95,0)" xlink:href="#ad"/><use transform="matrix(0.05,0,0,0.05,103.95,0)" xlink:href="#ae"/><use transform="matrix(0.05,0,0,0.05,113.95,0)" xlink:href="#af"/><use transform="matrix(0.05,0,0,0.05,122.95,0)" xlink:href="#ag"/><use transform="matrix(0.05,0,0,0.05,131.95,0)" xlink:href="#ah"/><use transform="matrix(0.05,0,0,0.05,141.95,0)" xlink:href="#ai"/><use transform="matrix(0.05,0,0,0.05,146.95,0)" xlink:href="#aj"/><use transform="matrix(0.05,0,0,0.05,152.89999999999998,0)" xlink:href="#am"/><use transform="matrix(0.05,0,0,0.05,162.89999999999998,0)" xlink:href="#ah"/><use transform="matrix(0.05,0,0,0.05,172.89999999999998,0)" xlink:href="#an"/><use transform="matrix(0.05,0,0,0.05,182.89999999999998,0)" xlink:href="#ao"/></g><path d="M135-143c-3-34-86-38-87 0 15 53 115 12 119 90S17 21 10-45l28-5c4 36 97 45 98 0-10-56-113-15-118-90-4-57 82-63 122-42 12 7 21 19 24 35" id="ap"/><path d="M24 0v-261h32V0H24" id="aq"/><path d="M100-194c62-1 85 37 85 99 1 63-27 99-86 99S16-35 15-95c0-66 28-99 85-99zM99-20c44 1 53-31 53-75 0-43-8-75-51-75s-53 32-53 75 10 74 51 75" id="ar"/><g id="k"><use transform="matrix(0.05,0,0,0.05,0,0)" xlink:href="#ap"/><use transform="matrix(0.05,0,0,0.05,9,0)" xlink:href="#ao"/><use transform="matrix(0.05,0,0,0.05,19,0)" xlink:href="#aq"/><use transform="matrix(0.05,0,0,0.05,22.95,0)" xlink:href="#ar"/><use transform="matrix(0.05,0,0,0.05,32.95,0)" xlink:href="#am"/><use transform="matrix(0.05,0,0,0.05,42.95,0)" xlink:href="#ap"/><use transform="matrix(0.05,0,0,0.05,51.95,0)" xlink:href="#aj"/><use transform="matrix(0.05,0,0,0.05,57.900000000000006,0)" xlink:href="#ad"/><use transform="matrix(0.05,0,0,0.05,67.9,0)" xlink:href="#ae"/><use transform="matrix(0.05,0,0,0.05,77.9,0)" xlink:href="#af"/><use transform="matrix(0.05,0,0,0.05,86.9,0)" xlink:href="#ag"/><use transform="matrix(0.05,0,0,0.05,95.9,0)" xlink:href="#ah"/><use transform="matrix(0.05,0,0,0.05,105.9,0)" xlink:href="#ai"/><use transform="matrix(0.05,0,0,0.05,110.9,0)" xlink:href="#aj"/><use transform="matrix(0.05,0,0,0.05,116.85000000000001,0)" xlink:href="#ak"/><use transform="matrix(0.05,0,0,0.05,126.85000000000001,0)" xlink:href="#al"/><use transform="matrix(0.05,0,0,0.05,136.85000000000002,0)" xlink:href="#ai"/><use transform="matrix(0.05,0,0,0.05,141.85000000000002,0)" xlink:href="#al"/><use transform="matrix(0.05,0,0,0.05,151.85000000000002,0)" xlink:href="#ad"/><use transform="matrix(0.05,0,0,0.05,161.85000000000002,0)" xlink:href="#ae"/><use transform="matrix(0.05,0,0,0.05,171.85000000000002,0)" xlink:href="#af"/><use transform="matrix(0.05,0,0,0.05,180.85000000000002,0)" xlink:href="#ag"/><use transform="matrix(0.05,0,0,0.05,189.85000000000002,0)" xlink:href="#ah"/><use transform="matrix(0.05,0,0,0.05,199.85000000000002,0)" xlink:href="#ai"/><use transform="matrix(0.05,0,0,0.05,204.85000000000002,0)" xlink:href="#aj"/><use transform="matrix(0.05,0,0,0.05,210.8,0)" xlink:href="#am"/><use transform="matrix(0.05,0,0,0.05,220.8,0)" xlink:href="#ah"/><use transform="matrix(0.05,0,0,0.05,230.8,0)" xlink:href="#an"/><use transform="matrix(0.05,0,0,0.05,240.8,0)" xlink:href="#ao"/></g><path d="M185-189c-5-48-123-54-124 2 14 75 158 14 163 119 3 78-121 87-175 55-17-10-28-26-33-46l33-7c5 56 141 63 141-1 0-78-155-14-162-118-5-82 145-84 179-34 5 7 8 16 11 25" id="as"/><path d="M114-163C36-179 61-72 57 0H25l-1-190h30c1 12-1 29 2 39 6-27 23-49 58-41v29" id="at"/><path d="M108 0H70L1-190h34L89-25l56-165h34" id="au"/><g id="l"><use transform="matrix(0.05,0,0,0.05,0,0)" xlink:href="#as"/><use transform="matrix(0.05,0,0,0.05,12,0)" xlink:href="#ah"/><use transform="matrix(0.05,0,0,0.05,22,0)" xlink:href="#at"/><use transform="matrix(0.05,0,0,0.05,27.950000000000003,0)" xlink:href="#au"/><use transform="matrix(0.05,0,0,0.05,36.95,0)" xlink:href="#ah"/><use transform="matrix(0.05,0,0,0.05,46.95,0)" xlink:href="#at"/></g><g id="m"><use transform="matrix(0.05,0,0,0.05,0,0)" xlink:href="#al"/><use transform="matrix(0.05,0,0,0.05,10,0)" xlink:href="#af"/><use transform="matrix(0.05,0,0,0.05,19,0)" xlink:href="#af"/><use transform="matrix(0.05,0,0,0.05,28,0)" xlink:href="#ah"/><use transform="matrix(0.05,0,0,0.05,38,0)" xlink:href="#ap"/><use transform="matrix(0.05,0,0,0.05,47,0)" xlink:href="#ap"/></g><path d="M24-231v-30h32v30H24zM24 0v-190h32V0H24" id="av"/><g id="n"><use transform="matrix(0.05,0,0,0.05,0,0)" xlink:href="#aq"/><use transform="matrix(0.05,0,0,0.05,3.95,0)" xlink:href="#ar"/><use transform="matrix(0.05,0,0,0.05,13.949999999999998,0)" xlink:href="#am"/><use transform="matrix(0.05,0,0,0.05,23.95,0)" xlink:href="#am"/><use transform="matrix(0.05,0,0,0.05,33.95,0)" xlink:href="#av"/><use transform="matrix(0.05,0,0,0.05,37.900000000000006,0)" xlink:href="#an"/><use transform="matrix(0.05,0,0,0.05,47.900000000000006,0)" xlink:href="#am"/></g><path d="M205 0l-28-72H64L36 0H1l101-248h38L239 0h-34zm-38-99l-47-123c-12 45-31 82-46 123h93" id="aw"/><path d="M266 0h-40l-56-210L115 0H75L2-248h35L96-30l15-64 43-154h32l59 218 59-218h35" id="ax"/><g id="o"><use transform="matrix(0.05,0,0,0.05,0,0)" xlink:href="#aw"/><use transform="matrix(0.05,0,0,0.05,11.35,0)" xlink:href="#ax"/><use transform="matrix(0.05,0,0,0.05,28.299999999999997,0)" xlink:href="#as"/></g><path d="M212-179c-10-28-35-45-73-45-59 0-87 40-87 99 0 60 29 101 89 101 43 0 62-24 78-52l27 14C228-24 195 4 139 4 59 4 22-46 18-125c-6-104 99-153 187-111 19 9 31 26 39 46" id="ay"/><path d="M127-220V0H93v-220H8v-28h204v28h-85" id="az"/><g id="p"><use transform="matrix(0.05,0,0,0.05,0,0)" xlink:href="#ay"/><use transform="matrix(0.05,0,0,0.05,12.950000000000001,0)" xlink:href="#aq"/><use transform="matrix(0.05,0,0,0.05,16.900000000000002,0)" xlink:href="#ar"/><use transform="matrix(0.05,0,0,0.05,26.900000000000002,0)" xlink:href="#ae"/><use transform="matrix(0.05,0,0,0.05,36.900000000000006,0)" xlink:href="#ak"/><use transform="matrix(0.05,0,0,0.05,46.900000000000006,0)" xlink:href="#az"/><use transform="matrix(0.05,0,0,0.05,57.20000000000002,0)" xlink:href="#at"/><use transform="matrix(0.05,0,0,0.05,63.15000000000001,0)" xlink:href="#al"/><use transform="matrix(0.05,0,0,0.05,73.15,0)" xlink:href="#av"/><use transform="matrix(0.05,0,0,0.05,77.10000000000001,0)" xlink:href="#aq"/></g><path d="M210-169c-67 3-38 105-44 169h-31v-121c0-29-5-50-35-48C34-165 62-65 56 0H25l-1-190h30c1 10-1 24 2 32 10-44 99-50 107 0 11-21 27-35 58-36 85-2 47 119 55 194h-31v-121c0-29-5-49-35-48" id="aA"/><path d="M9 0v-24l116-142H16v-24h144v24L44-24h123V0H9" id="aB"/><g id="q"><use transform="matrix(0.05,0,0,0.05,0,0)" xlink:href="#aw"/><use transform="matrix(0.05,0,0,0.05,12,0)" xlink:href="#aA"/><use transform="matrix(0.05,0,0,0.05,26.950000000000003,0)" xlink:href="#al"/><use transform="matrix(0.05,0,0,0.05,36.95,0)" xlink:href="#aB"/><use transform="matrix(0.05,0,0,0.05,45.95,0)" xlink:href="#ar"/><use transform="matrix(0.05,0,0,0.05,55.95,0)" xlink:href="#an"/></g><path d="M106-169C34-169 62-67 57 0H25v-261h32l-1 103c12-21 28-36 61-36 89 0 53 116 60 194h-32v-121c2-32-8-49-39-48" id="aC"/><g id="r"><use transform="matrix(0.05,0,0,0.05,0,0)" xlink:href="#ay"/><use transform="matrix(0.05,0,0,0.05,12.950000000000001,0)" xlink:href="#aq"/><use transform="matrix(0.05,0,0,0.05,16.900000000000002,0)" xlink:href="#ar"/><use transform="matrix(0.05,0,0,0.05,26.900000000000002,0)" xlink:href="#ae"/><use transform="matrix(0.05,0,0,0.05,36.900000000000006,0)" xlink:href="#ak"/><use transform="matrix(0.05,0,0,0.05,46.900000000000006,0)" xlink:href="#ax"/><use transform="matrix(0.05,0,0,0.05,63.2,0)" xlink:href="#al"/><use transform="matrix(0.05,0,0,0.05,73.2,0)" xlink:href="#ai"/><use transform="matrix(0.05,0,0,0.05,78.2,0)" xlink:href="#af"/><use transform="matrix(0.05,0,0,0.05,87.2,0)" xlink:href="#aC"/></g><path d="M30 0v-248h33v221h125V0H30" id="aD"/><g id="s"><use transform="matrix(0.05,0,0,0.05,0,0)" xlink:href="#aD"/><use transform="matrix(0.05,0,0,0.05,10,0)" xlink:href="#ar"/><use transform="matrix(0.05,0,0,0.05,20,0)" xlink:href="#am"/><use transform="matrix(0.05,0,0,0.05,30,0)" xlink:href="#ap"/></g><path d="M140-251c81 0 123 46 123 126C263-46 219 4 140 4 59 4 17-45 17-125s42-126 123-126zm0 227c63 0 89-41 89-101s-29-99-89-99c-61 0-89 39-89 99S79-25 140-24" id="aE"/><path d="M24-231v-30h32v30H24zM-9 49c24 4 33-6 33-30v-209h32V24c2 40-23 58-65 49V49" id="aF"/><g id="t"><use transform="matrix(0.05,0,0,0.05,0,0)" xlink:href="#aE"/><use transform="matrix(0.05,0,0,0.05,14,0)" xlink:href="#aF"/><use transform="matrix(0.05,0,0,0.05,17.95,0)" xlink:href="#ah"/><use transform="matrix(0.05,0,0,0.05,27.950000000000003,0)" xlink:href="#af"/><use transform="matrix(0.05,0,0,0.05,36.95,0)" xlink:href="#ai"/><use transform="matrix(0.05,0,0,0.05,41.95,0)" xlink:href="#aj"/><use transform="matrix(0.05,0,0,0.05,47.900000000000006,0)" xlink:href="#aD"/><use transform="matrix(0.05,0,0,0.05,57.900000000000006,0)" xlink:href="#ah"/><use transform="matrix(0.05,0,0,0.05,67.9,0)" xlink:href="#au"/><use transform="matrix(0.05,0,0,0.05,76.9,0)" xlink:href="#ah"/><use transform="matrix(0.05,0,0,0.05,86.9,0)" xlink:href="#aq"/></g><g id="u"><use transform="matrix(0.05,0,0,0.05,0,0)" xlink:href="#aw"/><use transform="matrix(0.05,0,0,0.05,11.35,0)" xlink:href="#ax"/><use transform="matrix(0.05,0,0,0.05,28.299999999999997,0)" xlink:href="#as"/></g><g id="v"><use transform="matrix(0.05,0,0,0.05,0,0)" xlink:href="#af"/><use transform="matrix(0.05,0,0,0.05,9,0)" xlink:href="#aq"/><use transform="matrix(0.05,0,0,0.05,12.949999999999998,0)" xlink:href="#ar"/><use transform="matrix(0.05,0,0,0.05,22.95,0)" xlink:href="#ae"/><use transform="matrix(0.05,0,0,0.05,32.95,0)" xlink:href="#ak"/></g><path d="M194 0L95-120 63-95V0H30v-248h33v124l119-124h40L117-140 236 0h-42" id="aG"/><g id="w"><use transform="matrix(0.05,0,0,0.05,0,0)" xlink:href="#aG"/><use transform="matrix(0.05,0,0,0.05,12,0)" xlink:href="#av"/><use transform="matrix(0.05,0,0,0.05,15.949999999999998,0)" xlink:href="#an"/><use transform="matrix(0.05,0,0,0.05,25.950000000000003,0)" xlink:href="#ah"/><use transform="matrix(0.05,0,0,0.05,35.95,0)" xlink:href="#ap"/><use transform="matrix(0.05,0,0,0.05,44.95,0)" xlink:href="#av"/><use transform="matrix(0.05,0,0,0.05,48.900000000000006,0)" xlink:href="#ap"/></g><path d="M115-194c55 1 70 41 70 98S169 2 115 4C84 4 66-9 55-30l1 105H24l-1-265h31l2 30c10-21 28-34 59-34zm-8 174c40 0 45-34 45-75s-6-73-45-74c-42 0-51 32-51 76 0 43 10 73 51 73" id="aH"/><g id="x"><use transform="matrix(0.05,0,0,0.05,0,0)" xlink:href="#as"/><use transform="matrix(0.05,0,0,0.05,12,0)" xlink:href="#ae"/><use transform="matrix(0.05,0,0,0.05,22,0)" xlink:href="#ad"/><use transform="matrix(0.05,0,0,0.05,32,0)" xlink:href="#ap"/><use transform="matrix(0.05,0,0,0.05,41,0)" xlink:href="#af"/><use transform="matrix(0.05,0,0,0.05,50,0)" xlink:href="#at"/><use transform="matrix(0.05,0,0,0.05,55.95,0)" xlink:href="#av"/><use transform="matrix(0.05,0,0,0.05,59.900000000000006,0)" xlink:href="#aH"/><use transform="matrix(0.05,0,0,0.05,69.9,0)" xlink:href="#ai"/><use transform="matrix(0.05,0,0,0.05,74.9,0)" xlink:href="#av"/><use transform="matrix(0.05,0,0,0.05,78.85000000000001,0)" xlink:href="#ar"/><use transform="matrix(0.05,0,0,0.05,88.85000000000001,0)" xlink:href="#an"/></g><path d="M63-220v92h138v28H63V0H30v-248h175v28H63" id="aI"/><g id="y"><use transform="matrix(0.05,0,0,0.05,0,0)" xlink:href="#aI"/><use transform="matrix(0.05,0,0,0.05,10.950000000000001,0)" xlink:href="#av"/><use transform="matrix(0.05,0,0,0.05,14.9,0)" xlink:href="#aq"/><use transform="matrix(0.05,0,0,0.05,18.85,0)" xlink:href="#ai"/><use transform="matrix(0.05,0,0,0.05,23.85,0)" xlink:href="#ah"/><use transform="matrix(0.05,0,0,0.05,33.85,0)" xlink:href="#at"/></g><g id="z"><use transform="matrix(0.05,0,0,0.05,0,0)" xlink:href="#ay"/><use transform="matrix(0.05,0,0,0.05,12.950000000000001,0)" xlink:href="#as"/><use transform="matrix(0.05,0,0,0.05,24.950000000000003,0)" xlink:href="#aE"/><use transform="matrix(0.05,0,0,0.05,38.95,0)" xlink:href="#ay"/></g><g id="A"><use transform="matrix(0.05,0,0,0.05,0,0)" xlink:href="#aw"/><use transform="matrix(0.05,0,0,0.05,12,0)" xlink:href="#af"/><use transform="matrix(0.05,0,0,0.05,21,0)" xlink:href="#af"/><use transform="matrix(0.05,0,0,0.05,30,0)" xlink:href="#ar"/><use transform="matrix(0.05,0,0,0.05,40,0)" xlink:href="#ae"/><use transform="matrix(0.05,0,0,0.05,50,0)" xlink:href="#an"/><use transform="matrix(0.05,0,0,0.05,60,0)" xlink:href="#ai"/></g></defs></g></svg>