<svg xmlns="http://www.w3.org/2000/svg" xmlns:xlink="http://www.w3.org/1999/xlink" xmlns:lucid="lucid" width="1760" height="1360"><g transform="translate(0 0)" lucid:page-tab-id="0_0"><path d="M320 542c0-16.57 13.43-30 30-30h1140c16.57 0 30 13.43 30 30v768c0 16.57-13.43 30-30 30H350c-16.57 0-30-13.43-30-30z" stroke="#474747" fill="none"/><path d="M428 514.4v3.54c0 6.42-7.1 13.05-15.76 13.05h-46.48c-8.66 0-15.75-6.64-15.75-13.06v-3.54z" fill="#9d5125"/><path d="M380.03 480c8.03 0 14.82 4.4 18.17 11.67 4.6-3.14 10.92-1.98 14.04 2.65 1.17 1.64 1.7 3.32 1.8 5.3 7.87.68 13.95 8.25 13.95 14.27v1.3c0 6.45-7.1 13-15.76 13h-46.5c-8.64 0-15.74-6.55-15.74-13v-1.3c0-5.02 4.2-11.87 10.06-13.56v-.57c.08-10.95 8.97-19.82 19.97-19.77z" fill="#f58535"/><path d="M369.54 503.13l-5.2 18.2h3.04l1.17-4.43h5.38l1.1 4.43h3.05l-4.8-18.2zm-.47 11.4l2.22-8.98 2.1 8.97zM391.2 517.34h-.03l-2.47-14.2h-3.1l-2.4 14.13h-.06l-2.4-14.14h-2.95l3.53 18.2h3.38l2.35-13.7h.06l2.36 13.7h3.4l3.64-18.2h-2.9l-2.4 14.2zM405.9 511.4l-1.98-.72c-1.93-.7-2.74-1.53-2.74-3.1-.17-1.26.74-2.43 2-2.6.16-.02.3-.02.45-.02 1.26-.17 2.4.72 2.58 1.96.04.25.03.44 0 .68v.38h2.93v-.4c0-1.9-.5-4.8-5.18-4.8-3.44 0-5.7 1.84-5.7 5.16 0 2.6 1.1 3.97 3.82 5l2 .68c1.6.23 2.73 1.6 2.64 3.2.04 1.45-1.08 2.64-2.5 2.68h-.28c-2 0-3-1.12-3-3.33v-.47h-2.9v.44c0 2.54 1.02 5.53 5.52 5.53 3.7 0 6.07-1.6 6.07-5.48.04-2.5-1.1-3.9-3.7-4.8z" fill="#fff"/><use xlink:href="#a" transform="matrix(1,0,0,1,320,1310) translate(501.425 12.799999999999999)"/><use xlink:href="#b" transform="matrix(1,0,0,1,320,1310) translate(588.275 12.799999999999999)"/><use xlink:href="#c" transform="matrix(1,0,0,1,320,1310) translate(633.575 12.799999999999999)"/><path d="M1420 131.8v5.47c0 9.94-10.93 20.22-24.25 20.22h-71.5c-13.32 0-24.24-10.3-24.24-20.23v-5.48z" fill="#9d5125"/><path d="M1346.2 78.5c12.35 0 22.8 6.8 27.95 18.07 7.08-4.85 16.8-3.06 21.6 4.1 1.8 2.55 2.64 5.16 2.76 8.22 12.13 1.04 21.5 12.76 21.5 22.1v2.02c0 10-10.93 20.16-24.25 20.16h-71.5c-13.33 0-24.25-10.16-24.25-20.16V131c0-7.77 6.48-18.37 15.48-21v-.88c.12-16.95 13.8-30.7 30.72-30.62z" fill="#f58535"/><path d="M1330.06 114.33l-8.02 28.18h4.7l1.8-6.84h8.27l1.7 6.85h4.7l-7.36-28.17zm-.72 17.67l3.4-13.92 3.25 13.9zM1363.4 136.34h-.07l-3.8-22h-4.75l-3.7 21.9h-.1l-3.68-21.9h-4.54l5.43 28.17h5.2l3.6-21.2h.1l3.6 21.2h5.22l5.6-28.17h-4.45l-3.68 22zM1386 127.13l-3.04-1.1c-2.98-1.1-4.23-2.38-4.23-4.8-.25-1.96 1.14-3.78 3.1-4.04.24-.04.45-.04.68-.04 1.94-.26 3.7 1.1 3.98 3.04.05.38.03.67-.02 1.05v.6h4.5v-.62c0-2.93-.74-7.43-7.96-7.43-5.3 0-8.77 2.83-8.77 7.98 0 4.04 1.7 6.14 5.88 7.72l3.1 1.08c2.44.36 4.2 2.5 4.04 4.98.06 2.22-1.67 4.06-3.87 4.12h-.4c-3.1 0-4.6-1.73-4.6-5.15v-.73h-4.5v.67c0 3.95 1.58 8.57 8.5 8.57 5.7 0 9.33-2.48 9.33-8.48.06-3.86-1.7-6.02-5.7-7.43z" fill="#fff"/><use xlink:href="#d" transform="matrix(1,0,0,1,1300,157.5) translate(35.05 14.4)"/><use xlink:href="#e" transform="matrix(1,0,0,1,1300,157.5) translate(19.074999999999996 36)"/><use xlink:href="#f" transform="matrix(1,0,0,1,1300,157.5) translate(27.5 57.6)"/><path d="M477.73 699.3l-2.48 1.05v29.3l2.48 1.03 10.05-14.93-10.05-16.44z" fill="#9d5025"/><path d="M483.5 729.56l-5.77 1.13v-31.4l5.78 1.1v29.16z" fill="#f58536"/><path d="M480.47 698.16l3.05-1.27L498 716.3l-14.48 16.8-3.05-1.27v-33.67z" fill="#9d5025"/><path d="M490.73 731.4l-7.2 1.7v-36.2l7.2 1.7v32.8z" fill="#f58536"/><path d="M486.9 695.47l3.84-1.6 21.36 24.55-21.36 17.7-3.83-1.6v-39.05z" fill="#9d5025"/><path d="M500 733.3l-9.27 2.83v-42.26l9.26 2.83v36.6z" fill="#f58536"/><path d="M495.05 692.05L500 690l23.1 26.4L500 740l-4.95-2.05v-45.9z" fill="#9d5025"/><path d="M524.75 729.65L500 740v-50l24.75 10.35v29.3z" fill="#f58536"/><use xlink:href="#g" transform="matrix(1,0,0,1,475.24999999999994,740) translate(-24.375000000000007 14.4)"/><path d="M340 582c0-16.57 13.43-30 30-30h1100c16.57 0 30 13.43 30 30v728c0 16.57-13.43 30-30 30H370c-16.57 0-30-13.43-30-30z" stroke="#474747" fill="none"/><path d="M448 554.4v3.54c0 6.42-7.1 13.05-15.76 13.05h-46.48c-8.66 0-15.75-6.64-15.75-13.06v-3.54z" fill="#9d5125"/><path d="M400.03 520c8.03 0 14.82 4.4 18.17 11.67 4.6-3.14 10.92-1.98 14.04 2.65 1.17 1.64 1.7 3.32 1.8 5.3 7.87.68 13.95 8.25 13.95 14.27v1.3c0 6.45-7.1 13-15.76 13h-46.5c-8.64 0-15.74-6.55-15.74-13v-1.3c0-5.02 4.2-11.87 10.06-13.56v-.57c.08-10.95 8.97-19.82 19.97-19.77z" fill="#f58535"/><path d="M388.9 543.13h3.08l3.1 14.58 3.32-14.54h3.1l-4.6 18.2h-3.7zM403.37 543.13h5.77c3.5 0 5.04 2.2 5.04 5.3 0 3.1-1.9 5.4-5.33 5.4h-2.57v7.53h-2.9zm2.9 8.5h2.08c1.56 0 2.9-.83 2.9-3.14 0-1.98-.78-3.17-3.1-3.17h-1.87zM427.8 554.83v.38c0 3.32-1.3 6.52-5.6 6.52-4.6 0-6.04-2.97-6.04-9.47s1.43-9.46 6.05-9.46c5.2 0 5.54 3.8 5.54 5.7v.37h-2.9v-.3c0-1.7-.5-3.64-2.6-3.57-2.08.08-3.1 1.35-3.1 7.22 0 5.87.92 7.3 3.14 7.3 2.42 0 2.7-2.7 2.7-4.42v-.3z" fill="#fff"/><path d="M390 642c0-16.57 13.43-30 30-30h160c16.57 0 30 13.43 30 30v148c0 16.57-13.43 30-30 30H420c-16.57 0-30-13.43-30-30z" stroke="#474747" fill="none"/><path d="M451.97 600.24v-5.9c0-7.25-5.88-13.13-13.12-13.13-7.24 0-13.12 5.9-13.12 13.14v5.9h6.64v-5.9c0-3.58 2.9-6.5 6.48-6.5 3.57 0 6.48 2.92 6.48 6.5v5.9h6.64z" fill="#876a22"/><path d="M451.98 600.26h5.42v20.83H420v-20.84h5.72v-7.1c0-7.28 5.87-13.16 13.13-13.16 7.26 0 13.13 5.88 13.13 13.15v7.1zm-6.66 0v-7.1c0-3.6-2.88-6.5-6.47-6.5-3.6 0-6.47 2.9-6.47 6.5v7.1h12.94z" fill="#daa835"/><path d="M420 621.1h37.4v.9H420z" fill="#876a22"/><use xlink:href="#h" transform="matrix(1,0,0,1,389.99999999999994,790) translate(85.55 12.799999999999999)"/><path d="M640 722c0-16.57 13.43-30 30-30h367c16.57 0 30 13.43 30 30v448c0 16.57-13.43 30-30 30H670c-16.57 0-30-13.43-30-30z" stroke="#474747" fill="none"/><path d="M701.97 680.24v-5.9c0-7.25-5.88-13.13-13.12-13.13-7.24 0-13.12 5.9-13.12 13.14v5.9h6.64v-5.9c0-3.58 2.9-6.5 6.48-6.5 3.57 0 6.48 2.92 6.48 6.5v5.9h6.64z" fill="#876a22"/><path d="M701.98 680.26h5.42v20.83H670v-20.84h5.72v-7.1c0-7.28 5.87-13.16 13.13-13.16 7.26 0 13.13 5.88 13.13 13.15v7.1zm-6.66 0v-7.1c0-3.6-2.88-6.5-6.47-6.5-3.6 0-6.47 2.9-6.47 6.5v7.1h12.94z" fill="#daa835"/><path d="M670 701.1h37.4v.9H670z" fill="#876a22"/><use xlink:href="#i" transform="matrix(1,0,0,1,640,1170) translate(185.55 12.799999999999999)"/><path d="M912.48 856.8l-2.48 1.05v29.3l2.48 1.03 10.05-14.93-10.05-16.44z" fill="#9d5025"/><path d="M918.26 887.06l-5.78 1.13v-31.4l5.78 1.1v29.16z" fill="#f58536"/><path d="M915.22 855.66l3.05-1.27 14.48 19.4-14.48 16.8-3.05-1.27v-33.67z" fill="#9d5025"/><path d="M925.48 888.9l-7.2 1.7v-36.2l7.2 1.7v32.8z" fill="#f58536"/><path d="M921.66 852.97l3.83-1.6 21.35 24.55-21.36 17.7-3.84-1.6v-39.05z" fill="#9d5025"/><path d="M934.74 890.8l-9.26 2.83v-42.26l9.26 2.83v36.6z" fill="#f58536"/><path d="M929.8 849.55l4.94-2.05 23.12 26.4-23.12 23.6-4.94-2.05v-45.9z" fill="#9d5025"/><path d="M959.5 887.15l-24.76 10.35v-50l24.76 10.35v29.3z" fill="#f58536"/><use xlink:href="#j" transform="matrix(1,0,0,1,910,897.5) translate(-64.35 14.4)"/><path d="M722.48 857.3l-2.48 1.05v29.3l2.48 1.03 10.05-14.93-10.05-16.44z" fill="#9d5025"/><path d="M728.26 887.56l-5.78 1.13v-31.4l5.78 1.1v29.16z" fill="#f58536"/><path d="M725.22 856.16l3.05-1.27 14.48 19.4-14.48 16.8-3.05-1.27v-33.67z" fill="#9d5025"/><path d="M735.48 889.4l-7.2 1.7v-36.2l7.2 1.7v32.8z" fill="#f58536"/><path d="M731.66 853.47l3.83-1.6 21.35 24.55-21.36 17.7-3.84-1.6v-39.05z" fill="#9d5025"/><path d="M744.74 891.3l-9.26 2.83v-42.26l9.26 2.83v36.6z" fill="#f58536"/><path d="M739.8 850.05l4.94-2.05 23.12 26.4-23.12 23.6-4.94-2.05v-45.9z" fill="#9d5025"/><path d="M769.5 887.65L744.74 898v-50l24.76 10.35v29.3z" fill="#f58536"/><use xlink:href="#k" transform="matrix(1,0,0,1,720,898) translate(-54.42500000000001 14.4)"/><path d="M742.98 729.3l-2.48 1.05v29.3l2.48 1.03 10.05-14.93-10.05-16.44z" fill="#9d5025"/><path d="M748.76 759.56l-5.78 1.13v-31.4l5.78 1.1v29.16z" fill="#f58536"/><path d="M745.72 728.16l3.05-1.27 14.48 19.4-14.48 16.8-3.05-1.27v-33.67z" fill="#9d5025"/><path d="M755.98 761.4l-7.2 1.7v-36.2l7.2 1.7v32.8z" fill="#f58536"/><path d="M752.16 725.47l3.83-1.6 21.35 24.55-21.36 17.7-3.84-1.6v-39.05z" fill="#9d5025"/><path d="M765.24 763.3l-9.26 2.83v-42.26l9.26 2.83v36.6z" fill="#f58536"/><path d="M760.3 722.05l4.94-2.05 23.12 26.4-23.12 23.6-4.94-2.05v-45.9z" fill="#9d5025"/><path d="M790 759.65L765.24 770v-50L790 730.35v29.3z" fill="#f58536"/><use xlink:href="#l" transform="matrix(1,0,0,1,740.5,770) translate(-75.79999999999998 14.4)"/><path d="M928.57 756.18l-8.38-1.37v-19.23l8.37-1.1v21.7z" fill="#759c3e"/><path d="M921.7 752.66l21.74 10.72v-8.9l-14.88-2.46-6.87.64z" fill="#b7ca9d"/><path d="M957.9 754.5l8.25.3.23-18.12-8.47-1.8v19.63z" fill="#4b612c"/><path d="M943.44 735.67l-14.88 2.3-6.87-.64 21.74-10.43v8.77z" fill="#3c4929"/><path d="M964.8 752.66l-21.77 10.07v-8.23l14.88-2.48 6.9.64z" fill="#b7ca9d"/><path d="M943.03 735.67l14.88 2.3 6.9-.64-21.57-10.85-.2 9.2z" fill="#3c4929"/><path d="M943.24 725l-24.74 8.28v23.44l24.74 8.28 6.3-19.72zm-7.27 30.52l-14.27-2.84v-15.36l14.27-2.84z" fill="#4b612c"/><path d="M943.24 765l24.76-8.28v-23.44L943.24 725zm7.28-30.52l14.3 2.84v15.36l-14.33 2.84z" fill="#759c3e"/><use xlink:href="#m" transform="matrix(1,0,0,1,918.5,765) translate(4.850000000000001 14.4)"/><use xlink:href="#n" transform="matrix(1,0,0,1,918.5,765) translate(-38.85000000000001 36)"/><path d="M842.6 1077.23h32.8c8.6 0 8.6 0 8.6 8.22v31.33c0 8.2 0 8.2-8.6 8.2h-32.8c-8.6 0-8.6 0-8.6-8.2v-31.33c0-8.22 0-8.22 8.6-8.22z" fill="#19486f"/><path d="M842.6 1075h32.8c8.6 0 8.6 0 8.6 8.2v31.35c0 8.2 0 8.2-8.6 8.2h-32.8c-8.6 0-8.6 0-8.6-8.2v-31.34c0-8.2 0-8.2 8.6-8.2z" fill="#2e73b8"/><path d="M836.36 1082.5h2.34c1.04-.1 1.96.62 2.06 1.62v.44c.1 1.05-.72 2-1.83 2.1H837.54v2.9l-1.18.02zm1.17 3.3h.84c.08 0 .14 0 .22-.02.6-.08 1.04-.62.95-1.2 0-.77-.32-1.23-1.26-1.23h-.77zM843.4 1084.1c1.62 0 2.07 1.15 2.07 2.8s-.53 2.8-2.08 2.8c-1.57 0-2.1-1.15-2.1-2.8s.47-2.8 2.1-2.8zm0 4.82c.8 0 .93-.66.93-2 0-1.2-.14-2.02-.94-2.02-.82 0-.96.83-.96 2 0 1.38.14 2.02.95 2.02zM848.77 1085.8v-.14c0-.42-.16-.82-.74-.82-.57 0-.8.2-.8.7 0 .5.2.58.8.78l.7.23c.78.14 1.3.8 1.23 1.55 0 1.14-.87 1.62-2 1.62-1.42 0-1.84-.63-1.84-1.66v-.2h1v.17c0 .6.22.96.86.96s.94-.3.94-.8c.02-.37-.24-.7-.6-.78l-.95-.3c-.76-.16-1.27-.8-1.2-1.54 0-1 .76-1.47 1.9-1.47 1.42 0 1.74.8 1.74 1.47v.23zM850.4 1084.23h.76v-1.5h1.12v1.5h.94v.8h-.94v3.18c0 .42.12.58.5.58h.4v.8c-.3.06-.6.1-.93.08-.75 0-1.13-.2-1.13-1.3v-3.34h-.76zM854.88 1090.03v.02c.04.4.4.66.8.6h.12c.5-.05.88-.5.83-1v-.9c-.24.48-.72.75-1.26.74-1.32 0-1.67-1.24-1.67-2.72 0-1.17.2-2.7 1.77-2.7.56-.02 1.04.3 1.23.8v-.66h1.05v5.07c0 1.28-.58 2.07-2.08 2.07-1.66 0-1.9-.9-1.9-1.37zm.8-1.36c.85 0 .93-1.05.93-1.9 0-.82-.1-1.8-.9-1.8-.77 0-.93.8-.93 1.8 0 1.02.06 1.9.9 1.9zM858.78 1084.23h1.16v.83c.16-.57.68-.96 1.3-.97.1-.03.18-.03.27 0v1.08c-.15-.04-.3-.06-.46-.06-.5 0-1.12.22-1.12 1.2v3.2h-1.14zM863.05 1087.04v.34c0 .7.1 1.62.94 1.62.85 0 .9-.9.9-1.2h1.05c.07 1-.72 1.86-1.76 1.92h-.2c-.96 0-2.06-.25-2.06-2.7 0-1.4.3-2.88 2.07-2.88 1.56 0 1.98.9 1.98 2.38v.57zm1.8-.72v-.3c0-.67-.23-1.18-.86-1.18-.65 0-.96.67-.96 1.37v.12zM867.9 1087.38v.18c0 .9.4 1.3 1.23 1.3h.1c.58 0 1.04-.48 1.02-1.03.05-.62-.4-1.17-1.05-1.26l-.82-.27c-.95-.2-1.6-1.02-1.54-1.95-.04-1.07.83-1.98 1.96-2h.34c1.88 0 2.1 1.13 2.1 1.87v.16h-1.18v-.15c0-.65-.3-1.02-1.04-1.02h-.2c-.5.08-.87.53-.8 1.03 0 .6.32.9 1.1 1.2l.8.27c.94.2 1.57.97 1.5 1.87 0 1.5-.93 2.14-2.44 2.14-1.12.14-2.13-.63-2.26-1.7v-.62zM875.88 1089.47c-.37.18-.74.25-1.16.23-1.7 0-2.45-1.15-2.45-3.68 0-2.52.75-3.67 2.45-3.67 1.7 0 2.46 1.15 2.46 3.67.05 1.02-.13 1.9-.6 2.8l.76.77-.7.6zm-.62-1.86l.5.48c.2-.72.26-1.34.2-2.08 0-2.38-.54-2.8-1.25-2.8-.7 0-1.25.42-1.25 2.8 0 2.37.56 2.85 1.26 2.85.16 0 .3-.02.44-.07l-.56-.5zM878.2 1082.5h1.18v6.12h2.83v.96h-4z" fill="#fff"/><use xlink:href="#o" transform="matrix(1,0,0,1,834,1125) translate(-11.475000000000001 14.4)"/><path d="M708.6 1077.23h32.8c8.6 0 8.6 0 8.6 8.22v31.33c0 8.2 0 8.2-8.6 8.2h-32.8c-8.6 0-8.6 0-8.6-8.2v-31.33c0-8.22 0-8.22 8.6-8.22z" fill="#19486f"/><path d="M708.6 1075h32.8c8.6 0 8.6 0 8.6 8.2v31.35c0 8.2 0 8.2-8.6 8.2h-32.8c-8.6 0-8.6 0-8.6-8.2v-31.34c0-8.2 0-8.2 8.6-8.2z" fill="#2e73b8"/><path d="M702.36 1082.5h2.34c1.04-.1 1.96.62 2.06 1.62v.44c.1 1.05-.72 2-1.83 2.1H703.54v2.9l-1.18.02zm1.17 3.3h.84c.08 0 .14 0 .22-.02.6-.08 1.04-.62.95-1.2 0-.77-.32-1.23-1.26-1.23h-.77zM709.4 1084.1c1.62 0 2.07 1.15 2.07 2.8s-.53 2.8-2.08 2.8c-1.57 0-2.1-1.15-2.1-2.8s.47-2.8 2.1-2.8zm0 4.82c.8 0 .93-.66.93-2 0-1.2-.14-2.02-.94-2.02-.82 0-.96.83-.96 2 0 1.38.14 2.02.95 2.02zM714.77 1085.8v-.14c0-.42-.16-.82-.74-.82-.57 0-.8.2-.8.7 0 .5.2.58.8.78l.7.23c.78.14 1.3.8 1.23 1.55 0 1.14-.87 1.62-2 1.62-1.42 0-1.84-.63-1.84-1.66v-.2h1v.17c0 .6.22.96.86.96s.94-.3.94-.8c.02-.37-.24-.7-.6-.78l-.95-.3c-.76-.16-1.27-.8-1.2-1.54 0-1 .76-1.47 1.9-1.47 1.42 0 1.74.8 1.74 1.47v.23zM716.4 1084.23h.76v-1.5h1.12v1.5h.94v.8h-.94v3.18c0 .42.12.58.5.58h.4v.8c-.3.06-.6.1-.93.08-.75 0-1.13-.2-1.13-1.3v-3.34h-.76zM720.88 1090.03v.02c.04.4.4.66.8.6h.12c.5-.05.88-.5.83-1v-.9c-.24.48-.72.75-1.26.74-1.32 0-1.67-1.24-1.67-2.72 0-1.17.2-2.7 1.77-2.7.56-.02 1.04.3 1.23.8v-.66h1.05v5.07c0 1.28-.58 2.07-2.08 2.07-1.66 0-1.9-.9-1.9-1.37zm.8-1.36c.85 0 .93-1.05.93-1.9 0-.82-.1-1.8-.9-1.8-.77 0-.93.8-.93 1.8 0 1.02.06 1.9.9 1.9zM724.78 1084.23h1.16v.83c.16-.57.68-.96 1.3-.97.1-.03.18-.03.27 0v1.08c-.15-.04-.3-.06-.46-.06-.5 0-1.12.22-1.12 1.2v3.2h-1.14zM729.05 1087.04v.34c0 .7.1 1.62.94 1.62.85 0 .9-.9.9-1.2h1.05c.07 1-.72 1.86-1.76 1.92h-.2c-.96 0-2.06-.25-2.06-2.7 0-1.4.3-2.88 2.07-2.88 1.56 0 1.98.9 1.98 2.38v.57zm1.8-.72v-.3c0-.67-.23-1.18-.86-1.18-.65 0-.96.67-.96 1.37v.12zM733.9 1087.38v.18c0 .9.4 1.3 1.23 1.3h.1c.58 0 1.04-.48 1.02-1.03.05-.62-.4-1.17-1.05-1.26l-.82-.27c-.95-.2-1.6-1.02-1.54-1.95-.04-1.07.83-1.98 1.96-2h.34c1.88 0 2.1 1.13 2.1 1.87v.16h-1.18v-.15c0-.65-.3-1.02-1.04-1.02h-.2c-.5.08-.87.53-.8 1.03 0 .6.32.9 1.1 1.2l.8.27c.94.2 1.57.97 1.5 1.87 0 1.5-.93 2.14-2.44 2.14-1.12.14-2.13-.63-2.26-1.7v-.62zM741.88 1089.47c-.37.18-.74.25-1.16.23-1.7 0-2.45-1.15-2.45-3.68 0-2.52.75-3.67 2.45-3.67 1.7 0 2.46 1.15 2.46 3.67.05 1.02-.13 1.9-.6 2.8l.76.77-.7.6zm-.62-1.86l.5.48c.2-.72.26-1.34.2-2.08 0-2.38-.54-2.8-1.25-2.8-.7 0-1.25.42-1.25 2.8 0 2.37.56 2.85 1.26 2.85.16 0 .3-.02.44-.07l-.56-.5zM744.2 1082.5h1.18v6.12h2.83v.96h-4z" fill="#fff"/><use xlink:href="#p" transform="matrix(1,0,0,1,700,1125) translate(-11.475000000000001 14.4)"/><path d="M976.6 1077.23h32.8c8.6 0 8.6 0 8.6 8.22v31.33c0 8.2 0 8.2-8.6 8.2h-32.8c-8.6 0-8.6 0-8.6-8.2v-31.33c0-8.22 0-8.22 8.6-8.22z" fill="#19486f"/><path d="M976.6 1075h32.8c8.6 0 8.6 0 8.6 8.2v31.35c0 8.2 0 8.2-8.6 8.2h-32.8c-8.6 0-8.6 0-8.6-8.2v-31.34c0-8.2 0-8.2 8.6-8.2z" fill="#2e73b8"/><path d="M970.36 1082.5h2.34c1.04-.1 1.96.62 2.06 1.62v.44c.1 1.05-.72 2-1.83 2.1H971.54v2.9l-1.18.02zm1.17 3.3h.84c.08 0 .14 0 .22-.02.6-.08 1.04-.62.95-1.2 0-.77-.32-1.23-1.26-1.23h-.77zM977.4 1084.1c1.62 0 2.07 1.15 2.07 2.8s-.53 2.8-2.08 2.8c-1.57 0-2.1-1.15-2.1-2.8s.47-2.8 2.1-2.8zm0 4.82c.8 0 .93-.66.93-2 0-1.2-.14-2.02-.94-2.02-.82 0-.96.83-.96 2 0 1.38.14 2.02.95 2.02zM982.77 1085.8v-.14c0-.42-.16-.82-.74-.82-.57 0-.8.2-.8.7 0 .5.2.58.8.78l.7.23c.78.14 1.3.8 1.23 1.55 0 1.14-.87 1.62-2 1.62-1.42 0-1.84-.63-1.84-1.66v-.2h1v.17c0 .6.22.96.86.96s.94-.3.94-.8c.02-.37-.24-.7-.6-.78l-.95-.3c-.76-.16-1.27-.8-1.2-1.54 0-1 .76-1.47 1.9-1.47 1.42 0 1.74.8 1.74 1.47v.23zM984.4 1084.23h.76v-1.5h1.12v1.5h.94v.8h-.94v3.18c0 .42.12.58.5.58h.4v.8c-.3.06-.6.1-.93.08-.75 0-1.13-.2-1.13-1.3v-3.34h-.76zM988.88 1090.03v.02c.04.4.4.66.8.6h.12c.5-.05.88-.5.83-1v-.9c-.24.48-.72.75-1.26.74-1.32 0-1.67-1.24-1.67-2.72 0-1.17.2-2.7 1.77-2.7.56-.02 1.04.3 1.23.8v-.66h1.05v5.07c0 1.28-.58 2.07-2.08 2.07-1.66 0-1.9-.9-1.9-1.37zm.8-1.36c.85 0 .93-1.05.93-1.9 0-.82-.1-1.8-.9-1.8-.77 0-.93.8-.93 1.8 0 1.02.06 1.9.9 1.9zM992.78 1084.23h1.16v.83c.16-.57.68-.96 1.3-.97.1-.03.18-.03.27 0v1.08c-.15-.04-.3-.06-.46-.06-.5 0-1.12.22-1.12 1.2v3.2h-1.14zM997.05 1087.04v.34c0 .7.1 1.62.94 1.62.85 0 .9-.9.9-1.2h1.05c.07 1-.72 1.86-1.76 1.92h-.2c-.96 0-2.06-.25-2.06-2.7 0-1.4.3-2.88 2.07-2.88 1.56 0 1.98.9 1.98 2.38v.57zm1.8-.72v-.3c0-.67-.23-1.18-.86-1.18-.65 0-.96.67-.96 1.37v.12zM1001.9 1087.38v.18c0 .9.4 1.3 1.23 1.3h.1c.58 0 1.04-.48 1.02-1.03.05-.62-.4-1.17-1.05-1.26l-.82-.27c-.95-.2-1.6-1.02-1.54-1.95-.04-1.07.83-1.98 1.96-2h.34c1.88 0 2.1 1.13 2.1 1.87v.16h-1.18v-.15c0-.65-.3-1.02-1.04-1.02h-.2c-.5.08-.87.53-.8 1.03 0 .6.32.9 1.1 1.2l.8.27c.94.2 1.57.97 1.5 1.87 0 1.5-.93 2.14-2.44 2.14-1.12.14-2.13-.63-2.26-1.7v-.62zM1009.88 1089.47c-.37.18-.74.25-1.16.23-1.7 0-2.45-1.15-2.45-3.68 0-2.52.75-3.67 2.45-3.67 1.7 0 2.46 1.15 2.46 3.67.05 1.02-.13 1.9-.6 2.8l.76.77-.7.6zm-.62-1.86l.5.48c.2-.72.26-1.34.2-2.08 0-2.38-.54-2.8-1.25-2.8-.7 0-1.25.42-1.25 2.8 0 2.37.56 2.85 1.26 2.85.16 0 .3-.02.44-.07l-.56-.5zM1012.2 1082.5h1.18v6.12h2.83v.96h-4z" fill="#fff"/><use xlink:href="#q" transform="matrix(1,0,0,1,968,1125) translate(-7 14.4)"/><path d="M610 1062c0-16.57 13.43-30 30-30h420c16.57 0 30 13.43 30 30v128c0 16.57-13.43 30-30 30H640c-16.57 0-30-13.43-30-30z" stroke="#474747" fill="none"/><path d="M671.97 1020.24v-5.9c0-7.25-5.88-13.13-13.12-13.13-7.24 0-13.12 5.9-13.12 13.14v5.9h6.64v-5.9c0-3.58 2.9-6.5 6.48-6.5 3.57 0 6.48 2.92 6.48 6.5v5.9h6.64z" fill="#876a22"/><path d="M671.98 1020.26h5.42v20.83H640v-20.84h5.72v-7.1c0-7.28 5.87-13.16 13.13-13.16 7.26 0 13.13 5.88 13.13 13.15v7.1zm-6.66 0v-7.1c0-3.6-2.88-6.5-6.47-6.5-3.6 0-6.47 2.9-6.47 6.5v7.1h12.94z" fill="#daa835"/><path d="M640 1041.1h37.4v.9H640z" fill="#876a22"/><path d="M742 248.88v5.44c0 9.86-10.57 20.07-23.44 20.07h-69.12c-12.87 0-23.43-10.22-23.43-20.08v-5.44z" fill="#7d7c7c"/><path d="M670.66 196c11.94 0 22.03 6.74 27.02 17.94 6.84-4.82 16.24-3.04 20.88 4.07 1.74 2.53 2.55 5.13 2.67 8.16 11.7 1.04 20.76 12.68 20.76 21.94v2c0 9.93-10.57 20-23.44 20h-69.13c-12.88 0-23.43-10.07-23.43-20v-2c0-7.7 6.26-18.23 14.96-20.82v-.9c.12-16.82 13.34-30.45 29.7-30.38z" fill="#d2d3d3"/><path d="M658.5 251.3h13.18v18.83H658.5V251.3z" fill="#fff"/><path d="M648.67 256.25l16.43-29.4 16.43 29.4h-32.86z" fill="#fff"/><path d="M712.34 285.57L695.9 315l-16.42-29.43v-4.2h32.86v4.2z" fill="#7d7c7c"/><path d="M689.32 241.26h13.18v45.07h-13.18v-45.07z" fill="#d2d3d3"/><path d="M712.34 281.37l-16.43 29.4-16.42-29.4h32.86z" fill="#d2d3d3"/><use xlink:href="#r" transform="matrix(1,0,0,1,626,315) translate(27.525 14.4)"/><path d="M1081.18 107.72c11.06 0 18.8 6.98 18.8 16.92v21.58h-9.72v-14.64h-2.67v14.64h-14.98c-1-10.94-9.84-18.38-22.24-18.38h-8.62v-5.97c9.5-.85 17.12-4.5 17.94-14.2h.87zM1019.34 107.7h.93c.88 9.68 8.44 13.34 17.93 14.2v5.93h-8.44c-12.4 0-21.3 7.48-22.23 18.4h-14.67v-14.66h-2.68v14.65H980V124.6c0-10 7.74-16.94 18.86-16.94z" fill="#7d7c7c"/><path d="M1050.3 136.93c11.06 0 18.8 6.98 18.8 16.93v21.63h-9.78v-14.7h-2.62v14.65h-33.07V160.8h-2.56v14.65h-10.2v-21.6c0-9.94 7.75-16.92 18.8-16.92zM1009.06 65.56l16.32 11.6v5c.1 9.14-7.18 16.6-16.28 16.7h-.04c-8.94 0-16.32-7.47-16.32-17.42v-4.4zM1070.86 65.56l16.32 11.6v5c.1 9.14-7.18 16.6-16.28 16.7h-.04c-8.94 0-16.32-7.47-16.32-17.42v-4.4zM1040 88.34l14.4 10.2v4.5c.14 8.07-6.28 14.72-14.35 14.87h-.06c-8.17-.2-14.63-6.94-14.42-15.1 0-.12 0-.2.02-.33v-4.02z" fill="#7d7c7c"/><path d="M1070.88 60.5c9.18-.17 16.76 7.16 16.93 16.35.17 9.2-7.14 16.78-16.32 16.94-9.18.16-16.76-7.17-16.92-16.35v-.34c-.07-9.08 7.2-16.53 16.32-16.6zM1039.96 83.2c8.14-.2 14.9 6.25 15.1 14.4.18 8.15-6.25 14.9-14.4 15.12-8.13.18-14.9-6.26-15.1-14.4v-.36c-.08-8.07 6.35-14.65 14.4-14.77zM1081.18 102.58c11.06 0 18.8 6.98 18.8 16.94v21.64h-9.72V126.5h-2.67v14.66h-14.98c-1-10.96-9.84-18.36-22.24-18.36h-8.62v-1.9c9.73-.96 17.12-8.52 17.94-18.24h.87zM1019.34 102.6h.93c.82 9.75 8.2 17.3 17.93 18.27v1.85h-8.44c-12.4 0-21.3 7.48-22.23 18.4h-14.67V126.5h-2.68v14.65H980v-21.63c0-10 7.74-16.93 18.86-16.93z" fill="#d2d3d3"/><path d="M1050.3 131.87c11.06 0 18.8 6.98 18.8 16.93v21.63h-9.78v-14.65h-2.62v14.65h-33.07v-14.65h-2.56v14.65h-10.2V148.8c0-9.95 7.75-16.93 18.8-16.93zM1009.07 60.5c9.18-.17 16.76 7.16 16.93 16.35.16 9.2-7.15 16.78-16.33 16.94-9.18.16-16.76-7.17-16.93-16.35v-.34c-.06-9.08 7.22-16.5 16.33-16.6z" fill="#d2d3d3"/><use xlink:href="#s" transform="matrix(1,0,0,1,980,175.5) translate(38.025 14.4)"/><path d="M501 690h-2V557.85h2zm107.32-239H501v85.25h-2V449h109.32zM501 690.42l-1-.42h1zm-2 0V690h.98zM623.32 450l-14.27 4.64v-9.28z"/><path d="M626.55 450l-18.5 6v-12zm-16.5 3.26l10.03-3.26-10.03-3.26z"/><use xlink:href="#t" transform="matrix(1,0,0,1,462.07499999999993,536.245670520343) translate(0 14.4)"/><path d="M578.38 796.08h61.12v2h-63.13v-3.9h2zm0-23.5h-2V713.5h-42.9v-2h44.9zM642.5 798.08h-3v-2h3zM532.75 717.14l-14.26-4.64 14.25-4.64z"/><path d="M533.75 718.5l-18.5-6 18.5-6zm-12.03-6l10.03 3.26v-6.52z"/><use xlink:href="#t" transform="matrix(1,0,0,1,539.45,772.5708787866406) translate(0 14.4)"/><path d="M830 867.5c0-16.57 13.43-30 30-30h140c16.57 0 30 13.43 30 30v50c0 16.57-13.43 30-30 30H860c-16.57 0-30-13.43-30-30z" fill="none"/><path d="M838.1 847.17l1.5-1.64m9.46-5.9l3.86-1.3 4.93-.75 2.15-.08h16.67m16.66 0h3.34m16.66 0h33.34m16.66 0h3.34m16.66 0H1000l5 .42 4.82 1.22 1.1.5m9.4 5.95l1.65 1.5m5.9 9.46l1.3 3.86.75 4.93.08 2.15v11.9m0 11.9v2.4m0 11.9v11.9l-.42 5-1.22 4.82-.5 1.1m-5.95 9.4l-1.5 1.65m-9.46 5.9l-3.86 1.3-4.93.75-2.15.08h-16.67m-16.66 0h-3.34m-16.66 0h-33.34m-16.66 0h-3.34m-16.66 0H860l-5-.42-4.82-1.22-1.1-.5m-9.4-5.95l-1.65-1.5m-5.9-9.46l-1.3-3.86-.75-4.93-.08-2.15v-11.9m0-11.9v-2.4m0-11.9v-11.9l.42-5 1.22-4.82.5-1.1" stroke="#474747" stroke-width="3" fill="none"/><use xlink:href="#u" transform="matrix(1,0,0,1,830.0000000000001,917.5) translate(24.07499999999999 12.799999999999999)"/><use xlink:href="#v" transform="matrix(1,0,0,1,830.0000000000001,917.5) translate(66.07499999999999 12.799999999999999)"/><use xlink:href="#w" transform="matrix(1,0,0,1,830.0000000000001,917.5) translate(129.975 12.799999999999999)"/><path d="M741 442.36c0 31.8-25.76 57.63-57.5 57.63S626 474.16 626 442.35c0-31.8 25.76-57.63 57.5-57.63s57.5 25.82 57.5 57.63z" fill="#9d5025"/><path d="M626 437.62h115v4.73H626v-4.73z" fill="#9d5025"/><path d="M741 437.63c0 31.8-25.76 57.63-57.5 57.63S626 469.44 626 437.63c0-31.8 25.76-57.63 57.5-57.63s57.5 25.82 57.5 57.63z" fill="#f58536"/><path d="M640.14 443.36v-1.5c.44-7 4.34-12.8 10.66-15.86.6-12.86 11.52-22.8 24.43-22.12 8.05.38 14.8 4.5 18.88 11.47 6.6-2.77 14.13.28 16.9 6.82.43.95.7 1.72.86 2.67 8.67 1.72 14.9 10.03 14.9 17.02v1.4c0 8.53-8.83 16-18.88 16h-48.94c-9.96.07-18.8-7.42-18.8-15.9z" fill="#fff"/><path d="M695.27 421.48l-3.67 2.54-1.87-4.06c-2.85-6.34-8.7-10.23-15.66-10.27H674c-9.52 0-17.3 7.77-17.3 17.38v3.23l-2.7.8c-4.57 1.83-7.57 5.85-7.94 10.8v1.4c0 4.66 5.7 10.08 12.96 10.08h49c7.33 0 12.95-5.42 12.95-10.1v-1.4c0-4.7-5.25-10.87-11.3-11.35l-3.3-.26-.24-3.28c0-1.4-.44-2.54-1.2-3.68-2.17-3.2-6.5-3.98-9.66-1.8z" fill="#f58536"/><use xlink:href="#x" transform="matrix(1,0,0,1,626,500) translate(27.025 14.4)"/><use xlink:href="#y" transform="matrix(1,0,0,1,626,500) translate(24.025 36)"/><path d="M1300 581.84c0 31.55-25.98 57.15-58 57.15-32.02 0-58-25.6-58-57.16 0-31.55 25.98-57.15 58-57.15 32.02 0 58 25.6 58 57.14z" fill="#9d5025"/><path d="M1300 577.15c0 31.55-25.98 57.15-58 57.15-32.02 0-58-25.6-58-57.15 0-31.55 25.98-57.15 58-57.15 32.02 0 58 25.6 58 57.15z" fill="#f58536"/><path d="M1257.7 550.6h6.1v53.06h-6.1V550.6zM1274.9 564.04l16 12.85-16 13.36v-26.22z" fill="#fff"/><path d="M1218.28 574.14l3.52 2.8-3.88 3.2h59.67v-6h-59.32zM1217.92 553.63h45.9v-6.02h-45.53l3.47 2.8-3.85 3.23zM1221.77 603.45l-3.85 3.23h45.9v-6.02h-45.53l3.47 2.8zM1205.17 566.65l12.8 10.26-12.8 10.74v-21zM1205.17 540.12l12.8 10.28-12.8 10.7V540.1zM1205.17 593.18l12.8 10.28-12.8 10.7v-20.98z" fill="#fff"/><use xlink:href="#z" transform="matrix(1,0,0,1,1184,639) translate(19.924999999999997 14.4)"/><use xlink:href="#A" transform="matrix(1,0,0,1,1184,639) translate(61.875 14.4)"/><use xlink:href="#y" transform="matrix(1,0,0,1,1184,639) translate(24.525 36)"/><path d="M1435 1010.36c0 31.8-25.76 57.63-57.5 57.63s-57.5-25.83-57.5-57.64c0-31.8 25.76-57.63 57.5-57.63s57.5 25.82 57.5 57.63z" fill="#9d5025"/><path d="M1435 1005.63c0 31.8-25.76 57.63-57.5 57.63s-57.5-25.82-57.5-57.63c0-31.8 25.76-57.63 57.5-57.63s57.5 25.82 57.5 57.63z" fill="#f58536"/><path d="M1329.15 988.8h20.88v33.65h-20.88V988.8zM1395.88 965.83h18.63v18.67h-18.62v-18.67zM1395.88 996.3h18.63v18.66h-18.62V996.3zM1395.88 1026.77h18.63v18.67h-18.62v-18.67z" fill="#fff"/><path d="M1390.72 1008.07l3.12-1.5 2.04-1-2.04-1-2.76-1.38-8.3-4.12v4.1h-24.96l28.36-18.22 2.25 3.5 4.7-7.97 1.37-2.34 1.38-2.32-2.66.3-3 .36-8.88 1.07 2.14 3.27-34.8 22.35-3.82 2.43 4.6 2.92 34.02 21.87-2.14 3.27 8.87 1.06 3.02.36 2.66.3-1.38-2.32-1.38-2.33-4.7-7.98-2.24 3.5-28.36-18.23h24.95v4l7.95-4z" fill="#fff"/><use xlink:href="#B" transform="matrix(1,0,0,1,1320,1068) translate(6.074999999999996 14.4)"/><use xlink:href="#C" transform="matrix(1,0,0,1,1320,1068) translate(68.92500000000001 14.4)"/><use xlink:href="#D" transform="matrix(1,0,0,1,1320,1068) translate(22.049999999999997 36)"/><path d="M1378.5 929.76h-2V451h-39.1v-2h41.1zM740.44 451v-2h538.1v2z"/><path d="M740.44 451h-.13l.14-1zM1377.5 944.76l-4.64-14.26h9.28z"/><path d="M1377.5 948l-6-18.5h12zm-3.26-16.5l3.26 10.03 3.26-10.03z"/><use xlink:href="#E" transform="matrix(1,0,0,1,1278.5467303884327,439.2) translate(0 14.4)"/><path d="M1320.55 1018H930v-50.76" stroke="#000" stroke-width="2" fill="none"/><path d="M1320.7 1019h-.15v-1z"/><path d="M930 952.24l4.64 14.26h-9.28z" stroke="#000" stroke-width="2"/><path d="M684 311.9v49.88" stroke="#000" stroke-width="2" fill="none"/><path d="M688.64 311.17h-9.28L684 296.9z"/><path d="M690 312.17h-12l6-18.5zm-9.26-2h6.52L684 300.14zM684 376.78l-4.64-14.26h9.28z"/><path d="M684 380.02l-6-18.5h12zm-3.26-16.5l3.26 10.03 3.26-10.03z"/><path d="M1067.5 871.52H1242V677.24M1067.5 871.52h-3" stroke="#000" stroke-width="2" fill="none"/><path d="M1246.64 676.5h-9.28l4.64-14.26z"/><path d="M1248 677.5h-12l6-18.5zm-9.26-2h6.52l-3.26-10.03z"/><use xlink:href="#F" transform="matrix(1,0,0,1,1089.3919019230962,875.5169005513657) translate(0 13.866666666666669)"/><use xlink:href="#G" transform="matrix(1,0,0,1,1089.3919019230962,875.5169005513657) translate(0 34.66666666666667)"/><path d="M961.76 128H685.28v53.68" stroke="#000" stroke-width="2" fill="none"/><path d="M976.76 128l-14.26 4.64v-9.28z"/><path d="M980 128l-18.5 6v-12zm-16.5 3.26l10.03-3.26-10.03-3.26zM685.28 196.68l-4.63-14.26h9.27z"/><path d="M685.28 199.92l-6-18.5h12.02zm-3.25-16.5l3.25 10.03 3.26-10.03z"/><path d="M360 588c0-16.57 13.43-30 30-30h1060c16.57 0 30 13.43 30 30v690c0 16.57-13.43 30-30 30H390c-16.57 0-30-13.43-30-30z" fill="none"/><path d="M375.04 562.1l3.17-1.7 4.72-1.56 4.93-.76L390 558h14.72m14.72 0h29.45m14.7 0h29.46m14.72 0h29.44m14.72 0h29.45m14.7 0h29.46m14.72 0h29.44m14.72 0h29.45m14.7 0h29.46m14.72 0h29.44m14.72 0h29.45m14.7 0h29.46m14.72 0h29.44m14.72 0h29.45m14.7 0h29.46m14.72 0h29.44m14.72 0h29.45m14.7 0h29.46m14.72 0h29.44m14.72 0h29.45m14.7 0h29.46m14.72 0h29.44m14.72 0h29.45m14.7 0h29.46m14.72 0H1450l5 .42 4.82 1.22 4.54 2 .6.42m10.95 10.98l1.7 3.17 1.56 4.72.76 4.93.08 2.15v15.33m0 15.34v30.66m0 15.34v30.66m0 15.34v30.66m0 15.34v30.66m0 15.34v30.66m0 15.34v30.66m0 15.34v30.66m0 15.34v30.66m0 15.34v30.66m0 15.34v30.66m0 15.34v30.66m0 15.34v30.66m0 15.34v30.66m0 15.34v30.66m0 15.34V1278l-.42 5-1.22 4.82-2 4.54-.42.6m-10.98 10.95l-3.17 1.7-4.72 1.56-4.93.76-2.15.08h-14.72m-14.72 0h-29.45m-14.7 0h-29.46m-14.72 0h-29.44m-14.72 0h-29.45m-14.7 0h-29.46m-14.72 0h-29.44m-14.72 0h-29.45m-14.7 0h-29.46m-14.72 0h-29.44m-14.72 0H993.6m-14.7 0h-29.46m-14.72 0h-29.44m-14.72 0H861.1m-14.7 0h-29.46m-14.72 0h-29.44m-14.72 0H728.6m-14.7 0h-29.46m-14.72 0h-29.44m-14.72 0H596.1m-14.7 0h-29.46m-14.72 0h-29.44m-14.72 0H463.6m-14.7 0h-29.46m-14.72 0H390l-5-.42-4.82-1.22-4.54-2-.6-.42m-10.95-10.98l-1.7-3.17-1.56-4.72-.76-4.93-.08-2.15v-15.33m0-15.34v-30.66m0-15.34v-30.66m0-15.34v-30.66m0-15.34v-30.66m0-15.34v-30.66m0-15.34v-30.66m0-15.34v-30.66m0-15.34v-30.66m0-15.34v-30.66m0-15.34v-30.66m0-15.34v-30.66m0-15.34v-30.66m0-15.34v-30.66m0-15.34v-30.66m0-15.34V588l.42-5 1.22-4.82 2-4.54.42-.6" stroke="#f7981f" stroke-width="3" fill="none"/><use xlink:href="#H" transform="matrix(1,0,0,1,360,1278) translate(442.65 12.799999999999999)"/><use xlink:href="#I" transform="matrix(1,0,0,1,360,1278) translate(497.54999999999995 12.799999999999999)"/><use xlink:href="#J" transform="matrix(1,0,0,1,360,1278) translate(525.5 12.799999999999999)"/><use xlink:href="#K" transform="matrix(1,0,0,1,360,1278) translate(555.45 12.799999999999999)"/><use xlink:href="#L" transform="matrix(1,0,0,1,360,1278) translate(581.4 12.799999999999999)"/><path d="M1340 318c0-16.57 13.43-30 30-30h260c16.57 0 30 13.43 30 30v340c0 16.57-13.43 30-30 30h-260c-16.57 0-30-13.43-30-30z" stroke="#dbdbdb" stroke-width="2" fill="#dbdbdb"/><path d="M1466 382.55l-53-7.78-53 7.78 53 37.44 53-37.45z" fill="#b7ca9d"/><path d="M1370.6 381.7l8.95 2.64 21.05-32.3-21.05-32.3-8.94 3.43v58.52z" fill="#4b612c"/><path d="M1411.27 378.9l-31.7 5.56v-64.7l31.7 7.1v52.03z" fill="#759c3e"/><path d="M1397.1 389.75l-12.33-3.68V306.2l12.34-6.2 36.64 47.2-36.63 42.55z" fill="#4b612c"/><path d="M1439.48 379.87l-42.35 9.97V300l42.35 16.53v63.34z" fill="#759c3e"/><path d="M1412.98 401.4L1360 382.56v10.93l52.98 26.5v-18.6z" fill="#4b612c"/><path d="M1466 393.46L1412.97 420v-18.6l53-18.83v10.9z" fill="#759c3e"/><path d="M1451.1 364.5h-12.87l-36.6 2.5 11.37 27.5 38.1-30z" fill="#b7ca9d"/><path d="M1401.63 391.1l11.36 3.4-.02-26.28-11.35-1.24v24.1z" fill="#4b612c"/><path d="M1451.1 364.5l-38.12 3.72v26.3l38.12-11.5V364.5z" fill="#759c3e"/><use xlink:href="#M" transform="matrix(1,0,0,1,1360,420) translate(20.025 14.4)"/><use xlink:href="#N" transform="matrix(1,0,0,1,1360,420) translate(4.399999999999999 36)"/><path d="M1380 510.4h240V650h-240z" stroke="#000" stroke-opacity="0" stroke-width="2" fill="#fff" fill-opacity="0"/><use xlink:href="#O" transform="matrix(1,0,0,1,1385,515.3999999999999) translate(41.57499999999999 25.39999999999999)"/><use xlink:href="#P" transform="matrix(1,0,0,1,1385,515.3999999999999) translate(83.025 46.99999999999999)"/><use xlink:href="#Q" transform="matrix(1,0,0,1,1385,515.3999999999999) translate(85.025 68.6)"/><use xlink:href="#R" transform="matrix(1,0,0,1,1385,515.3999999999999) translate(48.55 90.20000000000002)"/><use xlink:href="#S" transform="matrix(1,0,0,1,1385,515.3999999999999) translate(11.675000000000011 111.80000000000001)"/><path d="M975.98 540.82l-7.98 4V615l7.98 3.98 19.54-39.1-19.54-39.08z" fill="#8c3123"/><path d="M1017.48 608.9L975.96 619V540.8l41.52 10.08 19.63 29.08-19.62 28.92z" fill="#e05243"/><path d="M1017.5 608.9l41.53 10.1 7.16-38.08-7.17-40.1-41.53 10.08v58z" fill="#8c3123"/><path d="M1059 540.82l8 4V615l-8 3.98v-78.18z" fill="#e05243"/><path d="M999.38 592.84l18.12 2.33 14.35-15.14-14.35-15.14-18.12 2.26v25.68z" fill="#8c3123"/><path d="M1035.6 554.74l-18.1 3.3-18.12-3.3 18.1-34.74 18.12 34.74z" fill="#5e1f18"/><path d="M1035.6 605.25l-18.1-3.35-18.12 3.35 18.1 34.74 18.12-34.75z" fill="#f2b0a9"/><path d="M1035.6 554.75l-18.1-4.48V520l18.1 9.07v25.68z" fill="#e05243"/><path d="M999.38 554.75l18.1-4.48V520l-18.1 9.07v25.68z" fill="#8c3123"/><path d="M1017.5 640l18.1-9.08v-25.68l-18.1 4.48V640z" fill="#e05243"/><path d="M1017.5 640l-18.12-9.08v-25.68l18.1 4.48V640z" fill="#8c3123"/><path d="M1035.6 592.84l-18.1 2.33V564.9l18.1 2.26v25.68z" fill="#e05243"/><use xlink:href="#T" transform="matrix(1,0,0,1,968,640) translate(3.0249999999999986 14.4)"/><use xlink:href="#U" transform="matrix(1,0,0,1,968,640) translate(73.975 14.4)"/><path d="M1451.1 370h71.66" stroke="#000" stroke-width="2" fill="none"/><path/><path d="M1537.76 370l-14.26 4.64v-9.28z" stroke="#000" stroke-width="2"/><path d="M100 202c0-16.57 13.43-30 30-30h260c16.57 0 30 13.43 30 30v208c0 16.57-13.43 30-30 30H130c-16.57 0-30-13.43-30-30z" stroke="#474747" fill="none"/><path d="M208 174.4v3.54c0 6.42-7.1 13.05-15.76 13.05h-46.48c-8.66 0-15.75-6.64-15.75-13.06v-3.54z" fill="#9d5125"/><path d="M160.03 140c8.03 0 14.82 4.4 18.17 11.67 4.6-3.14 10.92-1.98 14.04 2.65 1.17 1.64 1.7 3.32 1.8 5.3 7.87.68 13.95 8.25 13.95 14.27v1.3c0 6.45-7.1 13-15.76 13h-46.5c-8.64 0-15.74-6.55-15.74-13v-1.3c0-5.02 4.2-11.87 10.06-13.56v-.57c.08-10.95 8.97-19.82 19.97-19.77z" fill="#f58535"/><path d="M149.54 163.13l-5.2 18.2h3.04l1.17-4.43h5.38l1.1 4.43h3.05l-4.8-18.2zm-.47 11.4l2.22-8.98 2.1 8.97zM171.2 177.34h-.03l-2.47-14.2h-3.1l-2.4 14.13h-.06l-2.4-14.14h-2.95l3.53 18.2h3.38l2.35-13.7h.06l2.36 13.7h3.4l3.64-18.2h-2.9l-2.4 14.2zM185.9 171.4l-1.98-.72c-1.93-.7-2.74-1.53-2.74-3.1-.17-1.26.74-2.43 2-2.6.16-.02.3-.02.45-.02 1.26-.17 2.4.72 2.58 1.96.04.25.03.44 0 .68v.38h2.93v-.4c0-1.9-.5-4.8-5.18-4.8-3.44 0-5.7 1.84-5.7 5.16 0 2.6 1.1 3.97 3.82 5l2 .68c1.6.23 2.73 1.6 2.64 3.2.04 1.45-1.08 2.64-2.5 2.68h-.28c-2 0-3-1.12-3-3.33v-.47h-2.9v.44c0 2.54 1.02 5.53 5.52 5.53 3.7 0 6.07-1.6 6.07-5.48.04-2.5-1.1-3.9-3.7-4.8z" fill="#fff"/><g><use xlink:href="#V" transform="matrix(1,0,0,1,100,410) translate(134.05 12.799999999999999)"/></g><path d="M225.96 242.34l-4.96 2.5v70.32l4.96 2.48 20.1-35.84-20.1-39.46z" fill="#9d5025"/><path d="M237.52 314.93l-11.56 2.7v-75.3l11.56 2.65v69.95z" fill="#f58536"/><path d="M231.43 239.58l6.1-3.04 28.97 46.58-28.96 40.32-6.1-3.04v-80.82z" fill="#9d5025"/><path d="M251.96 319.36l-14.43 4.08v-86.9l14.43 4.08v78.74z" fill="#f58536"/><path d="M244.32 233.13l7.66-3.85 42.72 58.92-42.72 42.5-7.66-3.85v-93.72z" fill="#9d5025"/><path d="M270.48 323.9l-18.5 6.8V229.28l18.5 6.8v87.82z" fill="#f58536"/><path d="M260.6 224.92l9.88-4.92 46.23 63.36L270.5 340l-9.87-4.92V224.92z" fill="#9d5025"/><path d="M320 315.16L270.47 340V220l49.5 24.84v70.32z" fill="#f58536"/><g><use xlink:href="#W" transform="matrix(1,0,0,1,221,340) translate(8.574999999999996 14.4)"/><use xlink:href="#X" transform="matrix(1,0,0,1,221,340) translate(11.574999999999996 36)"/></g><path d="M261 909h40.26v2H259V715.8h2zm0-214.8h-2V440.5h2zM261 440.5h-2v-3h2zM316.26 910L302 914.64v-9.28z"/><path d="M319.5 910l-18.5 6v-12zm-16.5 3.26l10.03-3.26-10.03-3.26z"/><g><use xlink:href="#Y" transform="matrix(1,0,0,1,210.55,694.2) translate(0 14.4)"/></g><defs><path d="M212-179c-10-28-35-45-73-45-59 0-87 40-87 99 0 60 29 101 89 101 43 0 62-24 78-52l27 14C228-24 195 4 139 4 59 4 22-46 18-125c-6-104 99-153 187-111 19 9 31 26 39 46" id="Z"/><path d="M100-194c62-1 85 37 85 99 1 63-27 99-86 99S16-35 15-95c0-66 28-99 85-99zM99-20c44 1 53-31 53-75 0-43-8-75-51-75s-53 32-53 75 10 74 51 75" id="aa"/><path d="M210-169c-67 3-38 105-44 169h-31v-121c0-29-5-50-35-48C34-165 62-65 56 0H25l-1-190h30c1 10-1 24 2 32 10-44 99-50 107 0 11-21 27-35 58-36 85-2 47 119 55 194h-31v-121c0-29-5-49-35-48" id="ab"/><path d="M117-194c89-4 53 116 60 194h-32v-121c0-31-8-49-39-48C34-167 62-67 57 0H25l-1-190h30c1 10-1 24 2 32 11-22 29-35 61-36" id="ac"/><path d="M135-143c-3-34-86-38-87 0 15 53 115 12 119 90S17 21 10-45l28-5c4 36 97 45 98 0-10-56-113-15-118-90-4-57 82-63 122-42 12 7 21 19 24 35" id="ad"/><g id="a"><use transform="matrix(0.05,0,0,0.05,0,0)" xlink:href="#Z"/><use transform="matrix(0.05,0,0,0.05,12.950000000000001,0)" xlink:href="#aa"/><use transform="matrix(0.05,0,0,0.05,22.950000000000003,0)" xlink:href="#ab"/><use transform="matrix(0.05,0,0,0.05,37.900000000000006,0)" xlink:href="#ab"/><use transform="matrix(0.05,0,0,0.05,52.85,0)" xlink:href="#aa"/><use transform="matrix(0.05,0,0,0.05,62.85,0)" xlink:href="#ac"/><use transform="matrix(0.05,0,0,0.05,72.85000000000001,0)" xlink:href="#ad"/></g><path d="M205 0l-28-72H64L36 0H1l101-248h38L239 0h-34zm-38-99l-47-123c-12 45-31 82-46 123h93" id="ae"/><path d="M266 0h-40l-56-210L115 0H75L2-248h35L96-30l15-64 43-154h32l59 218 59-218h35" id="af"/><path d="M185-189c-5-48-123-54-124 2 14 75 158 14 163 119 3 78-121 87-175 55-17-10-28-26-33-46l33-7c5 56 141 63 141-1 0-78-155-14-162-118-5-82 145-84 179-34 5 7 8 16 11 25" id="ag"/><g id="b"><use transform="matrix(0.05,0,0,0.05,0,0)" xlink:href="#ae"/><use transform="matrix(0.05,0,0,0.05,11.35,0)" xlink:href="#af"/><use transform="matrix(0.05,0,0,0.05,28.299999999999997,0)" xlink:href="#ag"/></g><path d="M96-169c-40 0-48 33-48 73s9 75 48 75c24 0 41-14 43-38l32 2c-6 37-31 61-74 61-59 0-76-41-82-99-10-93 101-131 147-64 4 7 5 14 7 22l-32 3c-4-21-16-35-41-35" id="ah"/><path d="M84 4C-5 8 30-112 23-190h32v120c0 31 7 50 39 49 72-2 45-101 50-169h31l1 190h-30c-1-10 1-25-2-33-11 22-28 36-60 37" id="ai"/><path d="M59-47c-2 24 18 29 38 22v24C64 9 27 4 27-40v-127H5v-23h24l9-43h21v43h35v23H59v120" id="aj"/><g id="c"><use transform="matrix(0.05,0,0,0.05,0,0)" xlink:href="#ae"/><use transform="matrix(0.05,0,0,0.05,12,0)" xlink:href="#ah"/><use transform="matrix(0.05,0,0,0.05,21,0)" xlink:href="#ah"/><use transform="matrix(0.05,0,0,0.05,30,0)" xlink:href="#aa"/><use transform="matrix(0.05,0,0,0.05,40,0)" xlink:href="#ai"/><use transform="matrix(0.05,0,0,0.05,50,0)" xlink:href="#ac"/><use transform="matrix(0.05,0,0,0.05,60,0)" xlink:href="#aj"/></g><path d="M24-231v-30h32v30H24zM24 0v-190h32V0H24" id="ak"/><path d="M177-190C167-65 218 103 67 71c-23-6-38-20-44-43l32-5c15 47 100 32 89-28v-30C133-14 115 1 83 1 29 1 15-40 15-95c0-56 16-97 71-98 29-1 48 16 59 35 1-10 0-23 2-32h30zM94-22c36 0 50-32 50-73 0-42-14-75-50-75-39 0-46 34-46 75s6 73 46 73" id="al"/><path d="M24 0v-261h32V0H24" id="am"/><path d="M100-194c63 0 86 42 84 106H49c0 40 14 67 53 68 26 1 43-12 49-29l28 8c-11 28-37 45-77 45C44 4 14-33 15-96c1-61 26-98 85-98zm52 81c6-60-76-77-97-28-3 7-6 17-6 28h103" id="an"/><g id="d"><use transform="matrix(0.05,0,0,0.05,0,0)" xlink:href="#ag"/><use transform="matrix(0.05,0,0,0.05,12,0)" xlink:href="#ak"/><use transform="matrix(0.05,0,0,0.05,15.949999999999998,0)" xlink:href="#ac"/><use transform="matrix(0.05,0,0,0.05,25.950000000000003,0)" xlink:href="#al"/><use transform="matrix(0.05,0,0,0.05,35.95,0)" xlink:href="#am"/><use transform="matrix(0.05,0,0,0.05,39.900000000000006,0)" xlink:href="#an"/></g><g id="e"><use transform="matrix(0.05,0,0,0.05,0,0)" xlink:href="#Z"/><use transform="matrix(0.05,0,0,0.05,12.950000000000001,0)" xlink:href="#aa"/><use transform="matrix(0.05,0,0,0.05,22.950000000000003,0)" xlink:href="#ab"/><use transform="matrix(0.05,0,0,0.05,37.900000000000006,0)" xlink:href="#ab"/><use transform="matrix(0.05,0,0,0.05,52.85,0)" xlink:href="#aa"/><use transform="matrix(0.05,0,0,0.05,62.85,0)" xlink:href="#ac"/><use transform="matrix(0.05,0,0,0.05,72.85000000000001,0)" xlink:href="#ad"/></g><g id="f"><use transform="matrix(0.05,0,0,0.05,0,0)" xlink:href="#ae"/><use transform="matrix(0.05,0,0,0.05,12,0)" xlink:href="#ah"/><use transform="matrix(0.05,0,0,0.05,21,0)" xlink:href="#ah"/><use transform="matrix(0.05,0,0,0.05,30,0)" xlink:href="#aa"/><use transform="matrix(0.05,0,0,0.05,40,0)" xlink:href="#ai"/><use transform="matrix(0.05,0,0,0.05,50,0)" xlink:href="#ac"/><use transform="matrix(0.05,0,0,0.05,60,0)" xlink:href="#aj"/></g><path d="M197 0v-115H63V0H30v-248h33v105h134v-105h34V0h-34" id="ao"/><path d="M127-220V0H93v-220H8v-28h204v28h-85" id="ap"/><path d="M30-248c87 1 191-15 191 75 0 78-77 80-158 76V0H30v-248zm33 125c57 0 124 11 124-50 0-59-68-47-124-48v98" id="aq"/><path d="M16-82v-28h88v28H16" id="ar"/><path d="M114-163C36-179 61-72 57 0H25l-1-190h30c1 12-1 29 2 39 6-27 23-49 58-41v29" id="as"/><path d="M141 0L90-78 38 0H4l68-98-65-92h35l48 74 47-74h35l-64 92 68 98h-35" id="at"/><path d="M179-190L93 31C79 59 56 82 12 73V49c39 6 53-20 64-50L1-190h34L92-34l54-156h33" id="au"/><g id="g"><use transform="matrix(0.05,0,0,0.05,0,0)" xlink:href="#ao"/><use transform="matrix(0.05,0,0,0.05,12.950000000000001,0)" xlink:href="#ap"/><use transform="matrix(0.05,0,0,0.05,23.900000000000002,0)" xlink:href="#ap"/><use transform="matrix(0.05,0,0,0.05,34.85,0)" xlink:href="#aq"/><use transform="matrix(0.05,0,0,0.05,46.85,0)" xlink:href="#ar"/><use transform="matrix(0.05,0,0,0.05,52.800000000000004,0)" xlink:href="#aq"/><use transform="matrix(0.05,0,0,0.05,64.80000000000001,0)" xlink:href="#as"/><use transform="matrix(0.05,0,0,0.05,70.75000000000001,0)" xlink:href="#aa"/><use transform="matrix(0.05,0,0,0.05,80.75000000000001,0)" xlink:href="#at"/><use transform="matrix(0.05,0,0,0.05,89.75000000000001,0)" xlink:href="#au"/></g><path d="M115-194c53 0 69 39 70 98 0 66-23 100-70 100C84 3 66-7 56-30L54 0H23l1-261h32v101c10-23 28-34 59-34zm-8 174c40 0 45-34 45-75 0-40-5-75-45-74-42 0-51 32-51 76 0 43 10 73 51 73" id="av"/><g id="h"><use transform="matrix(0.05,0,0,0.05,0,0)" xlink:href="#aq"/><use transform="matrix(0.05,0,0,0.05,12,0)" xlink:href="#ai"/><use transform="matrix(0.05,0,0,0.05,22,0)" xlink:href="#av"/><use transform="matrix(0.05,0,0,0.05,32,0)" xlink:href="#am"/><use transform="matrix(0.05,0,0,0.05,35.95,0)" xlink:href="#ak"/><use transform="matrix(0.05,0,0,0.05,39.900000000000006,0)" xlink:href="#ah"/></g><path d="M108 0H70L1-190h34L89-25l56-165h34" id="aw"/><path d="M141-36C126-15 110 5 73 4 37 3 15-17 15-53c-1-64 63-63 125-63 3-35-9-54-41-54-24 1-41 7-42 31l-33-3c5-37 33-52 76-52 45 0 72 20 72 64v82c-1 20 7 32 28 27v20c-31 9-61-2-59-35zM48-53c0 20 12 33 32 33 41-3 63-29 60-74-43 2-92-5-92 41" id="ax"/><g id="i"><use transform="matrix(0.05,0,0,0.05,0,0)" xlink:href="#aq"/><use transform="matrix(0.05,0,0,0.05,12,0)" xlink:href="#as"/><use transform="matrix(0.05,0,0,0.05,17.95,0)" xlink:href="#ak"/><use transform="matrix(0.05,0,0,0.05,21.9,0)" xlink:href="#aw"/><use transform="matrix(0.05,0,0,0.05,30.899999999999995,0)" xlink:href="#ax"/><use transform="matrix(0.05,0,0,0.05,40.9,0)" xlink:href="#aj"/><use transform="matrix(0.05,0,0,0.05,45.9,0)" xlink:href="#an"/></g><path d="M143 0L79-87 56-68V0H24v-261h32v163l83-92h37l-77 82L181 0h-38" id="ay"/><path d="M206 0h-36l-40-164L89 0H53L-1-190h32L70-26l43-164h34l41 164 42-164h31" id="az"/><path d="M39-94c74 12-11 154 75 146v23c-44 4-70-10-70-52C44-23 55-84 6-82v-22c81 4-7-162 84-157h24v23c-82-15-2 131-75 144" id="aA"/><path d="M101-251c82-7 93 87 43 132L82-64C71-53 59-42 53-27h129V0H18c2-99 128-94 128-182 0-28-16-43-45-43s-46 15-49 41l-32-3c6-41 34-60 81-64" id="aB"/><path d="M33 0v-38h34V0H33" id="aC"/><path d="M155-56V0h-30v-56H8v-25l114-167h33v167h35v25h-35zm-30-156c-27 46-58 90-88 131h88v-131" id="aD"/><path d="M76-40C78 24 84 88 6 75V52C86 64 9-79 80-94c-40-6-34-59-34-106 1-29-11-41-40-38v-23c44-4 70 10 70 52 0 47-12 108 38 105v22c-26 1-39 14-38 42" id="aE"/><g id="j"><use transform="matrix(0.05,0,0,0.05,0,0)" xlink:href="#ay"/><use transform="matrix(0.05,0,0,0.05,9,0)" xlink:href="#ai"/><use transform="matrix(0.05,0,0,0.05,19,0)" xlink:href="#av"/><use transform="matrix(0.05,0,0,0.05,29,0)" xlink:href="#an"/><use transform="matrix(0.05,0,0,0.05,39,0)" xlink:href="#ar"/><use transform="matrix(0.05,0,0,0.05,44.95,0)" xlink:href="#ax"/><use transform="matrix(0.05,0,0,0.05,54.95,0)" xlink:href="#az"/><use transform="matrix(0.05,0,0,0.05,67.9,0)" xlink:href="#ad"/><use transform="matrix(0.05,0,0,0.05,76.9,0)" xlink:href="#ar"/><use transform="matrix(0.05,0,0,0.05,82.85000000000001,0)" xlink:href="#az"/><use transform="matrix(0.05,0,0,0.05,95.80000000000001,0)" xlink:href="#aa"/><use transform="matrix(0.05,0,0,0.05,105.80000000000001,0)" xlink:href="#as"/><use transform="matrix(0.05,0,0,0.05,111.75,0)" xlink:href="#ay"/><use transform="matrix(0.05,0,0,0.05,120.75,0)" xlink:href="#an"/><use transform="matrix(0.05,0,0,0.05,130.75,0)" xlink:href="#as"/><use transform="matrix(0.05,0,0,0.05,136.7,0)" xlink:href="#aA"/><use transform="matrix(0.05,0,0,0.05,142.7,0)" xlink:href="#aB"/><use transform="matrix(0.05,0,0,0.05,152.7,0)" xlink:href="#aC"/><use transform="matrix(0.05,0,0,0.05,157.7,0)" xlink:href="#aC"/><use transform="matrix(0.05,0,0,0.05,162.7,0)" xlink:href="#aD"/><use transform="matrix(0.05,0,0,0.05,172.7,0)" xlink:href="#aE"/></g><path d="M85-194c31 0 48 13 60 33l-1-100h32l1 261h-30c-2-10 0-23-3-31C134-8 116 4 85 4 32 4 16-35 15-94c0-66 23-100 70-100zm9 24c-40 0-46 34-46 75 0 40 6 74 45 74 42 0 51-32 51-76 0-42-9-74-50-73" id="aF"/><path d="M101-251c68 0 85 55 85 127S166 4 100 4C33 4 14-52 14-124c0-73 17-127 87-127zm-1 229c47 0 54-49 54-102s-4-102-53-102c-51 0-55 48-55 102 0 53 5 102 54 102" id="aG"/><path d="M126-127c33 6 58 20 58 59 0 88-139 92-164 29-3-8-5-16-6-25l32-3c6 27 21 44 54 44 32 0 52-15 52-46 0-38-36-46-79-43v-28c39 1 72-4 72-42 0-27-17-43-46-43-28 0-47 15-49 41l-32-3c6-42 35-63 81-64 48-1 79 21 79 65 0 36-21 52-52 59" id="aH"/><g id="k"><use transform="matrix(0.05,0,0,0.05,0,0)" xlink:href="#ay"/><use transform="matrix(0.05,0,0,0.05,9,0)" xlink:href="#ai"/><use transform="matrix(0.05,0,0,0.05,19,0)" xlink:href="#av"/><use transform="matrix(0.05,0,0,0.05,29,0)" xlink:href="#an"/><use transform="matrix(0.05,0,0,0.05,39,0)" xlink:href="#ar"/><use transform="matrix(0.05,0,0,0.05,44.95,0)" xlink:href="#ax"/><use transform="matrix(0.05,0,0,0.05,54.95,0)" xlink:href="#az"/><use transform="matrix(0.05,0,0,0.05,67.9,0)" xlink:href="#ad"/><use transform="matrix(0.05,0,0,0.05,76.9,0)" xlink:href="#ar"/><use transform="matrix(0.05,0,0,0.05,82.85000000000001,0)" xlink:href="#an"/><use transform="matrix(0.05,0,0,0.05,92.85000000000001,0)" xlink:href="#aj"/><use transform="matrix(0.05,0,0,0.05,97.85000000000001,0)" xlink:href="#ah"/><use transform="matrix(0.05,0,0,0.05,106.85000000000001,0)" xlink:href="#aF"/><use transform="matrix(0.05,0,0,0.05,116.85000000000001,0)" xlink:href="#aA"/><use transform="matrix(0.05,0,0,0.05,122.85000000000001,0)" xlink:href="#aG"/><use transform="matrix(0.05,0,0,0.05,132.85000000000002,0)" xlink:href="#aC"/><use transform="matrix(0.05,0,0,0.05,137.85000000000002,0)" xlink:href="#aC"/><use transform="matrix(0.05,0,0,0.05,142.85000000000002,0)" xlink:href="#aH"/><use transform="matrix(0.05,0,0,0.05,152.85000000000002,0)" xlink:href="#aE"/></g><path d="M190 0L58-211 59 0H30v-248h39L202-35l-2-213h31V0h-41" id="aI"/><g id="l"><use transform="matrix(0.05,0,0,0.05,0,0)" xlink:href="#ay"/><use transform="matrix(0.05,0,0,0.05,9,0)" xlink:href="#ai"/><use transform="matrix(0.05,0,0,0.05,19,0)" xlink:href="#av"/><use transform="matrix(0.05,0,0,0.05,29,0)" xlink:href="#an"/><use transform="matrix(0.05,0,0,0.05,39,0)" xlink:href="#ar"/><use transform="matrix(0.05,0,0,0.05,44.95,0)" xlink:href="#ax"/><use transform="matrix(0.05,0,0,0.05,54.95,0)" xlink:href="#az"/><use transform="matrix(0.05,0,0,0.05,67.9,0)" xlink:href="#ad"/><use transform="matrix(0.05,0,0,0.05,76.9,0)" xlink:href="#ar"/><use transform="matrix(0.05,0,0,0.05,82.85000000000001,0)" xlink:href="#ah"/><use transform="matrix(0.05,0,0,0.05,91.85000000000001,0)" xlink:href="#aa"/><use transform="matrix(0.05,0,0,0.05,101.85000000000001,0)" xlink:href="#ac"/><use transform="matrix(0.05,0,0,0.05,111.85000000000001,0)" xlink:href="#aj"/><use transform="matrix(0.05,0,0,0.05,116.85000000000001,0)" xlink:href="#as"/><use transform="matrix(0.05,0,0,0.05,122.80000000000001,0)" xlink:href="#aa"/><use transform="matrix(0.05,0,0,0.05,132.8,0)" xlink:href="#am"/><use transform="matrix(0.05,0,0,0.05,136.75,0)" xlink:href="#am"/><use transform="matrix(0.05,0,0,0.05,140.7,0)" xlink:href="#an"/><use transform="matrix(0.05,0,0,0.05,150.7,0)" xlink:href="#as"/><use transform="matrix(0.05,0,0,0.05,156.64999999999998,0)" xlink:href="#aA"/><use transform="matrix(0.05,0,0,0.05,162.64999999999998,0)" xlink:href="#aG"/><use transform="matrix(0.05,0,0,0.05,172.64999999999998,0)" xlink:href="#aC"/><use transform="matrix(0.05,0,0,0.05,177.64999999999998,0)" xlink:href="#aC"/><use transform="matrix(0.05,0,0,0.05,182.64999999999998,0)" xlink:href="#aI"/><use transform="matrix(0.05,0,0,0.05,195.59999999999997,0)" xlink:href="#aE"/></g><g id="m"><use transform="matrix(0.05,0,0,0.05,0,0)" xlink:href="#ae"/><use transform="matrix(0.05,0,0,0.05,11.35,0)" xlink:href="#af"/><use transform="matrix(0.05,0,0,0.05,28.299999999999997,0)" xlink:href="#ag"/></g><path d="M63-220v92h138v28H63V0H30v-248h175v28H63" id="aJ"/><g id="n"><use transform="matrix(0.05,0,0,0.05,0,0)" xlink:href="#Z"/><use transform="matrix(0.05,0,0,0.05,12.950000000000001,0)" xlink:href="#am"/><use transform="matrix(0.05,0,0,0.05,16.900000000000002,0)" xlink:href="#aa"/><use transform="matrix(0.05,0,0,0.05,26.900000000000002,0)" xlink:href="#ai"/><use transform="matrix(0.05,0,0,0.05,36.900000000000006,0)" xlink:href="#aF"/><use transform="matrix(0.05,0,0,0.05,46.900000000000006,0)" xlink:href="#aJ"/><use transform="matrix(0.05,0,0,0.05,57.85,0)" xlink:href="#aa"/><use transform="matrix(0.05,0,0,0.05,67.85000000000001,0)" xlink:href="#as"/><use transform="matrix(0.05,0,0,0.05,73.80000000000001,0)" xlink:href="#ab"/><use transform="matrix(0.05,0,0,0.05,88.75000000000001,0)" xlink:href="#ax"/><use transform="matrix(0.05,0,0,0.05,98.75000000000001,0)" xlink:href="#aj"/><use transform="matrix(0.05,0,0,0.05,103.75,0)" xlink:href="#ak"/><use transform="matrix(0.05,0,0,0.05,107.7,0)" xlink:href="#aa"/><use transform="matrix(0.05,0,0,0.05,117.7,0)" xlink:href="#ac"/></g><g id="o"><use transform="matrix(0.05,0,0,0.05,0,0)" xlink:href="#ak"/><use transform="matrix(0.05,0,0,0.05,3.95,0)" xlink:href="#ac"/><use transform="matrix(0.05,0,0,0.05,13.949999999999998,0)" xlink:href="#aF"/><use transform="matrix(0.05,0,0,0.05,23.95,0)" xlink:href="#an"/><use transform="matrix(0.05,0,0,0.05,33.95,0)" xlink:href="#at"/><use transform="matrix(0.05,0,0,0.05,42.95,0)" xlink:href="#aF"/><use transform="matrix(0.05,0,0,0.05,52.95,0)" xlink:href="#aF"/><use transform="matrix(0.05,0,0,0.05,62.95,0)" xlink:href="#av"/></g><path d="M115-194c55 1 70 41 70 98S169 2 115 4C84 4 66-9 55-30l1 105H24l-1-265h31l2 30c10-21 28-34 59-34zm-8 174c40 0 45-34 45-75s-6-73-45-74c-42 0-51 32-51 76 0 43 10 73 51 73" id="aK"/><g id="p"><use transform="matrix(0.05,0,0,0.05,0,0)" xlink:href="#al"/><use transform="matrix(0.05,0,0,0.05,10,0)" xlink:href="#aF"/><use transform="matrix(0.05,0,0,0.05,20,0)" xlink:href="#ah"/><use transform="matrix(0.05,0,0,0.05,29,0)" xlink:href="#ax"/><use transform="matrix(0.05,0,0,0.05,39,0)" xlink:href="#aK"/><use transform="matrix(0.05,0,0,0.05,49,0)" xlink:href="#ak"/><use transform="matrix(0.05,0,0,0.05,52.95,0)" xlink:href="#aF"/><use transform="matrix(0.05,0,0,0.05,62.95,0)" xlink:href="#av"/></g><path d="M101-234c-31-9-42 10-38 44h38v23H63V0H32v-167H5v-23h27c-7-52 17-82 69-68v24" id="aL"/><g id="q"><use transform="matrix(0.05,0,0,0.05,0,0)" xlink:href="#aL"/><use transform="matrix(0.05,0,0,0.05,5,0)" xlink:href="#an"/><use transform="matrix(0.05,0,0,0.05,15,0)" xlink:href="#ac"/><use transform="matrix(0.05,0,0,0.05,25,0)" xlink:href="#ah"/><use transform="matrix(0.05,0,0,0.05,34,0)" xlink:href="#an"/><use transform="matrix(0.05,0,0,0.05,44,0)" xlink:href="#aF"/><use transform="matrix(0.05,0,0,0.05,54,0)" xlink:href="#av"/></g><path d="M33 0v-248h34V0H33" id="aM"/><g id="r"><use transform="matrix(0.05,0,0,0.05,0,0)" xlink:href="#aM"/><use transform="matrix(0.05,0,0,0.05,5,0)" xlink:href="#ac"/><use transform="matrix(0.05,0,0,0.05,15,0)" xlink:href="#aj"/><use transform="matrix(0.05,0,0,0.05,20,0)" xlink:href="#an"/><use transform="matrix(0.05,0,0,0.05,30,0)" xlink:href="#as"/><use transform="matrix(0.05,0,0,0.05,35.95,0)" xlink:href="#ac"/><use transform="matrix(0.05,0,0,0.05,45.95,0)" xlink:href="#an"/><use transform="matrix(0.05,0,0,0.05,55.95,0)" xlink:href="#aj"/></g><g id="s"><use transform="matrix(0.05,0,0,0.05,0,0)" xlink:href="#ai"/><use transform="matrix(0.05,0,0,0.05,10,0)" xlink:href="#ad"/><use transform="matrix(0.05,0,0,0.05,19,0)" xlink:href="#an"/><use transform="matrix(0.05,0,0,0.05,29,0)" xlink:href="#as"/><use transform="matrix(0.05,0,0,0.05,34.95,0)" xlink:href="#ad"/></g><path d="M68-38c1 34 0 65-14 84H32c9-13 17-26 17-46H33v-38h35" id="aN"/><g id="t"><use transform="matrix(0.05,0,0,0.05,0,0)" xlink:href="#ao"/><use transform="matrix(0.05,0,0,0.05,12.950000000000001,0)" xlink:href="#ap"/><use transform="matrix(0.05,0,0,0.05,23.900000000000002,0)" xlink:href="#ap"/><use transform="matrix(0.05,0,0,0.05,34.85,0)" xlink:href="#aq"/><use transform="matrix(0.05,0,0,0.05,46.85,0)" xlink:href="#aA"/><use transform="matrix(0.05,0,0,0.05,52.85,0)" xlink:href="#aN"/><use transform="matrix(0.05,0,0,0.05,57.85,0)" xlink:href="#ag"/><use transform="matrix(0.05,0,0,0.05,69.85,0)" xlink:href="#aE"/></g><g id="u"><use transform="matrix(0.05,0,0,0.05,0,0)" xlink:href="#ae"/><use transform="matrix(0.05,0,0,0.05,12,0)" xlink:href="#ai"/><use transform="matrix(0.05,0,0,0.05,22,0)" xlink:href="#aj"/><use transform="matrix(0.05,0,0,0.05,27,0)" xlink:href="#aa"/></g><g id="v"><use transform="matrix(0.05,0,0,0.05,0,0)" xlink:href="#ag"/><use transform="matrix(0.05,0,0,0.05,12,0)" xlink:href="#ah"/><use transform="matrix(0.05,0,0,0.05,21,0)" xlink:href="#ax"/><use transform="matrix(0.05,0,0,0.05,31,0)" xlink:href="#am"/><use transform="matrix(0.05,0,0,0.05,34.95,0)" xlink:href="#ak"/><use transform="matrix(0.05,0,0,0.05,38.900000000000006,0)" xlink:href="#ac"/><use transform="matrix(0.05,0,0,0.05,48.900000000000006,0)" xlink:href="#al"/></g><g id="w"><use transform="matrix(0.05,0,0,0.05,0,0)" xlink:href="#al"/><use transform="matrix(0.05,0,0,0.05,10,0)" xlink:href="#as"/><use transform="matrix(0.05,0,0,0.05,15.949999999999998,0)" xlink:href="#aa"/><use transform="matrix(0.05,0,0,0.05,25.950000000000003,0)" xlink:href="#ai"/><use transform="matrix(0.05,0,0,0.05,35.95,0)" xlink:href="#aK"/></g><g id="x"><use transform="matrix(0.05,0,0,0.05,0,0)" xlink:href="#aM"/><use transform="matrix(0.05,0,0,0.05,5,0)" xlink:href="#ac"/><use transform="matrix(0.05,0,0,0.05,15,0)" xlink:href="#aj"/><use transform="matrix(0.05,0,0,0.05,20,0)" xlink:href="#an"/><use transform="matrix(0.05,0,0,0.05,30,0)" xlink:href="#as"/><use transform="matrix(0.05,0,0,0.05,35.95,0)" xlink:href="#ac"/><use transform="matrix(0.05,0,0,0.05,45.95,0)" xlink:href="#an"/><use transform="matrix(0.05,0,0,0.05,55.95,0)" xlink:href="#aj"/></g><g id="y"><use transform="matrix(0.05,0,0,0.05,0,0)" xlink:href="#al"/><use transform="matrix(0.05,0,0,0.05,10,0)" xlink:href="#ax"/><use transform="matrix(0.05,0,0,0.05,20,0)" xlink:href="#aj"/><use transform="matrix(0.05,0,0,0.05,25,0)" xlink:href="#an"/><use transform="matrix(0.05,0,0,0.05,35,0)" xlink:href="#az"/><use transform="matrix(0.05,0,0,0.05,47.95,0)" xlink:href="#ax"/><use transform="matrix(0.05,0,0,0.05,57.95,0)" xlink:href="#au"/></g><path d="M137 0h-34L2-248h35l83 218 83-218h36" id="aO"/><g id="z"><use transform="matrix(0.05,0,0,0.05,0,0)" xlink:href="#aO"/><use transform="matrix(0.05,0,0,0.05,12,0)" xlink:href="#aq"/><use transform="matrix(0.05,0,0,0.05,24,0)" xlink:href="#Z"/></g><g id="A"><use transform="matrix(0.05,0,0,0.05,0,0)" xlink:href="#aI"/><use transform="matrix(0.05,0,0,0.05,12.950000000000001,0)" xlink:href="#ae"/><use transform="matrix(0.05,0,0,0.05,23.6,0)" xlink:href="#ap"/></g><g id="B"><use transform="matrix(0.05,0,0,0.05,0,0)" xlink:href="#Z"/><use transform="matrix(0.05,0,0,0.05,12.950000000000001,0)" xlink:href="#am"/><use transform="matrix(0.05,0,0,0.05,16.900000000000002,0)" xlink:href="#ax"/><use transform="matrix(0.05,0,0,0.05,26.900000000000002,0)" xlink:href="#ad"/><use transform="matrix(0.05,0,0,0.05,35.900000000000006,0)" xlink:href="#ad"/><use transform="matrix(0.05,0,0,0.05,44.900000000000006,0)" xlink:href="#ak"/><use transform="matrix(0.05,0,0,0.05,48.85000000000001,0)" xlink:href="#ah"/></g><path d="M30 0v-248h33v221h125V0H30" id="aP"/><g id="C"><use transform="matrix(0.05,0,0,0.05,0,0)" xlink:href="#aP"/><use transform="matrix(0.05,0,0,0.05,10,0)" xlink:href="#aa"/><use transform="matrix(0.05,0,0,0.05,20,0)" xlink:href="#ax"/><use transform="matrix(0.05,0,0,0.05,30,0)" xlink:href="#aF"/></g><path d="M160-131c35 5 61 23 61 61C221 17 115-2 30 0v-248c76 3 177-17 177 60 0 33-19 50-47 57zm-97-11c50-1 110 9 110-42 0-47-63-36-110-37v79zm0 115c55-2 124 14 124-45 0-56-70-42-124-44v89" id="aQ"/><g id="D"><use transform="matrix(0.05,0,0,0.05,0,0)" xlink:href="#aQ"/><use transform="matrix(0.05,0,0,0.05,12,0)" xlink:href="#ax"/><use transform="matrix(0.05,0,0,0.05,22,0)" xlink:href="#am"/><use transform="matrix(0.05,0,0,0.05,25.950000000000003,0)" xlink:href="#ax"/><use transform="matrix(0.05,0,0,0.05,35.95,0)" xlink:href="#ac"/><use transform="matrix(0.05,0,0,0.05,45.95,0)" xlink:href="#ah"/><use transform="matrix(0.05,0,0,0.05,54.95,0)" xlink:href="#an"/><use transform="matrix(0.05,0,0,0.05,64.95,0)" xlink:href="#as"/></g><g id="E"><use transform="matrix(0.05,0,0,0.05,0,0)" xlink:href="#ao"/><use transform="matrix(0.05,0,0,0.05,12.950000000000001,0)" xlink:href="#ap"/><use transform="matrix(0.05,0,0,0.05,23.900000000000002,0)" xlink:href="#ap"/><use transform="matrix(0.05,0,0,0.05,34.85,0)" xlink:href="#aq"/><use transform="matrix(0.05,0,0,0.05,46.85,0)" xlink:href="#ag"/></g><path d="M54-142c48-35 137-8 131 61C196 18 31 33 14-55l32-4c7 23 22 37 52 37 35-1 51-22 54-58 4-55-73-65-99-34H22l8-134h141v27H59" id="aR"/><path d="M0 4l72-265h28L28 4H0" id="aS"/><path d="M27 0v-27h64v-190l-56 39v-29l58-41h29v221h61V0H27" id="aT"/><g id="F"><use transform="matrix(0.048148148148148155,0,0,0.048148148148148155,0,0)" xlink:href="#aR"/><use transform="matrix(0.048148148148148155,0,0,0.048148148148148155,9.629629629629632,0)" xlink:href="#aD"/><use transform="matrix(0.048148148148148155,0,0,0.048148148148148155,19.259259259259263,0)" xlink:href="#aC"/><use transform="matrix(0.048148148148148155,0,0,0.048148148148148155,24.07407407407408,0)" xlink:href="#aB"/><use transform="matrix(0.048148148148148155,0,0,0.048148148148148155,33.70370370370371,0)" xlink:href="#aB"/><use transform="matrix(0.048148148148148155,0,0,0.048148148148148155,43.33333333333334,0)" xlink:href="#aD"/><use transform="matrix(0.048148148148148155,0,0,0.048148148148148155,52.96296296296297,0)" xlink:href="#aC"/><use transform="matrix(0.048148148148148155,0,0,0.048148148148148155,57.7777777777778,0)" xlink:href="#aG"/><use transform="matrix(0.048148148148148155,0,0,0.048148148148148155,67.40740740740742,0)" xlink:href="#aC"/><use transform="matrix(0.048148148148148155,0,0,0.048148148148148155,72.22222222222223,0)" xlink:href="#aG"/><use transform="matrix(0.048148148148148155,0,0,0.048148148148148155,81.85185185185186,0)" xlink:href="#aS"/><use transform="matrix(0.048148148148148155,0,0,0.048148148148148155,86.66666666666667,0)" xlink:href="#aT"/><use transform="matrix(0.048148148148148155,0,0,0.048148148148148155,96.2962962962963,0)" xlink:href="#aB"/></g><path d="M87 75C49 33 22-17 22-94c0-76 28-126 65-167h31c-38 41-64 92-64 168S80 34 118 75H87" id="aU"/><path d="M9 0v-24l116-142H16v-24h144v24L44-24h123V0H9" id="aV"/><path d="M33-261c38 41 65 92 65 168S71 34 33 75H2C39 34 66-17 66-93S39-220 2-261h31" id="aW"/><g id="G"><use transform="matrix(0.048148148148148155,0,0,0.048148148148148155,0,0)" xlink:href="#aU"/><use transform="matrix(0.048148148148148155,0,0,0.048148148148148155,5.72962962962963,0)" xlink:href="#am"/><use transform="matrix(0.048148148148148155,0,0,0.048148148148148155,9.533333333333335,0)" xlink:href="#aa"/><use transform="matrix(0.048148148148148155,0,0,0.048148148148148155,19.162962962962965,0)" xlink:href="#al"/><use transform="matrix(0.048148148148148155,0,0,0.048148148148148155,28.792592592592598,0)" xlink:href="#ad"/><use transform="matrix(0.048148148148148155,0,0,0.048148148148148155,37.45925925925927,0)" xlink:href="#aC"/><use transform="matrix(0.048148148148148155,0,0,0.048148148148148155,42.274074074074086,0)" xlink:href="#ai"/><use transform="matrix(0.048148148148148155,0,0,0.048148148148148155,51.90370370370372,0)" xlink:href="#ad"/><use transform="matrix(0.048148148148148155,0,0,0.048148148148148155,60.57037037037038,0)" xlink:href="#ar"/><use transform="matrix(0.048148148148148155,0,0,0.048148148148148155,66.30000000000001,0)" xlink:href="#an"/><use transform="matrix(0.048148148148148155,0,0,0.048148148148148155,75.92962962962964,0)" xlink:href="#ax"/><use transform="matrix(0.048148148148148155,0,0,0.048148148148148155,85.55925925925928,0)" xlink:href="#ad"/><use transform="matrix(0.048148148148148155,0,0,0.048148148148148155,94.22592592592595,0)" xlink:href="#aj"/><use transform="matrix(0.048148148148148155,0,0,0.048148148148148155,99.04074074074076,0)" xlink:href="#ar"/><use transform="matrix(0.048148148148148155,0,0,0.048148148148148155,104.77037037037039,0)" xlink:href="#aT"/><use transform="matrix(0.048148148148148155,0,0,0.048148148148148155,114.40000000000002,0)" xlink:href="#aC"/><use transform="matrix(0.048148148148148155,0,0,0.048148148148148155,119.21481481481483,0)" xlink:href="#ax"/><use transform="matrix(0.048148148148148155,0,0,0.048148148148148155,128.84444444444446,0)" xlink:href="#ab"/><use transform="matrix(0.048148148148148155,0,0,0.048148148148148155,143.24074074074076,0)" xlink:href="#ax"/><use transform="matrix(0.048148148148148155,0,0,0.048148148148148155,152.87037037037038,0)" xlink:href="#aV"/><use transform="matrix(0.048148148148148155,0,0,0.048148148148148155,161.53703703703704,0)" xlink:href="#aa"/><use transform="matrix(0.048148148148148155,0,0,0.048148148148148155,171.16666666666666,0)" xlink:href="#ac"/><use transform="matrix(0.048148148148148155,0,0,0.048148148148148155,180.79629629629628,0)" xlink:href="#az"/><use transform="matrix(0.048148148148148155,0,0,0.048148148148148155,193.26666666666665,0)" xlink:href="#ad"/><use transform="matrix(0.048148148148148155,0,0,0.048148148148148155,201.9333333333333,0)" xlink:href="#aC"/><use transform="matrix(0.048148148148148155,0,0,0.048148148148148155,206.74814814814815,0)" xlink:href="#ah"/><use transform="matrix(0.048148148148148155,0,0,0.048148148148148155,215.41481481481475,0)" xlink:href="#aa"/><use transform="matrix(0.048148148148148155,0,0,0.048148148148148155,225.0444444444444,0)" xlink:href="#ab"/><use transform="matrix(0.048148148148148155,0,0,0.048148148148148155,239.4407407407407,0)" xlink:href="#aW"/></g><g id="H"><use transform="matrix(0.05,0,0,0.05,0,0)" xlink:href="#ag"/><use transform="matrix(0.05,0,0,0.05,12,0)" xlink:href="#ak"/><use transform="matrix(0.05,0,0,0.05,15.949999999999998,0)" xlink:href="#ac"/><use transform="matrix(0.05,0,0,0.05,25.950000000000003,0)" xlink:href="#al"/><use transform="matrix(0.05,0,0,0.05,35.95,0)" xlink:href="#am"/><use transform="matrix(0.05,0,0,0.05,39.900000000000006,0)" xlink:href="#an"/></g><path d="M209 0H11v-25l151-195H24v-28h176v25L50-27h159V0" id="aX"/><g id="I"><use transform="matrix(0.05,0,0,0.05,0,0)" xlink:href="#ae"/><use transform="matrix(0.05,0,0,0.05,12,0)" xlink:href="#aX"/></g><g id="J"><use transform="matrix(0.05,0,0,0.05,0,0)" xlink:href="#aU"/><use transform="matrix(0.05,0,0,0.05,5.95,0)" xlink:href="#ax"/><use transform="matrix(0.05,0,0,0.05,15.949999999999998,0)" xlink:href="#ad"/></g><g id="K"><use transform="matrix(0.05,0,0,0.05,0,0)" xlink:href="#aL"/><use transform="matrix(0.05,0,0,0.05,5,0)" xlink:href="#aa"/><use transform="matrix(0.05,0,0,0.05,15,0)" xlink:href="#as"/></g><path d="M134-131c28 9 52 24 51 62-1 50-34 73-85 73S17-19 16-69c0-36 21-54 49-61-75-25-45-126 34-121 46 3 78 18 79 63 0 33-17 51-44 57zm-34-11c31 1 46-15 46-44 0-28-17-43-47-42-29 0-46 13-45 42 1 28 16 44 46 44zm1 122c35 0 51-18 51-52 0-30-18-46-53-46-33 0-51 17-51 47 0 34 19 51 53 51" id="aY"/><g id="L"><use transform="matrix(0.05,0,0,0.05,0,0)" xlink:href="#aG"/><use transform="matrix(0.05,0,0,0.05,10,0)" xlink:href="#aB"/><use transform="matrix(0.05,0,0,0.05,20,0)" xlink:href="#aS"/><use transform="matrix(0.05,0,0,0.05,25,0)" xlink:href="#aB"/><use transform="matrix(0.05,0,0,0.05,35,0)" xlink:href="#aT"/><use transform="matrix(0.05,0,0,0.05,45,0)" xlink:href="#aS"/><use transform="matrix(0.05,0,0,0.05,50,0)" xlink:href="#aB"/><use transform="matrix(0.05,0,0,0.05,60,0)" xlink:href="#aG"/><use transform="matrix(0.05,0,0,0.05,70,0)" xlink:href="#aT"/><use transform="matrix(0.05,0,0,0.05,80,0)" xlink:href="#aY"/><use transform="matrix(0.05,0,0,0.05,90,0)" xlink:href="#aW"/></g><g id="M"><use transform="matrix(0.05,0,0,0.05,0,0)" xlink:href="#ae"/><use transform="matrix(0.05,0,0,0.05,12,0)" xlink:href="#ab"/><use transform="matrix(0.05,0,0,0.05,26.950000000000003,0)" xlink:href="#ax"/><use transform="matrix(0.05,0,0,0.05,36.95,0)" xlink:href="#aV"/><use transform="matrix(0.05,0,0,0.05,45.95,0)" xlink:href="#aa"/><use transform="matrix(0.05,0,0,0.05,55.95,0)" xlink:href="#ac"/></g><path d="M106-169C34-169 62-67 57 0H25v-261h32l-1 103c12-21 28-36 61-36 89 0 53 116 60 194h-32v-121c2-32-8-49-39-48" id="aZ"/><g id="N"><use transform="matrix(0.05,0,0,0.05,0,0)" xlink:href="#Z"/><use transform="matrix(0.05,0,0,0.05,12.950000000000001,0)" xlink:href="#am"/><use transform="matrix(0.05,0,0,0.05,16.900000000000002,0)" xlink:href="#aa"/><use transform="matrix(0.05,0,0,0.05,26.900000000000002,0)" xlink:href="#ai"/><use transform="matrix(0.05,0,0,0.05,36.900000000000006,0)" xlink:href="#aF"/><use transform="matrix(0.05,0,0,0.05,46.900000000000006,0)" xlink:href="#af"/><use transform="matrix(0.05,0,0,0.05,63.2,0)" xlink:href="#ax"/><use transform="matrix(0.05,0,0,0.05,73.2,0)" xlink:href="#aj"/><use transform="matrix(0.05,0,0,0.05,78.2,0)" xlink:href="#ah"/><use transform="matrix(0.05,0,0,0.05,87.2,0)" xlink:href="#aZ"/></g><path d="M67-125c0 53 21 87 73 88 37 1 54-22 65-47l45 17C233-25 199 4 140 4 58 4 20-42 15-125 8-235 124-281 211-232c18 10 29 29 36 50l-46 12c-8-25-30-41-62-41-52 0-71 34-72 86" id="ba"/><path d="M25 0v-261h50V0H25" id="bb"/><path d="M110-194c64 0 96 36 96 99 0 64-35 99-97 99-61 0-95-36-95-99 0-62 34-99 96-99zm-1 164c35 0 45-28 45-65 0-40-10-65-43-65-34 0-45 26-45 65 0 36 10 65 43 65" id="bc"/><path d="M85 4C-2 5 27-109 22-190h50c7 57-23 150 33 157 60-5 35-97 40-157h50l1 190h-47c-2-12 1-28-3-38-12 25-28 42-61 42" id="bd"/><path d="M88-194c31-1 46 15 58 34l-1-101h50l1 261h-48c-2-10 0-23-3-31C134-8 116 4 84 4 32 4 16-41 15-95c0-56 19-97 73-99zm17 164c33 0 40-30 41-66 1-37-9-64-41-64s-38 30-39 65c0 43 13 65 39 65" id="be"/><path d="M275 0h-61l-44-196L126 0H64L0-248h53L97-49l45-199h58l43 199 44-199h52" id="bf"/><path d="M133-34C117-15 103 5 69 4 32 3 11-16 11-54c-1-60 55-63 116-61 1-26-3-47-28-47-18 1-26 9-28 27l-52-2c7-38 36-58 82-57s74 22 75 68l1 82c-1 14 12 18 25 15v27c-30 8-71 5-69-32zm-48 3c29 0 43-24 42-57-32 0-66-3-65 30 0 17 8 27 23 27" id="bg"/><path d="M115-3C79 11 28 4 28-45v-112H4v-33h27l15-45h31v45h36v33H77v99c-1 23 16 31 38 25v30" id="bh"/><path d="M190-63c-7 42-38 67-86 67-59 0-84-38-90-98-12-110 154-137 174-36l-49 2c-2-19-15-32-35-32-30 0-35 28-38 64-6 74 65 87 74 30" id="bi"/><path d="M114-157C55-157 80-60 75 0H25v-261h50l-1 109c12-26 28-41 61-42 86-1 58 113 63 194h-50c-7-57 23-157-34-157" id="bj"/><path d="M24 0v-248h52v208h133V0H24" id="bk"/><path d="M195-6C206 82 75 100 31 46c-4-6-6-13-8-21l49-6c3 16 16 24 34 25 40 0 42-37 40-79-11 22-30 35-61 35-53 0-70-43-70-97 0-56 18-96 73-97 30 0 46 14 59 34l2-30h47zm-90-29c32 0 41-27 41-63 0-35-9-62-40-62-32 0-39 29-40 63 0 36 9 62 39 62" id="bl"/><path d="M137-138c1-29-70-34-71-4 15 46 118 7 119 86 1 83-164 76-172 9l43-7c4 19 20 25 44 25 33 8 57-30 24-41C81-84 22-81 20-136c-2-80 154-74 161-7" id="bm"/><g id="O"><use transform="matrix(0.05,0,0,0.05,0,0)" xlink:href="#ba"/><use transform="matrix(0.05,0,0,0.05,12.950000000000001,0)" xlink:href="#bb"/><use transform="matrix(0.05,0,0,0.05,17.950000000000003,0)" xlink:href="#bc"/><use transform="matrix(0.05,0,0,0.05,28.900000000000006,0)" xlink:href="#bd"/><use transform="matrix(0.05,0,0,0.05,39.85000000000001,0)" xlink:href="#be"/><use transform="matrix(0.05,0,0,0.05,50.80000000000001,0)" xlink:href="#bf"/><use transform="matrix(0.05,0,0,0.05,67.10000000000001,0)" xlink:href="#bg"/><use transform="matrix(0.05,0,0,0.05,77.10000000000001,0)" xlink:href="#bh"/><use transform="matrix(0.05,0,0,0.05,83.05000000000001,0)" xlink:href="#bi"/><use transform="matrix(0.05,0,0,0.05,93.05000000000001,0)" xlink:href="#bj"/><use transform="matrix(0.05,0,0,0.05,104,0)" xlink:href="#bk"/><use transform="matrix(0.05,0,0,0.05,114.95,0)" xlink:href="#bc"/><use transform="matrix(0.05,0,0,0.05,125.90000000000003,0)" xlink:href="#bl"/><use transform="matrix(0.05,0,0,0.05,136.85000000000002,0)" xlink:href="#bm"/></g><g id="P"><use transform="matrix(0.05,0,0,0.05,0,0)" xlink:href="#ax"/><use transform="matrix(0.05,0,0,0.05,10,0)" xlink:href="#ai"/><use transform="matrix(0.05,0,0,0.05,20,0)" xlink:href="#aj"/><use transform="matrix(0.05,0,0,0.05,25,0)" xlink:href="#aZ"/><use transform="matrix(0.05,0,0,0.05,35,0)" xlink:href="#aC"/><use transform="matrix(0.05,0,0,0.05,40,0)" xlink:href="#am"/><use transform="matrix(0.05,0,0,0.05,43.95,0)" xlink:href="#aa"/><use transform="matrix(0.05,0,0,0.05,53.95,0)" xlink:href="#al"/></g><g id="Q"><use transform="matrix(0.05,0,0,0.05,0,0)" xlink:href="#ad"/><use transform="matrix(0.05,0,0,0.05,9,0)" xlink:href="#au"/><use transform="matrix(0.05,0,0,0.05,18,0)" xlink:href="#ad"/><use transform="matrix(0.05,0,0,0.05,27,0)" xlink:href="#am"/><use transform="matrix(0.05,0,0,0.05,30.950000000000003,0)" xlink:href="#aa"/><use transform="matrix(0.05,0,0,0.05,40.95,0)" xlink:href="#al"/><use transform="matrix(0.05,0,0,0.05,50.95,0)" xlink:href="#ad"/></g><path d="M145-31C134-9 116 4 85 4 32 4 16-35 15-94c0-59 17-99 70-100 32-1 48 14 60 33 0-11-1-24 2-32h30l-1 268h-32zM93-21c41 0 51-33 51-76s-8-73-50-73c-40 0-46 35-46 75s5 74 45 74" id="bn"/><g id="R"><use transform="matrix(0.05,0,0,0.05,0,0)" xlink:href="#ad"/><use transform="matrix(0.05,0,0,0.05,9,0)" xlink:href="#bn"/><use transform="matrix(0.05,0,0,0.05,19,0)" xlink:href="#ai"/><use transform="matrix(0.05,0,0,0.05,29,0)" xlink:href="#ak"/><use transform="matrix(0.05,0,0,0.05,32.95,0)" xlink:href="#aF"/><use transform="matrix(0.05,0,0,0.05,42.95,0)" xlink:href="#aS"/><use transform="matrix(0.05,0,0,0.05,47.95,0)" xlink:href="#ax"/><use transform="matrix(0.05,0,0,0.05,57.95,0)" xlink:href="#ah"/><use transform="matrix(0.05,0,0,0.05,66.95,0)" xlink:href="#ah"/><use transform="matrix(0.05,0,0,0.05,75.95,0)" xlink:href="#an"/><use transform="matrix(0.05,0,0,0.05,85.95,0)" xlink:href="#ad"/><use transform="matrix(0.05,0,0,0.05,94.95,0)" xlink:href="#ad"/><use transform="matrix(0.05,0,0,0.05,103.95,0)" xlink:href="#aC"/><use transform="matrix(0.05,0,0,0.05,108.95,0)" xlink:href="#am"/><use transform="matrix(0.05,0,0,0.05,112.9,0)" xlink:href="#aa"/><use transform="matrix(0.05,0,0,0.05,122.9,0)" xlink:href="#al"/></g><path d="M26 75v-336h71v23H56V52h41v23H26" id="bo"/><path d="M99-251c64 0 84 50 84 122C183-37 130 33 47-8c-14-7-20-23-25-40l30-5c6 39 69 39 84 7 9-19 16-44 16-74-10 22-31 35-62 35-49 0-73-33-73-83 0-54 28-83 82-83zm-1 141c31-1 51-18 51-49 0-36-14-67-51-67-34 0-49 23-49 58 0 34 15 58 49 58" id="bp"/><path d="M3 75V52h41v-290H3v-23h71V75H3" id="bq"/><path d="M80-196l47-18 7 23-49 13 32 44-20 13-27-46-27 45-21-12 33-44-49-13 8-23 47 19-2-53h23" id="br"/><g id="S"><use transform="matrix(0.05,0,0,0.05,0,0)" xlink:href="#ay"/><use transform="matrix(0.05,0,0,0.05,9,0)" xlink:href="#ai"/><use transform="matrix(0.05,0,0,0.05,19,0)" xlink:href="#av"/><use transform="matrix(0.05,0,0,0.05,29,0)" xlink:href="#an"/><use transform="matrix(0.05,0,0,0.05,39,0)" xlink:href="#ar"/><use transform="matrix(0.05,0,0,0.05,44.95,0)" xlink:href="#aK"/><use transform="matrix(0.05,0,0,0.05,54.95,0)" xlink:href="#aa"/><use transform="matrix(0.05,0,0,0.05,64.95,0)" xlink:href="#aF"/><use transform="matrix(0.05,0,0,0.05,74.95,0)" xlink:href="#ar"/><use transform="matrix(0.05,0,0,0.05,80.9,0)" xlink:href="#bo"/><use transform="matrix(0.05,0,0,0.05,85.9,0)" xlink:href="#ax"/><use transform="matrix(0.05,0,0,0.05,95.9,0)" xlink:href="#ar"/><use transform="matrix(0.05,0,0,0.05,101.85000000000001,0)" xlink:href="#aV"/><use transform="matrix(0.05,0,0,0.05,110.85000000000001,0)" xlink:href="#ae"/><use transform="matrix(0.05,0,0,0.05,122.85000000000001,0)" xlink:href="#ar"/><use transform="matrix(0.05,0,0,0.05,128.8,0)" xlink:href="#aX"/><use transform="matrix(0.05,0,0,0.05,139.75,0)" xlink:href="#aG"/><use transform="matrix(0.05,0,0,0.05,149.75,0)" xlink:href="#ar"/><use transform="matrix(0.05,0,0,0.05,155.7,0)" xlink:href="#bp"/><use transform="matrix(0.05,0,0,0.05,165.7,0)" xlink:href="#bq"/><use transform="matrix(0.05,0,0,0.05,170.7,0)" xlink:href="#br"/><use transform="matrix(0.05,0,0,0.05,177.7,0)" xlink:href="#aC"/><use transform="matrix(0.05,0,0,0.05,182.7,0)" xlink:href="#am"/><use transform="matrix(0.05,0,0,0.05,186.64999999999998,0)" xlink:href="#aa"/><use transform="matrix(0.05,0,0,0.05,196.64999999999998,0)" xlink:href="#al"/></g><g id="T"><use transform="matrix(0.05,0,0,0.05,0,0)" xlink:href="#ae"/><use transform="matrix(0.05,0,0,0.05,12,0)" xlink:href="#ab"/><use transform="matrix(0.05,0,0,0.05,26.950000000000003,0)" xlink:href="#ax"/><use transform="matrix(0.05,0,0,0.05,36.95,0)" xlink:href="#aV"/><use transform="matrix(0.05,0,0,0.05,45.95,0)" xlink:href="#aa"/><use transform="matrix(0.05,0,0,0.05,55.95,0)" xlink:href="#ac"/></g><g id="U"><use transform="matrix(0.05,0,0,0.05,0,0)" xlink:href="#ag"/><use transform="matrix(0.05,0,0,0.05,12,0)" xlink:href="#aH"/></g><path d="M140-251c81 0 123 46 123 126C263-46 219 4 140 4 59 4 17-45 17-125s42-126 123-126zm0 227c63 0 89-41 89-101s-29-99-89-99c-61 0-89 39-89 99S79-25 140-24" id="bs"/><g id="V"><use transform="matrix(0.05,0,0,0.05,0,0)" xlink:href="#Z"/><use transform="matrix(0.05,0,0,0.05,12.950000000000001,0)" xlink:href="#ag"/><use transform="matrix(0.05,0,0,0.05,24.950000000000003,0)" xlink:href="#bs"/><use transform="matrix(0.05,0,0,0.05,38.95,0)" xlink:href="#Z"/></g><g id="W"><use transform="matrix(0.05,0,0,0.05,0,0)" xlink:href="#Z"/><use transform="matrix(0.05,0,0,0.05,12.950000000000001,0)" xlink:href="#aa"/><use transform="matrix(0.05,0,0,0.05,22.950000000000003,0)" xlink:href="#ab"/><use transform="matrix(0.05,0,0,0.05,37.900000000000006,0)" xlink:href="#ab"/><use transform="matrix(0.05,0,0,0.05,52.85,0)" xlink:href="#aa"/><use transform="matrix(0.05,0,0,0.05,62.85,0)" xlink:href="#ac"/><use transform="matrix(0.05,0,0,0.05,72.85000000000001,0)" xlink:href="#ad"/></g><path d="M240 0l2-218c-23 76-54 145-80 218h-23L58-218 59 0H30v-248h44l77 211c21-75 51-140 76-211h43V0h-30" id="bt"/><g id="X"><use transform="matrix(0.05,0,0,0.05,0,0)" xlink:href="#ax"/><use transform="matrix(0.05,0,0,0.05,10,0)" xlink:href="#aF"/><use transform="matrix(0.05,0,0,0.05,20,0)" xlink:href="#ab"/><use transform="matrix(0.05,0,0,0.05,34.95,0)" xlink:href="#ak"/><use transform="matrix(0.05,0,0,0.05,38.900000000000006,0)" xlink:href="#ac"/><use transform="matrix(0.05,0,0,0.05,48.900000000000006,0)" xlink:href="#aO"/><use transform="matrix(0.05,0,0,0.05,60.900000000000006,0)" xlink:href="#bt"/></g><g id="Y"><use transform="matrix(0.05,0,0,0.05,0,0)" xlink:href="#ag"/><use transform="matrix(0.05,0,0,0.05,12,0)" xlink:href="#ag"/><use transform="matrix(0.05,0,0,0.05,24,0)" xlink:href="#ao"/><use transform="matrix(0.05,0,0,0.05,36.95,0)" xlink:href="#aS"/><use transform="matrix(0.05,0,0,0.05,41.95,0)" xlink:href="#ay"/><use transform="matrix(0.05,0,0,0.05,50.95,0)" xlink:href="#ai"/><use transform="matrix(0.05,0,0,0.05,60.95,0)" xlink:href="#av"/><use transform="matrix(0.05,0,0,0.05,70.95,0)" xlink:href="#an"/><use transform="matrix(0.05,0,0,0.05,80.95,0)" xlink:href="#ah"/><use transform="matrix(0.05,0,0,0.05,89.95,0)" xlink:href="#aj"/><use transform="matrix(0.05,0,0,0.05,94.95,0)" xlink:href="#am"/></g></defs></g></svg>