<?xml version="1.0" encoding="UTF-8"?>
<svg width="302px" height="203px" viewBox="0 0 302 203" version="1.1" xmlns="http://www.w3.org/2000/svg" xmlns:xlink="http://www.w3.org/1999/xlink">
    <!-- Generator: Sketch 51.1 (57501) - http://www.bohemiancoding.com/sketch -->
    <title>404</title>
    <desc>Created with Sketch.</desc>
    <defs>
        <polygon id="path-1" points="9.07735835e-06 0.745100653 301.118 0.745100653 301.118 117 9.07735835e-06 117"></polygon>
        <polygon id="path-3" points="0.4562 0.9553 299.118 0.9553 299.118 83 0.4562 83"></polygon>
    </defs>
    <g id="Welcome" stroke="none" stroke-width="1" fill="none" fill-rule="evenodd">
        <g id="Fence---ERROR-PAGE" transform="translate(-733.000000, -552.000000)">
            <g id="404" transform="translate(733.000000, 552.000000)">
                <g id="Group-127">
                    <g id="Group-3" transform="translate(0.000000, 85.826000)">
                        <mask id="mask-2" fill="white">
                            <use xlink:href="#path-1"></use>
                        </mask>
                        <g id="Clip-2"></g>
                        <path d="M2.561,80.7562 C-11.264,52.0152 30.074,-0.8538 146.338,0.7822 C280.239,2.6662 312.66,55.1242 297.803,79.4382 C265.66,132.0392 24.572,126.5182 2.561,80.7562" id="Fill-1" fill="#D8D8D8" mask="url(#mask-2)"></path>
                    </g>
                    <g id="Group-6" transform="translate(2.000000, 119.826000)">
                        <mask id="mask-4" fill="white">
                            <use xlink:href="#path-3"></use>
                        </mask>
                        <g id="Clip-5"></g>
                        <path d="M295.8232,45.4383 C302.7142,34.1613 299.3532,15.4823 280.4552,0.9553 C281.9442,2.1003 282.5222,12.6493 282.8142,14.8483 C283.4032,19.2763 283.4132,23.6993 281.5402,27.8473 C277.2092,37.4423 267.7782,42.3433 259.0512,47.2413 C239.1972,58.3863 218.6062,63.3813 196.0412,65.2693 C174.2462,67.0923 152.3842,67.8023 130.5172,67.9213 C49.2432,68.3633 24.6492,59.7123 0.4562,46.4783 C0.4992,46.5703 0.5372,46.6653 0.5812,46.7563 C22.5922,92.5183 263.6802,98.0393 295.8232,45.4383" id="Fill-4" fill="#CECECE" mask="url(#mask-4)"></path>
                    </g>
                    <path d="M144.6801,148.4611 C149.4261,160.8301 167.2911,166.8831 178.8161,170.6291 C195.4161,176.0261 236.9941,187.4421 237.9041,162.9911 C238.5491,145.6651 214.2721,133.1721 198.9981,130.6361 C184.5951,128.2441 152.4181,117.4951 144.3271,134.2951 C142.1611,138.7941 142.9521,143.9591 144.6801,148.4611" id="Fill-7" fill="#1D2732"></path>
                    <path d="M180.5097,73.6622 C188.8777,76.9812 197.9947,83.7292 204.7747,99.5492 C211.5547,115.3692 219.0487,147.7282 198.3517,158.1552 C177.6547,168.5812 151.1037,161.4042 144.6797,148.4602 C138.2567,135.5172 145.1757,131.4142 146.3897,111.6492 C147.6047,91.8842 143.3357,81.8552 149.9687,76.8602 C156.6007,71.8642 172.9187,70.6512 180.5097,73.6622" id="Fill-9" fill="#EE8E32"></path>
                    <path d="M146.6205,104.5861 C146.6205,104.5861 146.6715,110.5871 149.6715,113.1601 L152.6725,115.7321 C152.6725,115.7321 145.5215,120.5041 144.0325,126.8781 C144.0325,126.8781 147.8555,108.6581 146.6205,104.5861" id="Fill-11" fill="#DB5A00"></path>
                    <path d="M210.1103,144.0016 C210.1103,144.0016 172.6723,164.5326 170.3623,159.3776 C168.2213,154.6016 169.2633,150.6956 169.2633,150.6956 C169.2633,150.6956 167.2093,154.6426 163.6763,157.2936 C161.0283,159.2806 157.3193,159.2486 157.9193,159.5126 C162.0743,161.3386 170.3453,162.2446 172.6763,163.1516 C174.7383,163.9546 196.5883,154.4266 199.7793,154.8206 C207.2483,155.7446 210.1103,144.0016 210.1103,144.0016" id="Fill-13" fill="#FFFFFF"></path>
                    <path d="M180.5097,73.6622 C188.8777,76.9812 197.9947,83.7292 204.7747,99.5492 C211.5547,115.3692 219.0487,147.7282 198.3517,158.1552 C177.6547,168.5812 151.1037,161.4042 144.6797,148.4602 C138.2567,135.5172 145.1757,131.4142 146.3897,111.6492 C147.6047,91.8842 143.3357,81.8552 149.9687,76.8602 C156.6007,71.8642 172.9187,70.6512 180.5097,73.6622 Z" id="Stroke-15" stroke="#000000"></path>
                    <path d="M138.8881,53.9469 C141.0341,53.1009 141.7581,54.1959 141.5351,55.2019 C141.3131,56.2089 140.4851,60.3609 137.9531,58.3229 C137.2161,57.7289 137.0081,54.6889 138.8881,53.9469" id="Fill-17" fill="#060101"></path>
                    <path d="M143.2558,71.9362 C142.5818,71.1852 138.4968,68.1842 138.4968,64.2752 C138.4968,60.3662 138.3718,56.4572 141.3768,55.0502 C144.3828,53.6432 148.3908,50.3602 150.5198,51.6102 C152.6488,52.8612 147.0128,76.1262 143.2558,71.9362" id="Fill-19" fill="#EE8E32"></path>
                    <path d="M143.2558,71.9362 C142.5818,71.1852 138.4968,68.1842 138.4968,64.2752 C138.4968,60.3662 138.3718,56.4572 141.3768,55.0502 C144.3828,53.6432 148.3908,50.3602 150.5198,51.6102 C152.6488,52.8612 147.0128,76.1262 143.2558,71.9362 Z" id="Stroke-21" stroke="#000000"></path>
                    <path d="M146.1552,61.8864 C146.1552,61.8864 137.2552,59.6914 138.4962,64.2754 C138.9262,65.8634 139.5552,67.7934 140.3102,68.8984 C142.0252,71.4054 144.0322,72.1124 144.0322,72.1124 L146.1552,61.8864 Z" id="Fill-23" fill="#FFFFFF"></path>
                    <path d="M143.2558,71.9362 C142.5818,71.1852 138.4968,68.1842 138.4968,64.2752 C138.4968,60.3662 138.3718,56.4572 141.3768,55.0502 C144.3828,53.6432 148.3908,50.3602 150.5198,51.6102 C152.6488,52.8612 147.0128,76.1262 143.2558,71.9362 Z" id="Stroke-25" stroke="#000000"></path>
                    <path d="M185.8246,71.0773 C185.8246,71.0773 185.1036,53.2673 181.8406,48.6633 C181.8406,48.6633 183.2736,38.5763 180.5066,37.3813 C177.7406,36.1863 172.2066,46.2743 172.2066,46.2743 C172.2066,46.2743 166.8976,45.0803 162.3066,46.2743 C162.3066,46.2743 155.8716,38.0453 152.1826,38.4433 C148.4936,38.8413 149.6796,51.5843 149.6796,51.5843 C149.6796,51.5843 141.3806,67.6453 145.2006,76.9363 C149.0206,86.2283 185.5856,85.2583 185.8246,71.0773" id="Fill-27" fill="#EE8E32"></path>
                    <path d="M149.1103,79.8917 C149.1103,79.8917 154.5333,71.3497 151.2923,66.7237 C148.0503,62.0967 145.6783,61.8867 145.6783,61.8867 C145.6783,61.8867 145.4423,62.9947 145.0203,64.4637 C144.0533,67.8297 143.3813,73.9887 145.0473,77.0867 C147.4373,81.5387 149.1103,79.8917 149.1103,79.8917" id="Fill-29" fill="#FFFFFF"></path>
                    <path d="M138.496,61.3229 C138.496,61.3229 138.704,63.9459 140.105,65.2399" id="Stroke-31" stroke="#000000" stroke-linecap="round" stroke-linejoin="round"></path>
                    <path d="M158.7865,47.4279 C157.7645,44.2379 155.8755,44.3649 154.0575,41.2369 C152.0755,37.8269 160.5065,42.9359 161.0885,46.1339 C161.6695,49.3319 159.3065,49.0499 158.7865,47.4279" id="Fill-33" fill="#DB5A00"></path>
                    <path d="M179.5868,49.2868 C176.9278,45.7668 175.7188,50.3888 170.6328,51.3318 C165.0308,52.3708 156.9238,45.7668 159.1698,58.0808 C160.6858,66.3848 159.6128,72.4408 160.7458,76.8858 C161.7148,80.6848 171.3808,82.3428 180.0248,77.6628 C188.6698,72.9838 182.2458,52.8068 179.5868,49.2868" id="Fill-35" fill="#DB5A00"></path>
                    <path d="M162.4042,82.9962 C163.4392,89.1472 174.0382,93.9582 180.7482,100.4402 C188.4642,107.8942 186.8992,125.0442 180.7482,129.3232 C174.5972,133.6022 168.8292,154.9972 176.9282,157.6722 C185.0272,160.3462 206.5842,147.9322 208.1882,142.8502 C209.3032,139.3222 211.4562,119.4312 202.9112,100.6832 C199.1512,92.4342 192.3602,81.0852 183.1332,76.9432 C183.1332,76.9432 179.5432,80.4742 173.8472,81.6202 C167.6872,82.8592 162.4042,82.9962 162.4042,82.9962" id="Fill-37" fill="#DB5A00"></path>
                    <g id="Group-42" transform="translate(168.000000, 138.826000)">
                        <path d="M2.206,7.7474 C2.206,7.7474 -5.219,25.2994 13.343,27.0254 C31.905,28.7514 40.076,22.0554 40.187,14.9404 C40.376,2.8414 26.372,-3.0036 17.063,3.6584 C12.233,7.1144 11.191,17.8404 19.789,16.5994" id="Fill-39" fill="#EE8E32"></path>
                        <path d="M2.206,7.7474 C2.206,7.7474 -5.219,25.2994 13.343,27.0254 C31.905,28.7514 40.076,22.0554 40.187,14.9404 C40.376,2.8414 26.372,-3.0036 17.063,3.6584 C12.233,7.1144 11.191,17.8404 19.789,16.5994" id="Stroke-41" stroke="#000000" stroke-linecap="round" stroke-linejoin="round"></path>
                    </g>
                    <path d="M185.8246,71.0773 C185.8246,71.0773 185.1036,53.2673 181.8406,48.6633 C181.8406,48.6633 183.2736,38.5763 180.5066,37.3813 C177.7406,36.1863 172.2066,46.2743 172.2066,46.2743 C172.2066,46.2743 166.8976,45.0803 162.3066,46.2743 C162.3066,46.2743 155.8716,38.0453 152.1826,38.4433 C148.4936,38.8413 149.6796,51.5843 149.6796,51.5843 C149.6796,51.5843 141.3806,67.6453 145.2006,76.9363 C149.0206,86.2283 185.5856,85.2583 185.8246,71.0773 Z" id="Stroke-43" stroke="#000000"></path>
                    <polygon id="Fill-45" fill="#33A202" points="225.9946 125.9279 225.2856 116.9089 230.9576 125.9279"></polygon>
                    <polygon id="Fill-47" fill="#5DCA40" points="234.0976 115.1159 227.0076 125.9279 232.1476 125.9279"></polygon>
                    <polygon id="Fill-49" fill="#33A202" points="74.9804 103.4542 74.6844 99.6912 77.0514 103.4542"></polygon>
                    <polygon id="Fill-51" fill="#5DCA40" points="79.1957 98.943 76.2377 103.454 78.3827 103.454"></polygon>
                    <polygon id="Fill-53" fill="#33A202" points="66.4506 98.3742 66.1466 94.5032 68.5806 98.3742"></polygon>
                    <polygon id="Fill-55" fill="#5DCA40" points="70.7875 93.733 67.7445 98.374 69.9505 98.374"></polygon>
                    <polygon id="Fill-57" fill="#33A202" points="14.5839 162.6784 14.2099 157.9234 17.2009 162.6784"></polygon>
                    <polygon id="Fill-59" fill="#5DCA40" points="19.9111 156.9777 16.1731 162.6787 18.8831 162.6787"></polygon>
                    <path d="M55.9438,109.7741 C58.9938,113.1141 62.8338,114.2951 66.3528,115.5811 C71.5628,117.4841 76.4198,118.2431 80.9648,119.9471 C81.7828,120.2541 86.0568,117.8911 85.2818,117.5951 C81.4038,116.1111 78.4648,114.5301 73.7798,113.6561 C69.3818,112.8351 63.0578,110.3371 59.3888,108.5021 C58.2618,107.9391 57.0918,108.6451 56.4268,109.1591 C56.2058,109.3301 55.6688,109.4731 55.9438,109.7741" id="Fill-61" fill="#1D2732"></path>
                    <polygon id="Fill-63" fill="#1D2732" points="45.5795 117.9469 64.4915 112.4449 69.9405 113.3809 49.4355 118.8089"></polygon>
                    <path d="M29.9526,112.3073 C30.7486,112.9253 30.8046,113.3293 31.6196,113.8383 C35.9696,116.5513 41.2846,118.0073 45.3986,119.5043 C52.6286,122.1363 57.9816,125.8023 64.2886,128.1593 C65.4246,128.5833 68.8626,125.3163 67.7876,124.9073 C62.4056,122.8543 58.3736,120.6753 54.3926,119.3843 C48.1216,117.3503 40.3236,115.4533 35.2306,112.9153 C33.6676,112.1363 31.9796,111.2003 31.0576,111.9103 C30.7496,112.1473 29.5066,111.9603 29.9526,112.3073" id="Fill-65" fill="#1D2732"></path>
                    <polygon id="Fill-67" fill="#1D2732" points="51.5795 119.9469 70.4915 114.4449 76.9405 114.3809 55.4355 120.8089"></polygon>
                    <path d="M14.2377,58.8781 C14.2377,58.8781 15.6557,55.7641 22.4227,53.6451 C29.1887,51.5251 33.1307,50.2651 33.1307,50.2651 C33.1307,50.2651 36.1567,29.5781 53.9707,29.5821 C66.4577,29.5851 70.7877,38.7931 71.5037,41.4961 C73.3047,38.8841 75.7457,36.6821 82.0297,37.3101 C88.9177,37.9991 89.6527,43.6051 89.6527,43.6051 C89.6527,43.6051 91.8067,38.5381 97.2497,39.3991 C102.6927,40.2611 102.9227,43.7051 103.9697,47.7231 C105.2947,52.7991 120.1417,48.1821 118.6487,54.0731 C116.6727,61.8681 12.2597,67.1321 14.2377,58.8781" id="Fill-69" fill="#B1E2F0"></path>
                    <path d="M212.2201,65.5524 C210.9851,65.4554 209.6881,65.3034 208.8971,64.7894 C206.7781,63.4124 209.9611,62.7654 211.2791,62.1984 C212.4201,61.7074 214.4111,61.2314 215.2211,60.2144 C218.0581,56.6544 222.4331,51.4494 225.7271,51.8574 C230.7961,52.4844 228.9871,54.3164 233.2081,53.8534 C237.4291,53.3904 236.1051,46.1914 241.7701,45.2514 C246.6911,44.4344 247.8101,50.5084 250.6681,49.2044 C253.5271,47.9004 255.0121,42.3954 260.5401,44.3704 C265.9401,46.2984 267.7901,56.1344 270.3251,60.1394 C271.2141,61.5434 273.7791,61.0514 274.2731,62.3904 C275.1671,64.8914 258.0221,66.5744 256.5881,66.7294 C244.7621,68.0044 233.2211,68.4164 221.4081,66.8254 C219.0621,66.5104 216.7201,66.1514 214.3861,65.7554 C213.7931,65.6554 213.0191,65.6144 212.2201,65.5524" id="Fill-71" fill="#B1E2F0"></path>
                    <path d="M171.2411,23.4821 C171.6351,23.9061 171.7411,24.3591 171.1971,24.7701 C170.3001,25.4451 168.4491,25.5211 167.3771,25.6741 C165.8301,25.8951 164.2691,25.9921 162.7081,26.0441 C159.6951,26.1431 156.6751,26.0651 153.6691,26.3401 C143.6851,27.2541 133.6391,27.3361 123.6281,26.8971 C118.5491,26.6741 113.4751,26.3171 108.4111,25.8661 C105.9491,25.6471 103.4901,25.4051 101.0321,25.1471 C99.0331,24.9361 95.9871,25.1801 94.1451,24.3551 C93.7961,24.1981 93.5281,23.7871 93.6671,23.4301 C93.7561,23.2011 93.9781,23.0561 94.1911,22.9331 C96.0301,21.8621 98.0611,21.3671 100.0491,20.6551 C102.7861,19.6751 105.5251,18.6951 108.2621,17.7151 C108.6641,10.9031 114.9391,0.5061 125.7681,0.0171 C129.7621,-0.1639 132.4961,1.1121 135.7931,3.4081 C137.5521,4.6331 139.9001,7.4791 139.9001,7.4791 C144.5331,6.3581 147.3731,8.5251 148.9891,10.0471 C150.7891,8.6791 156.0321,9.0941 158.2661,11.3391 C161.9211,15.0091 160.7561,20.3001 160.7561,20.3001 C160.8161,20.5161 163.3931,20.8291 163.7011,20.8901 C165.2961,21.2081 166.9281,21.3911 168.4741,21.9151 C168.9551,22.0771 170.5451,22.7331 171.2411,23.4821" id="Fill-73" fill="#B1E2F0"></path>
                    <polygon id="Fill-75" fill="#60A1C3" points="56.3461 81.7809 59.5601 81.3919 60.5381 83.2339 60.5381 110.2539 57.3371 110.9179"></polygon>
                    <polygon id="Fill-77" fill="#2B646C" points="56.3461 81.7809 57.3371 83.4829 57.3371 110.9179 55.8921 109.5119 55.8921 82.9879"></polygon>
                    <polygon id="Fill-79" fill="#60A1C3" points="56.2919 96.5719 56.2919 99.8239 33.0999 103.4509 33.0999 101.1979"></polygon>
                    <polygon id="Fill-81" fill="#2B646C" points="56.2919 96.5719 57.2919 97.5719 33.0999 101.1979 33.0999 100.1689"></polygon>
                    <polygon id="Fill-83" fill="#60A1C3" points="56.2919 88.5719 56.2919 91.8239 33.0999 95.4509 33.0999 93.1979"></polygon>
                    <polygon id="Fill-85" fill="#2B646C" points="56.2919 88.5719 57.2919 89.5719 33.0999 93.1979 33.0999 92.1689"></polygon>
                    <polygon id="Fill-87" fill="#60A1C3" points="30.2758 84.5119 33.4898 84.1229 34.4678 85.9649 34.4678 112.9849 31.2668 113.6479"></polygon>
                    <polygon id="Fill-89" fill="#2B646C" points="30.2758 84.5119 31.2668 86.2139 31.2668 113.6479 29.8208 112.2429 29.8208 85.7179"></polygon>
                    <polygon id="Fill-91" fill="#1D2732" points="23.0502 154.0075 39.4862 155.6855 43.7542 157.5815 27.8732 155.9965"></polygon>
                    <polygon id="Fill-93" fill="#1D2732" points="35.058 159.0411 51.494 159.7181 55.762 161.6151 39.881 161.0301"></polygon>
                    <path d="M5.933,148.6769 C10.768,152.3619 15.736,155.1599 20.495,156.9429 C27.539,159.5799 34.654,163.1829 40.797,165.5389 C41.903,165.9629 44.8,163.0869 43.754,162.6779 C38.514,160.6329 36.855,158.9359 30.705,156.7889 C24.927,154.7719 16.742,151.1649 11.806,148.6989 C10.291,147.9429 7.385,147.3469 6.447,147.9379 C6.134,148.1349 5.505,148.3509 5.933,148.6769" id="Fill-95" fill="#1D2732"></path>
                    <path d="M38.29,155.0382 C43.333,158.9542 48.652,159.2922 53.536,161.0702 C60.766,163.7022 69.119,167.3682 75.427,169.7252 C76.562,170.1492 79.784,166.6462 78.709,166.2362 C73.327,164.1842 70.73,164.2002 63.844,161.4082 C58.091,159.0742 49.059,156.9822 43.966,154.4432 C42.403,153.6642 39.911,153.4142 38.988,154.1252 C38.681,154.3622 38.29,155.0382 38.29,155.0382" id="Fill-97" fill="#1D2732"></path>
                    <polygon id="Fill-99" fill="#2B646C" points="9.9189 114.6349 7.7389 114.2359 5.7779 116.4189 5.7779 148.3819 8.3869 149.4079"></polygon>
                    <polygon id="Fill-101" fill="#60A1C3" points="9.9189 114.6349 8.2109 116.7249 8.3869 149.4079 11.8059 148.6989 11.8059 116.1169"></polygon>
                    <polygon id="Fill-103" fill="#60A1C3" points="10.0082 127.1847 10.0082 129.9517 40.0962 135.6347 40.0962 132.8677"></polygon>
                    <polygon id="Fill-105" fill="#2B646C" points="10.9242 125.9796 10.0082 127.1846 40.0962 132.8676 40.0962 131.6036"></polygon>
                    <polygon id="Fill-107" fill="#60A1C3" points="10.0082 136.1471 10.0082 138.9141 40.0962 144.5971 40.0962 141.8301"></polygon>
                    <polygon id="Fill-109" fill="#2B646C" points="10.9242 134.942 10.0082 136.147 40.0962 141.83 40.0962 140.566"></polygon>
                    <polygon id="Fill-111" fill="#2B646C" points="42.4311 121.2907 40.2511 120.8927 38.2901 123.0757 38.2901 155.0387 40.8991 156.0637"></polygon>
                    <polygon id="Fill-113" fill="#60A1C3" points="42.4311 121.2907 40.7231 123.3817 40.8991 156.0637 44.3181 155.3547 44.3181 122.7727"></polygon>
                    <polygon id="Fill-115" fill="#33A202" points="143.7524 176.9064 143.0434 167.8874 148.7154 176.9064"></polygon>
                    <polygon id="Fill-117" fill="#33A202" points="141.559 176.9064 140.85 167.8874 146.521 176.9064"></polygon>
                    <polygon id="Fill-119" fill="#5DCA40" points="151.8549 166.0944 144.7659 176.9064 149.9049 176.9064"></polygon>
                    <polygon id="Fill-121" fill="#33A202" points="238.0527 134.4655 238.4587 128.6555 235.2147 134.4655"></polygon>
                    <polygon id="Fill-123" fill="#5DCA40" points="233.4189 127.5001 237.4739 134.4651 234.5339 134.4651"></polygon>
                    <polygon id="Fill-125" fill="#33A202" points="239.3071 134.4655 239.7131 128.6555 236.4691 134.4655"></polygon>
                </g>
            </g>
        </g>
    </g>
</svg>