<svg xmlns="http://www.w3.org/2000/svg" xmlns:xlink="http://www.w3.org/1999/xlink" xmlns:lucid="lucid" width="1760" height="1360"><g transform="translate(0 0)" lucid:page-tab-id="eNbqbEM6f5NI"><path d="M0 0h1760v1360H0z" fill="#fff"/><path d="M480 242c0-1.1.9-2 2-2h1092c1.1 0 2 .9 2 2v836c0 1.1-.9 2-2 2H482c-1.1 0-2-.9-2-2z" fill="#f6f6f6"/><path d="M531.72 268.08c.02-2.27.85-4.2 2.48-5.8 1.64-1.6 3.6-2.38 5.87-2.37 1.06 0 2.07.18 3.03.57.97.4 1.84.96 2.58 1.7l-1.63 1.56c-1.13-1.07-2.44-1.6-3.98-1.6-1.06 0-2.07.27-3 .8-.9.55-1.63 1.28-2.15 2.2-.53.94-.76 1.93-.74 3-.02 1.06.2 2.05.74 2.98.53.93 1.24 1.66 2.16 2.2.92.54 1.93.8 3 .8.77.04 1.5-.1 2.22-.37.7-.3 1.33-.7 1.88-1.26.74-.8 1.16-1.73 1.22-2.8h-5.33v-2.33h7.47c.1.47.14.93.14 1.4.07 2-.6 3.75-1.95 5.23-.74.77-1.6 1.35-2.58 1.75-1 .4-2.02.58-3.08.54-2.28 0-4.23-.78-5.87-2.37-1.63-1.6-2.46-3.54-2.48-5.82zm0 0M553.75 265.73c-1.45 0-2.7.5-3.72 1.54-1.04 1.04-1.54 2.28-1.54 3.73 0 1.45.5 2.7 1.55 3.72 1.04 1.03 2.28 1.54 3.73 1.54 1.45 0 2.7-.5 3.72-1.54 1.04-1.03 1.54-2.27 1.54-3.73.03-.95-.2-1.84-.66-2.66-.46-.82-1.13-1.47-1.96-1.94-.83-.46-1.72-.7-2.67-.67zm0 8.45c-.55 0-1.05-.16-1.54-.45-.47-.3-.84-.68-1.1-1.18-.25-.5-.36-1-.34-1.56 0-.84.3-1.55.88-2.13.57-.6 1.28-.88 2.1-.88.84 0 1.58.28 2.15.87.57.58.87 1.3.87 2.12.02.54-.1 1.07-.35 1.56-.25.5-.62.88-1.1 1.18-.5.3-1.02.44-1.57.45zM565.32 265.73c-1.45 0-2.7.52-3.72 1.55-1.04 1.03-1.54 2.28-1.54 3.73 0 1.46.52 2.7 1.56 3.73 1.03 1.02 2.28 1.53 3.73 1.53 1.44 0 2.7-.5 3.72-1.54 1.04-1.03 1.54-2.27 1.54-3.73.03-.95-.2-1.84-.68-2.66-.48-.82-1.1-1.47-1.93-1.94-.84-.47-1.74-.7-2.68-.67zm0 8.45c-.55 0-1.08-.16-1.56-.45-.5-.3-.83-.68-1.08-1.18-.26-.5-.4-1-.37-1.56 0-.84.33-1.55.9-2.13.58-.6 1.3-.88 2.12-.88.83 0 1.54.28 2.12.87.57.58.87 1.3.87 2.12.04.54-.08 1.07-.33 1.56-.26.5-.62.88-1.1 1.18-.5.3-1 .44-1.55.45zM579.5 266.05v.85h-.08c-.37-.38-.78-.68-1.26-.88-.5-.2-1-.3-1.52-.3-1.4.07-2.62.6-3.6 1.63-.96 1-1.46 2.23-1.46 3.64 0 1.4.5 2.62 1.47 3.63.97 1.02 2.2 1.56 3.6 1.62.52.02 1.02-.08 1.5-.3.5-.2.93-.5 1.27-.9h.07v.76c0 2-1.1 3.1-2.84 3.1-.57 0-1.1-.2-1.6-.53-.47-.34-.8-.78-1.02-1.33l-2 .84c.4.94 1 1.7 1.86 2.27.85.57 1.8.85 2.83.84 2.7 0 5-1.6 5-5.5v-9.45h-2.22zm-2.68 8.14c-.55-.02-1.06-.17-1.52-.46-.46-.3-.82-.68-1.08-1.17-.25-.5-.34-1-.32-1.56-.02-.54.07-1.06.32-1.55.26-.5.62-.88 1.08-1.18.46-.3.97-.45 1.52-.47.55.03 1.04.2 1.5.5.46.3.8.7 1.03 1.18.23.48.35 1 .3 1.53.02.55-.07 1.06-.3 1.54-.23.47-.6.86-1.03 1.16-.44.3-.97.46-1.5.5zm0 0M583.3 260.47h2.3v15.47h-2.32zM591.96 274.2c-.56 0-1.06-.13-1.52-.42-.46-.3-.8-.7-1.04-1.2l7.06-2.9-.25-.6c-.3-.98-.9-1.77-1.7-2.4-.84-.6-1.76-.93-2.8-.95-.92 0-1.8.23-2.6.7-.8.5-1.4 1.13-1.84 1.95-.43.82-.62 1.7-.57 2.62-.03.94.2 1.82.66 2.64.46.82 1.1 1.47 1.93 1.94.82.47 1.7.7 2.63.68.88 0 1.73-.2 2.5-.6.8-.43 1.4-1 1.9-1.73l-1.8-1.2c-.27.45-.64.8-1.1 1.07-.46.26-.94.4-1.47.4zm-.2-6.44c.43-.04.82.04 1.18.25.37.2.65.5.83.88l-4.7 2c-.06-.53.03-1.02.26-1.5.23-.47.56-.85 1-1.14.43-.3.9-.45 1.44-.48zm0 0M601.04 268.8c-.02-1.34.28-2.6.94-3.76.67-1.16 1.57-2.08 2.74-2.74 1.17-.67 2.42-1 3.75-.96 1-.02 1.98.17 2.9.58.92.4 1.7 1 2.37 1.75l-1.3 1.24c-.47-.6-1.07-1.06-1.8-1.38-.7-.32-1.4-.46-2.2-.43-1-.03-1.97.22-2.85.73-.88.5-1.57 1.2-2.05 2.1-.48.9-.7 1.86-.67 2.87-.04 1 .2 1.95.7 2.84.47.88 1.14 1.58 2 2.08.9.5 1.83.75 2.84.73.86 0 1.66-.16 2.42-.5.76-.36 1.42-.85 1.98-1.5l1.28 1.3c-1.03 1.15-2.27 1.9-3.8 2.3-1.5.36-2.98.27-4.43-.28-1.45-.55-2.64-1.46-3.52-2.73-.87-1.28-1.3-2.7-1.3-4.24zm0 0M615.55 275.94v-14.28h1.84v14.28zM628.83 271.06c0 1.38-.5 2.56-1.48 3.55-1 .98-2.18 1.48-3.56 1.48-1.4 0-2.56-.5-3.55-1.47-1-.98-1.48-2.16-1.48-3.55 0-1.38.5-2.57 1.48-3.55 1-.98 2.16-1.47 3.54-1.47 1.37 0 2.56.5 3.55 1.47 1 .98 1.48 2.17 1.48 3.56zm-1.85 0c.07-.74-.1-1.4-.5-2-.4-.63-.97-1.05-1.66-1.3-.7-.22-1.38-.22-2.07 0-.7.25-1.24.68-1.63 1.3-.4.6-.6 1.26-.53 2 0 .88.3 1.63.93 2.26.63.63 1.38.94 2.28.94.9 0 1.67-.3 2.3-.94.6-.63.93-1.38.93-2.26zM637.13 275.94v-1.36H637c-.33.53-.77.93-1.32 1.23-.55.3-1.15.46-1.77.46-2.52 0-3.72-1.7-3.72-4.1v-6h1.84v5.7c0 2 1 2.72 2.42 2.72.76-.06 1.4-.38 1.9-.96.5-.6.72-1.26.67-2.03v-5.4h1.85v9.77h-1.75zM640.37 271.06c-.07-1.36.37-2.54 1.27-3.55.9-1 2.02-1.56 3.38-1.65.66-.02 1.3.1 1.88.4.6.3 1.08.73 1.45 1.27h.07l-.07-1.35v-4.5h1.84v14.27h-1.78v-1.36h-.07c-.37.55-.85.97-1.45 1.27-.6.3-1.22.43-1.88.4-1.36-.08-2.5-.64-3.38-1.65-.9-1-1.34-2.2-1.27-3.55zm8.07 0c.1-.73-.07-1.4-.46-2.02-.4-.63-.92-1.05-1.6-1.3-.7-.24-1.4-.24-2.08 0-.7.25-1.24.68-1.63 1.3-.4.6-.55 1.3-.46 2-.08.74.08 1.4.47 2.03.4.62.94 1.05 1.63 1.3.7.24 1.38.24 2.07 0 .7-.25 1.22-.68 1.6-1.3.4-.62.57-1.3.47-2zM655.23 275.94v-14.28h4.88c.8-.03 1.52.14 2.2.52.7.37 1.23.9 1.65 1.56.4.66.6 1.4.62 2.17-.03.8-.2 1.5-.62 2.18-.42.67-.95 1.2-1.64 1.56-.68.37-1.4.54-2.2.52h-3v5.78h-1.85zm4.9-7.54c.7 0 1.3-.24 1.77-.73.48-.5.74-1.07.74-1.76 0-.68-.26-1.27-.74-1.76-.48-.5-1.08-.73-1.77-.73H657v5h3.08zM665.86 275.94v-14.28h1.84v14.28zM669.28 273c0-2.23 2-3.42 4.3-3.42.95-.02 1.84.18 2.67.6v-.28c-.05-.58-.25-1.1-.64-1.54-.38-.44-.84-.72-1.42-.83-.57-.12-1.13-.05-1.65.2-.53.26-.92.65-1.18 1.17l-1.68-.72c.46-.9 1.15-1.54 2.05-1.97.9-.4 1.84-.5 2.83-.3 1 .23 1.8.72 2.44 1.5.63.75.95 1.64 1 2.64v5.9h-1.75v-1.36h-.1c-.34.55-.8.97-1.37 1.27-.58.3-1.2.44-1.84.4-.62.07-1.2-.04-1.77-.3-.58-.3-1-.7-1.36-1.22-.33-.54-.52-1.1-.52-1.74zm7-1.27c-.72-.47-1.48-.68-2.33-.63-1.93 0-2.7 1-2.7 1.93.06.5.3.88.68 1.18.4.3.83.44 1.3.38.8 0 1.5-.27 2.08-.82.58-.55.9-1.23.95-2.03zM680.64 272.97v-5.13h-1.72v-1.67h1.72v-3h1.84v3h2.4v1.67h-2.4v5c0 1.1.5 1.6 1.34 1.6.3 0 .55-.05.83-.17l.64 1.57c-.5.2-.98.28-1.48.26-.58.07-1.13-.03-1.66-.3s-.92-.67-1.2-1.18c-.27-.52-.38-1.07-.32-1.65zM692.6 261.84l-.62 1.57c-.27-.1-.53-.16-.83-.15-.3-.02-.57.04-.85.2-.27.14-.48.35-.62.62-.13.27-.18.56-.16.86v1.24h2.46v1.67h-2.55v8.1h-1.84v-8.1h-1.85v-1.67h1.84v-1.3c-.03-.62.1-1.2.43-1.72.32-.53.76-.94 1.3-1.22.56-.3 1.13-.4 1.76-.35.5-.03 1.02.06 1.5.26zM702.6 271.06c0 1.38-.47 2.56-1.46 3.55-1 .98-2.2 1.48-3.57 1.48-1.38 0-2.57-.5-3.56-1.47-.98-.98-1.47-2.16-1.47-3.55 0-1.38.5-2.57 1.48-3.55 1-.98 2.2-1.47 3.57-1.47 1.38 0 2.58.5 3.57 1.47 1 .98 1.47 2.17 1.47 3.56zm-1.83 0c.07-.74-.12-1.4-.5-2-.4-.63-.97-1.05-1.66-1.3-.68-.22-1.37-.22-2.06 0-.7.25-1.27.68-1.66 1.3-.4.6-.57 1.26-.5 2-.07.73.1 1.4.5 2 .4.62.97 1.04 1.66 1.28.7.24 1.38.24 2.07 0 .7-.24 1.27-.66 1.66-1.27.4-.62.58-1.28.5-2zM704.08 275.94v-9.77h1.77v1.6h.07c.25-.56.67-1 1.17-1.33.5-.33 1.07-.5 1.67-.5.5-.03.95.05 1.38.23l-.7 1.7c-.33-.1-.65-.14-1-.13-.48.02-.92.16-1.33.43-.42.26-.74.6-.95 1.05-.2.43-.32.9-.27 1.38v5.34zm0 0M711.14 266.17h1.75v1.35h.08c.35-.5.78-.9 1.3-1.2.54-.3 1.12-.45 1.72-.47.66-.06 1.26.1 1.84.44.57.33.98.8 1.24 1.42.36-.6.87-1.05 1.47-1.38.6-.33 1.26-.5 1.95-.5 2.4 0 3.5 1.7 3.5 4.12v5.98h-1.84v-5.7c0-2-.78-2.72-2.18-2.72-1.4 0-2.5 1.52-2.5 3v5.4h-1.83v-5.7c0-1.98-.78-2.7-2.18-2.7-1.4 0-2.5 1.52-2.5 3v5.4h-1.85v-9.75z" fill="#737373"/><path d="M514.38 275.95l-2.88 5h-7.52c-.34 0-.64-.1-.94-.26-.3-.18-.53-.4-.7-.7l-6.06-10.6c-.16-.3-.26-.6-.26-.94 0-.33.1-.64.26-.93l2.3-4.05 2.85 5 4.32 7.47zm0 0" fill="#ffcc40"/><path d="M523.88 269.4l-6.1 10.6c-.16.3-.4.52-.7.7-.3.16-.6.24-.93.24h-4.65l2.88-5 4.32-7.47-4.32-7.48h5.68l3.77 6.54c.16.3.28.6.28.92 0 .34-.06.65-.22.94z" fill="#da4437"/><path d="M520.06 261h-14.3l-4.3 7.47-2.88-5 3.77-6.53c.16-.3.4-.52.7-.7.3-.16.6-.24.93-.24h12.17c.34 0 .64.08.94.25.3.17.52.4.68.7z" fill="#4284f3"/><path d="M514.38 261l4.32 7.47-4.32 7.48h-8.63l-4.3-7.48 4.3-7.48z" fill="#dfdfdf"/><path d="M506.33 268.47c0-2.07 1.68-3.74 3.75-3.74 2.07 0 3.75 1.67 3.75 3.74 0 2.06-1.68 3.74-3.75 3.74-2.07 0-3.75-1.66-3.75-3.73z" fill="#fff"/><path d="M502.35 257.1c.16-.3.4-.52.7-.7.3-.16.6-.24.93-.24h12.17c.34 0 .64.08.94.25.3.18.52.4.68.7l2.28 3.9-2.28-4.06c-.16-.3-.4-.52-.7-.7-.3-.16-.6-.24-.93-.24h-12.17c-.34 0-.64.08-.94.25-.3.17-.53.4-.7.7l-3.76 6.53v.08z" fill="#fff" fill-opacity=".2"/><path d="M501.45 268.47l4.3-7.48h14.35l-.07-.17h-14.28l-4.3 7.48" fill="#1a237e" fill-opacity=".2"/><path d="M496.28 267.7l2.3-4 2.87 5 4.3 7.47h8.56l.08-.16h-8.63l-4.3-7.53-2.87-5-2.33 4c-.18.3-.25.64-.23 1 .03-.28.12-.54.26-.78zm0 0" fill="#fff" fill-opacity=".2"/><path d="M511.6 280.78h-7.62c-.34 0-.64-.08-.94-.25-.3-.17-.53-.4-.7-.7l-6.06-10.58c-.14-.26-.23-.55-.26-.85-.02.36.07.7.26 1l6.07 10.6c.16.3.4.52.7.7.3.16.6.24.93.24h7.52z" fill="#be360c"/><path d="M518.8 268.47l-4.33-7.48h-.1l4.33 7.47zM523.88 269.25l-6.1 10.6c-.16.28-.4.5-.7.68-.3.17-.6.25-.93.25h-4.56l-.1.16h4.65c.34 0 .64-.08.94-.25.3-.18.52-.4.68-.7l6.1-10.6c.18-.3.25-.63.23-1-.02.3-.1.6-.22.85zm0 0" fill="#3e2723"/><path d="M520.06 261.15l3.77 6.55c.14.26.23.55.25.85.03-.36-.07-.7-.25-1l-3.77-6.56h-5.68l.1.15M514.38 276.1l4.4-7.63h-.08l-4.32 7.48-2.88 5h.1z" fill="#fff"/><path d="M523.88 267.54l-3.82-6.55-2.28-4.06c-.16-.3-.4-.52-.7-.7-.3-.16-.6-.24-.93-.24h-12.17c-.34 0-.64.08-.94.25-.3.17-.53.4-.7.7l-6.06 10.6c-.16.28-.26.6-.26.93 0 .33.1.64.26.93l6.07 10.6c.16.3.4.52.7.7.3.16.6.24.93.24h12.17c.34 0 .64-.08.94-.25.3-.18.52-.4.68-.7l6.1-10.6c.16-.28.25-.6.25-.92 0-.34-.1-.65-.25-.94z" fill="#fff" fill-opacity="0"/><path d="M0-20h1760v80H0z" fill="#4285f4" filter="url(#a)"/><path d="M32 1c0-2.76 2.24-5 5-5h838c2.76 0 5 2.24 5 5v38c0 2.76-2.24 5-5 5H37c-2.76 0-5-2.24-5-5z" fill="none"/><use xlink:href="#b" transform="matrix(1,0,0,1,32,-4) translate(2.01 32.986111111111114)"/><path d="M1040 1c0-2.76 2.24-5 5-5h678c2.76 0 5 2.24 5 5v38c0 2.76-2.24 5-5 5h-678c-2.76 0-5-2.24-5-5z" fill="none"/><use xlink:href="#c" transform="matrix(1,0,0,1,1040,-4) translate(345.71484375000335 32.616319444444244)"/><use xlink:href="#d" transform="matrix(1,0,0,1,1040,-4) translate(425.4240451388915 32.616319444444244)"/><use xlink:href="#e" transform="matrix(1,0,0,1,1040,-4) translate(527.3012152777794 32.616319444444244)"/><use xlink:href="#f" transform="matrix(1,0,0,1,1040,-4) translate(549.2196180555569 32.616319444444244)"/><use xlink:href="#g" transform="matrix(1,0,0,1,1040,-4) translate(603.2669270833342 32.616319444444244)"/><use xlink:href="#h" transform="matrix(1,0,0,1,1040,-4) translate(638.0868055555561 32.616319444444244)"/><path d="M0 1308h1760v32H0z" fill="#e0e0e0"/><path d="M900 425c0-2.76 2.24-5 5-5h630c2.76 0 5 2.24 5 5v570c0 2.76-2.24 5-5 5H905c-2.76 0-5-2.24-5-5z" stroke="#000" stroke-width="2" fill="#fff"/><use xlink:href="#i" transform="matrix(1,0,0,1,900,420) translate(320.005 286.275)"/><use xlink:href="#j" transform="matrix(1,0,0,1,900,420) translate(320.005 307.875)"/><path d="M1240 379c0-2.76 2.24-5 5-5h230c2.76 0 5 2.24 5 5v50c0 2.76-2.24 5-5 5h-230c-2.76 0-5-2.24-5-5z" stroke="#000" stroke-opacity="0" stroke-width="2" fill="#fff" fill-opacity="0"/><use xlink:href="#k" transform="matrix(1,0,0,1,1240,373.9999999999999) translate(37.005 33.15)"/><use xlink:href="#l" transform="matrix(1,0,0,1,1240,373.9999999999999) translate(99.00500000000001 33.15)"/><path d="M688.08 468.04l-26.04-45.4c-2.04-3.55-2.04-7.94 0-11.5l26.04-45.4c2.04-3.54 5.8-5.74 9.88-5.74h52.08c4.07 0 7.84 2.2 9.88 5.75l26.04 45.4c2.04 3.55 2.04 7.94 0 11.5l-26.04 45.4c-2.04 3.54-5.8 5.74-9.88 5.74h-52.08c-4.07 0-7.84-2.2-9.88-5.76zm0 0" fill="#0e62c2"/><path d="M779.18 434.42L743.8 398.8l-19.13-6.62-20.3 15.43 12.7 12.8-12.74 1.24 11.87 11.96-12.03 1.52 38.4 38.64h7.48c4.07 0 7.83-2.2 9.87-5.75z" fill="#0851b0"/><path d="M724 387.16l-19.84 11.54v8.9L724 419.16l19.84-11.54v-8.9zm11.85 15.86L724 409.9l-11.84-6.9v.02l11.84-6.88 11.84 6.87zm0 0" fill="#fff"/><path d="M704.16 412.65v8.92L724 433.1l19.84-11.53v-8.92L724 424.2" fill="#fff"/><path d="M704.16 426.18v8.9L724 446.64l19.84-11.54v-8.92L724 437.7" fill="#fff"/><use xlink:href="#m" transform="matrix(1,0,0,1,660,478.79) translate(22.1904296875 16.69921875)"/><use xlink:href="#n" transform="matrix(1,0,0,1,660,478.79) translate(73.0703125 16.69921875)"/><path d="M780.08 594.65l-26.04-45.4c-2.04-3.55-2.04-7.95 0-11.5l26.04-45.4c2.04-3.55 5.8-5.74 9.88-5.74h52.08c4.07 0 7.84 2.2 9.88 5.75l26.04 45.4c2.04 3.55 2.04 7.95 0 11.5l-26.04 45.4c-2.04 3.55-5.8 5.75-9.88 5.75h-52.08c-4.07 0-7.84-2.2-9.88-5.75zm0 0" fill="#0e62c2"/><path d="M871.18 561.02L835.8 525.4l-19.13-6.62-20.3 15.43 12.7 12.8-12.74 1.25 11.87 11.95-12.03 1.53 38.4 38.63h7.48c4.07 0 7.83-2.2 9.87-5.75z" fill="#0851b0"/><path d="M816 513.77l-19.84 11.53v8.9L816 545.76l19.84-11.54v-8.9zm11.85 15.86L816 536.5l-11.84-6.88 11.84-6.88 11.84 6.88zm0 0" fill="#fff"/><path d="M796.16 539.26v8.92L816 559.7l19.84-11.52v-8.92L816 550.8" fill="#fff"/><path d="M796.16 552.8v8.9L816 573.23l19.84-11.53v-8.9L816 564.3" fill="#fff"/><use xlink:href="#m" transform="matrix(1,0,0,1,752,605.3950000000186) translate(22.1904296875 16.69921875)"/><use xlink:href="#n" transform="matrix(1,0,0,1,752,605.3950000000186) translate(73.0703125 16.69921875)"/><path d="M628.08 628.04l-26.04-45.4c-2.04-3.55-2.04-7.94 0-11.5l26.04-45.4c2.04-3.54 5.8-5.74 9.88-5.74h52.08c4.07 0 7.84 2.2 9.88 5.75l26.04 45.4c2.04 3.55 2.04 7.94 0 11.5l-26.04 45.4c-2.04 3.54-5.8 5.74-9.88 5.74h-52.08c-4.07 0-7.84-2.2-9.88-5.76zm0 0" fill="#0e62c2"/><path d="M719.18 594.42L683.8 558.8l-19.13-6.62-20.3 15.43 12.7 12.8-12.74 1.24 11.87 11.96-12.03 1.52 38.4 38.64h7.48c4.07 0 7.83-2.2 9.87-5.75z" fill="#0851b0"/><path d="M664 547.16l-19.84 11.54v8.9L664 579.16l19.84-11.54v-8.9zm11.85 15.86L664 569.9l-11.84-6.9v.02l11.84-6.88 11.84 6.87zm0 0" fill="#fff"/><path d="M644.16 572.65v8.92L664 593.1l19.84-11.53v-8.92L664 584.2" fill="#fff"/><path d="M644.16 586.18v8.9L664 606.64l19.84-11.54v-8.92L664 597.7" fill="#fff"/><use xlink:href="#m" transform="matrix(1,0,0,1,600,638.79) translate(22.1904296875 16.69921875)"/><use xlink:href="#n" transform="matrix(1,0,0,1,600,638.79) translate(73.0703125 16.69921875)"/><path d="M991.87 766.9l-26.3-45.26c-1.05-1.76-1.57-3.67-1.57-5.73 0-2.05.52-3.96 1.57-5.73l26.2-45.37c1-1.8 2.4-3.22 4.2-4.25 1.8-1.04 3.72-1.55 5.8-1.53h52.47c2.06 0 4 .53 5.77 1.56 1.8 1.04 3.2 2.44 4.24 4.22l26.2 45.37c1.04 1.77 1.56 3.68 1.56 5.74 0 2.07-.52 3.98-1.57 5.74l-26.2 45.37c-1.03 1.8-2.44 3.2-4.22 4.23-1.77 1.04-3.7 1.55-5.76 1.56h-52.38c-2.06-.07-3.98-.6-5.76-1.66-1.78-1.05-3.18-2.46-4.23-4.23zm0 0" fill="#0e62c2"/><path d="M1053.64 700.3l-25.6-11.37-24.48 13.26-1 29.2 41.3 41.2h10.48c2.06-.03 4-.54 5.78-1.57 1.77-1.04 3.18-2.44 4.22-4.23l20.5-35.5z" fill="#0851b0"/><path d="M1053.04 699.9l-23.7-13.66c-.4-.25-.85-.37-1.34-.37-.5 0-.93.12-1.34.37l-23.6 13.66c-.4.22-.74.55-.97.96-.24.4-.35.86-.34 1.33v27.2c0 .48.12.92.35 1.33.24.4.56.74.97.98l23.68 13.67c.4.25.87.37 1.35.37.5 0 .94-.12 1.35-.37l23.6-13.57c.4-.22.73-.54.96-.95.24-.4.36-.86.34-1.33V702.2c0-.47-.13-.9-.36-1.3-.23-.42-.55-.75-.94-1zm-3.2 27.02l-8.3-4.8v-12.55l-12.2 6.98v14.06l10.9-6.27 8.3 4.8-20.5 11.86-20.48-11.88 8.3-4.8 10.9 6.3v-13.96l-12.2-7v12.47l-8.3 4.7v-23.54l20.5-11.78V701l-10.9 6.28 12.2 6.98 12.2-6.98-10.92-6.28v-9.48l20.5 11.77z" fill="#fff"/><use xlink:href="#o" transform="matrix(1,0,0,1,964,777.79) translate(25.24462890625 16.69921875)"/><use xlink:href="#p" transform="matrix(1,0,0,1,964,777.79) translate(36.95166015625 37.79296875)"/><path d="M1347.87 714.5l-26.3-45.25c-1.05-1.77-1.57-3.68-1.57-5.74 0-2.05.52-3.96 1.57-5.72l26.2-45.37c1-1.8 2.4-3.2 4.2-4.25 1.8-1.03 3.72-1.55 5.8-1.52h52.47c2.06 0 4 .52 5.77 1.56 1.8 1.02 3.2 2.42 4.24 4.2l26.2 45.38c1.04 1.76 1.56 3.67 1.56 5.73 0 2.07-.52 3.98-1.57 5.75l-26.2 45.36c-1.03 1.8-2.44 3.2-4.22 4.24-1.77 1.03-3.7 1.54-5.76 1.55h-52.38c-2.06-.06-3.98-.6-5.76-1.65-1.78-1.05-3.18-2.46-4.23-4.24zm0 0" fill="#0e62c2"/><path d="M1395.65 639.04l-3.1 6.67-6.8-6.77-3.1 6.68-6.6-6.56-1.6 8.06-5.9 1-1.2 5.28-7.7 1.8 6.9 6.9-6.8 2.98 6.8 6.77-6.9 2.9 45.5 45.37h5.2c2.05 0 4-.52 5.77-1.56 1.77-1.04 3.18-2.45 4.22-4.23l18.7-32.3z" fill="#0851b0"/><path d="M1389.85 656.58h-11.4c-.2 0-.4.05-.6.15-.2.1-.35.25-.45.44-.1.2-.16.4-.15.6v11.37c0 .22.04.4.15.6.1.2.25.35.44.45.2.1.4.15.62.14h11.4c.32 0 .6-.13.83-.35.22-.24.35-.53.35-.86v-11.36c.02-.22-.05-.4-.15-.6-.1-.2-.26-.35-.45-.45-.2-.1-.38-.16-.6-.15z" fill="#fff"/><path d="M1407.94 655.68c.3 0 .56-.1.78-.33.2-.2.32-.45.32-.76v-1.8c0-.3-.1-.57-.32-.78-.22-.22-.48-.33-.78-.33h-5.6v-5.2c.02-.2-.05-.4-.15-.6-.1-.2-.25-.33-.45-.44-.2-.1-.4-.16-.6-.14h-5.2v-5.5c0-.3-.1-.55-.33-.76-.22-.22-.47-.33-.78-.33h-1.8c-.3 0-.55.1-.77.33-.22.2-.32.46-.32.77v5.58h-5.9v-5.57c0-.3-.1-.56-.32-.77-.22-.22-.48-.33-.78-.33h-1.8c-.3 0-.56.1-.78.33-.2.2-.32.46-.32.77v5.58h-5.9v-5.57c0-.3-.1-.56-.32-.77-.2-.22-.47-.33-.78-.33h-1.8c-.3 0-.55.1-.77.33-.22.2-.32.46-.32.77v5.58h-5.2c-.2 0-.42.05-.6.16-.2.1-.36.25-.46.44-.1.2-.15.4-.14.6v5.2h-5.5c-.3 0-.55.1-.77.32-.23.22-.34.47-.34.77v1.78c0 .3.1.56.33.78.2.2.45.33.76.33h5.5v5.66h-5.5c-.3 0-.55.12-.77.33-.23.2-.34.46-.34.77v1.78c0 .3.1.56.33.78.2.2.45.33.76.33h5.5v5.88h-5.5c-.3 0-.55.1-.77.32-.23.2-.34.47-.34.77v1.8c0 .3.1.56.33.77.2.22.45.32.76.32h5.5v5.1c0 .2.04.4.14.6.1.2.26.33.45.44.2.1.4.16.6.14h5.2v5.6c0 .3.1.55.33.76.22.22.46.32.77.32h1.8c.3 0 .57-.1.78-.32.22-.2.32-.46.32-.77v-5.6h5.9v5.6c0 .3.1.55.32.76.22.22.48.32.8.32h1.88c.3 0 .56-.1.78-.32.22-.2.32-.46.32-.77v-5.6h5.9v5.6c0 .3.1.55.32.76.22.22.47.32.78.32h1.8c.3 0 .56-.1.77-.32.22-.2.32-.46.32-.77v-5.6h5.2c.33 0 .62-.12.85-.35.22-.23.34-.5.34-.84v-5.18h5.6c.3 0 .56-.1.78-.32.22-.2.32-.46.32-.77v-1.8c0-.3-.1-.56-.32-.77-.22-.22-.47-.32-.78-.32h-5.6v-5.78h5.6c.3 0 .56-.12.78-.33.22-.22.32-.47.32-.78v-1.78c0-.2 0-.38-.1-.55-.1-.17-.2-.3-.37-.4-.17-.1-.34-.16-.53-.16h-5.7v-5.78zm-9.7 21.94h-28.18V649.4h28.2zm0 0z" fill="#fff"/><use xlink:href="#q" transform="matrix(1,0,0,1,1320,725.3949999999813) translate(27.40234375 16.69921875)"/><use xlink:href="#p" transform="matrix(1,0,0,1,1320,725.3949999999813) translate(36.95166015625 37.79296875)"/><path d="M580 1005c0-2.76 2.24-5 5-5h310c2.76 0 5 2.24 5 5v70c0 2.76-2.24 5-5 5H585c-2.76 0-5-2.24-5-5z" stroke="#000" stroke-opacity="0" stroke-width="2" fill="#fff" fill-opacity="0"/><use xlink:href="#r" transform="matrix(1,0,0,1,580,1000) translate(33.255 32.11875)"/><use xlink:href="#s" transform="matrix(1,0,0,1,580,1000) translate(113.20500000000001 32.11875)"/><use xlink:href="#t" transform="matrix(1,0,0,1,580,1000) translate(146.205 32.11875)"/><use xlink:href="#u" transform="matrix(1,0,0,1,580,1000) translate(218.805 32.11875)"/><use xlink:href="#v" transform="matrix(1,0,0,1,580,1000) translate(272.805 32.11875)"/><use xlink:href="#w" transform="matrix(1,0,0,1,580,1000) translate(37.105 53.71875)"/><use xlink:href="#x" transform="matrix(1,0,0,1,580,1000) translate(98.055 53.71875)"/><use xlink:href="#y" transform="matrix(1,0,0,1,580,1000) translate(140.005 53.71875)"/><use xlink:href="#z" transform="matrix(1,0,0,1,580,1000) translate(219.955 53.71875)"/><use xlink:href="#A" transform="matrix(1,0,0,1,580,1000) translate(243.955 53.71875)"/><path d="M1261 552c0-2.76 2.24-5 5-5h230c2.76 0 5 2.24 5 5v50c0 2.76-2.24 5-5 5h-230c-2.76 0-5-2.24-5-5z" stroke="#000" stroke-opacity="0" stroke-width="2" fill="#fff" fill-opacity="0"/><use xlink:href="#B" transform="matrix(1,0,0,1,1261,547) translate(58.97999999999998 33.15)"/><use xlink:href="#C" transform="matrix(1,0,0,1,1261,547) translate(154.08 33.15)"/><path d="M400 432c0-2.76 2.24-5 5-5h230c2.76 0 5 2.24 5 5v50c0 2.76-2.24 5-5 5H405c-2.76 0-5-2.24-5-5z" stroke="#000" stroke-opacity="0" stroke-width="2" fill="#fff" fill-opacity="0"/><use xlink:href="#D" transform="matrix(1,0,0,1,400,426.99999999999994) translate(15.154999999999996 19.41)"/><use xlink:href="#E" transform="matrix(1,0,0,1,400,426.99999999999994) translate(69.055 19.41)"/><use xlink:href="#F" transform="matrix(1,0,0,1,400,426.99999999999994) translate(100.05499999999999 19.41)"/><use xlink:href="#G" transform="matrix(1,0,0,1,400,426.99999999999994) translate(188.95499999999998 19.41)"/><use xlink:href="#H" transform="matrix(1,0,0,1,400,426.99999999999994) translate(68.10499999999999 41.01)"/><use xlink:href="#I" transform="matrix(1,0,0,1,400,426.99999999999994) translate(128.055 41.01)"/><path d="M1320 750c0-2.76 2.24-5 5-5h230c2.76 0 5 2.24 5 5v90c0 2.76-2.24 5-5 5h-230c-2.76 0-5-2.24-5-5z" stroke="#000" stroke-opacity="0" stroke-width="2" fill="#fff" fill-opacity="0"/><use xlink:href="#D" transform="matrix(1,0,0,1,1320,745) translate(84.555 55.025)"/><use xlink:href="#J" transform="matrix(1,0,0,1,1320,745) translate(138.455 55.025)"/><path d="M920 850c0-2.76 2.24-5 5-5h226c2.76 0 5 2.24 5 5v132.36c0 2.77-2.24 5-5 5H925c-2.76 0-5-2.23-5-5z" stroke="#000" stroke-opacity="0" stroke-width="2" fill="#fff" fill-opacity="0"/><use xlink:href="#K" transform="matrix(1,0,0,1,920,845) translate(16.279999999999994 19.41)"/><use xlink:href="#L" transform="matrix(1,0,0,1,920,845) translate(52.279999999999994 19.41)"/><use xlink:href="#M" transform="matrix(1,0,0,1,920,845) translate(112.17999999999999 19.41)"/><use xlink:href="#N" transform="matrix(1,0,0,1,920,845) translate(146.18 19.41)"/><use xlink:href="#O" transform="matrix(1,0,0,1,920,845) translate(203.07999999999998 19.41)"/><use xlink:href="#P" transform="matrix(1,0,0,1,920,845) translate(7.604999999999999 41.01)"/><use xlink:href="#w" transform="matrix(1,0,0,1,920,845) translate(26.555 41.01)"/><use xlink:href="#x" transform="matrix(1,0,0,1,920,845) translate(87.505 41.01)"/><use xlink:href="#y" transform="matrix(1,0,0,1,920,845) translate(129.45499999999998 41.01)"/><use xlink:href="#Q" transform="matrix(1,0,0,1,920,845) translate(209.405 41.01)"/><use xlink:href="#R" transform="matrix(1,0,0,1,920,845) translate(12.28000000000001 62.61)"/><use xlink:href="#F" transform="matrix(1,0,0,1,920,845) translate(55.88000000000001 62.61)"/><use xlink:href="#z" transform="matrix(1,0,0,1,920,845) translate(144.78 62.61)"/><use xlink:href="#S" transform="matrix(1,0,0,1,920,845) translate(168.78 62.61)"/><use xlink:href="#T" transform="matrix(1,0,0,1,920,845) translate(49.63 84.21000000000001)"/><use xlink:href="#U" transform="matrix(1,0,0,1,920,845) translate(98.48000000000002 84.21000000000001)"/><use xlink:href="#V" transform="matrix(1,0,0,1,920,845) translate(124.43 84.21000000000001)"/><use xlink:href="#W" transform="matrix(1,0,0,1,920,845) translate(7.8050000000000015 105.81)"/><use xlink:href="#u" transform="matrix(1,0,0,1,920,845) translate(70.305 105.81)"/><use xlink:href="#P" transform="matrix(1,0,0,1,920,845) translate(124.305 105.81)"/><use xlink:href="#X" transform="matrix(1,0,0,1,920,845) translate(143.255 105.81)"/><use xlink:href="#Y" transform="matrix(1,0,0,1,920,845) translate(174.20499999999998 105.81)"/><use xlink:href="#Z" transform="matrix(1,0,0,1,920,845) translate(38.57999999999999 127.41)"/><use xlink:href="#aa" transform="matrix(1,0,0,1,920,845) translate(76.53 127.41)"/><use xlink:href="#ab" transform="matrix(1,0,0,1,920,845) translate(120.53 127.41)"/><use xlink:href="#ac" transform="matrix(1,0,0,1,920,845) translate(179.43 127.41)"/><path d="M20 585c0-2.76 2.24-5 5-5h330c2.76 0 5 2.24 5 5v250c0 2.76-2.24 5-5 5H25c-2.76 0-5-2.24-5-5z" stroke="#000" stroke-width="2" fill="#fff"/><path d="M-20 545c0-2.76 2.24-5 5-5h230c2.76 0 5 2.24 5 5v50c0 2.76-2.24 5-5 5H-15c-2.76 0-5-2.24-5-5z" stroke="#000" stroke-opacity="0" stroke-width="2" fill="#fff" fill-opacity="0"/><use xlink:href="#ad" transform="matrix(1,0,0,1,-20,540) translate(71.405 33.15)"/><use xlink:href="#ae" transform="matrix(1,0,0,1,-20,540) translate(116.70499999999998 33.15)"/><path d="M125.96 681.34l-4.96 2.5v70.32l4.96 2.48 20.1-35.84-20.1-39.46z" fill="#9d5025"/><path d="M137.52 753.93l-11.56 2.7v-75.3l11.56 2.65v69.95z" fill="#f58536"/><path d="M131.43 678.58l6.1-3.04 28.97 46.58-28.96 40.32-6.1-3.04v-80.82z" fill="#9d5025"/><path d="M151.96 758.36l-14.43 4.08v-86.9l14.43 4.08v78.74z" fill="#f58536"/><path d="M144.32 672.13l7.66-3.85 42.72 58.92-42.72 42.5-7.66-3.85v-93.72z" fill="#9d5025"/><path d="M170.48 762.9l-18.5 6.8V668.28l18.5 6.8v87.82z" fill="#f58536"/><path d="M160.6 663.92l9.88-4.92 46.23 63.36L170.5 779l-9.87-4.92V663.92z" fill="#9d5025"/><path d="M220 754.16L170.47 779V659l49.5 24.84v70.32z" fill="#f58536"/><g><use xlink:href="#af" transform="matrix(1,0,0,1,121,779) translate(16.525 14.4)"/><use xlink:href="#ag" transform="matrix(1,0,0,1,121,779) translate(32.025 36)"/></g><path d="M20 845c0-2.76 2.24-5 5-5h350c2.76 0 5 2.24 5 5v132c0 2.76-2.24 5-5 5H25c-2.76 0-5-2.24-5-5z" stroke="#000" stroke-opacity="0" stroke-width="2" fill="#fff" fill-opacity="0"/><g><use xlink:href="#ah" transform="matrix(1,0,0,1,20,840) translate(64.50500000000001 32.15)"/><use xlink:href="#ai" transform="matrix(1,0,0,1,20,840) translate(97.505 32.15)"/><use xlink:href="#aj" transform="matrix(1,0,0,1,20,840) translate(47.855 53.75)"/><use xlink:href="#ak" transform="matrix(1,0,0,1,20,840) translate(103.755 53.75)"/><use xlink:href="#al" transform="matrix(1,0,0,1,20,840) translate(135.705 53.75)"/><use xlink:href="#am" transform="matrix(1,0,0,1,20,840) translate(172.60500000000002 53.75)"/><use xlink:href="#an" transform="matrix(1,0,0,1,20,840) translate(224.50500000000002 53.75)"/><use xlink:href="#ao" transform="matrix(1,0,0,1,20,840) translate(249.205 53.75)"/><use xlink:href="#ap" transform="matrix(1,0,0,1,20,840) translate(279.20500000000004 53.75)"/><use xlink:href="#F" transform="matrix(1,0,0,1,20,840) translate(5.904999999999982 75.35000000000001)"/><use xlink:href="#aq" transform="matrix(1,0,0,1,20,840) translate(94.80499999999999 75.35000000000001)"/><use xlink:href="#ar" transform="matrix(1,0,0,1,20,840) translate(122.755 75.35000000000001)"/><use xlink:href="#as" transform="matrix(1,0,0,1,20,840) translate(174.70499999999998 75.35000000000001)"/><use xlink:href="#at" transform="matrix(1,0,0,1,20,840) translate(228.605 75.35000000000001)"/><use xlink:href="#au" transform="matrix(1,0,0,1,20,840) translate(250.255 75.35000000000001)"/><use xlink:href="#av" transform="matrix(1,0,0,1,20,840) translate(335.105 75.35000000000001)"/><use xlink:href="#aw" transform="matrix(1,0,0,1,20,840) translate(30.02999999999998 96.95000000000002)"/><use xlink:href="#ax" transform="matrix(1,0,0,1,20,840) translate(125.27999999999999 96.95000000000002)"/><use xlink:href="#U" transform="matrix(1,0,0,1,20,840) translate(180.48 96.95000000000002)"/><use xlink:href="#ay" transform="matrix(1,0,0,1,20,840) translate(206.42999999999998 96.95000000000002)"/><use xlink:href="#az" transform="matrix(1,0,0,1,20,840) translate(291.38 96.95000000000002)"/><use xlink:href="#aA" transform="matrix(1,0,0,1,20,840) translate(73.58 118.55000000000001)"/><use xlink:href="#aB" transform="matrix(1,0,0,1,20,840) translate(135.53 118.55000000000001)"/><use xlink:href="#aC" transform="matrix(1,0,0,1,20,840) translate(170.53 118.55000000000001)"/><use xlink:href="#aD" transform="matrix(1,0,0,1,20,840) translate(208.48000000000002 118.55000000000001)"/></g><path d="M520 739v-14c0-2.76 2.24-5 5-5h136.76" stroke="#4285f4" stroke-width="2" fill="none"/><path fill="#4285f4"/><path d="M676.76 720l-14.26 4.64v-9.28z" stroke="#4285f4" stroke-width="2" fill="#4285f4"/><path d="M360 720h159.62c.2 0 .38.17.38.38v.38" stroke="#4285f4" stroke-width="2" fill="none"/><path d="M520 735.76l-4.64-14.26h9.28z" fill="#4285f4"/><path d="M520 739l-6-18.5h12zm-3.26-16.5l3.26 10.03 3.26-10.03z" fill="#4285f4"/><path d="M400 744c0-2.76 2.24-5 5-5h230c2.76 0 5 2.24 5 5v50c0 2.76-2.24 5-5 5H405c-2.76 0-5-2.24-5-5z" stroke="#000" stroke-opacity="0" stroke-width="2" fill="#fff" fill-opacity="0"/><g><use xlink:href="#aE" transform="matrix(1,0,0,1,400,739) translate(26.15500000000001 19.41)"/><use xlink:href="#aF" transform="matrix(1,0,0,1,400,739) translate(108.95500000000001 19.41)"/><use xlink:href="#aG" transform="matrix(1,0,0,1,400,739) translate(175.905 19.41)"/><use xlink:href="#aH" transform="matrix(1,0,0,1,400,739) translate(93.53 41.01)"/></g><path d="M707.87 949.12l-26.3-45.27c-1.05-1.76-1.57-3.67-1.57-5.73 0-2.06.52-3.97 1.57-5.74l26.2-45.37c1-1.78 2.4-3.2 4.2-4.24 1.8-1.04 3.72-1.55 5.8-1.53h52.47c2.06 0 4 .53 5.77 1.56 1.8 1.03 3.2 2.43 4.24 4.2l26.2 45.38c1.04 1.77 1.56 3.68 1.56 5.74s-.52 3.97-1.57 5.73l-26.2 45.37c-1.03 1.8-2.44 3.2-4.22 4.22-1.77 1.04-3.7 1.55-5.76 1.56h-52.38c-2.06-.06-3.98-.6-5.76-1.65-1.78-1.05-3.18-2.46-4.23-4.23zm0 0" fill="#0e62c2"/><path d="M769.64 882.5l-25.6-11.36-24.48 13.26-1 29.2 41.3 41.2h10.48c2.06-.02 4-.53 5.78-1.56 1.77-1.04 3.18-2.44 4.22-4.23l20.5-35.48z" fill="#0851b0"/><path d="M769.04 882.1l-23.7-13.65c-.4-.25-.85-.37-1.34-.37-.5 0-.93.12-1.34.37l-23.6 13.66c-.4.23-.74.56-.97.97-.24.4-.35.86-.34 1.33v27.22c0 .47.12.9.35 1.32.24.4.56.74.97.98l23.68 13.66c.4.25.87.37 1.35.37.5 0 .94-.12 1.35-.37l23.6-13.57c.4-.2.73-.53.96-.94.24-.4.36-.86.34-1.33V884.4c0-.46-.13-.9-.36-1.3-.23-.4-.55-.74-.94-1zm-3.2 27.03l-8.3-4.8V891.8l-12.2 6.98v14.06l10.9-6.28 8.3 4.8-20.5 11.86-20.48-11.87 8.3-4.8 10.9 6.3v-13.96l-12.2-7v12.47l-8.3 4.7V885.5l20.5-11.77v9.48l-10.9 6.3 12.2 6.97 12.2-6.98-10.92-6.3v-9.47l20.5 11.77z" fill="#fff"/><g><use xlink:href="#o" transform="matrix(1,0,0,1,680,960) translate(25.24462890625 16.69921875)"/><use xlink:href="#p" transform="matrix(1,0,0,1,680,960) translate(36.95166015625 37.79296875)"/></g><path d="M940 584c0-2.76 2.24-5 5-5h310c2.76 0 5 2.24 5 5v70c0 2.76-2.24 5-5 5H945c-2.76 0-5-2.24-5-5z" stroke="#000" stroke-opacity="0" stroke-width="2" fill="#fff" fill-opacity="0"/><g><use xlink:href="#r" transform="matrix(1,0,0,1,940,579) translate(18.305000000000014 32.11875)"/><use xlink:href="#s" transform="matrix(1,0,0,1,940,579) translate(98.25500000000002 32.11875)"/><use xlink:href="#aI" transform="matrix(1,0,0,1,940,579) translate(131.25500000000002 32.11875)"/><use xlink:href="#u" transform="matrix(1,0,0,1,940,579) translate(202.805 32.11875)"/><use xlink:href="#P" transform="matrix(1,0,0,1,940,579) translate(256.805 32.11875)"/><use xlink:href="#aJ" transform="matrix(1,0,0,1,940,579) translate(275.755 32.11875)"/><use xlink:href="#aK" transform="matrix(1,0,0,1,940,579) translate(41.554999999999986 53.71875)"/><use xlink:href="#ao" transform="matrix(1,0,0,1,940,579) translate(105.55499999999999 53.71875)"/><use xlink:href="#y" transform="matrix(1,0,0,1,940,579) translate(135.555 53.71875)"/><use xlink:href="#z" transform="matrix(1,0,0,1,940,579) translate(215.505 53.71875)"/><use xlink:href="#A" transform="matrix(1,0,0,1,940,579) translate(239.505 53.71875)"/></g><path d="M800 880h44.5c2.76 0 5-2.24 5-5v-68c0-2.76 2.24-5 5-5h26.26" stroke="#4285f4" stroke-width="2" fill="none"/><path d="M895.76 802l-14.26 4.64v-9.28z" fill="#4285f4"/><path d="M899 802l-18.5 6v-12zm-16.5 3.26l10.03-3.26-10.03-3.26z" fill="#4285f4"/><path d="M700 766.2c0-2.75 2.24-5 5-5h230c2.76 0 5 2.25 5 5v50c0 2.77-2.24 5-5 5H705c-2.76 0-5-2.23-5-5z" stroke="#000" stroke-opacity="0" stroke-width="2" fill="#fff" fill-opacity="0"/><g><use xlink:href="#aL" transform="matrix(1,0,0,1,700,761.2099999999627) translate(68.08 33.15)"/><use xlink:href="#aM" transform="matrix(1,0,0,1,700,761.2099999999627) translate(110.03 33.15)"/></g><path d="M1088.08 368.04l-26.04-45.4c-2.04-3.55-2.04-7.94 0-11.5l26.04-45.4c2.04-3.54 5.8-5.74 9.88-5.74h52.08c4.07 0 7.84 2.2 9.88 5.75l26.04 45.4c2.04 3.55 2.04 7.94 0 11.5l-26.04 45.4c-2.04 3.54-5.8 5.74-9.88 5.74h-52.08c-4.07 0-7.84-2.2-9.88-5.76zm0 0z" fill="#0e62c2"/><path d="M1138.76 373.8l-38.9-39.18 6.04-8.16-.26-10.82 11.46-1.03-8-8.03 5.4-3.33 24.2-8.1 39.96 40.23-18.74 32.67c-2.04 3.55-5.8 5.75-9.88 5.75zm0 0" fill="#0851b0"/><path d="M1122.26 305.66h3.48v21.73h-3.48zM1105.08 313.65h2.55v14.98h-3.47V314.6c0-.53.4-.95.92-.95zm0 0zM1140.37 313.65h2.55c.5 0 .92.42.92.94v14.03h-3.47zm0 0z" fill="#fff"/><path d="M1105.08 313.65h37.84c.24 0 .47.1.65.28.18.17.27.4.27.64v2.58h-39.68v-2.58c0-.5.4-.92.92-.92zm0 0zM1108.87 294.92h30.26v11.98h-30.26zM1117.55 324.38h12.9v10.5h-12.9zM1099.45 325.18c0-.43.35-.8.8-.8h11.28c.45 0 .8.36.8.8v8.9c0 .44-.34.8-.8.8h-11.27c-.45 0-.8-.35-.8-.8zm0 0M1135.66 324.38h12.9v10.5h-12.9z" fill="#fff"/><g><use xlink:href="#m" transform="matrix(1,0,0,1,1060,378.79) translate(18.61328125 16.69921875)"/><use xlink:href="#aN" transform="matrix(1,0,0,1,1060,378.79) translate(69.4931640625 16.69921875)"/><use xlink:href="#aO" transform="matrix(1,0,0,1,1060,378.79) translate(24.5458984375 37.79296875)"/></g><path d="M1024.67 659.02v-308.3c0-2.76 2.24-5 5-5h27.37" stroke="#4285f4" stroke-width="2" fill="none"/><path fill="#4285f4"/><path d="M1072.04 345.72l-14.26 4.64v-9.27z" fill="#4285f4"/><path d="M1075.28 345.72l-18.5 6.02V339.7zm-16.5 3.26l10.03-3.26-10.02-3.26z" fill="#4285f4"/><g filter="url(#aP)"><path d="M1660 262c0-1.1.9-2 2-2h84c1.1 0 2 .9 2 2v124c0 1.1-.9 2-2 2h-84c-1.1 0-2-.9-2-2z" stroke="#000" stroke-width="0" fill="#fff"/><path d="M1728 322c1.65 0 3.07-.6 4.25-1.76 1.17-1.17 1.75-2.58 1.75-4.24v-30c0-1.66-.58-3.07-1.75-4.24-1.18-1.17-2.6-1.76-4.25-1.76h-48c-1.65 0-3.07.6-4.25 1.76-1.17 1.17-1.75 2.58-1.75 4.24v30c0 1.66.58 3.07 1.75 4.24 1.18 1.17 2.6 1.76 4.25 1.76h-12v6h72v-6zm-48-36h48v30h-48z" fill="#757575"/><use xlink:href="#aQ" transform="matrix(1,0,0,1,1660,341) translate(13.253020019531252 20.24462890625)"/><use xlink:href="#aR" transform="matrix(1,0,0,1,1660,341) translate(30.451145507812498 35.87041015625)"/></g><path d="M1660 324h-232.76c-1.93 0-3.5-1.57-3.5-3.5 0-1.94-1.57-3.5-3.5-3.5h-214.52" stroke="#4285f4" stroke-width="2" fill="none"/><path fill="#4285f4"/><path d="M1204.98 321.63l-14.26-4.63 14.26-4.64z" fill="#4285f4"/><path d="M1205.98 323l-18.5-6 18.5-6.02zm-12.03-6l10.03 3.26v-6.52z" fill="#4285f4"/><path d="M840 265c0-2.76 2.24-5 5-5h230c2.76 0 5 2.24 5 5v50c0 2.76-2.24 5-5 5H845c-2.76 0-5-2.24-5-5z" stroke="#000" stroke-opacity="0" stroke-width="2" fill="#fff" fill-opacity="0"/><g><use xlink:href="#aS" transform="matrix(1,0,0,1,840,260) translate(18.57999999999999 19.41)"/><use xlink:href="#aT" transform="matrix(1,0,0,1,840,260) translate(63.57999999999999 19.41)"/><use xlink:href="#aU" transform="matrix(1,0,0,1,840,260) translate(137.48 19.41)"/><use xlink:href="#aV" transform="matrix(1,0,0,1,840,260) translate(202.43 19.41)"/><use xlink:href="#aW" transform="matrix(1,0,0,1,840,260) translate(38.105 41.01)"/><use xlink:href="#aX" transform="matrix(1,0,0,1,840,260) translate(112.00500000000001 41.01)"/><use xlink:href="#aY" transform="matrix(1,0,0,1,840,260) translate(145.005 41.01)"/></g><defs><filter id="a" filterUnits="objectBoundingBox" x="0" y="0" width="1" height="1.07"><feOffset result="offOut" in="SourceAlpha" dy="3"/><feGaussianBlur result="blurOut" in="offOut" stdDeviation="1.5"/><feColorMatrix result="colorOut" in="blurOut" values="0 0 0 0 0 0 0 0 0 0 0 0 0 0 0 0 0 0 0.1568627450980392 0"/><feBlend in="SourceGraphic" in2="colorOut"/></filter><path fill="#f6f6f6" d="M399-777c-11 316 60 556 342 556 113 0 193-24 241-72v-251H709v-221h573v581C1177-55 960 24 725 20 280 12 81-292 94-770c11-421 200-700 610-706 347-5 543 171 578 483H990c-25-157-105-241-277-241-102 0-180 38-233 115s-76 191-81 342" id="aZ"/><path fill="#f6f6f6" d="M687-225c189-1 272-84 286-260h300c-19 311-251 505-586 505C296 20 86-277 86-686c0-466 174-782 605-790 340-6 557 198 584 514H975c-15-183-92-268-284-268-100 0-173 38-225 108-63 84-76 264-76 443 0 157 24 272 72 345s122 109 225 109" id="ba"/><path fill="#f6f6f6" d="M1245-974c0 302-233 466-552 461H430V0H130v-1456h568c323 5 547 167 547 482zm-303 2c1-143-93-241-237-241H430v457h268c151 1 244-71 244-216" id="bb"/><path fill="#f6f6f6" d="M912 226H1V0h911v226" id="bc"/><path fill="#f6f6f6" d="M1248-1138c106 220 104 603 2 820-91 195-274 338-542 338C281 20 86-300 86-759c0-291 115-515 296-629 182-114 467-115 648 0 94 60 166 141 218 250zM940-344c111-153 110-617 0-765-57-77-133-119-234-119s-177 41-233 118c-64 88-83 240-83 415 0 149 27 264 82 346s133 123 236 123c101 0 176-40 232-118" id="bd"/><path fill="#f6f6f6" d="M522-1456L896-400l372-1056h394V0h-301c-7-379 15-728 30-1085L998 0H792L400-1084c15 357 37 705 30 1084H130v-1456h392" id="be"/><path fill="#f6f6f6" d="M1314 0h-300L430-958V0H130v-1456h300l585 960v-960h299V0" id="bf"/><path fill="#f6f6f6" d="M658-217c127 0 227-49 227-165 0-57-21-98-60-130-79-64-370-142-463-196-162-95-248-210-248-361 0-280 246-403 537-407 213-3 383 84 467 216 45 69 68 147 68 234H886c0-139-96-211-240-211-129 0-232 55-232 169 0 47 24 87 72 119s117 62 210 90c171 51 295 115 373 191s117 171 117 284c-2 272-237 411-528 404C331 13 78-135 69-458h301c0 161 96 241 288 241" id="bg"/><g id="b"><use transform="matrix(0.017361111111111112,0,0,0.017361111111111112,0,0)" xlink:href="#aZ"/><use transform="matrix(0.017361111111111112,0,0,0.017361111111111112,24.21875,0)" xlink:href="#ba"/><use transform="matrix(0.017361111111111112,0,0,0.017361111111111112,47.482638888888886,0)" xlink:href="#bb"/><use transform="matrix(0.017361111111111112,0,0,0.017361111111111112,70.41666666666666,0)" xlink:href="#bc"/><use transform="matrix(0.017361111111111112,0,0,0.017361111111111112,86.28472222222221,0)" xlink:href="#ba"/><use transform="matrix(0.017361111111111112,0,0,0.017361111111111112,109.5486111111111,0)" xlink:href="#bd"/><use transform="matrix(0.017361111111111112,0,0,0.017361111111111112,134.0972222222222,0)" xlink:href="#be"/><use transform="matrix(0.017361111111111112,0,0,0.017361111111111112,165.24305555555554,0)" xlink:href="#be"/><use transform="matrix(0.017361111111111112,0,0,0.017361111111111112,196.38888888888889,0)" xlink:href="#bd"/><use transform="matrix(0.017361111111111112,0,0,0.017361111111111112,220.9375,0)" xlink:href="#bf"/><use transform="matrix(0.017361111111111112,0,0,0.017361111111111112,246.04166666666666,0)" xlink:href="#bg"/></g><path fill="#f6f6f6" d="M1161-1018c0 201-122 330-278 388l342 618V0h-206L703-589H361V0H168v-1456h482c310-2 511 139 511 438zm-193 0c0-187-120-280-313-280H361v552h295c179 3 313-101 312-272" id="bh"/><path fill="#f6f6f6" d="M599-131c141 0 220-65 285-146l113 88C906-50 770 20 589 20 281 21 93-214 93-545c0-223 93-397 233-485 74-48 154-72 240-72 300 2 449 218 445 537v77H278c0 197 129 357 321 357zm227-509c-3-180-88-310-260-310-170 0-264 140-282 310h542" id="bi"/><path fill="#f6f6f6" d="M491 20c-241-1-355-148-355-398v-704h185v699c0 164 67 246 200 246 141 0 235-53 282-158v-787h185V0H812l-4-107C736-22 630 20 491 20" id="bj"/><path fill="#f6f6f6" d="M634-1102c292 0 422 254 422 573 0 298-143 547-420 549-137 0-242-48-317-145L310 0H140v-1536h185v573c75-93 178-139 309-139zm-44 965c207 0 281-175 281-413 0-224-79-395-283-395-122 0-210 57-263 170v468c57 113 145 170 265 170" id="bk"/><path fill="#f6f6f6" d="M589-945c-131 0-219 81-264 174V0H140v-1082h175l6 136c83-104 191-156 324-156 229 0 346 129 346 387V0H806v-716c-2-153-65-229-217-229" id="bl"/><g id="c"><use transform="matrix(0.010850694444444337,0,0,0.010850694444444337,0,0)" xlink:href="#bh"/><use transform="matrix(0.010850694444444337,0,0,0.010850694444444337,13.682725694444308,0)" xlink:href="#bi"/><use transform="matrix(0.010850694444444337,0,0,0.010850694444444337,25.455729166666412,0)" xlink:href="#bj"/><use transform="matrix(0.010850694444444337,0,0,0.010850694444444337,37.70616319444407,0)" xlink:href="#bk"/><use transform="matrix(0.010850694444444337,0,0,0.010850694444444337,50.17361111111061,0)" xlink:href="#bi"/><use transform="matrix(0.010850694444444337,0,0,0.010850694444444337,61.946614583332725,0)" xlink:href="#bl"/></g><path fill="#f6f6f6" d="M1216-1011c-1 297-202 441-512 441H361V0H169v-1456h537c297-6 510 164 510 445zm-192 2c1-178-126-288-307-289H361v571h345c196 1 318-92 318-282" id="bm"/><path fill="#f6f6f6" d="M561-1102c238-4 403 126 403 351v498c0 99 13 178 38 237V0H808c-11-21-19-59-26-114C696-25 593 20 474 20c-199 0-368-130-365-320 4-251 214-359 490-356h180v-85c-1-135-86-212-229-212-115 0-232 67-233 171H131c20-205 206-316 430-320zM294-326c0 117 90 185 207 185 122 0 239-75 278-162v-222H634c-227 0-340 66-340 199" id="bn"/><path fill="#f6f6f6" d="M538-131c121 0 232-49 232-156 0-50-20-88-56-117-73-60-334-92-420-143-92-55-162-110-162-238 0-190 192-317 400-317 223 0 414 129 413 338H759c0-108-110-186-227-186-119 0-215 53-215 159 0 45 18 78 53 101 76 52 331 90 416 139 98 57 169 115 169 251C955-92 760 20 538 20c-176 0-314-68-386-174-38-55-57-115-57-179h185c6 129 116 202 258 202" id="bo"/><path fill="#f6f6f6" d="M524 20C238 18 95-240 95-550c0-307 146-552 431-552 128 0 229 43 303 129l8-109h170V416H822v-516C747-20 648 20 524 20zm48-970c-208 0-292 182-292 421 0 219 92 398 290 398 110 0 194-49 252-146v-530c-59-95-142-143-250-143" id="bp"/><path fill="#f6f6f6" d="M341 0H156v-1082h185V0zm-91-1264c-68 0-108-42-109-105 0-62 41-107 109-107s110 44 110 107-42 105-110 105" id="bq"/><g id="d"><use transform="matrix(0.010850694444444337,0,0,0.010850694444444337,0,0)" xlink:href="#bm"/><use transform="matrix(0.010850694444444337,0,0,0.010850694444444337,13.899739583333195,0)" xlink:href="#bn"/><use transform="matrix(0.010850694444444337,0,0,0.010850694444444337,25.987413194444187,0)" xlink:href="#bo"/><use transform="matrix(0.010850694444444337,0,0,0.010850694444444337,37.4457465277774,0)" xlink:href="#bp"/><use transform="matrix(0.010850694444444337,0,0,0.010850694444444337,50.07595486111061,0)" xlink:href="#bj"/><use transform="matrix(0.010850694444444337,0,0,0.010850694444444337,62.32638888888827,0)" xlink:href="#bq"/><use transform="matrix(0.010850694444444337,0,0,0.010850694444444337,67.7191840277771,0)" xlink:href="#bl"/><use transform="matrix(0.010850694444444337,0,0,0.010850694444444337,79.9804687499992,0)" xlink:href="#bq"/></g><path fill="#f6f6f6" d="M324 270H175v-1726h149V270" id="br"/><use transform="matrix(0.010850694444444337,0,0,0.010850694444444337,0,0)" xlink:href="#br" id="e"/><path fill="#f6f6f6" d="M512-137c164 0 267-115 267-285v-1034h193v1031c4 276-186 445-460 445C234 20 52-130 53-402h192c0 167 97 265 267 265" id="bs"/><g id="f"><use transform="matrix(0.010850694444444337,0,0,0.010850694444444337,0,0)" xlink:href="#bs"/><use transform="matrix(0.010850694444444337,0,0,0.010850694444444337,12.2612847222221,0)" xlink:href="#bj"/><use transform="matrix(0.010850694444444337,0,0,0.010850694444444337,24.511718749999755,0)" xlink:href="#bl"/><use transform="matrix(0.010850694444444337,0,0,0.010850694444444337,36.77300347222186,0)" xlink:href="#bi"/></g><path fill="#f6f6f6" d="M569-1476c255 0 440 146 439 390 0 143-91 314-274 512L344-151h731V0H121v-133l504-560c75-85 125-155 155-207 105-184 6-424-211-424-183 0-293 113-291 297H93c-3-270 199-449 476-449" id="bt"/><path fill="#f6f6f6" d="M884-462c0-185-111-323-291-323-113 0-183 39-239 93l-148-38 74-726h746v171H437l-44 397c71-42 152-63 243-63 273-2 433 205 433 487 0 293-170 484-461 484-260 0-436-159-454-403h175c20 156 111 252 279 252 182 0 276-140 276-331" id="bu"/><path fill="#f6f6f6" d="M134 290L29 218c97-132 105-239 98-437h181c1 144 5 239-50 347-34 67-74 121-124 162" id="bv"/><g id="g"><use transform="matrix(0.010850694444444337,0,0,0.010850694444444337,0,0)" xlink:href="#bt"/><use transform="matrix(0.010850694444444337,0,0,0.010850694444444337,12.478298611110986,0)" xlink:href="#bu"/><use transform="matrix(0.010850694444444337,0,0,0.010850694444444337,24.956597222221973,0)" xlink:href="#bv"/></g><path fill="#f6f6f6" d="M574-1476c351 0 454 237 460 615v240c0 217-37 378-111 483S733 20 576 20c-346 0-454-246-461-616v-247c0-214 37-373 111-477s190-156 348-156zm275 905c0-337 59-752-275-753-95 0-160 38-207 107-80 118-66 409-67 625 0 157 22 273 68 348s115 113 208 113c91 0 160-35 204-106s69-182 69-334" id="bw"/><path fill="#f6f6f6" d="M729 0H543v-1233l-373 137v-168l530-199h29V0" id="bx"/><path fill="#f6f6f6" d="M575-1476c247 0 432 154 429 400-2 161-97 271-213 327 135 56 245 179 247 356 3 257-200 413-463 413-265 0-466-156-463-413 2-176 108-302 243-357-115-56-207-166-209-326-4-246 181-400 429-400zm0 1345c168 0 278-101 278-266 0-161-118-276-280-276-163 0-276 113-276 276 0 167 108 266 278 266zm244-942c0-143-104-251-244-251-146 0-244 102-244 251 0 145 98 248 244 248s244-103 244-248" id="by"/><g id="h"><use transform="matrix(0.010850694444444337,0,0,0.010850694444444337,0,0)" xlink:href="#bt"/><use transform="matrix(0.010850694444444337,0,0,0.010850694444444337,12.478298611110986,0)" xlink:href="#bw"/><use transform="matrix(0.010850694444444337,0,0,0.010850694444444337,24.956597222221973,0)" xlink:href="#bx"/><use transform="matrix(0.010850694444444337,0,0,0.010850694444444337,37.43489583333296,0)" xlink:href="#by"/></g><path d="M185-189c-5-48-123-54-124 2 14 75 158 14 163 119 3 78-121 87-175 55-17-10-28-26-33-46l33-7c5 56 141 63 141-1 0-78-155-14-162-118-5-82 145-84 179-34 5 7 8 16 11 25" id="bz"/><path d="M84 4C-5 8 30-112 23-190h32v120c0 31 7 50 39 49 72-2 45-101 50-169h31l1 190h-30c-1-10 1-25-2-33-11 22-28 36-60 37" id="bA"/><path d="M115-194c53 0 69 39 70 98 0 66-23 100-70 100C84 3 66-7 56-30L54 0H23l1-261h32v101c10-23 28-34 59-34zm-8 174c40 0 45-34 45-75 0-40-5-75-45-74-42 0-51 32-51 76 0 43 10 73 51 73" id="bB"/><path d="M117-194c89-4 53 116 60 194h-32v-121c0-31-8-49-39-48C34-167 62-67 57 0H25l-1-190h30c1 10-1 24 2 32 11-22 29-35 61-36" id="bC"/><path d="M100-194c63 0 86 42 84 106H49c0 40 14 67 53 68 26 1 43-12 49-29l28 8c-11 28-37 45-77 45C44 4 14-33 15-96c1-61 26-98 85-98zm52 81c6-60-76-77-97-28-3 7-6 17-6 28h103" id="bD"/><path d="M59-47c-2 24 18 29 38 22v24C64 9 27 4 27-40v-127H5v-23h24l9-43h21v43h35v23H59v120" id="bE"/><g id="k"><use transform="matrix(0.05,0,0,0.05,0,0)" xlink:href="#bz"/><use transform="matrix(0.05,0,0,0.05,12,0)" xlink:href="#bA"/><use transform="matrix(0.05,0,0,0.05,22,0)" xlink:href="#bB"/><use transform="matrix(0.05,0,0,0.05,32,0)" xlink:href="#bC"/><use transform="matrix(0.05,0,0,0.05,42,0)" xlink:href="#bD"/><use transform="matrix(0.05,0,0,0.05,52,0)" xlink:href="#bE"/></g><path d="M27 0v-27h64v-190l-56 39v-29l58-41h29v221h61V0H27" id="bF"/><path d="M64 0c3-98 48-159 88-221H18v-27h164v26C143-157 98-101 97 0H64" id="bG"/><path d="M101-251c82-7 93 87 43 132L82-64C71-53 59-42 53-27h129V0H18c2-99 128-94 128-182 0-28-16-43-45-43s-46 15-49 41l-32-3c6-41 34-60 81-64" id="bH"/><path d="M33 0v-38h34V0H33" id="bI"/><path d="M205 0l-28-72H64L36 0H1l101-248h38L239 0h-34zm-38-99l-47-123c-12 45-31 82-46 123h93" id="bJ"/><path d="M160-131c35 5 61 23 61 61C221 17 115-2 30 0v-248c76 3 177-17 177 60 0 33-19 50-47 57zm-97-11c50-1 110 9 110-42 0-47-63-36-110-37v79zm0 115c55-2 124 14 124-45 0-56-70-42-124-44v89" id="bK"/><path d="M0 4l72-265h28L28 4H0" id="bL"/><path d="M155-56V0h-30v-56H8v-25l114-167h33v167h35v25h-35zm-30-156c-27 46-58 90-88 131h88v-131" id="bM"/><g id="l"><use transform="matrix(0.05,0,0,0.05,0,0)" xlink:href="#bF"/><use transform="matrix(0.05,0,0,0.05,10,0)" xlink:href="#bG"/><use transform="matrix(0.05,0,0,0.05,20,0)" xlink:href="#bH"/><use transform="matrix(0.05,0,0,0.05,30,0)" xlink:href="#bI"/><use transform="matrix(0.05,0,0,0.05,35,0)" xlink:href="#bJ"/><use transform="matrix(0.05,0,0,0.05,47,0)" xlink:href="#bI"/><use transform="matrix(0.05,0,0,0.05,52,0)" xlink:href="#bK"/><use transform="matrix(0.05,0,0,0.05,64,0)" xlink:href="#bI"/><use transform="matrix(0.05,0,0,0.05,69,0)" xlink:href="#bF"/><use transform="matrix(0.05,0,0,0.05,79,0)" xlink:href="#bL"/><use transform="matrix(0.05,0,0,0.05,84,0)" xlink:href="#bH"/><use transform="matrix(0.05,0,0,0.05,94,0)" xlink:href="#bM"/></g><path d="M688-137c238 0 323-102 359-325h193c-32 297-228 482-552 482-361 0-569-299-569-680 0-197 8-360 73-497 88-186 257-317 513-319 316-2 509 195 535 488h-193c-31-212-118-330-342-330-272 0-397 224-393 523v141c-3 282 115 517 376 517" id="bN"/><path d="M341 0H156v-1536h185V0" id="bO"/><path d="M584 20C278 26 81-227 91-551c10-320 175-545 491-551 308-5 503 247 494 573-9 322-175 543-492 549zm-2-970c-208 0-305 185-305 421 0 216 106 398 307 398 211 0 307-186 307-420 0-214-109-399-309-399" id="bP"/><path d="M491 20c-241-1-355-148-355-398v-704h185v699c0 164 67 246 200 246 141 0 235-53 282-158v-787h185V0H812l-4-107C736-22 630 20 491 20" id="bQ"/><path d="M520 20C244 20 95-247 95-550c0-298 151-550 427-552 127 0 227 43 301 130v-564h185V0H838l-9-116C755-25 652 20 520 20zm48-965c-210 0-288 177-288 416 0 218 87 392 286 392 117 0 203-53 257-158v-497c-55-102-140-153-255-153" id="bR"/><g id="m"><use transform="matrix(0.0087890625,0,0,0.0087890625,0,0)" xlink:href="#bN"/><use transform="matrix(0.0087890625,0,0,0.0087890625,11.7158203125,0)" xlink:href="#bO"/><use transform="matrix(0.0087890625,0,0,0.0087890625,16.083984375,0)" xlink:href="#bP"/><use transform="matrix(0.0087890625,0,0,0.0087890625,26.349609375,0)" xlink:href="#bQ"/><use transform="matrix(0.0087890625,0,0,0.0087890625,36.2724609375,0)" xlink:href="#bR"/></g><path d="M631-137c179 0 314-70 314-231 0-71-25-127-75-166s-141-77-272-115c-165-47-285-106-360-175s-112-154-112-255c0-245 231-397 495-397 206 0 369 89 449 218 43 68 65 142 65 223H942c0-184-129-283-321-283-172 0-299 76-301 236 0 59 26 109 76 150s135 78 256 113c205 59 345 116 436 256 35 53 50 119 50 193-2 256-231 398-507 390C333 12 90-129 80-422h193c0 187 160 285 358 285" id="bS"/><path d="M1281-774c0 326-74 568-255 695l260 204-131 121L848 2C681 41 515 15 391-64 196-188 109-439 109-773c0-282 107-505 279-617 171-112 445-111 616-1 174 112 277 332 277 617zM696-143c312 0 393-279 393-632 0-307-114-536-395-536-268 0-393 232-393 523v107c-3 297 122 538 395 538" id="bT"/><path d="M362-157h690V0H169v-1456h193v1299" id="bU"/><g id="n"><use transform="matrix(0.0087890625,0,0,0.0087890625,0,0)" xlink:href="#bS"/><use transform="matrix(0.0087890625,0,0,0.0087890625,10.6787109375,0)" xlink:href="#bT"/><use transform="matrix(0.0087890625,0,0,0.0087890625,23.0537109375,0)" xlink:href="#bU"/></g><path d="M589-945c-131 0-219 81-264 174V0H140v-1082h175l6 136c83-104 191-156 324-156 229 0 346 129 346 387V0H806v-716c-2-153-65-229-217-229" id="bV"/><path d="M456 20C285 20 205-92 206-268v-671H9v-143h197v-262h185v262h202v143H391v671c-9 125 92 149 207 118V0c-49 13-96 20-142 20" id="bW"/><path d="M561-1102c238-4 403 126 403 351v498c0 99 13 178 38 237V0H808c-11-21-19-59-26-114C696-25 593 20 474 20c-199 0-368-130-365-320 4-251 214-359 490-356h180v-85c-1-135-86-212-229-212-115 0-232 67-233 171H131c20-205 206-316 430-320zM294-326c0 117 90 185 207 185 122 0 239-75 278-162v-222H634c-227 0-340 66-340 199" id="bX"/><path d="M341 0H156v-1082h185V0zm-91-1264c-68 0-108-42-109-105 0-62 41-107 109-107s110 44 110 107-42 105-110 105" id="bY"/><path d="M599-131c141 0 220-65 285-146l113 88C906-50 770 20 589 20 281 21 93-214 93-545c0-223 93-397 233-485 74-48 154-72 240-72 300 2 449 218 445 537v77H278c0 197 129 357 321 357zm227-509c-3-180-88-310-260-310-170 0-264 140-282 310h542" id="bZ"/><path d="M663-916c-163-27-288 18-338 148V0H140v-1082h180l3 125c61-97 147-145 258-145 36 0 63 5 82 14v172" id="ca"/><g id="o"><use transform="matrix(0.0087890625,0,0,0.0087890625,0,0)" xlink:href="#bN"/><use transform="matrix(0.0087890625,0,0,0.0087890625,11.7158203125,0)" xlink:href="#bP"/><use transform="matrix(0.0087890625,0,0,0.0087890625,21.9814453125,0)" xlink:href="#bV"/><use transform="matrix(0.0087890625,0,0,0.0087890625,31.9130859375,0)" xlink:href="#bW"/><use transform="matrix(0.0087890625,0,0,0.0087890625,37.79296875,0)" xlink:href="#bX"/><use transform="matrix(0.0087890625,0,0,0.0087890625,47.583984375,0)" xlink:href="#bY"/><use transform="matrix(0.0087890625,0,0,0.0087890625,51.9521484375,0)" xlink:href="#bV"/><use transform="matrix(0.0087890625,0,0,0.0087890625,61.8837890625,0)" xlink:href="#bZ"/><use transform="matrix(0.0087890625,0,0,0.0087890625,71.419921875,0)" xlink:href="#ca"/></g><path d="M992-673H361v516h733V0H169v-1456h915v158H361v468h631v157" id="cb"/><path d="M521 20C240 20 96-239 96-550c0-303 147-552 427-552 132 0 235 47 309 140l9-120h169V-26c4 277-183 454-459 452-165-1-334-81-400-187l96-111c79 98 176 147 291 147 180 1 288-109 286-290v-93C750-23 649 20 521 20zm48-965c-209 0-287 178-287 416 0 217 86 392 285 392 117 0 202-53 257-159v-494c-57-103-142-155-255-155" id="cc"/><g id="p"><use transform="matrix(0.0087890625,0,0,0.0087890625,0,0)" xlink:href="#cb"/><use transform="matrix(0.0087890625,0,0,0.0087890625,10.23046875,0)" xlink:href="#bV"/><use transform="matrix(0.0087890625,0,0,0.0087890625,20.162109375,0)" xlink:href="#cc"/><use transform="matrix(0.0087890625,0,0,0.0087890625,30.2607421875,0)" xlink:href="#bY"/><use transform="matrix(0.0087890625,0,0,0.0087890625,34.62890625,0)" xlink:href="#bV"/><use transform="matrix(0.0087890625,0,0,0.0087890625,44.560546875,0)" xlink:href="#bZ"/></g><path d="M1240-945c-141 0-250 95-250 227V0H804v-709c0-157-77-236-231-236-121 0-204 52-249 155V0H139v-1082h175l5 120c79-93 186-140 321-140 151 0 254 58 309 174 69-98 181-174 345-174 237 0 362 126 362 377V0h-185v-714c-2-159-67-231-231-231" id="cd"/><path d="M632-1102c291 0 422 251 422 573 0 297-141 548-419 549-131 0-235-42-310-125v521H140v-1498h169l9 120c75-93 180-140 314-140zm-53 971c207 0 290-180 290-419 0-218-92-395-292-395-112 0-196 50-252 149v517c55 99 140 148 254 148" id="ce"/><g id="q"><use transform="matrix(0.0087890625,0,0,0.0087890625,0,0)" xlink:href="#bN"/><use transform="matrix(0.0087890625,0,0,0.0087890625,11.7158203125,0)" xlink:href="#bP"/><use transform="matrix(0.0087890625,0,0,0.0087890625,21.9814453125,0)" xlink:href="#cd"/><use transform="matrix(0.0087890625,0,0,0.0087890625,37.7578125,0)" xlink:href="#ce"/><use transform="matrix(0.0087890625,0,0,0.0087890625,47.8564453125,0)" xlink:href="#bQ"/><use transform="matrix(0.0087890625,0,0,0.0087890625,57.779296875,0)" xlink:href="#bW"/><use transform="matrix(0.0087890625,0,0,0.0087890625,63.6591796875,0)" xlink:href="#bZ"/></g><path d="M240 0l2-218c-23 76-54 145-80 218h-23L58-218 59 0H30v-248h44l77 211c21-75 51-140 76-211h43V0h-30" id="cf"/><path d="M141-36C126-15 110 5 73 4 37 3 15-17 15-53c-1-64 63-63 125-63 3-35-9-54-41-54-24 1-41 7-42 31l-33-3c5-37 33-52 76-52 45 0 72 20 72 64v82c-1 20 7 32 28 27v20c-31 9-61-2-59-35zM48-53c0 20 12 33 32 33 41-3 63-29 60-74-43 2-92-5-92 41" id="cg"/><path d="M177-190C167-65 218 103 67 71c-23-6-38-20-44-43l32-5c15 47 100 32 89-28v-30C133-14 115 1 83 1 29 1 15-40 15-95c0-56 16-97 71-98 29-1 48 16 59 35 1-10 0-23 2-32h30zM94-22c36 0 50-32 50-73 0-42-14-75-50-75-39 0-46 34-46 75s6 73 46 73" id="ch"/><path d="M85-194c31 0 48 13 60 33l-1-100h32l1 261h-30c-2-10 0-23-3-31C134-8 116 4 85 4 32 4 16-35 15-94c0-66 23-100 70-100zm9 24c-40 0-46 34-46 75 0 40 6 74 45 74 42 0 51-32 51-76 0-42-9-74-50-73" id="ci"/><g id="r"><use transform="matrix(0.05,0,0,0.05,0,0)" xlink:href="#cf"/><use transform="matrix(0.05,0,0,0.05,14.950000000000001,0)" xlink:href="#cg"/><use transform="matrix(0.05,0,0,0.05,24.950000000000003,0)" xlink:href="#bC"/><use transform="matrix(0.05,0,0,0.05,34.95,0)" xlink:href="#cg"/><use transform="matrix(0.05,0,0,0.05,44.95,0)" xlink:href="#ch"/><use transform="matrix(0.05,0,0,0.05,54.95,0)" xlink:href="#bD"/><use transform="matrix(0.05,0,0,0.05,64.95,0)" xlink:href="#ci"/></g><path d="M143 0L79-87 56-68V0H24v-261h32v163l83-92h37l-77 82L181 0h-38" id="cj"/><path d="M134-131c28 9 52 24 51 62-1 50-34 73-85 73S17-19 16-69c0-36 21-54 49-61-75-25-45-126 34-121 46 3 78 18 79 63 0 33-17 51-44 57zm-34-11c31 1 46-15 46-44 0-28-17-43-47-42-29 0-46 13-45 42 1 28 16 44 46 44zm1 122c35 0 51-18 51-52 0-30-18-46-53-46-33 0-51 17-51 47 0 34 19 51 53 51" id="ck"/><path d="M135-143c-3-34-86-38-87 0 15 53 115 12 119 90S17 21 10-45l28-5c4 36 97 45 98 0-10-56-113-15-118-90-4-57 82-63 122-42 12 7 21 19 24 35" id="cl"/><g id="s"><use transform="matrix(0.05,0,0,0.05,0,0)" xlink:href="#cj"/><use transform="matrix(0.05,0,0,0.05,9,0)" xlink:href="#ck"/><use transform="matrix(0.05,0,0,0.05,19,0)" xlink:href="#cl"/></g><path d="M109-170H84l-4-78h32zm-65 0H19l-4-78h33" id="cm"/><path d="M210-169c-67 3-38 105-44 169h-31v-121c0-29-5-50-35-48C34-165 62-65 56 0H25l-1-190h30c1 10-1 24 2 32 10-44 99-50 107 0 11-21 27-35 58-36 85-2 47 119 55 194h-31v-121c0-29-5-49-35-48" id="cn"/><path d="M114-163C36-179 61-72 57 0H25l-1-190h30c1 12-1 29 2 39 6-27 23-49 58-41v29" id="co"/><g id="t"><use transform="matrix(0.05,0,0,0.05,0,0)" xlink:href="#cm"/><use transform="matrix(0.05,0,0,0.05,6.3500000000000005,0)" xlink:href="#cn"/><use transform="matrix(0.05,0,0,0.05,21.3,0)" xlink:href="#cg"/><use transform="matrix(0.05,0,0,0.05,31.3,0)" xlink:href="#cl"/><use transform="matrix(0.05,0,0,0.05,40.3,0)" xlink:href="#bE"/><use transform="matrix(0.05,0,0,0.05,45.3,0)" xlink:href="#bD"/><use transform="matrix(0.05,0,0,0.05,55.29999999999999,0)" xlink:href="#co"/><use transform="matrix(0.05,0,0,0.05,61.25,0)" xlink:href="#cm"/></g><path d="M100-194c62-1 85 37 85 99 1 63-27 99-86 99S16-35 15-95c0-66 28-99 85-99zM99-20c44 1 53-31 53-75 0-43-8-75-51-75s-53 32-53 75 10 74 51 75" id="cp"/><g id="u"><use transform="matrix(0.05,0,0,0.05,0,0)" xlink:href="#bC"/><use transform="matrix(0.05,0,0,0.05,10,0)" xlink:href="#cp"/><use transform="matrix(0.05,0,0,0.05,20,0)" xlink:href="#ci"/><use transform="matrix(0.05,0,0,0.05,30,0)" xlink:href="#bD"/><use transform="matrix(0.05,0,0,0.05,40,0)" xlink:href="#cl"/></g><path d="M24-231v-30h32v30H24zM24 0v-190h32V0H24" id="cq"/><g id="v"><use transform="matrix(0.05,0,0,0.05,0,0)" xlink:href="#cq"/><use transform="matrix(0.05,0,0,0.05,3.95,0)" xlink:href="#bC"/></g><path d="M115-194c55 1 70 41 70 98S169 2 115 4C84 4 66-9 55-30l1 105H24l-1-265h31l2 30c10-21 28-34 59-34zm-8 174c40 0 45-34 45-75s-6-73-45-74c-42 0-51 32-51 76 0 43 10 73 51 73" id="cr"/><g id="w"><use transform="matrix(0.05,0,0,0.05,0,0)" xlink:href="#cr"/><use transform="matrix(0.05,0,0,0.05,10,0)" xlink:href="#bD"/><use transform="matrix(0.05,0,0,0.05,20,0)" xlink:href="#bD"/><use transform="matrix(0.05,0,0,0.05,30,0)" xlink:href="#co"/><use transform="matrix(0.05,0,0,0.05,35.95,0)" xlink:href="#bD"/><use transform="matrix(0.05,0,0,0.05,45.95,0)" xlink:href="#ci"/></g><path d="M137 0h-34L2-248h35l83 218 83-218h36" id="cs"/><path d="M30-248c87 1 191-15 191 75 0 78-77 80-158 76V0H30v-248zm33 125c57 0 124 11 124-50 0-59-68-47-124-48v98" id="ct"/><path d="M212-179c-10-28-35-45-73-45-59 0-87 40-87 99 0 60 29 101 89 101 43 0 62-24 78-52l27 14C228-24 195 4 139 4 59 4 22-46 18-125c-6-104 99-153 187-111 19 9 31 26 39 46" id="cu"/><g id="x"><use transform="matrix(0.05,0,0,0.05,0,0)" xlink:href="#cs"/><use transform="matrix(0.05,0,0,0.05,12,0)" xlink:href="#ct"/><use transform="matrix(0.05,0,0,0.05,24,0)" xlink:href="#cu"/></g><g id="y"><use transform="matrix(0.05,0,0,0.05,0,0)" xlink:href="#cn"/><use transform="matrix(0.05,0,0,0.05,14.950000000000001,0)" xlink:href="#cg"/><use transform="matrix(0.05,0,0,0.05,24.950000000000003,0)" xlink:href="#bC"/><use transform="matrix(0.05,0,0,0.05,34.95,0)" xlink:href="#cg"/><use transform="matrix(0.05,0,0,0.05,44.95,0)" xlink:href="#ch"/><use transform="matrix(0.05,0,0,0.05,54.95,0)" xlink:href="#bD"/><use transform="matrix(0.05,0,0,0.05,64.95,0)" xlink:href="#ci"/></g><path d="M179-190L93 31C79 59 56 82 12 73V49c39 6 53-20 64-50L1-190h34L92-34l54-156h33" id="cv"/><g id="z"><use transform="matrix(0.05,0,0,0.05,0,0)" xlink:href="#bB"/><use transform="matrix(0.05,0,0,0.05,10,0)" xlink:href="#cv"/></g><path d="M143 4C61 4 22-44 18-125c-5-107 100-154 193-111 17 8 29 25 37 43l-32 9c-13-25-37-40-76-40-61 0-88 39-88 99 0 61 29 100 91 101 35 0 62-11 79-27v-45h-74v-28h105v86C228-13 192 4 143 4" id="cw"/><g id="A"><use transform="matrix(0.05,0,0,0.05,0,0)" xlink:href="#cw"/><use transform="matrix(0.05,0,0,0.05,14,0)" xlink:href="#cu"/><use transform="matrix(0.05,0,0,0.05,26.950000000000003,0)" xlink:href="#ct"/></g><path d="M190 0L58-211 59 0H30v-248h39L202-35l-2-213h31V0h-41" id="cx"/><path d="M127-220V0H93v-220H8v-28h204v28h-85" id="cy"/><g id="B"><use transform="matrix(0.05,0,0,0.05,0,0)" xlink:href="#bJ"/><use transform="matrix(0.05,0,0,0.05,12,0)" xlink:href="#ci"/><use transform="matrix(0.05,0,0,0.05,22,0)" xlink:href="#cn"/><use transform="matrix(0.05,0,0,0.05,36.95,0)" xlink:href="#cq"/><use transform="matrix(0.05,0,0,0.05,40.900000000000006,0)" xlink:href="#bC"/><use transform="matrix(0.05,0,0,0.05,50.900000000000006,0)" xlink:href="#bL"/><use transform="matrix(0.05,0,0,0.05,55.900000000000006,0)" xlink:href="#cx"/><use transform="matrix(0.05,0,0,0.05,68.85000000000001,0)" xlink:href="#bJ"/><use transform="matrix(0.05,0,0,0.05,79.50000000000001,0)" xlink:href="#cy"/></g><g id="C"><use transform="matrix(0.05,0,0,0.05,0,0)" xlink:href="#cs"/><use transform="matrix(0.05,0,0,0.05,12,0)" xlink:href="#cf"/></g><path d="M24 0v-261h32V0H24" id="cz"/><path d="M96-169c-40 0-48 33-48 73s9 75 48 75c24 0 41-14 43-38l32 2c-6 37-31 61-74 61-59 0-76-41-82-99-10-93 101-131 147-64 4 7 5 14 7 22l-32 3c-4-21-16-35-41-35" id="cA"/><g id="D"><use transform="matrix(0.05,0,0,0.05,0,0)" xlink:href="#ct"/><use transform="matrix(0.05,0,0,0.05,12,0)" xlink:href="#bA"/><use transform="matrix(0.05,0,0,0.05,22,0)" xlink:href="#bB"/><use transform="matrix(0.05,0,0,0.05,32,0)" xlink:href="#cz"/><use transform="matrix(0.05,0,0,0.05,35.95,0)" xlink:href="#cq"/><use transform="matrix(0.05,0,0,0.05,39.900000000000006,0)" xlink:href="#cA"/></g><path d="M33 0v-248h34V0H33" id="cB"/><g id="E"><use transform="matrix(0.05,0,0,0.05,0,0)" xlink:href="#cB"/><use transform="matrix(0.05,0,0,0.05,5,0)" xlink:href="#ct"/><use transform="matrix(0.05,0,0,0.05,17,0)" xlink:href="#cl"/></g><g id="F"><use transform="matrix(0.05,0,0,0.05,0,0)" xlink:href="#cg"/><use transform="matrix(0.05,0,0,0.05,10,0)" xlink:href="#cA"/><use transform="matrix(0.05,0,0,0.05,19,0)" xlink:href="#cA"/><use transform="matrix(0.05,0,0,0.05,28,0)" xlink:href="#bD"/><use transform="matrix(0.05,0,0,0.05,38,0)" xlink:href="#cl"/><use transform="matrix(0.05,0,0,0.05,47,0)" xlink:href="#cl"/><use transform="matrix(0.05,0,0,0.05,56,0)" xlink:href="#cq"/><use transform="matrix(0.05,0,0,0.05,59.95,0)" xlink:href="#bB"/><use transform="matrix(0.05,0,0,0.05,69.95,0)" xlink:href="#cz"/><use transform="matrix(0.05,0,0,0.05,73.9,0)" xlink:href="#bD"/></g><path d="M101-234c-31-9-42 10-38 44h38v23H63V0H32v-167H5v-23h27c-7-52 17-82 69-68v24" id="cC"/><g id="G"><use transform="matrix(0.05,0,0,0.05,0,0)" xlink:href="#cC"/><use transform="matrix(0.05,0,0,0.05,5,0)" xlink:href="#co"/><use transform="matrix(0.05,0,0,0.05,10.95,0)" xlink:href="#cp"/><use transform="matrix(0.05,0,0,0.05,20.95,0)" xlink:href="#cn"/></g><g id="H"><use transform="matrix(0.05,0,0,0.05,0,0)" xlink:href="#bE"/><use transform="matrix(0.05,0,0,0.05,5,0)" xlink:href="#co"/><use transform="matrix(0.05,0,0,0.05,10.95,0)" xlink:href="#bA"/><use transform="matrix(0.05,0,0,0.05,20.95,0)" xlink:href="#cl"/><use transform="matrix(0.05,0,0,0.05,29.950000000000003,0)" xlink:href="#bE"/><use transform="matrix(0.05,0,0,0.05,34.95,0)" xlink:href="#bD"/><use transform="matrix(0.05,0,0,0.05,44.95,0)" xlink:href="#ci"/></g><path d="M30-248c118-7 216 8 213 122C240-48 200 0 122 0H30v-248zM63-27c89 8 146-16 146-99s-60-101-146-95v194" id="cD"/><path d="M233-177c-1 41-23 64-60 70L243 0h-38l-65-103H63V0H30v-248c88 3 205-21 203 71zM63-129c60-2 137 13 137-47 0-61-80-42-137-45v92" id="cE"/><g id="I"><use transform="matrix(0.05,0,0,0.05,0,0)" xlink:href="#cu"/><use transform="matrix(0.05,0,0,0.05,12.950000000000001,0)" xlink:href="#cB"/><use transform="matrix(0.05,0,0,0.05,17.950000000000003,0)" xlink:href="#cD"/><use transform="matrix(0.05,0,0,0.05,30.900000000000006,0)" xlink:href="#cE"/></g><g id="J"><use transform="matrix(0.05,0,0,0.05,0,0)" xlink:href="#cB"/><use transform="matrix(0.05,0,0,0.05,5,0)" xlink:href="#ct"/></g><path d="M194 0L95-120 63-95V0H30v-248h33v124l119-124h40L117-140 236 0h-42" id="cF"/><g id="K"><use transform="matrix(0.05,0,0,0.05,0,0)" xlink:href="#cF"/><use transform="matrix(0.05,0,0,0.05,12,0)" xlink:href="#ck"/><use transform="matrix(0.05,0,0,0.05,22,0)" xlink:href="#cl"/></g><g id="L"><use transform="matrix(0.05,0,0,0.05,0,0)" xlink:href="#cn"/><use transform="matrix(0.05,0,0,0.05,14.950000000000001,0)" xlink:href="#cg"/><use transform="matrix(0.05,0,0,0.05,24.950000000000003,0)" xlink:href="#cl"/><use transform="matrix(0.05,0,0,0.05,33.95,0)" xlink:href="#bE"/><use transform="matrix(0.05,0,0,0.05,38.95,0)" xlink:href="#bD"/><use transform="matrix(0.05,0,0,0.05,48.95,0)" xlink:href="#co"/></g><path d="M106-169C34-169 62-67 57 0H25v-261h32l-1 103c12-21 28-36 61-36 89 0 53 116 60 194h-32v-121c2-32-8-49-39-48" id="cG"/><g id="M"><use transform="matrix(0.05,0,0,0.05,0,0)" xlink:href="#cG"/><use transform="matrix(0.05,0,0,0.05,10,0)" xlink:href="#cg"/><use transform="matrix(0.05,0,0,0.05,20,0)" xlink:href="#cl"/></g><g id="N"><use transform="matrix(0.05,0,0,0.05,0,0)" xlink:href="#cr"/><use transform="matrix(0.05,0,0,0.05,10,0)" xlink:href="#bA"/><use transform="matrix(0.05,0,0,0.05,20,0)" xlink:href="#bB"/><use transform="matrix(0.05,0,0,0.05,30,0)" xlink:href="#cz"/><use transform="matrix(0.05,0,0,0.05,33.95,0)" xlink:href="#cq"/><use transform="matrix(0.05,0,0,0.05,37.900000000000006,0)" xlink:href="#cA"/></g><g id="O"><use transform="matrix(0.05,0,0,0.05,0,0)" xlink:href="#cB"/><use transform="matrix(0.05,0,0,0.05,5,0)" xlink:href="#ct"/></g><g id="P"><use transform="matrix(0.05,0,0,0.05,0,0)" xlink:href="#cq"/><use transform="matrix(0.05,0,0,0.05,3.95,0)" xlink:href="#bC"/></g><g id="Q"><use transform="matrix(0.05,0,0,0.05,0,0)" xlink:href="#bB"/><use transform="matrix(0.05,0,0,0.05,10,0)" xlink:href="#cv"/></g><g id="R"><use transform="matrix(0.05,0,0,0.05,0,0)" xlink:href="#cw"/><use transform="matrix(0.05,0,0,0.05,14,0)" xlink:href="#cu"/><use transform="matrix(0.05,0,0,0.05,26.950000000000003,0)" xlink:href="#ct"/></g><g id="S"><use transform="matrix(0.05,0,0,0.05,0,0)" xlink:href="#bE"/><use transform="matrix(0.05,0,0,0.05,5,0)" xlink:href="#co"/><use transform="matrix(0.05,0,0,0.05,10.95,0)" xlink:href="#bA"/><use transform="matrix(0.05,0,0,0.05,20.95,0)" xlink:href="#cl"/><use transform="matrix(0.05,0,0,0.05,29.950000000000003,0)" xlink:href="#bE"/><use transform="matrix(0.05,0,0,0.05,34.95,0)" xlink:href="#bD"/><use transform="matrix(0.05,0,0,0.05,44.95,0)" xlink:href="#ci"/></g><g id="T"><use transform="matrix(0.05,0,0,0.05,0,0)" xlink:href="#cu"/><use transform="matrix(0.05,0,0,0.05,12.950000000000001,0)" xlink:href="#cB"/><use transform="matrix(0.05,0,0,0.05,17.950000000000003,0)" xlink:href="#cD"/><use transform="matrix(0.05,0,0,0.05,30.900000000000006,0)" xlink:href="#cE"/></g><g id="U"><use transform="matrix(0.05,0,0,0.05,0,0)" xlink:href="#cC"/><use transform="matrix(0.05,0,0,0.05,5,0)" xlink:href="#cp"/><use transform="matrix(0.05,0,0,0.05,15,0)" xlink:href="#co"/></g><path d="M68-38c1 34 0 65-14 84H32c9-13 17-26 17-46H33v-38h35" id="cH"/><g id="V"><use transform="matrix(0.05,0,0,0.05,0,0)" xlink:href="#cj"/><use transform="matrix(0.05,0,0,0.05,9,0)" xlink:href="#bA"/><use transform="matrix(0.05,0,0,0.05,19,0)" xlink:href="#bB"/><use transform="matrix(0.05,0,0,0.05,29,0)" xlink:href="#bD"/><use transform="matrix(0.05,0,0,0.05,39,0)" xlink:href="#cA"/><use transform="matrix(0.05,0,0,0.05,48,0)" xlink:href="#bE"/><use transform="matrix(0.05,0,0,0.05,53,0)" xlink:href="#cz"/><use transform="matrix(0.05,0,0,0.05,56.95,0)" xlink:href="#cH"/></g><path d="M266 0h-40l-56-210L115 0H75L2-248h35L96-30l15-64 43-154h32l59 218 59-218h35" id="cI"/><g id="W"><use transform="matrix(0.05,0,0,0.05,0,0)" xlink:href="#cI"/><use transform="matrix(0.05,0,0,0.05,16.599999999999998,0)" xlink:href="#cp"/><use transform="matrix(0.05,0,0,0.05,26.599999999999994,0)" xlink:href="#co"/><use transform="matrix(0.05,0,0,0.05,32.55,0)" xlink:href="#cj"/><use transform="matrix(0.05,0,0,0.05,41.55,0)" xlink:href="#bD"/><use transform="matrix(0.05,0,0,0.05,51.54999999999999,0)" xlink:href="#co"/></g><g id="X"><use transform="matrix(0.05,0,0,0.05,0,0)" xlink:href="#cp"/><use transform="matrix(0.05,0,0,0.05,10,0)" xlink:href="#bA"/><use transform="matrix(0.05,0,0,0.05,20,0)" xlink:href="#co"/></g><g id="Y"><use transform="matrix(0.05,0,0,0.05,0,0)" xlink:href="#cl"/><use transform="matrix(0.05,0,0,0.05,9,0)" xlink:href="#bA"/><use transform="matrix(0.05,0,0,0.05,19,0)" xlink:href="#bB"/><use transform="matrix(0.05,0,0,0.05,29,0)" xlink:href="#bC"/><use transform="matrix(0.05,0,0,0.05,39,0)" xlink:href="#bD"/><use transform="matrix(0.05,0,0,0.05,49,0)" xlink:href="#bE"/></g><g id="Z"><use transform="matrix(0.05,0,0,0.05,0,0)" xlink:href="#cp"/><use transform="matrix(0.05,0,0,0.05,10,0)" xlink:href="#bC"/><use transform="matrix(0.05,0,0,0.05,20,0)" xlink:href="#cz"/><use transform="matrix(0.05,0,0,0.05,23.95,0)" xlink:href="#cv"/></g><path d="M108 0H70L1-190h34L89-25l56-165h34" id="cJ"/><g id="aa"><use transform="matrix(0.05,0,0,0.05,0,0)" xlink:href="#cG"/><use transform="matrix(0.05,0,0,0.05,10,0)" xlink:href="#cg"/><use transform="matrix(0.05,0,0,0.05,20,0)" xlink:href="#cJ"/><use transform="matrix(0.05,0,0,0.05,29,0)" xlink:href="#bD"/></g><g id="ab"><use transform="matrix(0.05,0,0,0.05,0,0)" xlink:href="#cr"/><use transform="matrix(0.05,0,0,0.05,10,0)" xlink:href="#co"/><use transform="matrix(0.05,0,0,0.05,15.949999999999998,0)" xlink:href="#cq"/><use transform="matrix(0.05,0,0,0.05,19.9,0)" xlink:href="#cJ"/><use transform="matrix(0.05,0,0,0.05,28.899999999999995,0)" xlink:href="#cg"/><use transform="matrix(0.05,0,0,0.05,38.9,0)" xlink:href="#bE"/><use transform="matrix(0.05,0,0,0.05,43.9,0)" xlink:href="#bD"/></g><g id="ac"><use transform="matrix(0.05,0,0,0.05,0,0)" xlink:href="#cB"/><use transform="matrix(0.05,0,0,0.05,5,0)" xlink:href="#ct"/></g><g id="ad"><use transform="matrix(0.05,0,0,0.05,0,0)" xlink:href="#bJ"/><use transform="matrix(0.05,0,0,0.05,11.35,0)" xlink:href="#cI"/><use transform="matrix(0.05,0,0,0.05,28.299999999999997,0)" xlink:href="#bz"/></g><path d="M140-251c81 0 123 46 123 126C263-46 219 4 140 4 59 4 17-45 17-125s42-126 123-126zm0 227c63 0 89-41 89-101s-29-99-89-99c-61 0-89 39-89 99S79-25 140-24" id="cK"/><g id="ae"><use transform="matrix(0.05,0,0,0.05,0,0)" xlink:href="#cu"/><use transform="matrix(0.05,0,0,0.05,12.950000000000001,0)" xlink:href="#bz"/><use transform="matrix(0.05,0,0,0.05,24.950000000000003,0)" xlink:href="#cK"/><use transform="matrix(0.05,0,0,0.05,38.95,0)" xlink:href="#cu"/></g><path d="M9 0v-24l116-142H16v-24h144v24L44-24h123V0H9" id="cL"/><g id="af"><use transform="matrix(0.05,0,0,0.05,0,0)" xlink:href="#bJ"/><use transform="matrix(0.05,0,0,0.05,12,0)" xlink:href="#cn"/><use transform="matrix(0.05,0,0,0.05,26.950000000000003,0)" xlink:href="#cg"/><use transform="matrix(0.05,0,0,0.05,36.95,0)" xlink:href="#cL"/><use transform="matrix(0.05,0,0,0.05,45.95,0)" xlink:href="#cp"/><use transform="matrix(0.05,0,0,0.05,55.95,0)" xlink:href="#bC"/></g><path d="M30 0v-248h187v28H63v79h144v27H63v87h162V0H30" id="cM"/><g id="ag"><use transform="matrix(0.05,0,0,0.05,0,0)" xlink:href="#cM"/><use transform="matrix(0.05,0,0,0.05,12,0)" xlink:href="#cu"/><use transform="matrix(0.05,0,0,0.05,24.950000000000003,0)" xlink:href="#bH"/></g><g id="ah"><use transform="matrix(0.05,0,0,0.05,0,0)" xlink:href="#cl"/><use transform="matrix(0.05,0,0,0.05,9,0)" xlink:href="#cl"/><use transform="matrix(0.05,0,0,0.05,18,0)" xlink:href="#cG"/></g><path d="M24-231v-30h32v30H24zM-9 49c24 4 33-6 33-30v-209h32V24c2 40-23 58-65 49V49" id="cN"/><path d="M198-261c85 0 136 45 136 128 0 61-22 111-78 115-29 2-39-18-37-44-12 23-32 44-66 44-41 0-58-28-58-68 0-60 30-105 88-108 29-1 43 15 54 32l7-28h28c-9 45-23 84-27 134-1 11 6 17 14 16 39-4 51-48 51-92 0-69-42-107-112-107-93 0-145 59-145 153C53-15 94 26 168 27c43 0 78-13 106-28l9 19c-30 18-67 32-115 32C79 50 28-1 28-86c0-107 62-175 170-175zM158-41c46 0 70-43 70-90 0-26-17-40-43-40-44 0-59 41-61 85-1 26 9 45 34 45" id="cO"/><path d="M16-82v-28h88v28H16" id="cP"/><g id="ai"><use transform="matrix(0.05,0,0,0.05,0,0)" xlink:href="#cr"/><use transform="matrix(0.05,0,0,0.05,10,0)" xlink:href="#co"/><use transform="matrix(0.05,0,0,0.05,15.949999999999998,0)" xlink:href="#cp"/><use transform="matrix(0.05,0,0,0.05,25.950000000000003,0)" xlink:href="#cN"/><use transform="matrix(0.05,0,0,0.05,29.899999999999995,0)" xlink:href="#bD"/><use transform="matrix(0.05,0,0,0.05,39.9,0)" xlink:href="#cA"/><use transform="matrix(0.05,0,0,0.05,48.9,0)" xlink:href="#bE"/><use transform="matrix(0.05,0,0,0.05,53.900000000000006,0)" xlink:href="#cO"/><use transform="matrix(0.05,0,0,0.05,72.15,0)" xlink:href="#ch"/><use transform="matrix(0.05,0,0,0.05,82.15,0)" xlink:href="#cA"/><use transform="matrix(0.05,0,0,0.05,91.15,0)" xlink:href="#cr"/><use transform="matrix(0.05,0,0,0.05,101.15,0)" xlink:href="#cP"/><use transform="matrix(0.05,0,0,0.05,107.10000000000001,0)" xlink:href="#cg"/><use transform="matrix(0.05,0,0,0.05,117.10000000000001,0)" xlink:href="#ci"/><use transform="matrix(0.05,0,0,0.05,127.10000000000001,0)" xlink:href="#cn"/><use transform="matrix(0.05,0,0,0.05,142.05,0)" xlink:href="#cq"/><use transform="matrix(0.05,0,0,0.05,146,0)" xlink:href="#bC"/><use transform="matrix(0.05,0,0,0.05,156,0)" xlink:href="#bI"/><use transform="matrix(0.05,0,0,0.05,161,0)" xlink:href="#cA"/><use transform="matrix(0.05,0,0,0.05,170,0)" xlink:href="#cl"/><use transform="matrix(0.05,0,0,0.05,179,0)" xlink:href="#cp"/><use transform="matrix(0.05,0,0,0.05,189,0)" xlink:href="#cA"/></g><g id="aj"><use transform="matrix(0.05,0,0,0.05,0,0)" xlink:href="#bJ"/><use transform="matrix(0.05,0,0,0.05,12,0)" xlink:href="#ci"/><use transform="matrix(0.05,0,0,0.05,22,0)" xlink:href="#cn"/><use transform="matrix(0.05,0,0,0.05,36.95,0)" xlink:href="#cq"/><use transform="matrix(0.05,0,0,0.05,40.900000000000006,0)" xlink:href="#bC"/></g><g id="ak"><use transform="matrix(0.05,0,0,0.05,0,0)" xlink:href="#cs"/><use transform="matrix(0.05,0,0,0.05,12,0)" xlink:href="#cf"/></g><path d="M206 0h-36l-40-164L89 0H53L-1-190h32L70-26l43-164h34l41 164 42-164h31" id="cQ"/><g id="al"><use transform="matrix(0.05,0,0,0.05,0,0)" xlink:href="#cQ"/><use transform="matrix(0.05,0,0,0.05,12.950000000000001,0)" xlink:href="#cq"/><use transform="matrix(0.05,0,0,0.05,16.900000000000002,0)" xlink:href="#bE"/><use transform="matrix(0.05,0,0,0.05,21.900000000000002,0)" xlink:href="#cG"/></g><g id="am"><use transform="matrix(0.05,0,0,0.05,0,0)" xlink:href="#cr"/><use transform="matrix(0.05,0,0,0.05,10,0)" xlink:href="#bA"/><use transform="matrix(0.05,0,0,0.05,20,0)" xlink:href="#bB"/><use transform="matrix(0.05,0,0,0.05,30,0)" xlink:href="#cz"/><use transform="matrix(0.05,0,0,0.05,33.95,0)" xlink:href="#cq"/><use transform="matrix(0.05,0,0,0.05,37.900000000000006,0)" xlink:href="#cA"/></g><g id="an"><use transform="matrix(0.05,0,0,0.05,0,0)" xlink:href="#cB"/><use transform="matrix(0.05,0,0,0.05,5,0)" xlink:href="#ct"/><use transform="matrix(0.05,0,0,0.05,14.699999999999998,0)" xlink:href="#cH"/></g><g id="ao"><use transform="matrix(0.05,0,0,0.05,0,0)" xlink:href="#bB"/><use transform="matrix(0.05,0,0,0.05,10,0)" xlink:href="#bA"/><use transform="matrix(0.05,0,0,0.05,20,0)" xlink:href="#bE"/></g><g id="ap"><use transform="matrix(0.05,0,0,0.05,0,0)" xlink:href="#cp"/><use transform="matrix(0.05,0,0,0.05,10,0)" xlink:href="#bC"/><use transform="matrix(0.05,0,0,0.05,20,0)" xlink:href="#cz"/><use transform="matrix(0.05,0,0,0.05,23.95,0)" xlink:href="#cv"/></g><g id="aq"><use transform="matrix(0.05,0,0,0.05,0,0)" xlink:href="#cJ"/><use transform="matrix(0.05,0,0,0.05,9,0)" xlink:href="#cq"/><use transform="matrix(0.05,0,0,0.05,12.949999999999998,0)" xlink:href="#cg"/></g><g id="ar"><use transform="matrix(0.05,0,0,0.05,0,0)" xlink:href="#cs"/><use transform="matrix(0.05,0,0,0.05,12,0)" xlink:href="#ct"/><use transform="matrix(0.05,0,0,0.05,24,0)" xlink:href="#cx"/><use transform="matrix(0.05,0,0,0.05,36.95,0)" xlink:href="#bI"/></g><g id="as"><use transform="matrix(0.05,0,0,0.05,0,0)" xlink:href="#ct"/><use transform="matrix(0.05,0,0,0.05,12,0)" xlink:href="#bA"/><use transform="matrix(0.05,0,0,0.05,22,0)" xlink:href="#bB"/><use transform="matrix(0.05,0,0,0.05,32,0)" xlink:href="#cz"/><use transform="matrix(0.05,0,0,0.05,35.95,0)" xlink:href="#cq"/><use transform="matrix(0.05,0,0,0.05,39.900000000000006,0)" xlink:href="#cA"/></g><g id="at"><use transform="matrix(0.05,0,0,0.05,0,0)" xlink:href="#cB"/><use transform="matrix(0.05,0,0,0.05,5,0)" xlink:href="#ct"/></g><g id="au"><use transform="matrix(0.05,0,0,0.05,0,0)" xlink:href="#co"/><use transform="matrix(0.05,0,0,0.05,5.95,0)" xlink:href="#bD"/><use transform="matrix(0.05,0,0,0.05,15.949999999999998,0)" xlink:href="#ch"/><use transform="matrix(0.05,0,0,0.05,25.950000000000003,0)" xlink:href="#cq"/><use transform="matrix(0.05,0,0,0.05,29.899999999999995,0)" xlink:href="#cl"/><use transform="matrix(0.05,0,0,0.05,38.9,0)" xlink:href="#bE"/><use transform="matrix(0.05,0,0,0.05,43.9,0)" xlink:href="#bD"/><use transform="matrix(0.05,0,0,0.05,53.900000000000006,0)" xlink:href="#co"/><use transform="matrix(0.05,0,0,0.05,59.85,0)" xlink:href="#bD"/><use transform="matrix(0.05,0,0,0.05,69.85,0)" xlink:href="#ci"/></g><g id="av"><use transform="matrix(0.05,0,0,0.05,0,0)" xlink:href="#cg"/><use transform="matrix(0.05,0,0,0.05,10,0)" xlink:href="#cl"/></g><g id="aw"><use transform="matrix(0.05,0,0,0.05,0,0)" xlink:href="#cm"/><use transform="matrix(0.05,0,0,0.05,6.3500000000000005,0)" xlink:href="#cg"/><use transform="matrix(0.05,0,0,0.05,16.35,0)" xlink:href="#bA"/><use transform="matrix(0.05,0,0,0.05,26.35,0)" xlink:href="#bE"/><use transform="matrix(0.05,0,0,0.05,31.35,0)" xlink:href="#cG"/><use transform="matrix(0.05,0,0,0.05,41.35,0)" xlink:href="#cp"/><use transform="matrix(0.05,0,0,0.05,51.35,0)" xlink:href="#co"/><use transform="matrix(0.05,0,0,0.05,57.300000000000004,0)" xlink:href="#cq"/><use transform="matrix(0.05,0,0,0.05,61.25,0)" xlink:href="#cL"/><use transform="matrix(0.05,0,0,0.05,70.25,0)" xlink:href="#bD"/><use transform="matrix(0.05,0,0,0.05,80.25,0)" xlink:href="#ci"/></g><g id="ax"><use transform="matrix(0.05,0,0,0.05,0,0)" xlink:href="#cu"/><use transform="matrix(0.05,0,0,0.05,12.950000000000001,0)" xlink:href="#cB"/><use transform="matrix(0.05,0,0,0.05,17.950000000000003,0)" xlink:href="#cD"/><use transform="matrix(0.05,0,0,0.05,30.900000000000006,0)" xlink:href="#cE"/><use transform="matrix(0.05,0,0,0.05,43.85000000000001,0)" xlink:href="#cm"/></g><g id="ay"><use transform="matrix(0.05,0,0,0.05,0,0)" xlink:href="#cg"/><use transform="matrix(0.05,0,0,0.05,10,0)" xlink:href="#cA"/><use transform="matrix(0.05,0,0,0.05,19,0)" xlink:href="#cA"/><use transform="matrix(0.05,0,0,0.05,28,0)" xlink:href="#bD"/><use transform="matrix(0.05,0,0,0.05,38,0)" xlink:href="#cl"/><use transform="matrix(0.05,0,0,0.05,47,0)" xlink:href="#cl"/><use transform="matrix(0.05,0,0,0.05,56,0)" xlink:href="#cq"/><use transform="matrix(0.05,0,0,0.05,59.95,0)" xlink:href="#bC"/><use transform="matrix(0.05,0,0,0.05,69.95,0)" xlink:href="#ch"/></g><g id="az"><use transform="matrix(0.05,0,0,0.05,0,0)" xlink:href="#cw"/><use transform="matrix(0.05,0,0,0.05,14,0)" xlink:href="#cu"/><use transform="matrix(0.05,0,0,0.05,26.950000000000003,0)" xlink:href="#ct"/></g><g id="aA"><use transform="matrix(0.05,0,0,0.05,0,0)" xlink:href="#cj"/><use transform="matrix(0.05,0,0,0.05,9,0)" xlink:href="#bA"/><use transform="matrix(0.05,0,0,0.05,19,0)" xlink:href="#bB"/><use transform="matrix(0.05,0,0,0.05,29,0)" xlink:href="#bD"/><use transform="matrix(0.05,0,0,0.05,39,0)" xlink:href="#cA"/><use transform="matrix(0.05,0,0,0.05,48,0)" xlink:href="#bE"/><use transform="matrix(0.05,0,0,0.05,53,0)" xlink:href="#cz"/></g><g id="aB"><use transform="matrix(0.05,0,0,0.05,0,0)" xlink:href="#cg"/><use transform="matrix(0.05,0,0,0.05,10,0)" xlink:href="#bC"/><use transform="matrix(0.05,0,0,0.05,20,0)" xlink:href="#ci"/></g><path d="M145-31C134-9 116 4 85 4 32 4 16-35 15-94c0-59 17-99 70-100 32-1 48 14 60 33 0-11-1-24 2-32h30l-1 268h-32zM93-21c41 0 51-33 51-76s-8-73-50-73c-40 0-46 35-46 75s5 74 45 74" id="cR"/><g id="aC"><use transform="matrix(0.05,0,0,0.05,0,0)" xlink:href="#cr"/><use transform="matrix(0.05,0,0,0.05,10,0)" xlink:href="#cl"/><use transform="matrix(0.05,0,0,0.05,19,0)" xlink:href="#cR"/><use transform="matrix(0.05,0,0,0.05,29,0)" xlink:href="#cz"/></g><g id="aD"><use transform="matrix(0.05,0,0,0.05,0,0)" xlink:href="#bD"/><use transform="matrix(0.05,0,0,0.05,10,0)" xlink:href="#bC"/><use transform="matrix(0.05,0,0,0.05,20,0)" xlink:href="#ci"/><use transform="matrix(0.05,0,0,0.05,30,0)" xlink:href="#cr"/><use transform="matrix(0.05,0,0,0.05,40,0)" xlink:href="#cp"/><use transform="matrix(0.05,0,0,0.05,50,0)" xlink:href="#cq"/><use transform="matrix(0.05,0,0,0.05,53.95,0)" xlink:href="#bC"/><use transform="matrix(0.05,0,0,0.05,63.95,0)" xlink:href="#bE"/><use transform="matrix(0.05,0,0,0.05,68.95,0)" xlink:href="#cl"/></g><g id="aE"><use transform="matrix(0.05,0,0,0.05,0,0)" xlink:href="#bE"/><use transform="matrix(0.05,0,0,0.05,5,0)" xlink:href="#bD"/><use transform="matrix(0.05,0,0,0.05,15,0)" xlink:href="#co"/><use transform="matrix(0.05,0,0,0.05,20.95,0)" xlink:href="#co"/><use transform="matrix(0.05,0,0,0.05,26.899999999999995,0)" xlink:href="#cg"/><use transform="matrix(0.05,0,0,0.05,36.9,0)" xlink:href="#cC"/><use transform="matrix(0.05,0,0,0.05,41.9,0)" xlink:href="#cp"/><use transform="matrix(0.05,0,0,0.05,51.900000000000006,0)" xlink:href="#co"/><use transform="matrix(0.05,0,0,0.05,57.85,0)" xlink:href="#cn"/><use transform="matrix(0.05,0,0,0.05,72.8,0)" xlink:href="#cH"/></g><g id="aF"><use transform="matrix(0.05,0,0,0.05,0,0)" xlink:href="#cj"/><use transform="matrix(0.05,0,0,0.05,9,0)" xlink:href="#bA"/><use transform="matrix(0.05,0,0,0.05,19,0)" xlink:href="#bB"/><use transform="matrix(0.05,0,0,0.05,29,0)" xlink:href="#bD"/><use transform="matrix(0.05,0,0,0.05,39,0)" xlink:href="#cA"/><use transform="matrix(0.05,0,0,0.05,48,0)" xlink:href="#bE"/><use transform="matrix(0.05,0,0,0.05,53,0)" xlink:href="#cz"/><use transform="matrix(0.05,0,0,0.05,56.95,0)" xlink:href="#cH"/></g><g id="aG"><use transform="matrix(0.05,0,0,0.05,0,0)" xlink:href="#cr"/><use transform="matrix(0.05,0,0,0.05,10,0)" xlink:href="#cl"/><use transform="matrix(0.05,0,0,0.05,19,0)" xlink:href="#cR"/><use transform="matrix(0.05,0,0,0.05,29,0)" xlink:href="#cz"/><use transform="matrix(0.05,0,0,0.05,32.95,0)" xlink:href="#cH"/></g><g id="aH"><use transform="matrix(0.05,0,0,0.05,0,0)" xlink:href="#ch"/><use transform="matrix(0.05,0,0,0.05,10,0)" xlink:href="#cA"/><use transform="matrix(0.05,0,0,0.05,19,0)" xlink:href="#cz"/><use transform="matrix(0.05,0,0,0.05,22.95,0)" xlink:href="#cp"/><use transform="matrix(0.05,0,0,0.05,32.95,0)" xlink:href="#bA"/><use transform="matrix(0.05,0,0,0.05,42.95,0)" xlink:href="#ci"/></g><g id="aI"><use transform="matrix(0.05,0,0,0.05,0,0)" xlink:href="#cm"/><use transform="matrix(0.05,0,0,0.05,6.3500000000000005,0)" xlink:href="#cQ"/><use transform="matrix(0.05,0,0,0.05,19.3,0)" xlink:href="#cp"/><use transform="matrix(0.05,0,0,0.05,29.3,0)" xlink:href="#co"/><use transform="matrix(0.05,0,0,0.05,35.25,0)" xlink:href="#cj"/><use transform="matrix(0.05,0,0,0.05,44.25,0)" xlink:href="#bD"/><use transform="matrix(0.05,0,0,0.05,54.25,0)" xlink:href="#co"/><use transform="matrix(0.05,0,0,0.05,60.2,0)" xlink:href="#cm"/></g><g id="aJ"><use transform="matrix(0.05,0,0,0.05,0,0)" xlink:href="#cp"/><use transform="matrix(0.05,0,0,0.05,10,0)" xlink:href="#bA"/><use transform="matrix(0.05,0,0,0.05,20,0)" xlink:href="#co"/></g><g id="aK"><use transform="matrix(0.05,0,0,0.05,0,0)" xlink:href="#cl"/><use transform="matrix(0.05,0,0,0.05,9,0)" xlink:href="#bA"/><use transform="matrix(0.05,0,0,0.05,19,0)" xlink:href="#bB"/><use transform="matrix(0.05,0,0,0.05,29,0)" xlink:href="#bC"/><use transform="matrix(0.05,0,0,0.05,39,0)" xlink:href="#bD"/><use transform="matrix(0.05,0,0,0.05,49,0)" xlink:href="#bE"/><use transform="matrix(0.05,0,0,0.05,54,0)" xlink:href="#cH"/></g><g id="aL"><use transform="matrix(0.05,0,0,0.05,0,0)" xlink:href="#cs"/><use transform="matrix(0.05,0,0,0.05,12,0)" xlink:href="#ct"/><use transform="matrix(0.05,0,0,0.05,24,0)" xlink:href="#cu"/></g><g id="aM"><use transform="matrix(0.05,0,0,0.05,0,0)" xlink:href="#ct"/><use transform="matrix(0.05,0,0,0.05,12,0)" xlink:href="#bD"/><use transform="matrix(0.05,0,0,0.05,22,0)" xlink:href="#bD"/><use transform="matrix(0.05,0,0,0.05,32,0)" xlink:href="#co"/><use transform="matrix(0.05,0,0,0.05,37.95,0)" xlink:href="#cq"/><use transform="matrix(0.05,0,0,0.05,41.900000000000006,0)" xlink:href="#bC"/><use transform="matrix(0.05,0,0,0.05,51.900000000000006,0)" xlink:href="#ch"/></g><g id="aN"><use transform="matrix(0.0087890625,0,0,0.0087890625,0,0)" xlink:href="#bU"/><use transform="matrix(0.0087890625,0,0,0.0087890625,9.685546875,0)" xlink:href="#bP"/><use transform="matrix(0.0087890625,0,0,0.0087890625,19.951171875,0)" xlink:href="#bX"/><use transform="matrix(0.0087890625,0,0,0.0087890625,29.7421875,0)" xlink:href="#bR"/></g><path d="M1160-420C1159-145 963 0 674 0H169v-1456h476c294-1 476 112 476 388 0 153-99 253-216 302 146 38 255 167 255 346zM678-157c171 2 289-95 289-261 0-175-95-263-286-263H361v524h317zm250-912c-2-172-104-229-283-229H361v463h290c157 3 278-84 277-234" id="cS"/><path d="M277-555c0 244 77 420 297 424 127 2 249-93 255-210h175C980-127 805 20 574 20 258 20 81-222 92-562c11-319 164-533 481-540 237-5 426 165 431 392H829c-7-133-115-242-256-240-209 4-296 166-296 395" id="cT"/><g id="aO"><use transform="matrix(0.0087890625,0,0,0.0087890625,0,0)" xlink:href="#cS"/><use transform="matrix(0.0087890625,0,0,0.0087890625,11.2060546875,0)" xlink:href="#bX"/><use transform="matrix(0.0087890625,0,0,0.0087890625,20.9970703125,0)" xlink:href="#bO"/><use transform="matrix(0.0087890625,0,0,0.0087890625,25.365234375,0)" xlink:href="#bX"/><use transform="matrix(0.0087890625,0,0,0.0087890625,35.15625,0)" xlink:href="#bV"/><use transform="matrix(0.0087890625,0,0,0.0087890625,45.087890625,0)" xlink:href="#cT"/><use transform="matrix(0.0087890625,0,0,0.0087890625,54.509765625,0)" xlink:href="#bY"/><use transform="matrix(0.0087890625,0,0,0.0087890625,58.8779296875,0)" xlink:href="#bV"/><use transform="matrix(0.0087890625,0,0,0.0087890625,68.8095703125,0)" xlink:href="#cc"/></g><path d="M538-131c121 0 232-49 232-156 0-50-20-88-56-117-73-60-334-92-420-143-92-55-162-110-162-238 0-190 192-317 400-317 223 0 414 129 413 338H759c0-108-110-186-227-186-119 0-215 53-215 159 0 45 18 78 53 101 76 52 331 90 416 139 98 57 169 115 169 251C955-92 760 20 538 20c-176 0-314-68-386-174-38-55-57-115-57-179h185c6 129 116 202 258 202" id="cU"/><g id="aQ"><use transform="matrix(0.0065107421875,0,0,0.0065107421875,0,0)" xlink:href="#bN"/><use transform="matrix(0.0065107421875,0,0,0.0065107421875,8.678819335937499,0)" xlink:href="#bP"/><use transform="matrix(0.0065107421875,0,0,0.0065107421875,16.283366210937498,0)" xlink:href="#cd"/><use transform="matrix(0.0065107421875,0,0,0.0065107421875,27.9701484375,0)" xlink:href="#cd"/><use transform="matrix(0.0065107421875,0,0,0.0065107421875,39.6569306640625,0)" xlink:href="#bP"/><use transform="matrix(0.0065107421875,0,0,0.0065107421875,47.2614775390625,0)" xlink:href="#bV"/><use transform="matrix(0.0065107421875,0,0,0.0065107421875,54.618616210937496,0)" xlink:href="#cU"/></g><path d="M665-137c214 0 337-121 336-332v-987h193v990c-3 300-218 486-529 486-309 0-526-181-525-484v-992h190v986c-1 210 123 333 335 333" id="cV"/><g id="aR"><use transform="matrix(0.0065107421875,0,0,0.0065107421875,0,0)" xlink:href="#cV"/><use transform="matrix(0.0065107421875,0,0,0.0065107421875,8.646265625,0)" xlink:href="#cU"/><use transform="matrix(0.0065107421875,0,0,0.0065107421875,15.521609374999999,0)" xlink:href="#bZ"/><use transform="matrix(0.0065107421875,0,0,0.0065107421875,22.5857646484375,0)" xlink:href="#ca"/></g><filter id="aP" filterUnits="objectBoundingBox" x="-.02" y="0" width="1.03" height="1.02"><feOffset result="offOut" in="SourceAlpha" dy="1"/><feGaussianBlur result="blurOut" in="offOut" stdDeviation=".75"/><feColorMatrix result="colorOut" in="blurOut" values="0 0 0 0 0 0 0 0 0 0 0 0 0 0 0 0 0 0 0.4 0"/><feBlend in="SourceGraphic" in2="colorOut"/></filter><path d="M30 0v-248h33v221h125V0H30" id="cW"/><g id="aS"><use transform="matrix(0.05,0,0,0.05,0,0)" xlink:href="#cW"/><use transform="matrix(0.05,0,0,0.05,10,0)" xlink:href="#cp"/><use transform="matrix(0.05,0,0,0.05,20,0)" xlink:href="#cg"/><use transform="matrix(0.05,0,0,0.05,30,0)" xlink:href="#ci"/></g><g id="aT"><use transform="matrix(0.05,0,0,0.05,0,0)" xlink:href="#bB"/><use transform="matrix(0.05,0,0,0.05,10,0)" xlink:href="#cg"/><use transform="matrix(0.05,0,0,0.05,20,0)" xlink:href="#cz"/><use transform="matrix(0.05,0,0,0.05,23.95,0)" xlink:href="#cg"/><use transform="matrix(0.05,0,0,0.05,33.95,0)" xlink:href="#bC"/><use transform="matrix(0.05,0,0,0.05,43.95,0)" xlink:href="#cA"/><use transform="matrix(0.05,0,0,0.05,52.95,0)" xlink:href="#bD"/><use transform="matrix(0.05,0,0,0.05,62.95,0)" xlink:href="#co"/></g><g id="aU"><use transform="matrix(0.05,0,0,0.05,0,0)" xlink:href="#cA"/><use transform="matrix(0.05,0,0,0.05,9,0)" xlink:href="#co"/><use transform="matrix(0.05,0,0,0.05,14.949999999999998,0)" xlink:href="#bD"/><use transform="matrix(0.05,0,0,0.05,24.95,0)" xlink:href="#cg"/><use transform="matrix(0.05,0,0,0.05,34.95,0)" xlink:href="#bE"/><use transform="matrix(0.05,0,0,0.05,39.95,0)" xlink:href="#bD"/><use transform="matrix(0.05,0,0,0.05,49.95,0)" xlink:href="#ci"/></g><g id="aV"><use transform="matrix(0.05,0,0,0.05,0,0)" xlink:href="#bB"/><use transform="matrix(0.05,0,0,0.05,10,0)" xlink:href="#cv"/></g><path d="M141 0L90-78 38 0H4l68-98-65-92h35l48 74 47-74h35l-64 92 68 98h-35" id="cX"/><g id="aW"><use transform="matrix(0.05,0,0,0.05,0,0)" xlink:href="#co"/><use transform="matrix(0.05,0,0,0.05,5.95,0)" xlink:href="#bD"/><use transform="matrix(0.05,0,0,0.05,15.949999999999998,0)" xlink:href="#cJ"/><use transform="matrix(0.05,0,0,0.05,24.95,0)" xlink:href="#cr"/><use transform="matrix(0.05,0,0,0.05,34.95,0)" xlink:href="#co"/><use transform="matrix(0.05,0,0,0.05,40.900000000000006,0)" xlink:href="#cp"/><use transform="matrix(0.05,0,0,0.05,50.900000000000006,0)" xlink:href="#cX"/><use transform="matrix(0.05,0,0,0.05,59.900000000000006,0)" xlink:href="#cv"/></g><g id="aX"><use transform="matrix(0.05,0,0,0.05,0,0)" xlink:href="#cj"/><use transform="matrix(0.05,0,0,0.05,9,0)" xlink:href="#ck"/><use transform="matrix(0.05,0,0,0.05,19,0)" xlink:href="#cl"/></g><g id="aY"><use transform="matrix(0.05,0,0,0.05,0,0)" xlink:href="#cl"/><use transform="matrix(0.05,0,0,0.05,9,0)" xlink:href="#bD"/><use transform="matrix(0.05,0,0,0.05,19,0)" xlink:href="#co"/><use transform="matrix(0.05,0,0,0.05,24.95,0)" xlink:href="#cJ"/><use transform="matrix(0.05,0,0,0.05,33.95,0)" xlink:href="#cq"/><use transform="matrix(0.05,0,0,0.05,37.900000000000006,0)" xlink:href="#cA"/><use transform="matrix(0.05,0,0,0.05,46.900000000000006,0)" xlink:href="#bD"/></g></defs></g></svg>